<svg xmlns="http://www.w3.org/2000/svg" viewBox="0 0 600 3580">
  <defs>
    <style type="text/css">
      @import url('https://rsms.me/inter/inter.css');
      text {
        font-family: Inter, -apple-system, BlinkMacSystemFont, "Segoe UI", Roboto, Helvetica, Arial, sans-serif, "Apple Color Emoji", "Segoe UI Emoji", "Segoe UI Symbol";
        font-size: 40px;
        font-weight: 900;
      }
    </style>
  </defs>
  <rect fill="#212121" x="0" y="0" width="600" height="3580"/>
  <text x="40" y="90" fill="#73fdff">Ancient Ice</text><text x="40" y="160" fill="#483c32">Ancient Lavastone</text><text x="40" y="230" fill="#eaeeda">Bethlehem Superstar</text><text x="40" y="300" fill="#e7dbe1">Bōsōzoku Pink</text><text x="40" y="370" fill="#3f4551">Dark Crypt</text><text x="40" y="440" fill="#004b49">Deep into the Jungle</text><text x="40" y="510" fill="#001100">Downwell</text><text x="40" y="580" fill="#ef3038">Dungeon Keeper</text><text x="40" y="650" fill="#fae3e3">Eased Pink</text><text x="40" y="720" fill="#f9f1dd">Exclusive Elixir</text><text x="40" y="790" fill="#f9eed6">Flashlight</text><text x="40" y="860" fill="#110044">Floppy Disk</text><text x="40" y="930" fill="#856363">Forbidden Thrill</text><text x="40" y="1000" fill="#53fe5c">Green Katamari</text><text x="40" y="1070" fill="#acdcee">Homeworld</text><text x="40" y="1140" fill="#bb0033">Hot Cuba</text><text x="40" y="1210" fill="#d8e4e7">Inuit Blue</text><text x="40" y="1280" fill="#d1cdd0">Inuit White</text><text x="40" y="1350" fill="#ad6d68">Jabłoński Brown</text><text x="40" y="1420" fill="#536871">Jabłoński Grey</text><text x="40" y="1490" fill="#53665a">Jungle Camouflage</text><text x="40" y="1560" fill="#36716f">Jungle Noises</text><text x="40" y="1630" fill="#6e6e5c">Lazy Lichen</text><text x="40" y="1700" fill="#f5c71a">Leery Lemon</text><text x="40" y="1770" fill="#9955bb">Liberal Lilac</text><text x="40" y="1840" fill="#d5b60a">Lieonhead</text><text x="40" y="1910" fill="#f7e0e1">Lighthearted</text><text x="40" y="1980" fill="#e1ecd9">Lime Glow</text><text x="40" y="2050" fill="#cc2222">Lionheart</text><text x="40" y="2120" fill="#014426">Lost in the Woods</text><text x="40" y="2190" fill="#8d828c">Lost Lavender Somewhere</text><text x="40" y="2260" fill="#8d5eb7">Lusty Lavender</text><text x="40" y="2330" fill="#f8e888">No$GMB Yellow</text><text x="40" y="2400" fill="#ebebd7">Pale Rebelka Jakub</text><text x="40" y="2470" fill="#f0dce3">Piggyback</text><text x="40" y="2540" fill="#eede73">PikachuChu</text><text x="40" y="2610" fill="#e66771">Purehearted</text><text x="40" y="2680" fill="#e9dbdf">Relieved Red</text><text x="40" y="2750" fill="#dcd9db">Salt n Pepa</text><text x="40" y="2820" fill="#f0e0d4">Samba de Coco</text><text x="40" y="2890" fill="#1a2421">Shadow Warrior</text><text x="40" y="2960" fill="#f9f5da">Skullfire</text><text x="40" y="3030" fill="#222255">Spacescape</text><text x="40" y="3100" fill="#f9f1d7">Speeding Ticket</text><text x="40" y="3170" fill="#fde7e3">Spirited Away</text><text x="40" y="3240" fill="#918151">Syndicate Camouflage</text><text x="40" y="3310" fill="#3a2efe">System Shock Blue</text><text x="40" y="3380" fill="#98f6b0">Tenacious Tentacles</text><text x="40" y="3450" fill="#ecf3d8">Tokyo Underground</text><text x="40" y="3520" fill="#fbe7e6">Unburdened Pink</text>
</svg>