<svg xmlns="http://www.w3.org/2000/svg" viewBox="0 0 600 2180">
  <defs>
    <style type="text/css">
      @import url('https://rsms.me/inter/inter.css');
      text {
        font-family: Inter, -apple-system, BlinkMacSystemFont, "Segoe UI", Roboto, Helvetica, Arial, sans-serif, "Apple Color Emoji", "Segoe UI Emoji", "Segoe UI Symbol";
        font-size: 40px;
        font-weight: 900;
      }
    </style>
  </defs>
  <rect fill="#212121" x="0" y="0" width="600" height="2180"/>
  <text x="40" y="90" fill="#ec0003">Alarm</text><text x="40" y="160" fill="#a85d2e">Beef Hotpot</text><text x="40" y="230" fill="#eff2f1">Beluga</text><text x="40" y="300" fill="#95c703">Bergamot</text><text x="40" y="370" fill="#0ac2c2">Cala Benirrás Blue</text><text x="40" y="440" fill="#c39355">Caramel Crumb</text><text x="40" y="510" fill="#f0e093">Cheesy Frittata</text><text x="40" y="580" fill="#88bb66">Cold Spring</text><text x="40" y="650" fill="#001000">Cosmic Bit Flip</text><text x="40" y="720" fill="#551155">Cosmic Explorer</text><text x="40" y="790" fill="#151931">Dark Knight</text><text x="40" y="860" fill="#f2b717">Dent Corn</text><text x="40" y="930" fill="#bfb6a3">Dusty Attic</text><text x="40" y="1000" fill="#9b101f">Estroruby</text><text x="40" y="1070" fill="#dd5533">Frozen Tomato</text><text x="40" y="1140" fill="#e8ce49">Golden Relic</text><text x="40" y="1210" fill="#f7eb83">Golden Staff</text><text x="40" y="1280" fill="#ff6633">Halt and Catch Fire</text><text x="40" y="1350" fill="#174871">Hopi Blue Corn</text><text x="40" y="1420" fill="#44aa77">Jubilant Jade</text><text x="40" y="1490" fill="#6d2a13">Moussaka</text><text x="40" y="1560" fill="#e39b7a">Mozzarella Covered Chorizo</text><text x="40" y="1630" fill="#e02e82">Mystic Magenta</text><text x="40" y="1700" fill="#087e34">Pharmaceutical Green</text><text x="40" y="1770" fill="#fed56f">Quiche Lorraine</text><text x="40" y="1840" fill="#ffe0de">Red Remains</text><text x="40" y="1910" fill="#e1e5e5">Shaving Cream</text><text x="40" y="1980" fill="#8e9090">Silver Snippet</text><text x="40" y="2050" fill="#e7e9e3">Spoonful of Sugar</text><text x="40" y="2120" fill="#057bc1">Star of Life</text>
</svg>