<svg xmlns="http://www.w3.org/2000/svg" viewBox="0 0 600 4140">
  <defs>
    <style type="text/css">
      @import url('https://rsms.me/inter/inter.css');
      text {
        font-family: Inter, -apple-system, BlinkMacSystemFont, "Segoe UI", Roboto, Helvetica, Arial, sans-serif, "Apple Color Emoji", "Segoe UI Emoji", "Segoe UI Symbol";
        font-size: 40px;
        font-weight: 900;
      }
    </style>
  </defs>
  <rect fill="#212121" x="0" y="0" width="600" height="4140"/>
  <text x="40" y="90" fill="#ffaabb">A Brand New Day</text><text x="40" y="160" fill="#ff9988">Amber Sun</text><text x="40" y="230" fill="#0000bb">Antarctic Circle</text><text x="40" y="300" fill="#55eeff">Bioluminescence</text><text x="40" y="370" fill="#4499cc">Blessed Blue</text><text x="40" y="440" fill="#0022dd">Blue Angel</text><text x="40" y="510" fill="#ff1166">Burning Fireflies</text><text x="40" y="580" fill="#657d82">Catfish</text><text x="40" y="650" fill="#332277">Deep Space Rodeo</text><text x="40" y="720" fill="#ff4422">Dynamite</text><text x="40" y="790" fill="#b6dff4">Echo Iris</text><text x="40" y="860" fill="#febcad">Egyptian Javelin</text><text x="40" y="930" fill="#0011aa">Extravehicular Activity</text><text x="40" y="1000" fill="#ff99aa">Fight the Sunrise</text><text x="40" y="1070" fill="#dd8888">Finnest Blush</text><text x="40" y="1140" fill="#dd5522">Firebird Taillights</text><text x="40" y="1210" fill="#3311bb">Galactic Highway</text><text x="40" y="1280" fill="#ff1155">Golden Blood</text><text x="40" y="1350" fill="#cd1102">Highway to Hell</text><text x="40" y="1420" fill="#e9f6e2">Homeopathic Lime</text><text x="40" y="1490" fill="#bbeeff">Ice Effect</text><text x="40" y="1560" fill="#0011ff">Icelandic Water</text><text x="40" y="1630" fill="#55ffee">Icy Life</text><text x="40" y="1700" fill="#0022ff">Is It Cold</text><text x="40" y="1770" fill="#8d9ca7">Lost at Sea</text><text x="40" y="1840" fill="#002489">Lost in Heaven</text><text x="40" y="1910" fill="#e9f6e0">Lush Life</text><text x="40" y="1980" fill="#447788">Majestic Mountain</text><text x="40" y="2050" fill="#dd8866">Midnight in Saigon</text><text x="40" y="2120" fill="#000088">Midnight in Tokyo</text><text x="40" y="2190" fill="#002266">Midnight Melancholia</text><text x="40" y="2260" fill="#0011ee">Midsummer Nights</text><text x="40" y="2330" fill="#bebec4">Moonwalk</text><text x="40" y="2400" fill="#117733">Nature's Strength</text><text x="40" y="2470" fill="#0011dd">Nightfall in Suburbia</text><text x="40" y="2540" fill="#ff2277">Office Neon Light</text><text x="40" y="2610" fill="#eff5dc">Old Kitchen White</text><text x="40" y="2680" fill="#eff4dc">Overexposed Shot</text><text x="40" y="2750" fill="#225511">Patch of Land</text><text x="40" y="2820" fill="#eaeaea">Plaster</text><text x="40" y="2890" fill="#e1eaec">Plaster Cast</text><text x="40" y="2960" fill="#550011">Saving Light</text><text x="40" y="3030" fill="#4499ff">Sky Dancer</text><text x="40" y="3100" fill="#0022ee">Slice of Heaven</text><text x="40" y="3170" fill="#001188">Snowstorm Space Shuttle</text><text x="40" y="3240" fill="#002299">Space Dust</text><text x="40" y="3310" fill="#001199">Space Exploration</text><text x="40" y="3380" fill="#cbeaee">Summer Mist</text><text x="40" y="3450" fill="#002288">There Is Light</text><text x="40" y="3520" fill="#f9f5db">Thunder & Lightning</text><text x="40" y="3590" fill="#ee5522">Tilted Pinball</text><text x="40" y="3660" fill="#0011bb">Too Dark Tonight</text><text x="40" y="3730" fill="#ddf5e7">Treacherous Blizzard</text><text x="40" y="3800" fill="#0022bb">Underwater Falling</text><text x="40" y="3870" fill="#6e706d">Up in Smoke</text><text x="40" y="3940" fill="#f0ffff">Vapor</text><text x="40" y="4010" fill="#0011cc">Vesper</text><text x="40" y="4080" fill="#1188cc">Way Beyond the Blue</text>
</svg>