<svg xmlns="http://www.w3.org/2000/svg" viewBox="0 0 600 2460">
  <defs>
    <style type="text/css">
      @import url('https://rsms.me/inter/inter.css');
      text {
        font-family: Inter, -apple-system, BlinkMacSystemFont, "Segoe UI", Roboto, Helvetica, Arial, sans-serif, "Apple Color Emoji", "Segoe UI Emoji", "Segoe UI Symbol";
        font-size: 40px;
        font-weight: 900;
      }
    </style>
  </defs>
  <rect fill="#212121" x="0" y="0" width="600" height="2460"/>
  <text x="40" y="90" fill="#ece6d0">Abbey White</text><text x="40" y="160" fill="#da8923">Apricot Chicken</text><text x="40" y="230" fill="#b64701">Beef Bourguignon</text><text x="40" y="300" fill="#674834">Buckeye</text><text x="40" y="370" fill="#ebe5d0">Cauliflower</text><text x="40" y="440" fill="#8e473b">Chocolate Explosion</text><text x="40" y="510" fill="#742719">Chocolate Hazelnut</text><text x="40" y="580" fill="#2c2c57">Deep Sea Base</text><text x="40" y="650" fill="#eedd77">Delicate Lemon</text><text x="40" y="720" fill="#d50c15">Dragons Lair</text><text x="40" y="790" fill="#00aa11">Environmental Study</text><text x="40" y="860" fill="#bfcf00">Garlic Pesto</text><text x="40" y="930" fill="#f7b572">Jambalaya</text><text x="40" y="1000" fill="#ee1177">Jelly Berry</text><text x="40" y="1070" fill="#82502c">Lamb Chop</text><text x="40" y="1140" fill="#81522e">Lion's Lair</text><text x="40" y="1210" fill="#e9dd22">Lovely Lemonade</text><text x="40" y="1280" fill="#f3d085">Macaroni</text><text x="40" y="1350" fill="#ccccee">Miami White</text><text x="40" y="1420" fill="#c72616">Minestrone</text><text x="40" y="1490" fill="#ef8144">Mustard Crusted Salmon</text><text x="40" y="1560" fill="#dcc61f">Paella</text><text x="40" y="1630" fill="#e7c19f">Peach Latte</text><text x="40" y="1700" fill="#ff775e">Peachy Pinky</text><text x="40" y="1770" fill="#be893f">Peanut Butter</text><text x="40" y="1840" fill="#ffb75f">Peanut Butter Chicken</text><text x="40" y="1910" fill="#ce4a2d">Peanut Butter Jelly</text><text x="40" y="1980" fill="#4400ee">Poseidon's Territory</text><text x="40" y="2050" fill="#f48101">Romesco</text><text x="40" y="2120" fill="#4433ee">Royal Vessel</text><text x="40" y="2190" fill="#ebb367">Salted Caramel</text><text x="40" y="2260" fill="#99eebb">Vaporwave Pool</text><text x="40" y="2330" fill="#efdaae">Vinaigrette</text><text x="40" y="2400" fill="#c8d07f">Zucchini Noodles</text>
</svg>