<svg xmlns="http://www.w3.org/2000/svg" viewBox="0 0 600 3510">
  <defs>
    <style type="text/css">
      @import url('https://rsms.me/inter/inter.css');
      text {
        font-family: Inter, -apple-system, BlinkMacSystemFont, "Segoe UI", Roboto, Helvetica, Arial, sans-serif, "Apple Color Emoji", "Segoe UI Emoji", "Segoe UI Symbol";
        font-size: 40px;
        font-weight: 900;
      }
    </style>
  </defs>
  <rect fill="#212121" x="0" y="0" width="600" height="3510"/>
  <text x="40" y="90" fill="#efedd7">Acid Blond</text><text x="40" y="160" fill="#b9ff03">Atomic Lime</text><text x="40" y="230" fill="#d01343">Blueberry Lemonade</text><text x="40" y="300" fill="#dbbd76">Brass Nail</text><text x="40" y="370" fill="#746572">Burnt Ash</text><text x="40" y="440" fill="#271b10">Burnt Coffee</text><text x="40" y="510" fill="#c58d4b">Caramel Macchiato</text><text x="40" y="580" fill="#bb2266">Chaotic Roses</text><text x="40" y="650" fill="#775130">Chocolate Bells</text><text x="40" y="720" fill="#e3b258">Cookie Crust</text><text x="40" y="790" fill="#cabfb4">Crumbling Statue</text><text x="40" y="860" fill="#1c1e4d">Fly by Night</text><text x="40" y="930" fill="#f9f525">Golden Ginkgo</text><text x="40" y="1000" fill="#ca602a">Golden Lion Tamarin</text><text x="40" y="1070" fill="#93b13d">Green Tea Ice Cream</text><text x="40" y="1140" fill="#0fafc6">Havasupai Falls</text><text x="40" y="1210" fill="#327ccb">Heirloom Hydrangea</text><text x="40" y="1280" fill="#ff4433">Hotspot</text><text x="40" y="1350" fill="#383838">Lacquered Licorice</text><text x="40" y="1420" fill="#aadd66">Last of Lettuce</text><text x="40" y="1490" fill="#f7eee3">Magnolia Petal</text><text x="40" y="1560" fill="#88bb55">Makin it Rain</text><text x="40" y="1630" fill="#feb81c">Mango Loco</text><text x="40" y="1700" fill="#fd8c23">Mango Madness</text><text x="40" y="1770" fill="#c3b1af">Milky Skies</text><text x="40" y="1840" fill="#b32651">Minted Blueberry Lemonade</text><text x="40" y="1910" fill="#ff8d25">Monarch Wing</text><text x="40" y="1980" fill="#6ab0b9">Montana Sky</text><text x="40" y="2050" fill="#e4e5d8">Olive Conquering White</text><text x="40" y="2120" fill="#cc4466">Paper Hearts</text><text x="40" y="2190" fill="#8d2d13">Pumpkin Choco</text><text x="40" y="2260" fill="#f6ad3a">Raichu Orange</text><text x="40" y="2330" fill="#0056a8">Raiden Blue</text><text x="40" y="2400" fill="#e34029">Raiden's Fury</text><text x="40" y="2470" fill="#d24b38">Red Lightning</text><text x="40" y="2540" fill="#ab3560">Rhine River Rose</text><text x="40" y="2610" fill="#665f70">Sedona Shadow</text><text x="40" y="2680" fill="#9a373f">Shin Godzilla</text><text x="40" y="2750" fill="#cc6622">Solar Ash</text><text x="40" y="2820" fill="#c1e613">Sour Green</text><text x="40" y="2890" fill="#eeff04">Sour Yellow</text><text x="40" y="2960" fill="#c15187">Sparkling Blueberry Lemonade</text><text x="40" y="3030" fill="#fc9625">Texas Sunset</text><text x="40" y="3100" fill="#110066">The Vast of Night</text><text x="40" y="3170" fill="#6b4d35">Tilled Soil</text><text x="40" y="3240" fill="#73b7c2">Tropez Blue</text><text x="40" y="3310" fill="#04cdff">Tropical Turquoise</text><text x="40" y="3380" fill="#211e1f">Umbra</text><text x="40" y="3450" fill="#88bb11">Walk in the Park</text>
</svg>