<svg xmlns="http://www.w3.org/2000/svg" viewBox="0 0 600 3720">
  <defs>
    <style type="text/css">
      @import url('https://rsms.me/inter/inter.css');
      text {
        font-family: Inter, -apple-system, BlinkMacSystemFont, "Segoe UI", Roboto, Helvetica, Arial, sans-serif, "Apple Color Emoji", "Segoe UI Emoji", "Segoe UI Symbol";
        font-size: 40px;
        font-weight: 900;
      }
    </style>
  </defs>
  <rect fill="#212121" x="0" y="0" width="600" height="3720"/>
  <text x="40" y="90" fill="#eec400">Abra Goldenrod</text><text x="40" y="160" fill="#ff8f73">Alexandria</text><text x="40" y="230" fill="#001166">Atlantic Depths</text><text x="40" y="300" fill="#e08194">Bella Pink</text><text x="40" y="370" fill="#eef0ce">Bling Bling</text><text x="40" y="440" fill="#f79a3e">Chat Orange</text><text x="40" y="510" fill="#5f6c84">Clooney</text><text x="40" y="580" fill="#eb6651">Connect Red</text><text x="40" y="650" fill="#ffe481">Cowbell</text><text x="40" y="720" fill="#fff0b5">Dandelion Whisper</text><text x="40" y="790" fill="#ee7744">Debrito</text><text x="40" y="860" fill="#66bbcc">Delusional Dragonfly</text><text x="40" y="930" fill="#f9f9f9">Doctor</text><text x="40" y="1000" fill="#fafafa">Dr. White</text><text x="40" y="1070" fill="#dcd6d3">Dull Desert</text><text x="40" y="1140" fill="#30aabc">Explore Blue</text><text x="40" y="1210" fill="#008800">Fine Pine</text><text x="40" y="1280" fill="#6677bb">Flood</text><text x="40" y="1350" fill="#f5f6f7">Gram's Hair</text><text x="40" y="1420" fill="#eb4962">Guide Pink</text><text x="40" y="1490" fill="#d8b7cf">Immortal Indigo</text><text x="40" y="1560" fill="#737373">Industrial Revolution</text><text x="40" y="1630" fill="#f2e3b5">James Blonde</text><text x="40" y="1700" fill="#226600">Keen Green</text><text x="40" y="1770" fill="#f7d560">Salmon Eggs</text><text x="40" y="1840" fill="#badbdf">Tender Waves</text><text x="40" y="1910" fill="#eeff00">Banana Flash</text><text x="40" y="1980" fill="#c3d5e8">Lull Wind</text><text x="40" y="2050" fill="#ee22aa">Magnificent Magenta</text><text x="40" y="2120" fill="#22cccc">Mermaid Net</text><text x="40" y="2190" fill="#37b8af">Message Green</text><text x="40" y="2260" fill="#abf4d2">Mintie</text><text x="40" y="2330" fill="#c0d5ef">Mr. Glass</text><text x="40" y="2400" fill="#0052cc">Pacific Bridge</text><text x="40" y="2470" fill="#004488">Pacific Depths</text><text x="40" y="2540" fill="#994548">Plum Majesty</text><text x="40" y="2610" fill="#ff5630">Poppy Surprise</text><text x="40" y="2680" fill="#bc2026">Red Carpet</text><text x="40" y="2750" fill="#8c1b3c">Refined Chianti</text><text x="40" y="2820" fill="#ffbbcc">Rosie</text><text x="40" y="2890" fill="#a54a4a">Royal Rum</text><text x="40" y="2960" fill="#d4ae5e">Sell Gold</text><text x="40" y="3030" fill="#d2e0d6">Sentinel</text><text x="40" y="3100" fill="#ee6699">Shark Bait</text><text x="40" y="3170" fill="#222277">Snorlax</text><text x="40" y="3240" fill="#d4d1d9">Spooky Ghost</text><text x="40" y="3310" fill="#ff0066">Standby Led</text><text x="40" y="3380" fill="#78a300">Support Green</text><text x="40" y="3450" fill="#11ddee">Tamarama</text><text x="40" y="3520" fill="#efc93d">Tank Yellow</text><text x="40" y="3590" fill="#9a435d">Velvet Wine</text><text x="40" y="3660" fill="#fafbfd">Wash Me</text>
</svg>