<svg xmlns="http://www.w3.org/2000/svg" viewBox="0 0 600 4770">
  <defs>
    <style type="text/css">
      @import url('https://rsms.me/inter/inter.css');
      text {
        font-family: Inter, -apple-system, BlinkMacSystemFont, "Segoe UI", Roboto, Helvetica, Arial, sans-serif, "Apple Color Emoji", "Segoe UI Emoji", "Segoe UI Symbol";
        font-size: 40px;
        font-weight: 900;
      }
    </style>
  </defs>
  <rect fill="#212121" x="0" y="0" width="600" height="4770"/>
  <text x="40" y="90" fill="#b9cc81">Alien Breed</text><text x="40" y="160" fill="#d6d8cd">Ancient Kingdom</text><text x="40" y="230" fill="#843f5b">Ancient Royal Banner</text><text x="40" y="300" fill="#abcdee">Andromeda Blue</text><text x="40" y="370" fill="#bcc09e">Animal Kingdom</text><text x="40" y="440" fill="#fcf0e5">Backlight</text><text x="40" y="510" fill="#222211">Black Mesa</text><text x="40" y="580" fill="#223300">Blind Forest</text><text x="40" y="650" fill="#384883">Blue Estate</text><text x="40" y="720" fill="#e61626">Brutal Doom</text><text x="40" y="790" fill="#ff00bb">Brutal Pink</text><text x="40" y="860" fill="#d0f7e4">Cactus Water</text><text x="40" y="930" fill="#e2dccc">Catacomb Bone</text><text x="40" y="1000" fill="#dbd7d0">Catacomb Walls</text><text x="40" y="1070" fill="#c6d2de">Color Blind</text><text x="40" y="1140" fill="#dbc364">Crusade King</text><text x="40" y="1210" fill="#9698a3">Dark Ages</text><text x="40" y="1280" fill="#070d0d">Dark Side of the Moon</text><text x="40" y="1350" fill="#151517">Dark Void</text><text x="40" y="1420" fill="#660011">Darkest Dungeon</text><text x="40" y="1490" fill="#2d1608">Darkout</text><text x="40" y="1560" fill="#553d3a">Deep Dungeon</text><text x="40" y="1630" fill="#082599">Deepsea Kraken</text><text x="40" y="1700" fill="#96847a">Deer God</text><text x="40" y="1770" fill="#445155">Descent to the Catacombs</text><text x="40" y="1840" fill="#f7d497">Desert Convoy</text><text x="40" y="1910" fill="#87cefa">Drift on the Sea</text><text x="40" y="1980" fill="#330044">Edge of Space</text><text x="40" y="2050" fill="#26f7fd">Frozen State</text><text x="40" y="2120" fill="#442288">Galactic Civilization</text><text x="40" y="2190" fill="#121210">Glimpse into Space</text><text x="40" y="2260" fill="#554488">Harvest Night</text><text x="40" y="2330" fill="#e3000e">Heat Signature</text><text x="40" y="2400" fill="#330055">Hollow Knight</text><text x="40" y="2470" fill="#2299dd">Home World</text><text x="40" y="2540" fill="#c9ccd2">Humid Cave</text><text x="40" y="2610" fill="#eddbda">Hyper Light Drifter</text><text x="40" y="2680" fill="#cee5df">Ice Dagger</text><text x="40" y="2750" fill="#221122">Inside</text><text x="40" y="2820" fill="#222266">Intergalactic Cowboy</text><text x="40" y="2890" fill="#d6d1dc">Iron Maiden</text><text x="40" y="2960" fill="#e6d699">Lifeless Planet</text><text x="40" y="3030" fill="#f3d3d9">Light Red</text><text x="40" y="3100" fill="#befd73">Lime Lightning</text><text x="40" y="3170" fill="#878786">Lunar Base</text><text x="40" y="3240" fill="#caced2">Lunar Rays</text><text x="40" y="3310" fill="#d767ad">Mega Magenta</text><text x="40" y="3380" fill="#443300">Night in the Woods</text><text x="40" y="3450" fill="#44ee00">Nuclear Meltdown</text><text x="40" y="3520" fill="#333144">Oil Rush</text><text x="40" y="3590" fill="#220088">Orbital Kingdom</text><text x="40" y="3660" fill="#221177">Outer Rim</text><text x="40" y="3730" fill="#c4eee8">Path to the Sky</text><text x="40" y="3800" fill="#dbd6d2">Pathway</text><text x="40" y="3870" fill="#11875d">Primal Green</text><text x="40" y="3940" fill="#903f75">Purple Peril</text><text x="40" y="4010" fill="#eef3d0">Race the Sun</text><text x="40" y="4080" fill="#dd143d">Red Potion</text><text x="40" y="4150" fill="#f5d6d8">Redneck</text><text x="40" y="4220" fill="#c74767">Royal Banner</text><text x="40" y="4290" fill="#e6ddd2">Sand Dagger</text><text x="40" y="4360" fill="#221144">Shadow Planet</text><text x="40" y="4430" fill="#c1c1d1">Silver Dagger</text><text x="40" y="4500" fill="#667788">Space Convoy</text><text x="40" y="4570" fill="#f1f4d1">Sun Glare</text><text x="40" y="4640" fill="#553322">Wild Boar</text><text x="40" y="4710" fill="#332233">Zero Gravity</text>
</svg>