<svg xmlns="http://www.w3.org/2000/svg" viewBox="0 0 600 2040">
  <defs>
    <style type="text/css">
      @import url('https://rsms.me/inter/inter.css');
      text {
        font-family: Inter, -apple-system, BlinkMacSystemFont, "Segoe UI", Roboto, Helvetica, Arial, sans-serif, "Apple Color Emoji", "Segoe UI Emoji", "Segoe UI Symbol";
        font-size: 40px;
        font-weight: 900;
      }
    </style>
  </defs>
  <rect fill="#212121" x="0" y="0" width="600" height="2040"/>
  <text x="40" y="90" fill="#4d5af3">Aquarius Mood Indigo</text><text x="40" y="160" fill="#f887c7">Aries Hot Pink</text><text x="40" y="230" fill="#27a0a8">Cancer Seagreen Scarab</text><text x="40" y="300" fill="#fecb51">Capricorn Golden Key</text><text x="40" y="370" fill="#595758">Charcoal Dust</text><text x="40" y="440" fill="#e9e9f0">Diamond Cut</text><text x="40" y="510" fill="#f1f5db">Final Departure</text><text x="40" y="580" fill="#dee9f4">Freeze Up</text><text x="40" y="650" fill="#9497b3">Frosty Nightfall</text><text x="40" y="720" fill="#c30a12">Furious Tomato</text><text x="40" y="790" fill="#444499">Galaxy Express</text><text x="40" y="860" fill="#fca750">Gemini Mustard Momento</text><text x="40" y="930" fill="#dbecfb">Hoarfrost</text><text x="40" y="1000" fill="#bb1177">Infectious Love</text><text x="40" y="1070" fill="#e042d5">Leo Royal Fuchsia</text><text x="40" y="1140" fill="#4cd5ff">Libra Blue Morpho</text><text x="40" y="1210" fill="#997700">Mesozoic Green</text><text x="40" y="1280" fill="#ab46ec">Pisces Vivid Amethyst</text><text x="40" y="1350" fill="#f4301c">Primal Rage</text><text x="40" y="1420" fill="#fa7f46">Sagittarius Amber Artifact</text><text x="40" y="1490" fill="#e75323">Scorpio Scarlet Seal</text><text x="40" y="1560" fill="#aaee22">Sour Apple Candy</text><text x="40" y="1630" fill="#cf5570">Strawberry Moon</text><text x="40" y="1700" fill="#77be52">Taurus Forest Fern</text><text x="40" y="1770" fill="#efc6a1">Turnip Boy</text><text x="40" y="1840" fill="#538f4e">Virgo Green Goddess</text><text x="40" y="1910" fill="#f2f6db">Weak Yellow</text><text x="40" y="1980" fill="#dee6ec">White Frost</text>
</svg>