<svg xmlns="http://www.w3.org/2000/svg" viewBox="0 0 600 7640">
  <defs>
    <style type="text/css">
      @import url('https://rsms.me/inter/inter.css');
      text {
        font-family: Inter, -apple-system, BlinkMacSystemFont, "Segoe UI", Roboto, Helvetica, Arial, sans-serif, "Apple Color Emoji", "Segoe UI Emoji", "Segoe UI Symbol";
        font-size: 40px;
        font-weight: 900;
      }
    </style>
  </defs>
  <rect fill="#212121" x="0" y="0" width="600" height="7640"/>
  <text x="40" y="90" fill="#990066">8 Bit Eggplant</text><text x="40" y="160" fill="#c1dbec">Algodon Azul</text><text x="40" y="230" fill="#fee5c9">Apple Crunch</text><text x="40" y="300" fill="#e2eced">Aquifer</text><text x="40" y="370" fill="#e4e0d4">Aragonite</text><text x="40" y="440" fill="#6e6a5e">Archeology</text><text x="40" y="510" fill="#afbec1">Arctic Feelings</text><text x="40" y="580" fill="#faf0df">Aristocrat Ivory</text><text x="40" y="650" fill="#3a6b66">Betta Fish</text><text x="40" y="720" fill="#c3acb7">Breathtaking Evening</text><text x="40" y="790" fill="#809bac">Breathtaking View</text><text x="40" y="860" fill="#a1ced7">Children's Soft Blue</text><text x="40" y="930" fill="#714f29">Chocolate Rain</text><text x="40" y="1000" fill="#a9b0b6">Cistern</text><text x="40" y="1070" fill="#ecddd4">Cliff Swallow</text><text x="40" y="1140" fill="#a65570">Cranbrook</text><text x="40" y="1210" fill="#5e4235">Daniel Boone</text><text x="40" y="1280" fill="#d29f7a">Darling Clementine</text><text x="40" y="1350" fill="#f8f0d2">Daylily Yellow</text><text x="40" y="1420" fill="#d2dad0">Dead Nettle White</text><text x="40" y="1490" fill="#c4c8aa">Desert Hot Springs</text><text x="40" y="1560" fill="#eaeff2">Distant Wind Chime</text><text x="40" y="1630" fill="#9b9ea2">Downpour</text><text x="40" y="1700" fill="#d9ece6">Dunnock Egg</text><text x="40" y="1770" fill="#ffa756">Echinoidea Thorns</text><text x="40" y="1840" fill="#4bb2d5">Epimetheus</text><text x="40" y="1910" fill="#4f4352">Feminin Nightshade</text><text x="40" y="1980" fill="#dd8888">Finest Blush</text><text x="40" y="2050" fill="#fffce3">Fioletowy Beige</text><text x="40" y="2120" fill="#dd5522">Firebird Tail Lights</text><text x="40" y="2190" fill="#11353f">Firmament Blue</text><text x="40" y="2260" fill="#ddbcbc">Fizzing Whizbees</text><text x="40" y="2330" fill="#ad3d46">Frosted Pomegranate</text><text x="40" y="2400" fill="#fdc9d0">Fruit Bowl</text><text x="40" y="2470" fill="#d4aa6f">Gobi Sand</text><text x="40" y="2540" fill="#ffba80">Goose Bill</text><text x="40" y="2610" fill="#ccc9c5">Grey Cloth</text><text x="40" y="2680" fill="#c2c2bc">Gull Feather</text><text x="40" y="2750" fill="#cc76a3">Heartbreaker</text><text x="40" y="2820" fill="#898a86">Heavy Rain</text><text x="40" y="2890" fill="#cfc294">Hippolyta</text><text x="40" y="2960" fill="#89acac">Hydrology</text><text x="40" y="3030" fill="#fa9761">Indian Paintbrush</text><text x="40" y="3100" fill="#9bd8c4">Isabella's Aqua</text><text x="40" y="3170" fill="#ad9a5d">Kathmandu</text><text x="40" y="3240" fill="#174c60">Lazurite Blue</text><text x="40" y="3310" fill="#faf4d9">Lemon Lily</text><text x="40" y="3380" fill="#675a49">Lewisham</text><text x="40" y="3450" fill="#f9ebe4">Light Rose Beige</text><text x="40" y="3520" fill="#74af54">Lost Golfer</text><text x="40" y="3590" fill="#e5c7b9">Lyman Camellia</text><text x="40" y="3660" fill="#6e2f2c">Makore Veneer Red</text><text x="40" y="3730" fill="#a7735a">Marron Canela</text><text x="40" y="3800" fill="#efe2d9">Merlin's Beard</text><text x="40" y="3870" fill="#fff4d3">Milk Punch</text><text x="40" y="3940" fill="#faefd5">Milky Way Galaxy</text><text x="40" y="4010" fill="#00ffbb">Minty Paradise</text><text x="40" y="4080" fill="#665d63">Moire Satin</text><text x="40" y="4150" fill="#f3e2df">Morningside</text><text x="40" y="4220" fill="#ccd0dd">Multnomah Falls</text><text x="40" y="4290" fill="#080813">Narwhal Grey</text><text x="40" y="4360" fill="#e64d1d">Nasturtium Flower</text><text x="40" y="4430" fill="#3c464b">Nightshade</text><text x="40" y="4500" fill="#bdbebd">Noghrei Silver</text><text x="40" y="4570" fill="#848998">Ombre Grey</text><text x="40" y="4640" fill="#938577">Otter Tail</text><text x="40" y="4710" fill="#ba9b5d">Packing Paper</text><text x="40" y="4780" fill="#bca3b4">Pansy Posy</text><text x="40" y="4850" fill="#c8a38a">Peanut Butter Crust</text><text x="40" y="4920" fill="#7f4f78">Phlox Flower Violet</text><text x="40" y="4990" fill="#f5dde6">Ranunculus White</text><text x="40" y="5060" fill="#7d5d5e">Reading Tea Leaves</text><text x="40" y="5130" fill="#8d4942">Rojo 0xide</text><text x="40" y="5200" fill="#9ead92">Rooftop Garden</text><text x="40" y="5270" fill="#ead6af">Rousseau Gold</text><text x="40" y="5340" fill="#f2a8b8">Rozowy Pink</text><text x="40" y="5410" fill="#a04039">Rusty Heart</text><text x="40" y="5480" fill="#7b6c7c">Sakura Night</text><text x="40" y="5550" fill="#6b6a6c">Scapa Flow</text><text x="40" y="5620" fill="#f3e5c0">Scroll of Wisdom</text><text x="40" y="5690" fill="#62777e">Sea Beast</text><text x="40" y="5760" fill="#b8ebc5">Slime Lime</text><text x="40" y="5830" fill="#dd7733">Snobby Shore</text><text x="40" y="5900" fill="#dbd7b7">Spring Day</text><text x="40" y="5970" fill="#758ba4">Starset</text><text x="40" y="6040" fill="#eabd5b">Sun Dried</text><text x="40" y="6110" fill="#a16717">Syrah Soil</text><text x="40" y="6180" fill="#766451">Tanbark Trail</text><text x="40" y="6250" fill="#a3813f">Tau Sept Ochre</text><text x="40" y="6320" fill="#eee4d1">Tawny Daylily</text><text x="40" y="6390" fill="#2d2541">Telopea</text><text x="40" y="6460" fill="#decbb1">Toledo Cuoio</text><text x="40" y="6530" fill="#975437">Tonicha</text><text x="40" y="6600" fill="#009922">Turf Master</text><text x="40" y="6670" fill="#8d6051">Upper East Side</text><text x="40" y="6740" fill="#7c7466">Urban Garden</text><text x="40" y="6810" fill="#a17d61">Velddrif</text><text x="40" y="6880" fill="#bb835f">Vermicelles</text><text x="40" y="6950" fill="#acb3ae">Vinalhaven</text><text x="40" y="7020" fill="#7b9e98">Vizcaya</text><text x="40" y="7090" fill="#a2cdd2">Water Slide</text><text x="40" y="7160" fill="#dee9df">Watermark</text><text x="40" y="7230" fill="#c74547">Whiplash</text><text x="40" y="7300" fill="#8e9549">Winter Pea Green</text><text x="40" y="7370" fill="#fbf073">Witch Hazel</text><text x="40" y="7440" fill="#8e8976">Witch Hazel Leaf</text><text x="40" y="7510" fill="#d4ded4">Worn Jade Tiles</text><text x="40" y="7580" fill="#6c94cd">Zeus Temple</text>
</svg>