<svg xmlns="http://www.w3.org/2000/svg" viewBox="0 0 600 5120">
  <defs>
    <style type="text/css">
      @import url('https://rsms.me/inter/inter.css');
      text {
        font-family: Inter, -apple-system, BlinkMacSystemFont, "Segoe UI", Roboto, Helvetica, Arial, sans-serif, "Apple Color Emoji", "Segoe UI Emoji", "Segoe UI Symbol";
        font-size: 40px;
        font-weight: 900;
      }
    </style>
  </defs>
  <rect fill="#212121" x="0" y="0" width="600" height="5120"/>
  <text x="40" y="90" fill="#d1edee">A Certain Shade Of Green</text><text x="40" y="160" fill="#bfaf92">A Pair of Brown Eyes</text><text x="40" y="230" fill="#e0dfe8">Amourette Eternelle</text><text x="40" y="300" fill="#bbc6d9">Angel in Blue Jeans</text><text x="40" y="370" fill="#e3dfea">Angelic Sent</text><text x="40" y="440" fill="#d8dee7">Angélique Grey</text><text x="40" y="510" fill="#d9dde5">Ash in the Air</text><text x="40" y="580" fill="#16141c">Back In Black</text><text x="40" y="650" fill="#ffff33">Big Yellow Taxi</text><text x="40" y="720" fill="#889900">BioShock</text><text x="40" y="790" fill="#fce9df">Birth of a Star</text><text x="40" y="860" fill="#005f7a">Blue Collar Man</text><text x="40" y="930" fill="#ee0011">Breath of Fire</text><text x="40" y="1000" fill="#cffdbc">Breeze of Green</text><text x="40" y="1070" fill="#f0e8da">Bright Ocarina</text><text x="40" y="1140" fill="#e0e0dc">City Brume</text><text x="40" y="1210" fill="#a3a3a2">Dark Souls</text><text x="40" y="1280" fill="#062e03">Diminishing Green</text><text x="40" y="1350" fill="#cdced5">Dirty Snow</text><text x="40" y="1420" fill="#ebdbdd">Discrete Pink</text><text x="40" y="1490" fill="#ecdde5">Fairy Tail</text><text x="40" y="1560" fill="#cbe1f2">First Shade of Blue</text><text x="40" y="1630" fill="#c0e5ec">Forgotten Blue</text><text x="40" y="1700" fill="#d9f4ea">Freshmint</text><text x="40" y="1770" fill="#f6e6e5">Girly Nursery</text><text x="40" y="1840" fill="#f4ead5">Good Morning Akihabara</text><text x="40" y="1910" fill="#e3dcd6">Grim Grey</text><text x="40" y="1980" fill="#ff80ff">Hottest Of Pinks</text><text x="40" y="2050" fill="#cbeaee">Ice Effect</text><text x="40" y="2120" fill="#d6dfe8">Icy Teal</text><text x="40" y="2190" fill="#d6e6e6">Interdimensional Portal</text><text x="40" y="2260" fill="#cdeced">Jurney to the Sky</text><text x="40" y="2330" fill="#f3dfd5">Kasugai Peach</text><text x="40" y="2400" fill="#c6dce7">King of Waves</text><text x="40" y="2470" fill="#b0c4de">Light Steel Blue</text><text x="40" y="2540" fill="#f8f2de">Lights of Shibuya</text><text x="40" y="2610" fill="#f5dee2">Lily The Pink</text><text x="40" y="2680" fill="#e50102">Little Red Corvette</text><text x="40" y="2750" fill="#cfecee">Mint Zest</text><text x="40" y="2820" fill="#a7dbed">Mizu Cyan</text><text x="40" y="2890" fill="#553b39">Monkey Island</text><text x="40" y="2960" fill="#ece6d7">Old Yellow Bricks</text><text x="40" y="3030" fill="#ee7733">Orange Crush</text><text x="40" y="3100" fill="#c8d2e2">Pale Periwinkle</text><text x="40" y="3170" fill="#e8dfed">Pink Champagne</text><text x="40" y="3240" fill="#fff4f2">Pink Diminishing</text><text x="40" y="3310" fill="#cd7584">Pink Shade</text><text x="40" y="3380" fill="#f2d8cd">Pink Zest</text><text x="40" y="3450" fill="#f0e8d7">Platinum Blonde</text><text x="40" y="3520" fill="#b5d5d7">Pocket Lint</text><text x="40" y="3590" fill="#f8f6da">Portal Entrance</text><text x="40" y="3660" fill="#e8dedb">Red Dust</text><text x="40" y="3730" fill="#d4d8ed">Sachet Cushion</text><text x="40" y="3800" fill="#daeee6">Shattered Ice</text><text x="40" y="3870" fill="#eee2e0">Shattered Porcelain</text><text x="40" y="3940" fill="#d0dde9">Shattered Sky</text><text x="40" y="4010" fill="#b5d1db">Shrubby Lichen</text><text x="40" y="4080" fill="#faf0c9">Solar Light</text><text x="40" y="4150" fill="#35465e">Spelunking</text><text x="40" y="4220" fill="#d9ece9">Supernova Residues</text><text x="40" y="4290" fill="#448ee4">The Oregon Blue</text><text x="40" y="4360" fill="#fce2d7">Tranquil Peach</text><text x="40" y="4430" fill="#88aa11">UFO Defense Green</text><text x="40" y="4500" fill="#abddf1">Van Gogh Blue</text><text x="40" y="4570" fill="#cfdfef">Vanishing Blue</text><text x="40" y="4640" fill="#b19cd9">Violet Velvet</text><text x="40" y="4710" fill="#c9e3e5">Waterpark</text><text x="40" y="4780" fill="#d2f3eb">Waterslide</text><text x="40" y="4850" fill="#d2eaea">Waves Queen</text><text x="40" y="4920" fill="#b0dced">Whimsy Blue</text><text x="40" y="4990" fill="#e7dbdd">White Cherry</text><text x="40" y="5060" fill="#f4f3cd">Zitronenzucker</text>
</svg>