<svg xmlns="http://www.w3.org/2000/svg" viewBox="0 0 600 2110">
  <defs>
    <style type="text/css">
      @import url('https://rsms.me/inter/inter.css');
      text {
        font-family: Inter, -apple-system, BlinkMacSystemFont, "Segoe UI", Roboto, Helvetica, Arial, sans-serif, "Apple Color Emoji", "Segoe UI Emoji", "Segoe UI Symbol";
        font-size: 40px;
        font-weight: 900;
      }
    </style>
  </defs>
  <rect fill="#212121" x="0" y="0" width="600" height="2110"/>
  <text x="40" y="90" fill="#dbcd64">Acacia</text><text x="40" y="160" fill="#48295b">Acai</text><text x="40" y="230" fill="#b9df31">Acid Lime</text><text x="40" y="300" fill="#7f5e50">Acorn</text><text x="40" y="370" fill="#766b69">Acoustic Brown</text><text x="40" y="440" fill="#014a69">Adriatic</text><text x="40" y="510" fill="#4f6d83">Aegean Blue</text><text x="40" y="580" fill="#edc3c5">Berry Good</text><text x="40" y="650" fill="#fecc36">Golden Spell</text><text x="40" y="720" fill="#8dc07c">Grand Valley</text><text x="40" y="790" fill="#84838e">In the Twilight</text><text x="40" y="860" fill="#292b31">Night Sky</text><text x="40" y="930" fill="#6d4433">Noble Chocolate</text><text x="40" y="1000" fill="#e1dace">Noble Cream</text><text x="40" y="1070" fill="#41767b">Ocean Slumber</text><text x="40" y="1140" fill="#faa21a">Phoenix Flames</text><text x="40" y="1210" fill="#c23c47">Poppy</text><text x="40" y="1280" fill="#d9ae86">Porcini</text><text x="40" y="1350" fill="#e3ddce">Quail Egg</text><text x="40" y="1420" fill="#e6e5d6">Tofu</text><text x="40" y="1490" fill="#4e241e">Torrefacto Roast</text><text x="40" y="1560" fill="#424c4a">Urban Chic</text><text x="40" y="1630" fill="#f1e8dc">Vanilla Sugar</text><text x="40" y="1700" fill="#220044">Your Darkness</text><text x="40" y="1770" fill="#c39ea3">Zephyr</text><text x="40" y="1840" fill="#d1d8d0">Zephyr Blue</text><text x="40" y="1910" fill="#7ab091">Zephyr Green</text><text x="40" y="1980" fill="#5a2538">Zinfandel</text><text x="40" y="2050" fill="#ffa111">Zinnia</text>
</svg>