<svg xmlns="http://www.w3.org/2000/svg" viewBox="0 0 600 2390">
  <defs>
    <style type="text/css">
      @import url('https://rsms.me/inter/inter.css');
      text {
        font-family: Inter, -apple-system, BlinkMacSystemFont, "Segoe UI", Roboto, Helvetica, Arial, sans-serif, "Apple Color Emoji", "Segoe UI Emoji", "Segoe UI Symbol";
        font-size: 40px;
        font-weight: 900;
      }
    </style>
  </defs>
  <rect fill="#212121" x="0" y="0" width="600" height="2390"/>
  <text x="40" y="90" fill="#a99681">Adolescent Rodent</text><text x="40" y="160" fill="#96e2e1">Aqua Fiesta</text><text x="40" y="230" fill="#3b1921">Bruised Plum</text><text x="40" y="300" fill="#dee2eb">Calm Iridescence</text><text x="40" y="370" fill="#e1ddcd">Cappuccino Cosmico</text><text x="40" y="440" fill="#bf4000">Copper Hopper</text><text x="40" y="510" fill="#3e5e4e">Ethereal Woods</text><text x="40" y="580" fill="#e7a500">Flambrosia</text><text x="40" y="650" fill="#111188">Galactic Cruise</text><text x="40" y="720" fill="#ca882c">Gentleman's Whiskey</text><text x="40" y="790" fill="#ecd251">Golden Week</text><text x="40" y="860" fill="#d0b690">Granivorous</text><text x="40" y="930" fill="#cae03b">Greenivorous</text><text x="40" y="1000" fill="#625f5c">Grey Werewolf</text><text x="40" y="1070" fill="#a97fb1">Heart Potion</text><text x="40" y="1140" fill="#ffa917">I Love to Boogie</text><text x="40" y="1210" fill="#06012c">Insomnia</text><text x="40" y="1280" fill="#110077">Insomniac Blue</text><text x="40" y="1350" fill="#e8e7e6">Latteo</text><text x="40" y="1420" fill="#bf3cff">Magento</text><text x="40" y="1490" fill="#384b6b">Naval Blue</text><text x="40" y="1560" fill="#011c39">Naval Night</text><text x="40" y="1630" fill="#f771b3">Pop That Gum</text><text x="40" y="1700" fill="#ffec47">Rapeseed Blossom</text><text x="40" y="1770" fill="#f0738a">Rose Cheeks</text><text x="40" y="1840" fill="#a6465b">Rose Laffy Taffy</text><text x="40" y="1910" fill="#dbebde">Sage Salt</text><text x="40" y="1980" fill="#bb33aa">San Francisco Pink</text><text x="40" y="2050" fill="#68a43c">Siren of Nature</text><text x="40" y="2120" fill="#dcd7cd">Skyvory</text><text x="40" y="2190" fill="#bef7cf">Smell the Mint</text><text x="40" y="2260" fill="#9aa955">Springtide Melodies</text><text x="40" y="2330" fill="#fbc90d">Toucan Gentleman</text>
</svg>