<svg xmlns="http://www.w3.org/2000/svg" viewBox="0 0 600 2460">
  <defs>
    <style type="text/css">
      @import url('https://rsms.me/inter/inter.css');
      text {
        font-family: Inter;
        font-size: 40px;
        font-weight: 900;
      }
    </style>
  </defs>
  <rect fill="#212121" x="0" y="0" width="600" height="2460"/>
  <text x="40" y="90" fill="#ffee22">Big Yellow Streak</text><text x="40" y="160" fill="#222244">Black Market</text><text x="40" y="230" fill="#222222">Black Out</text><text x="40" y="300" fill="#111144">Black Sheep</text><text x="40" y="370" fill="#220066">Blackmail</text><text x="40" y="440" fill="#2200ff">Blue Pencil</text><text x="40" y="510" fill="#2266bb">Blue Streak</text><text x="40" y="580" fill="#2277cc">Blue-Eyed Boy</text><text x="40" y="650" fill="#2277ff">Bolt from the Blue</text><text x="40" y="720" fill="#bb4433">Browned Off</text><text x="40" y="790" fill="#22ddee">Cold Heights</text><text x="40" y="860" fill="#cc0044">Crucified Red</text><text x="40" y="930" fill="#3311ee">Delft Blue</text><text x="40" y="1000" fill="#ffdd44">Golden Boy</text><text x="40" y="1070" fill="#ffcc44">Golden Handshake</text><text x="40" y="1140" fill="#eecc11">Gouda Gold</text><text x="40" y="1210" fill="#77aa00">Green Envy</text><text x="40" y="1280" fill="#779900">Green Thumb</text><text x="40" y="1350" fill="#ff2233">In the Red</text><text x="40" y="1420" fill="#44bbdd">Lake Thun</text><text x="40" y="1490" fill="#aa9900">Nuclear Fallout</text><text x="40" y="1560" fill="#1199ee">Out of the Blue</text><text x="40" y="1630" fill="#ff99dd">Pink Condition</text><text x="40" y="1700" fill="#ff99ee">Pink Elephants</text><text x="40" y="1770" fill="#883333">Planet of the Apes</text><text x="40" y="1840" fill="#ff3322">Red Card</text><text x="40" y="1910" fill="#ff2244">Red Flag</text><text x="40" y="1980" fill="#dd1144">Red Herring</text><text x="40" y="2050" fill="#dd0033">Red Hot</text><text x="40" y="2120" fill="#cc1133">Red Tape</text><text x="40" y="2190" fill="#cc0055">Red-Letter Day</text><text x="40" y="2260" fill="#ff7722">Royal Oranje</text><text x="40" y="2330" fill="#fef6d8">Silken Tofu</text><text x="40" y="2400" fill="#ffee33">Yellow-Bellied</text>
</svg>