<svg xmlns="http://www.w3.org/2000/svg" viewBox="0 0 600 8410">
  <defs>
    <style type="text/css">
      @import url('https://rsms.me/inter/inter.css');
      text {
        font-family: Inter, -apple-system, BlinkMacSystemFont, "Segoe UI", Roboto, Helvetica, Arial, sans-serif, "Apple Color Emoji", "Segoe UI Emoji", "Segoe UI Symbol";
        font-size: 40px;
        font-weight: 900;
      }
    </style>
  </defs>
  <rect fill="#212121" x="0" y="0" width="600" height="8410"/>
  <text x="40" y="90" fill="#e4e0d4">Arragonite</text><text x="40" y="160" fill="#711518">Arterial Blood Red</text><text x="40" y="230" fill="#533552">Auricula Purple</text><text x="40" y="300" fill="#756050">Axinite</text><text x="40" y="370" fill="#ffe3cb">Barely Ripe Apricot</text><text x="40" y="440" fill="#9c856c">Black Headed Gull</text><text x="40" y="510" fill="#453b32">Blackish Brown</text><text x="40" y="580" fill="#5d6161">Blackish Green</text><text x="40" y="650" fill="#5b5c61">Blackish Grey</text><text x="40" y="720" fill="#413f44">Bluish Black</text><text x="40" y="790" fill="#d0d5d3">Bluish Lilac Purple</text><text x="40" y="860" fill="#c2c190">Brimstone Butterfly</text><text x="40" y="930" fill="#413936">Brownish Black</text><text x="40" y="1000" fill="#8d746f">Brownish Purple Red</text><text x="40" y="1070" fill="#e7e1dd">Calc Sinter</text><text x="40" y="1140" fill="#6c6d94">Campanula Purple</text><text x="40" y="1210" fill="#e8e7d7">Carara Marble</text><text x="40" y="1280" fill="#b8bfaf">Celadine Green</text><text x="40" y="1350" fill="#33431e">Ceylanite</text><text x="40" y="1420" fill="#4d3635">Chocolate Red</text><text x="40" y="1490" fill="#39334a">Chrysomela Goettingensis</text><text x="40" y="1560" fill="#7a4848">Cochineal Red</text><text x="40" y="1630" fill="#946943">Common Jasper</text><text x="40" y="1700" fill="#f3daa7">Cream Yellow</text><text x="40" y="1770" fill="#8e9849">Crysolite</text><text x="40" y="1840" fill="#adba98">Crysoprase</text><text x="40" y="1910" fill="#92462f">Dark Brazilian Topaz</text><text x="40" y="1980" fill="#864735">Deep Orange-coloured Brown</text><text x="40" y="2050" fill="#553d3a">Deep Reddish Brown</text><text x="40" y="2120" fill="#bb603c">Deep Reddish Orange</text><text x="40" y="2190" fill="#77747f">Dried Lavender Flowers</text><text x="40" y="2260" fill="#dfa837">Dutch Orange</text><text x="40" y="2330" fill="#7a4b3a">Egyptian Jasper</text><text x="40" y="2400" fill="#5c6b8f">Emerald-Crested Manakin</text><text x="40" y="2470" fill="#ab924b">Epidote Olvene Ore</text><text x="40" y="2540" fill="#eedac3">Figure Stone</text><text x="40" y="2610" fill="#6f88af">Flax-Flower Blue</text><text x="40" y="2680" fill="#e9c49d">Flesh Red</text><text x="40" y="2750" fill="#a77d35">Fluor Spar</text><text x="40" y="2820" fill="#faf1d7">French Porcelain Clay</text><text x="40" y="2890" fill="#a36629">Gallstone Yellow</text><text x="40" y="2960" fill="#e6d058">Gamboge Yellow</text><text x="40" y="3030" fill="#e3e0da">Granular Limestone</text><text x="40" y="3100" fill="#719ba2">Great Fennel Flower</text><text x="40" y="3170" fill="#454445">Greenish Black</text><text x="40" y="3240" fill="#d1f1de">Greenish White</text><text x="40" y="3310" fill="#f2e8d7">Grey Linnet Egg</text><text x="40" y="3380" fill="#555152">Greyish Black</text><text x="40" y="3450" fill="#d6dee9">Greyish White</text><text x="40" y="3520" fill="#8b7859">Hair Brown</text><text x="40" y="3590" fill="#c39e6d">Hazed Nuts</text><text x="40" y="3660" fill="#a75536">Hyacinth Red</text><text x="40" y="3730" fill="#252024">Ink Black</text><text x="40" y="3800" fill="#8aa1a6">Iron Earth</text><text x="40" y="3870" fill="#6e3b31">Iron Flint</text><text x="40" y="3940" fill="#7994b5">Jay Wing Feathers</text><text x="40" y="4010" fill="#ead665">Kings Yellow</text><text x="40" y="4080" fill="#b74a70">Lake Red</text><text x="40" y="4150" fill="#e4e2d6">Large Wild Convolvulus</text><text x="40" y="4220" fill="#979c84">Leek Green</text><text x="40" y="4290" fill="#dbc364">Lemon Yellow</text><text x="40" y="4360" fill="#6fb5a8">Lenticular Ore</text><text x="40" y="4430" fill="#eae6cc">Fresh Wood Ashes</text><text x="40" y="4500" fill="#c8ad7f">Common Calcedony</text><text x="40" y="4570" fill="#d4cdd2">Coverts Wood Pigeon</text><text x="40" y="4640" fill="#cecfd6">Ash Tree Bark</text><text x="40" y="4710" fill="#cdcace">Clay Slate Wacke</text><text x="40" y="4780" fill="#eaf3d0">Light of New Hope</text><text x="40" y="4850" fill="#67765b">Lignum Vitœ Foliage</text><text x="40" y="4920" fill="#513e32">Liver Brown</text><text x="40" y="4990" fill="#b2b599">Mountain Green</text><text x="40" y="5060" fill="#ebbc71">Natrolite</text><text x="40" y="5130" fill="#5a7d9a">Nightly Blade</text><text x="40" y="5200" fill="#f1d694">Oat Straw</text><text x="40" y="5270" fill="#efcc83">Ochre Yellow</text><text x="40" y="5340" fill="#fbebcf">Orange Coloured White</text><text x="40" y="5410" fill="#be7249">Orange Lily</text><text x="40" y="5480" fill="#ce536b">Oriental Ruby</text><text x="40" y="5550" fill="#d17c3f">Orpiment Orange</text><text x="40" y="5620" fill="#4a475c">Pale Blackish Purple</text><text x="40" y="5690" fill="#8590ae">Papilio Argeotus</text><text x="40" y="5760" fill="#eecfbf">Peach Blossom Red</text><text x="40" y="5830" fill="#b7757c">Precious Garnet</text><text x="40" y="5900" fill="#dfd3e3">Purplish White</text><text x="40" y="5970" fill="#612741">Quills of Terico</text><text x="40" y="6040" fill="#bfbac0">Red Lilac Purple</text><text x="40" y="6110" fill="#cd6d57">Red Orpiment</text><text x="40" y="6180" fill="#433635">Reddish Black</text><text x="40" y="6250" fill="#fff8d5">Reddish White</text><text x="40" y="6320" fill="#383867">Rhynchites Nitens</text><text x="40" y="6390" fill="#7c8635">Sacred Sapling</text><text x="40" y="6460" fill="#584c77">Saffron Crocus</text><text x="40" y="6530" fill="#d09b2c">Saffron Yellow</text><text x="40" y="6600" fill="#7d8c55">Scarabœus Nobilis</text><text x="40" y="6670" fill="#b63e36">Scarlet Red</text><text x="40" y="6740" fill="#eae4d8">Screech Owl</text><text x="40" y="6810" fill="#ab9649">Semi Opal</text><text x="40" y="6880" fill="#f1d28c">Sienna Yellow</text><text x="40" y="6950" fill="#c8c76f">Siskin Green</text><text x="40" y="7020" fill="#e5e1dd">Storks Bill</text><text x="40" y="7090" fill="#ccc050">Sulphur Yellow</text><text x="40" y="7160" fill="#281f3f">Throat</text><text x="40" y="7230" fill="#a4b6a7">Thrush Egg</text><text x="40" y="7300" fill="#c76b4a">Tile Red</text><text x="40" y="7370" fill="#657abb">Ultramarine Blue</text><text x="40" y="7440" fill="#613936">Umber Brown</text><text x="40" y="7510" fill="#93b778">Uran Mica</text><text x="40" y="7580" fill="#3f3033">Veinous Blood Red</text><text x="40" y="7650" fill="#241f20">Velvet Black</text><text x="40" y="7720" fill="#61ac86">Verdigris Green</text><text x="40" y="7790" fill="#b5493a">Vermilion Red</text><text x="40" y="7860" fill="#3a2f52">Violet Purple</text><text x="40" y="7930" fill="#e2e6d7">White Hamburgh Grapes</text><text x="40" y="8000" fill="#ebdd99">Wild Primrose</text><text x="40" y="8070" fill="#d7c485">Wine Yellow</text><text x="40" y="8140" fill="#edeeda">Yellowish Grey</text><text x="40" y="8210" fill="#e9f1d0">Yellowish White</text><text x="40" y="8280" fill="#f9f59f">Yippie Ya Yellow</text><text x="40" y="8350" fill="#ffff84">Yippie Yellow</text>
</svg>