<svg xmlns="http://www.w3.org/2000/svg" viewBox="0 0 600 2950">
  <defs>
    <style type="text/css">
      @import url('https://rsms.me/inter/inter.css');
      text {
        font-family: Inter, -apple-system, BlinkMacSystemFont, "Segoe UI", Roboto, Helvetica, Arial, sans-serif, "Apple Color Emoji", "Segoe UI Emoji", "Segoe UI Symbol";
        font-size: 40px;
        font-weight: 900;
      }
    </style>
  </defs>
  <rect fill="#212121" x="0" y="0" width="600" height="2950"/>
  <text x="40" y="90" fill="#dfc685">24 Karat</text><text x="40" y="160" fill="#7fa8a7">Acapulco Aqua</text><text x="40" y="230" fill="#f6dcd2">Air-Kiss</text><text x="40" y="300" fill="#aec1d4">Airway</text><text x="40" y="370" fill="#dadad1">Alaska</text><text x="40" y="440" fill="#47ae9c">Ambrosial Oceanside</text><text x="40" y="510" fill="#bfd6d1">Aquatic Edge</text><text x="40" y="580" fill="#ff7013">Arancio</text><text x="40" y="650" fill="#e4d588">Artichoke Heart</text><text x="40" y="720" fill="#ccbdb4">Avorio</text><text x="40" y="790" fill="#7c968b">Azores</text><text x="40" y="860" fill="#c46943">Aztec Copper</text><text x="40" y="930" fill="#211d49">Azulado</text><text x="40" y="1000" fill="#130d07">Balsamico</text><text x="40" y="1070" fill="#1151b4">Blizzy Blueberry</text><text x="40" y="1140" fill="#f7eb7a">Canola Oil</text><text x="40" y="1210" fill="#624a49">Dark Chocolate</text><text x="40" y="1280" fill="#5a3939">Dark Drama</text><text x="40" y="1350" fill="#449084">Highlands</text><text x="40" y="1420" fill="#9d9866">Hiking</text><text x="40" y="1490" fill="#ffd775">Honey Glaze</text><text x="40" y="1560" fill="#3b3c41">In the Dark</text><text x="40" y="1630" fill="#318f33">Jade of Emeralds</text><text x="40" y="1700" fill="#858381">Lingering Storm</text><text x="40" y="1770" fill="#566373">Midnight Shadow</text><text x="40" y="1840" fill="#cd0317">Re-Entry Red</text><text x="40" y="1910" fill="#fad28f">Sunbathed Beach</text><text x="40" y="1980" fill="#a34631">Toasted Paprika</text><text x="40" y="2050" fill="#c7ccce">Where There Is Smoke</text><text x="40" y="2120" fill="#dfe0e2">Wind Chime</text><text x="40" y="2190" fill="#3a7099">Windsurfing</text><text x="40" y="2260" fill="#bdd1d2">Windy</text><text x="40" y="2330" fill="#888738">Witch Brew</text><text x="40" y="2400" fill="#007c76">Wizards Orb</text><text x="40" y="2470" fill="#788389">Wolf</text><text x="40" y="2540" fill="#475c5d">Woodland Night</text><text x="40" y="2610" fill="#9b8a5f">Woodstock</text><text x="40" y="2680" fill="#5f6d6e">Wrapped in Twilight</text><text x="40" y="2750" fill="#f0d31e">Yellow Mellow</text><text x="40" y="2820" fill="#abbc01">Yew</text><text x="40" y="2890" fill="#656952">Yew Hedge</text>
</svg>