<svg xmlns="http://www.w3.org/2000/svg" viewBox="0 0 600 10300">
  <defs>
    <style type="text/css">
      @import url('https://rsms.me/inter/inter.css');
      text {
        font-family: Inter, -apple-system, BlinkMacSystemFont, "Segoe UI", Roboto, Helvetica, Arial, sans-serif, "Apple Color Emoji", "Segoe UI Emoji", "Segoe UI Symbol";
        font-size: 40px;
        font-weight: 900;
      }
    </style>
  </defs>
  <rect fill="#212121" x="0" y="0" width="600" height="10300"/>
  <text x="40" y="90" fill="#fea7bd">Amélie's Tutu</text><text x="40" y="160" fill="#94568c">Àn Zǐ Purple</text><text x="40" y="230" fill="#d8dee7">Angélique Grey</text><text x="40" y="300" fill="#ee9911">Angry Hornet</text><text x="40" y="370" fill="#ecefef">Bái Sè White</text><text x="40" y="440" fill="#5c3317">Baker's Chocolate</text><text x="40" y="510" fill="#a50b5e">Banafsaji Purple</text><text x="40" y="580" fill="#1c5022">Białowieża Forest</text><text x="40" y="650" fill="#224634">Birōdo Green</text><text x="40" y="720" fill="#e7dbe1">Bōsōzoku Pink</text><text x="40" y="790" fill="#a2345c">Bōtan</text><text x="40" y="860" fill="#aa1111">Büchel Cherry</text><text x="40" y="930" fill="#c79685">Cafe Creme</text><text x="40" y="1000" fill="#d6c6b4">Cafe Latte</text><text x="40" y="1070" fill="#6a4928">Cafe Royale</text><text x="40" y="1140" fill="#3272af">Campánula</text><text x="40" y="1210" fill="#1fa774">Cǎo Lǜ Grass</text><text x="40" y="1280" fill="#77926f">Chá Lǜ Green</text><text x="40" y="1350" fill="#f94009">Chéng Hóng Sè Orange</text><text x="40" y="1420" fill="#8f583c">Chōjicha Brown</text><text x="40" y="1490" fill="#b95754">Chōshun Red</text><text x="40" y="1560" fill="#cadfec">CO₂</text><text x="40" y="1630" fill="#01c08d">Cōng Lǜ Green</text><text x="40" y="1700" fill="#f3e7b4">Crème de la Crème</text><text x="40" y="1770" fill="#f1fde9">Crème de Menthe</text><text x="40" y="1840" fill="#f7f0e2">Crème fraîche</text><text x="40" y="1910" fill="#dbd7c4">Crêpe Papier</text><text x="40" y="1980" fill="#412010">Délicieux</text><text x="40" y="2050" fill="#e7d8c7">Dépaysement</text><text x="40" y="2120" fill="#bb4422">Devil’s Butterfly</text><text x="40" y="2190" fill="#bb7766">Döner Kebab</text><text x="40" y="2260" fill="#009276">Dòu Lǜ Green</text><text x="40" y="2330" fill="#a52939">Dòu Shā Sè Red</text><text x="40" y="2400" fill="#1f5da0">Drakenhof Nightshade</text><text x="40" y="2470" fill="#523839">Droëwors</text><text x="40" y="2540" fill="#fe420f">Fēi Hóng Scarlet</text><text x="40" y="2610" fill="#ff6cb5">Fěn Hóng Pink</text><text x="40" y="2680" fill="#d800cc">Fúchsia Intenso</text><text x="40" y="2750" fill="#c9ff27">Gǎn Lǎn Huáng Olive</text><text x="40" y="2820" fill="#658b38">Gǎn Lǎn Lǜ Green</text><text x="40" y="2890" fill="#7f5f00">Gédéon Brown</text><text x="40" y="2960" fill="#f56991">God’s Own Junkyard Pink</text><text x="40" y="3030" fill="#f0f0e0">Gorā White</text><text x="40" y="3100" fill="#634950">Gǔ Tóng Hēi Copper</text><text x="40" y="3170" fill="#c772c0">Gulābī Pink</text><text x="40" y="3240" fill="#bfe1e6">H₂O</text><text x="40" y="3310" fill="#55aa55">Harā Green</text><text x="40" y="3380" fill="#34363a">Hawk’s Eye</text><text x="40" y="3450" fill="#7f5e00">Hè Sè Brown</text><text x="40" y="3520" fill="#142030">Hēi Sè Black</text><text x="40" y="3590" fill="#dad5c7">Hog's Pudding</text><text x="40" y="3660" fill="#e02006">Hóng Bǎo Shū Red</text><text x="40" y="3730" fill="#cf3f4f">Hóng Lóu Mèng Red</text><text x="40" y="3800" fill="#ff0809">Hóng Sè Red</text><text x="40" y="3870" fill="#564a33">Hóng Zōng Brown</text><text x="40" y="3940" fill="#1dacd1">Hú Lán Blue</text><text x="40" y="4010" fill="#f8ff73">Huáng Dì Yellow</text><text x="40" y="4080" fill="#fada6a">Huáng Jīn Zhōu Gold</text><text x="40" y="4150" fill="#f0f20c">Huáng Sè Yellow</text><text x="40" y="4220" fill="#c1c6d3">Hūi Sè Grey</text><text x="40" y="4290" fill="#00ffdd">Ice Ice Baby</text><text x="40" y="4360" fill="#f5d565">Jīn Huáng Gold</text><text x="40" y="4430" fill="#a5a502">Jīn Sè Gold</text><text x="40" y="4500" fill="#8e7618">Jīn Zōng Gold</text><text x="40" y="4570" fill="#f9900f">Jú Huáng Tangerine</text><text x="40" y="4640" fill="#736354">Kā Fēi Sè Brown</text><text x="40" y="4710" fill="#201819">Kālā Black</text><text x="40" y="4780" fill="#db5a6b">Kōbai Red</text><text x="40" y="4850" fill="#773644">Köfte Brown</text><text x="40" y="4920" fill="#203838">Kōrainando Green</text><text x="40" y="4990" fill="#592b1f">Kōrozen</text><text x="40" y="5060" fill="#fc2647">Là Jiāo Hóng Red</text><text x="40" y="5130" fill="#d85525">Lāl Red</text><text x="40" y="5200" fill="#4d4dff">Lán Sè Blue</text><text x="40" y="5270" fill="#f075e6">Lián Hóng Lotus Pink</text><text x="40" y="5340" fill="#e5deca">Light Beige</text><text x="40" y="5410" fill="#cc99ff">Lilás</text><text x="40" y="5480" fill="#02c14d">Lǜ Sè Green</text><text x="40" y="5550" fill="#9dbcd4">Mångata</text><text x="40" y="5620" fill="#fe023c">Méi Gūi Hóng Red</text><text x="40" y="5690" fill="#e03fd8">Méi Gūi Zǐ Purple</text><text x="40" y="5760" fill="#123120">Méi Hēi Coal</text><text x="40" y="5830" fill="#1f0b1e">Meški Black</text><text x="40" y="5900" fill="#dad7ad">Mǐ Bái Beige</text><text x="40" y="5970" fill="#e8af45">Mì Chéng Honey</text><text x="40" y="6040" fill="#f1f2d3">Mǔ Lì Bái Oyster</text><text x="40" y="6110" fill="#fdedc3">Nǎi Yóu Sè Cream</text><text x="40" y="6180" fill="#ff8050">Nārangī Orange</text><text x="40" y="6250" fill="#ffc14b">Nârenji Orange</text><text x="40" y="6320" fill="#eebb33">Nicotine Gold</text><text x="40" y="6390" fill="#0055ff">Nīlā Blue</text><text x="40" y="6460" fill="#ffef19">Níng Méng Huáng Lemon</text><text x="40" y="6530" fill="#056eee">Níu Zǎi Sè Denim</text><text x="40" y="6600" fill="#ff6f52">Orange Pink</text><text x="40" y="6670" fill="#a3ce27">Pêra Rocha</text><text x="40" y="6740" fill="#524a46">Périgord Truffle</text><text x="40" y="6810" fill="#ffff55">Pīlā Yellow</text><text x="40" y="6880" fill="#23c48b">Píng Gǔo Lǜ Green</text><text x="40" y="6950" fill="#ce5dae">Pú Táo Zǐ Purple</text><text x="40" y="7020" fill="#89a0b0">Qiān Hūi Grey</text><text x="40" y="7090" fill="#f08101">Rè Dài Chéng Orange</text><text x="40" y="7160" fill="#665343">Rokō Brown</text><text x="40" y="7230" fill="#ecdfd6">Sablewood</text><text x="40" y="7300" fill="#110055">Scoop of Dark Matter</text><text x="40" y="7370" fill="#fc824a">Sè Lèi Orange</text><text x="40" y="7440" fill="#4ca973">Sēn Lín Lǜ Forest</text><text x="40" y="7510" fill="#fa9a85">Shān Hú Hóng Coral</text><text x="40" y="7580" fill="#c03f20">Shēn Chéng Orange</text><text x="40" y="7650" fill="#be0620">Shēn Hóng Red</text><text x="40" y="7720" fill="#e29f31">Shì Zǐ Chéng Persimmon</text><text x="40" y="7790" fill="#dc3023">Shōjōhi Red</text><text x="40" y="7860" fill="#40826d">Shǔi Cǎo Lǜ Green</text><text x="40" y="7930" fill="#9b533f">Sōdenkaracha Brown</text><text x="40" y="8000" fill="#ffee88">Spätzle Yellow</text><text x="40" y="8070" fill="#f6f2e5">Sun's Glory</text><text x="40" y="8140" fill="#7e2639">Suō</text><text x="40" y="8210" fill="#e7b25d">Talâyi Gold</text><text x="40" y="8280" fill="#323939">Tàn Hēi Soot</text><text x="40" y="8350" fill="#dfff4f">Tennis Ball</text><text x="40" y="8420" fill="#d90166">Tête-à-Tête</text><text x="40" y="8490" fill="#5db3ff">Tiān Lán Sky</text><text x="40" y="8560" fill="#343450">Tiě Hēi Metal</text><text x="40" y="8630" fill="#faa945">Tōmorokoshi Corn</text><text x="40" y="8700" fill="#ffb61e">Tōō Gold</text><text x="40" y="8770" fill="#574d35">Tǔ Hēi Black</text><text x="40" y="8840" fill="#ccddee">Tuğçe Silver</text><text x="40" y="8910" fill="#5a06ef">Wèi Lán Azure</text><text x="40" y="8980" fill="#fef2dc">Xâkestari White</text><text x="40" y="9050" fill="#ece6d1">Xiàng Yá Bái Ivory</text><text x="40" y="9120" fill="#fce166">Xìng Huáng Yellow</text><text x="40" y="9190" fill="#a8c3bc">Yān Hūi Smoke</text><text x="40" y="9260" fill="#f1a141">Yáng Chéng Orange</text><text x="40" y="9330" fill="#e0e1e2">Yín Bái Silver</text><text x="40" y="9400" fill="#b1c4cb">Yín Sè Silver</text><text x="40" y="9470" fill="#05ffa6">Yíng Guāng Sè Green</text><text x="40" y="9540" fill="#ff69af">Yíng Guāng Sè Pink</text><text x="40" y="9610" fill="#632de9">Yíng Guāng Sè Purple</text><text x="40" y="9680" fill="#c0e2e1">Yù Shí Bái White</text><text x="40" y="9750" fill="#2138ab">Yuè Guāng Lán Blue</text><text x="40" y="9820" fill="#5959ab">Yuè Guāng Lán Moonlight</text><text x="40" y="9890" fill="#c1264c">Zǎo Hóng Maroon</text><text x="40" y="9960" fill="#e4c500">Zhohltyi Yellow</text><text x="40" y="10030" fill="#9f0fef">Zǐ Lúo Lán Sè Violet</text><text x="40" y="10100" fill="#c94cbe">Zǐ Sè Purple</text><text x="40" y="10170" fill="#ca6641">Zōng Hóng Red</text><text x="40" y="10240" fill="#248bcc">Zürich Blue</text>
</svg>