<svg xmlns="http://www.w3.org/2000/svg" viewBox="0 0 600 12820">
  <defs>
    <style type="text/css">
      @import url('https://rsms.me/inter/inter.css');
      text {
        font-family: Inter, -apple-system, BlinkMacSystemFont, "Segoe UI", Roboto, Helvetica, Arial, sans-serif, "Apple Color Emoji", "Segoe UI Emoji", "Segoe UI Symbol";
        font-size: 40px;
        font-weight: 900;
      }
    </style>
  </defs>
  <rect fill="#212121" x="0" y="0" width="600" height="12820"/>
  <text x="40" y="90" fill="#bae3eb">Alaskan Wind</text><text x="40" y="160" fill="#5a3d3f">Ancient Prunus</text><text x="40" y="230" fill="#08787f">Aqua Nation</text><text x="40" y="300" fill="#ff77ee">Avant-Garde Pink</text><text x="40" y="370" fill="#dddce1">Azure Hint</text><text x="40" y="440" fill="#ddaa22">Baroque</text><text x="40" y="510" fill="#b7dff3">Bellagio Fountains</text><text x="40" y="580" fill="#112222">Black Feather</text><text x="40" y="650" fill="#97d5ea">Blue Effervescence</text><text x="40" y="720" fill="#26428b">Blue Oblivion</text><text x="40" y="790" fill="#1b4556">Blue Syzygy</text><text x="40" y="860" fill="#d9e6e0">Blush Mint</text><text x="40" y="930" fill="#e2e0d8">Blush Sand</text><text x="40" y="1000" fill="#dee1ed">Blush Sky</text><text x="40" y="1070" fill="#ee0066">Bourgeois</text><text x="40" y="1140" fill="#cc6611">Brusque Brown</text><text x="40" y="1210" fill="#ee00ff">Brusque Pink</text><text x="40" y="1280" fill="#e9e3da">Built on Sand</text><text x="40" y="1350" fill="#d4dee8">Burj Khalifa Fountain</text><text x="40" y="1420" fill="#ffb19a">Buttery Salmon</text><text x="40" y="1490" fill="#bb00dd">Capricious Purple</text><text x="40" y="1560" fill="#eeeeff">Carte Blanche</text><text x="40" y="1630" fill="#d5dde5">Cautious Blue</text><text x="40" y="1700" fill="#dfd8d9">Cautious Grey</text><text x="40" y="1770" fill="#dae4de">Cautious Jade</text><text x="40" y="1840" fill="#a4be5c">Chinese Money Plant</text><text x="40" y="1910" fill="#d0cbce">Columbo's Coat</text><text x="40" y="1980" fill="#dbd7d9">Creek Pebble</text><text x="40" y="2050" fill="#002366">Deep Sea Nightmare</text><text x="40" y="2120" fill="#c6d5e4">Defenestration</text><text x="40" y="2190" fill="#bcdfe8">Delicate Blue</text><text x="40" y="2260" fill="#dddfe8">Delicate Cloud</text><text x="40" y="2330" fill="#ddf3e6">Delicate Mint</text><text x="40" y="2400" fill="#e4cfd3">Delicate Pink</text><text x="40" y="2470" fill="#a95c68">Delicate Prunus</text><text x="40" y="2540" fill="#aa9c8b">Delicate Truffle</text><text x="40" y="2610" fill="#c0dfe2">Delicate Turquoise</text><text x="40" y="2680" fill="#e7d8c7">Dépaysement</text><text x="40" y="2750" fill="#f5e5e1">Discreet Romance</text><text x="40" y="2820" fill="#f2f3ce">Distant Searchlight</text><text x="40" y="2890" fill="#c9a0ff">Diva</text><text x="40" y="2960" fill="#d2dfed">Dripping Ice</text><text x="40" y="3030" fill="#cbd4df">Ephemeral Blue</text><text x="40" y="3100" fill="#d6ced3">Ephemeral Fog</text><text x="40" y="3170" fill="#c7cdd3">Ephemeral Mist</text><text x="40" y="3240" fill="#fce2d4">Ephemeral Peach</text><text x="40" y="3310" fill="#e4cfd7">Ephemeral Red</text><text x="40" y="3380" fill="#f9eecb">Ethereal</text><text x="40" y="3450" fill="#9d5783">Feminism</text><text x="40" y="3520" fill="#006131">Ficus Elastica</text><text x="40" y="3590" fill="#a6c875">Fiddle-Leaf Fig</text><text x="40" y="3660" fill="#efeeff">Foundation White</text><text x="40" y="3730" fill="#b9def0">Fountains of Budapest</text><text x="40" y="3800" fill="#d39bcb">Girl Power</text><text x="40" y="3870" fill="#f1d7d3">Global Warming</text><text x="40" y="3940" fill="#bbee11">Green Cacophony </text><text x="40" y="4010" fill="#beef69">Green Cow</text><text x="40" y="4080" fill="#7efbb3">Green Epiphany</text><text x="40" y="4150" fill="#aaee00">Green Fiasco</text><text x="40" y="4220" fill="#c4fe82">Green Incandescence</text><text x="40" y="4290" fill="#005249">Green Oblivion</text><text x="40" y="4360" fill="#4a5b51">Grubenwald</text><text x="40" y="4430" fill="#e3d6c7">Hanyauku</text><text x="40" y="4500" fill="#d1dfeb">Happy Thoughts</text><text x="40" y="4570" fill="#eae2de">Hazel Blush</text><text x="40" y="4640" fill="#d1dde1">Head in the Clouds</text><text x="40" y="4710" fill="#ebe2de">Head in the Sand</text><text x="40" y="4780" fill="#cad6de">Heaven Sent Storm</text><text x="40" y="4850" fill="#eae5d8">Helium</text><text x="40" y="4920" fill="#d5dae0">Hidden Creek</text><text x="40" y="4990" fill="#e0eedf">Hill Giant</text><text x="40" y="5060" fill="#faf1cd">Hint of Yellow</text><text x="40" y="5130" fill="#eae4da">Hot Desert</text><text x="40" y="5200" fill="#1f6357">Humboldt Redwoods</text><text x="40" y="5270" fill="#e0e1d8">Hygge Green</text><text x="40" y="5340" fill="#d7deeb">Icelandic Winds</text><text x="40" y="5410" fill="#d9e7e3">Icelandic Winter</text><text x="40" y="5480" fill="#00022e">Illicit Darkness</text><text x="40" y="5550" fill="#56fca2">Illicit Green</text><text x="40" y="5620" fill="#ff5ccd">Illicit Pink</text><text x="40" y="5690" fill="#bf77f6">Illicit Purple</text><text x="40" y="5760" fill="#ffbb22">Incandescence</text><text x="40" y="5830" fill="#4f9153">Ineffable Forest</text><text x="40" y="5900" fill="#63f7b4">Ineffable Green</text><text x="40" y="5970" fill="#caede4">Ineffable Ice Cap</text><text x="40" y="6040" fill="#e6e1c7">Ineffable Linen</text><text x="40" y="6110" fill="#cc99cc">Ineffable Magenta</text><text x="40" y="6180" fill="#bddde1">Infinitesimal Blue</text><text x="40" y="6250" fill="#d7e4cc">Infinitesimal Green</text><text x="40" y="6320" fill="#d9dce4">Inked Silk</text><text x="40" y="6390" fill="#48c072">Iridescent Green</text><text x="40" y="6460" fill="#966fd6">Iridescent Purple</text><text x="40" y="6530" fill="#cc4e5c">Iridescent Red</text><text x="40" y="6600" fill="#7bfdc7">Iridescent Turquoise</text><text x="40" y="6670" fill="#e6e6d8">Ivory Lashes</text><text x="40" y="6740" fill="#d1eaec">Jet d'Eau</text><text x="40" y="6810" fill="#69673a">Jungle Civilization</text><text x="40" y="6880" fill="#fbecd3">Junket</text><text x="40" y="6950" fill="#bbc5b2">Komorebi</text><text x="40" y="7020" fill="#a4dde9">Luminescent Blue</text><text x="40" y="7090" fill="#b9ff66">Luminescent Lime</text><text x="40" y="7160" fill="#f984ef">Luminescent Pink</text><text x="40" y="7230" fill="#cafffb">Luminescent Sky</text><text x="40" y="7300" fill="#ff33ee">Lurid Pink</text><text x="40" y="7370" fill="#ff4400">Lurid Red</text><text x="40" y="7440" fill="#9dbcd4">Mångata</text><text x="40" y="7510" fill="#c9e1e0">Mellifluous Blue</text><text x="40" y="7580" fill="#dcf4e6">Mint Flash</text><text x="40" y="7650" fill="#e0e7dd">Moist Silver</text><text x="40" y="7720" fill="#e7f2de">Mossy White</text><text x="40" y="7790" fill="#c5ced8">Nefarious Blue</text><text x="40" y="7860" fill="#e6d1dc">Nefarious Mauve</text><text x="40" y="7930" fill="#ffbb77">Nouveau-Riche</text><text x="40" y="8000" fill="#000435">Oblivion</text><text x="40" y="8070" fill="#ff8822">Orange Avant-Garde</text><text x="40" y="8140" fill="#deece1">Pastel Smirk</text><text x="40" y="8210" fill="#002d04">PCB Green</text><text x="40" y="8280" fill="#fde0dc">Peachy Ethereal</text><text x="40" y="8350" fill="#ded7da">Pearl Pebble</text><text x="40" y="8420" fill="#e0d9da">Pebble Stone</text><text x="40" y="8490" fill="#ded8dc">Pebbles</text><text x="40" y="8560" fill="#ff2266">Peevish Red</text><text x="40" y="8630" fill="#e4e0dc">Pergament Shreds</text><text x="40" y="8700" fill="#6a4345">Petrichor Brown</text><text x="40" y="8770" fill="#116356">Philodendron</text><text x="40" y="8840" fill="#ecdfd5">Pink Dyed Blond</text><text x="40" y="8910" fill="#ff22ee">Pink Kitsch</text><text x="40" y="8980" fill="#b4dfed">Polar Wind</text><text x="40" y="9050" fill="#e1dad9">Prcelain Goldfish</text><text x="40" y="9120" fill="#dbe7e1">Prcelain Mint</text><text x="40" y="9190" fill="#e8dee3">Precocious Red</text><text x="40" y="9260" fill="#ff2255">Pure Hedonist</text><text x="40" y="9330" fill="#aa66ff">Purple Hedonist</text><text x="40" y="9400" fill="#88ace0">Queer Blue</text><text x="40" y="9470" fill="#b36ff6">Queer Purple</text><text x="40" y="9540" fill="#b5dcea">Rain or Shine</text><text x="40" y="9610" fill="#e1dee8">Rare Crystal</text><text x="40" y="9680" fill="#e2e1d6">Reserved Beige</text><text x="40" y="9750" fill="#d2d8de">Reserved Blue</text><text x="40" y="9820" fill="#e3eadb">Rhine Falls</text><text x="40" y="9890" fill="#f3cf64">Ride off into the Sunset</text><text x="40" y="9960" fill="#d5d9dd">Rinse</text><text x="40" y="10030" fill="#d5dae1">Rivulet</text><text x="40" y="10100" fill="#e3dce0">Rusty Pebble</text><text x="40" y="10170" fill="#e6e5d3">Sand Puffs</text><text x="40" y="10240" fill="#d3dae1">Seven Days of Rain</text><text x="40" y="10310" fill="#35524a">Sharknado</text><text x="40" y="10380" fill="#dbd6d8">Sharp Pebbles</text><text x="40" y="10450" fill="#e2ded6">Shy Beige</text><text x="40" y="10520" fill="#d3d8de">Shy Blunt</text><text x="40" y="10590" fill="#d6dde6">Shy Candela</text><text x="40" y="10660" fill="#d7dadd">Shy Denim</text><text x="40" y="10730" fill="#e5e8d9">Shy Green</text><text x="40" y="10800" fill="#e0e4db">Shy Mint</text><text x="40" y="10870" fill="#dfd9dc">Shy Pink</text><text x="40" y="10940" fill="#dfe4dc">Silver Grass Traces</text><text x="40" y="11010" fill="#b8dced">Sky Wanderer</text><text x="40" y="11080" fill="#c1deea">Skywalker</text><text x="40" y="11150" fill="#dce0ea">Smell of Lavender</text><text x="40" y="11220" fill="#778899">Somnambulist</text><text x="40" y="11290" fill="#faf0cb">Sonorous Bells</text><text x="40" y="11360" fill="#d1d8dd">Suave Grey</text><text x="40" y="11430" fill="#d9d7d9">Sunny Pavement</text><text x="40" y="11500" fill="#4a766e">Tandayapa Cloud Forest</text><text x="40" y="11570" fill="#e0d4e0">Tender Limerence</text><text x="40" y="11640" fill="#d90166">Tête-à-Tête</text><text x="40" y="11710" fill="#e5e0dd">Timid Beige</text><text x="40" y="11780" fill="#d9e0ee">Timid Blue</text><text x="40" y="11850" fill="#dcdde5">Timid Cloud</text><text x="40" y="11920" fill="#e1e2d6">Timid Green</text><text x="40" y="11990" fill="#e4e0da">Timid Lime</text><text x="40" y="12060" fill="#dfdfea">Timid Purple</text><text x="40" y="12130" fill="#e4e0dd">Timid Sheep</text><text x="40" y="12200" fill="#c2dfe2">Trevi Fountain</text><text x="40" y="12270" fill="#524b4c">Underground Civilization</text><text x="40" y="12340" fill="#89776e">Urban Exploration</text><text x="40" y="12410" fill="#fafad2">Utepils</text><text x="40" y="12480" fill="#eecb88">Walnut Oil</text><text x="40" y="12550" fill="#e1e3d7">Washed Dollar</text><text x="40" y="12620" fill="#dedee5">White Elephant</text><text x="40" y="12690" fill="#faf3cf">Yellow Bombinate</text><text x="40" y="12760" fill="#e4e4cb">Yellow Phosphenes</text>
</svg>