<svg xmlns="http://www.w3.org/2000/svg" viewBox="0 0 600 2530">
  <defs>
    <style type="text/css">
      @import url('https://rsms.me/inter/inter.css');
      text {
        font-family: Inter, -apple-system, BlinkMacSystemFont, "Segoe UI", Roboto, Helvetica, Arial, sans-serif, "Apple Color Emoji", "Segoe UI Emoji", "Segoe UI Symbol";
        font-size: 40px;
        font-weight: 900;
      }
    </style>
  </defs>
  <rect fill="#212121" x="0" y="0" width="600" height="2530"/>
  <text x="40" y="90" fill="#262926">Bitter Liquorice</text><text x="40" y="160" fill="#5599ff">Blue Chaos</text><text x="40" y="230" fill="#b8623b">Caramel Dream</text><text x="40" y="300" fill="#cda291">Cashmere Clay</text><text x="40" y="370" fill="#bccb08">Cheerly Kiwi</text><text x="40" y="440" fill="#5c3612">Chocolate Fantasies</text><text x="40" y="510" fill="#335500">Deep Forestial Escapade</text><text x="40" y="580" fill="#111166">Dying Storm Blue</text><text x="40" y="650" fill="#dd5577">Fever Dream</text><text x="40" y="720" fill="#007733">Forestial</text><text x="40" y="790" fill="#556611">Forestial Outpost</text><text x="40" y="860" fill="#c9d1ef">Frozen Periwinkle</text><text x="40" y="930" fill="#c3dae3">Getting Wet</text><text x="40" y="1000" fill="#e4aa76">Golden Patina</text><text x="40" y="1070" fill="#fb9902">Jack-O</text><text x="40" y="1140" fill="#36a5c9">Laguna</text><text x="40" y="1210" fill="#1e4581">Maritime Outpost</text><text x="40" y="1280" fill="#0ee8a3">Mega Teal</text><text x="40" y="1350" fill="#b3583d">Overcast Brick</text><text x="40" y="1420" fill="#448833">Overgrown Mausoleum</text><text x="40" y="1490" fill="#ee99cc">Pearly Pink</text><text x="40" y="1560" fill="#bb11ee">Promiscuous Pink</text><text x="40" y="1630" fill="#112266">Pure Midnight</text><text x="40" y="1700" fill="#880099">Purple Feather Boa</text><text x="40" y="1770" fill="#cebada">Pussyfoot</text><text x="40" y="1840" fill="#4499aa">Rainy Mood</text><text x="40" y="1910" fill="#cc77ff">Rosy Fluffy Bedspread</text><text x="40" y="1980" fill="#fce6db">Slightly in Love</text><text x="40" y="2050" fill="#cc99dd">Somewhere in a Fairytale</text><text x="40" y="2120" fill="#094c49">Swamp Mausoleum</text><text x="40" y="2190" fill="#afe4e2">Timeless Seafoam</text><text x="40" y="2260" fill="#bb2277">Treasured Love</text><text x="40" y="2330" fill="#52c1b3">Treasured Teal</text><text x="40" y="2400" fill="#006633">Treasured Wilderness</text><text x="40" y="2470" fill="#55dd00">Tropical Funk</text>
</svg>