<svg xmlns="http://www.w3.org/2000/svg" viewBox="0 0 600 4140">
  <defs>
    <style type="text/css">
      @import url('https://rsms.me/inter/inter.css');
      text {
        font-family: Inter, -apple-system, BlinkMacSystemFont, "Segoe UI", Roboto, Helvetica, Arial, sans-serif, "Apple Color Emoji", "Segoe UI Emoji", "Segoe UI Symbol";
        font-size: 40px;
        font-weight: 900;
      }
    </style>
  </defs>
  <rect fill="#212121" x="0" y="0" width="600" height="4140"/>
  <text x="40" y="90" fill="#c7daed">Arctic Rain</text><text x="40" y="160" fill="#4d5588">Baby Whale</text><text x="40" y="230" fill="#202030">Black Howl</text><text x="40" y="300" fill="#545454">Brilliant Licorice</text><text x="40" y="370" fill="#f092d6">Bubblegum Kisses</text><text x="40" y="440" fill="#f4ff00">Busy Bee</text><text x="40" y="510" fill="#a55a55">Cheek Red</text><text x="40" y="580" fill="#ffc723">Cheerful Yellow</text><text x="40" y="650" fill="#fdde45">Cheese It Up</text><text x="40" y="720" fill="#b22743">Cherryade</text><text x="40" y="790" fill="#f5bcde">Cotton Candy Aesthetic</text><text x="40" y="860" fill="#ee2288">Cruel Jewel</text><text x="40" y="930" fill="#fcc9b6">Dolly Cheek</text><text x="40" y="1000" fill="#26ff2a">Electric Laser Lime</text><text x="40" y="1070" fill="#ee7799">Embarrassed</text><text x="40" y="1140" fill="#c88088">Fake Crush</text><text x="40" y="1210" fill="#71ab62">Ferntastic</text><text x="40" y="1280" fill="#0afa1e">Galactic Emerald</text><text x="40" y="1350" fill="#b69abc">Grape Smoke</text><text x="40" y="1420" fill="#06a9ca">Gummy Dolphins</text><text x="40" y="1490" fill="#c7f1ff">Heaven Gates</text><text x="40" y="1560" fill="#ff9933">Indian Saffron</text><text x="40" y="1630" fill="#b3107a">King's Plum Pie</text><text x="40" y="1700" fill="#00ff0d">Lime on Steroides</text><text x="40" y="1770" fill="#57958b">Martian Cerulean</text><text x="40" y="1840" fill="#0b0119">Midnight Jam</text><text x="40" y="1910" fill="#aea3d0">Milky Lavender</text><text x="40" y="1980" fill="#afffd5">Mintastic</text><text x="40" y="2050" fill="#063c89">Mystery Oceans</text><text x="40" y="2120" fill="#dead69">Necrophilic Brown</text><text x="40" y="2190" fill="#ff9832">Neon Carrot</text><text x="40" y="2260" fill="#a9c7cf">Ocean Eyes</text><text x="40" y="2330" fill="#efefe5">Oyster Island</text><text x="40" y="2400" fill="#b3695f">Peach Dunes</text><text x="40" y="2470" fill="#0f180a">Pinch of Pepper</text><text x="40" y="2540" fill="#b96d8e">Pinky Pickle</text><text x="40" y="2610" fill="#f65d20">Plastic Carrot</text><text x="40" y="2680" fill="#6b295a">Pretty in Prune</text><text x="40" y="2750" fill="#eeaadd">Pretty Pink Piggy</text><text x="40" y="2820" fill="#b67ca2">Purple Cheeks</text><text x="40" y="2890" fill="#160435">Quiet Abyss</text><text x="40" y="2960" fill="#10f144">Radiant Hulk</text><text x="40" y="3030" fill="#19cc89">Retro Lime</text><text x="40" y="3100" fill="#f00b52">Rock Lobster</text><text x="40" y="3170" fill="#550344">Royal Ash</text><text x="40" y="3240" fill="#105e80">Royal Blood</text><text x="40" y="3310" fill="#b0efce">Seafoam Splashes</text><text x="40" y="3380" fill="#839c6d">Sleepy Hollows</text><text x="40" y="3450" fill="#af546b">Somber Roses</text><text x="40" y="3520" fill="#e24736">Sour Cherry</text><text x="40" y="3590" fill="#bb02fe">Spectacular Purple</text><text x="40" y="3660" fill="#ffb700">Sunflower Mango</text><text x="40" y="3730" fill="#b6ff1a">Sweet Venom</text><text x="40" y="3800" fill="#bb00ff">The Grape War of 97'</text><text x="40" y="3870" fill="#0088ff">Too Blue to be True</text><text x="40" y="3940" fill="#558e4c">Victorian Garden</text><text x="40" y="4010" fill="#64338b">Violet Magican</text><text x="40" y="4080" fill="#4c3d29">Witch's Cottage</text>
</svg>