<svg xmlns="http://www.w3.org/2000/svg" viewBox="0 0 600 8970">
  <defs>
    <style type="text/css">
      @import url('https://rsms.me/inter/inter.css');
      text {
        font-family: Inter, -apple-system, BlinkMacSystemFont, "Segoe UI", Roboto, Helvetica, Arial, sans-serif, "Apple Color Emoji", "Segoe UI Emoji", "Segoe UI Symbol";
        font-size: 40px;
        font-weight: 900;
      }
    </style>
  </defs>
  <rect fill="#212121" x="0" y="0" width="600" height="8970"/>
  <text x="40" y="90" fill="#9c52f2">Aconite Violet</text><text x="40" y="160" fill="#f5d547">Anna Banana</text><text x="40" y="230" fill="#f2ff26">Aromatic Lemon</text><text x="40" y="300" fill="#65a98f">Artemesia Green</text><text x="40" y="370" fill="#ffe292">Banana Republic</text><text x="40" y="440" fill="#0a2f7c">Below the Surface</text><text x="40" y="510" fill="#00d973">Benzol Green</text><text x="40" y="580" fill="#ffbf99">Blushing Cinnamon</text><text x="40" y="650" fill="#d40701">Boulevardier</text><text x="40" y="720" fill="#ec842f">Bourbon Peach</text><text x="40" y="790" fill="#a93400">Burnt Sienna</text><text x="40" y="860" fill="#f6dfb2">Butter Muffin</text><text x="40" y="930" fill="#80ffcc">Calamine BLue</text><text x="40" y="1000" fill="#d978f0">Calypso Orchid</text><text x="40" y="1070" fill="#d60036">Carmine</text><text x="40" y="1140" fill="#e93a0e">Chili Crab</text><text x="40" y="1210" fill="#ab4231">Chocolate Chili</text><text x="40" y="1280" fill="#ffbf6e">Cinnamon Buff</text><text x="40" y="1350" fill="#c2612c">Cinnamon Rufous</text><text x="40" y="1420" fill="#94ff94">Cobalt Green</text><text x="40" y="1490" fill="#6c2e09">Cold Press Coffee</text><text x="40" y="1560" fill="#ffa6d9">Corinthian Pink</text><text x="40" y="1630" fill="#328e13">Cossack Green</text><text x="40" y="1700" fill="#340059">Cotinga Purple</text><text x="40" y="1770" fill="#fff0b2">Creamy Lemon</text><text x="40" y="1840" fill="#d00220">Dangerous Affair</text><text x="40" y="1910" fill="#4d52de">Dark Soft Violet</text><text x="40" y="1980" fill="#0d2b52">Dark Tyrian Blue</text><text x="40" y="2050" fill="#932904">Dark Umber</text><text x="40" y="2120" fill="#27252a">Darth Vader</text><text x="40" y="2190" fill="#0f261f">Deep Slate Green</text><text x="40" y="2260" fill="#172713">Deep Slate Olive</text><text x="40" y="2330" fill="#e9dbd2">Desert Mountain</text><text x="40" y="2400" fill="#1b8e13">Diamine Green</text><text x="40" y="2470" fill="#e6e1e2">Easter Orchid</text><text x="40" y="2540" fill="#e4bbd1">Eau de Rose</text><text x="40" y="2610" fill="#f5f3e9">Engulfed in Light</text><text x="40" y="2680" fill="#ff5ec4">Eosin Pink</text><text x="40" y="2750" fill="#8c3a00">Espresso Martini</text><text x="40" y="2820" fill="#c9303e">Etruscan Red</text><text x="40" y="2890" fill="#ed3d66">Eugenia Red</text><text x="40" y="2960" fill="#bf36e0">Eupatorium Purple</text><text x="40" y="3030" fill="#434d66">Evening Over the Ocean</text><text x="40" y="3100" fill="#522000">Evil Cigar</text><text x="40" y="3170" fill="#3a1f76">Explorer of the Galaxies</text><text x="40" y="3240" fill="#b74537">Fiery Topaz</text><text x="40" y="3310" fill="#f7bc5c">Fizzy Peach</text><text x="40" y="3380" fill="#f74480">Flamboyant Flamingo</text><text x="40" y="3450" fill="#fff953">Flowey Yellow</text><text x="40" y="3520" fill="#3d7016">Forest Empress</text><text x="40" y="3590" fill="#73b683">Frog Pond</text><text x="40" y="3660" fill="#946985">Fruit of Passion</text><text x="40" y="3730" fill="#b3e8c2">Glaucous Green</text><text x="40" y="3800" fill="#ca84fc">Grass Pink Orchid</text><text x="40" y="3870" fill="#ff616b">Grenadine Pink</text><text x="40" y="3940" fill="#b8b8ff">Greyish Lavender</text><text x="40" y="4010" fill="#fe653c">Halloween</text><text x="40" y="4080" fill="#eb6123">Halloween Party</text><text x="40" y="4150" fill="#ffb3f0">Hermosa Pink</text><text x="40" y="4220" fill="#db783e">Holy Cannoli</text><text x="40" y="4290" fill="#efe9e6">Holy Ghost</text><text x="40" y="4360" fill="#9e194d">Hydrangea Red</text><text x="40" y="4430" fill="#693c2a">In Caffeine We Trust</text><text x="40" y="4500" fill="#cc1a97">Indian Lake</text><text x="40" y="4570" fill="#ebd999">Ivory Buff</text><text x="40" y="4640" fill="#fa2b00">Jasper Red</text><text x="40" y="4710" fill="#a6d40d">Jeune Citron</text><text x="40" y="4780" fill="#05498b">Lady of the Night</text><text x="40" y="4850" fill="#f5c8dd">Laelia Pink</text><text x="40" y="4920" fill="#b08699">Light Brown Drab</text><text x="40" y="4990" fill="#654a46">Liver</text><text x="40" y="5060" fill="#c54673">Love Lord</text><text x="40" y="5130" fill="#e6718d">Loveland</text><text x="40" y="5200" fill="#46221b">Marmite</text><text x="40" y="5270" fill="#ed93d7">Mayflower Orchid</text><text x="40" y="5340" fill="#1e2433">Moonless Mystery</text><text x="40" y="5410" fill="#d3dcea">Morning Shower</text><text x="40" y="5480" fill="#d00172">Moth Orchid</text><text x="40" y="5550" fill="#a13905">Muddy</text><text x="40" y="5620" fill="#931121">Nigritella Red</text><text x="40" y="5690" fill="#f8f6e9">Nun Orchid</text><text x="40" y="5760" fill="#d99e73">Ochraceous Salmon</text><text x="40" y="5830" fill="#a7374b">Ochre Red</text><text x="40" y="5900" fill="#bcd382">Olive Buff</text><text x="40" y="5970" fill="#d1bd19">Olive Ocher</text><text x="40" y="6040" fill="#4f8fe6">Olympic Blue</text><text x="40" y="6110" fill="#c05200">Orange Rufous</text><text x="40" y="6180" fill="#abf5ed">Pale King's Blue</text><text x="40" y="6250" fill="#f4d68c">Pierogi</text><text x="40" y="6320" fill="#5c7287">Plumbeous</text><text x="40" y="6390" fill="#254770">Pretty Twilight Night</text><text x="40" y="6460" fill="#754260">Purple Drab</text><text x="40" y="6530" fill="#c4bf33">Pyrite Yellow</text><text x="40" y="6600" fill="#1c401f">Queen of Trees</text><text x="40" y="6670" fill="#0b0b0b">Raven</text><text x="40" y="6740" fill="#6f747b">Raven Grey</text><text x="40" y="6810" fill="#c4091e">Red Stunt</text><text x="40" y="6880" fill="#9b4b20">Rendang</text><text x="40" y="6950" fill="#fec36b">Roasted Sesame</text><text x="40" y="7020" fill="#b319ab">Rosolanc Purple</text><text x="40" y="7090" fill="#b0063d">Ruby Queen</text><text x="40" y="7160" fill="#96bfe6">Salvia Blue</text><text x="40" y="7230" fill="#c70752">Scarlet Cattleya Orchid</text><text x="40" y="7300" fill="#62d84e">Scorpion Green</text><text x="40" y="7370" fill="#c41661">Secret Affair</text><text x="40" y="7440" fill="#f20000">Spectrum Red</text><text x="40" y="7510" fill="#a85624">Spicy Cinnamon</text><text x="40" y="7580" fill="#f38f39">Spicy Paella</text><text x="40" y="7650" fill="#ff4dc9">Spinel Red</text><text x="40" y="7720" fill="#c5c0b0">Stone Fortress</text><text x="40" y="7790" fill="#baa600">Sulphine Yellow</text><text x="40" y="7860" fill="#f5160b">Sweet Chilli</text><text x="40" y="7930" fill="#483c30">Taupe Brown</text><text x="40" y="8000" fill="#ff80f9">Technolust</text><text x="40" y="8070" fill="#11610f">Thuja Green</text><text x="40" y="8140" fill="#d6201a">Tomato Burst</text><text x="40" y="8210" fill="#6bffb3">Venice Green</text><text x="40" y="8280" fill="#7e3075">Veronia Purple</text><text x="40" y="8350" fill="#f59994">Vinaceous</text><text x="40" y="8420" fill="#c74300">Vinaceous Tawny</text><text x="40" y="8490" fill="#531745">Violet Carmine</text><text x="40" y="8560" fill="#5c2c45">Vistoris Lake</text><text x="40" y="8630" fill="#5d8727">Weeping Fig</text><text x="40" y="8700" fill="#907e6c">Wet Taupe</text><text x="40" y="8770" fill="#a3b1f2">Wondrous Wisteria</text><text x="40" y="8840" fill="#dfb07e">Wooden Sword</text><text x="40" y="8910" fill="#f4e216">Xanthic</text>
</svg>