<svg xmlns="http://www.w3.org/2000/svg" viewBox="0 0 600 28360">
  <defs>
    <style type="text/css">
      @import url('https://rsms.me/inter/inter.css');
      text {
        font-family: Inter, -apple-system, BlinkMacSystemFont, "Segoe UI", Roboto, Helvetica, Arial, sans-serif, "Apple Color Emoji", "Segoe UI Emoji", "Segoe UI Symbol";
        font-size: 40px;
        font-weight: 900;
      }
    </style>
  </defs>
  <rect fill="#212121" x="0" y="0" width="600" height="28360"/>
  <text x="40" y="90" fill="#f2850d">À L’Orange</text><text x="40" y="160" fill="#bcddb3">A Mann’s Mint</text><text x="40" y="230" fill="#a7a6a3">Actor’s Star</text><text x="40" y="300" fill="#871646">Akuma’s Fury</text><text x="40" y="370" fill="#5500ff">Aladdin’s Feather</text><text x="40" y="440" fill="#fcefc1">Alexandria’s Lighthouse</text><text x="40" y="510" fill="#c68886">All’s Ace</text><text x="40" y="580" fill="#000055">Alucard’s Night</text><text x="40" y="650" fill="#fea7bd">Amélie’s Tutu</text><text x="40" y="720" fill="#34546d">America’s Cup</text><text x="40" y="790" fill="#eed4c8">Angel’s Face</text><text x="40" y="860" fill="#f3f1e6">Angel’s Feather</text><text x="40" y="930" fill="#f6dd34">Angel’s Trumpet</text><text x="40" y="1000" fill="#dbdfd4">Angel’s Whisper</text><text x="40" y="1070" fill="#27b692">Aoife’s Green</text><text x="40" y="1140" fill="#eeffff">Aphrodite’s Pearls</text><text x="40" y="1210" fill="#ddffff">Apollo’s White</text><text x="40" y="1280" fill="#1fb57a">April Fool’s Red</text><text x="40" y="1350" fill="#b2a5d3">Ariel’s Delight</text><text x="40" y="1420" fill="#eee4d2">Artist’s Canvas</text><text x="40" y="1490" fill="#37393e">Artist’s Charcoal</text><text x="40" y="1560" fill="#a1969b">Artist’s Shadow</text><text x="40" y="1630" fill="#f60206">Assassin’s Red</text><text x="40" y="1700" fill="#ae8087">Audrey’s Blush</text><text x="40" y="1770" fill="#ba7a61">Autumn’s Hill</text><text x="40" y="1840" fill="#2e5894">B’dazzled Blue</text><text x="40" y="1910" fill="#ffaec1">Baby’s Blanket</text><text x="40" y="1980" fill="#e8c1c2">Baby’s Booties</text><text x="40" y="2050" fill="#d8e4e8">Baby’s Breath</text><text x="40" y="2120" fill="#5c3317">Baker’s Chocolate</text><text x="40" y="2190" fill="#c98f70">Baker’s Dream</text><text x="40" y="2260" fill="#ee3366">Bat’s Blood Soup</text><text x="40" y="2330" fill="#940084">Batman’s NES Cape</text><text x="40" y="2400" fill="#7b9aad">Bay’s Water</text><text x="40" y="2470" fill="#fbedd7">Beaches of Cancun</text><text x="40" y="2540" fill="#e8d9d2">Bee’s Knees</text><text x="40" y="2610" fill="#eabf86">Bee’s Wax</text><text x="40" y="2680" fill="#adc3a7">Belladonna’s Leaf</text><text x="40" y="2750" fill="#fff1cf">Bird’s Child</text><text x="40" y="2820" fill="#aaccb9">Bird’s Egg Green</text><text x="40" y="2890" fill="#cfbb9b">Bird’s Nest</text><text x="40" y="2960" fill="#545562">Black Dragon’s Cauldron</text><text x="40" y="3030" fill="#fce7e4">Blackbird’s Egg</text><text x="40" y="3100" fill="#020f03">Blackn’t</text><text x="40" y="3170" fill="#404956">Blue Sou’wester</text><text x="40" y="3240" fill="#7395b8">Bluebird’s Belly</text><text x="40" y="3310" fill="#de5d83">Blush d’Amour</text><text x="40" y="3380" fill="#7c644a">Bonnie’s Bench</text><text x="40" y="3450" fill="#ffd182">Bread ’n Butter</text><text x="40" y="3520" fill="#f9e2e1">Bride’s Blush</text><text x="40" y="3590" fill="#ddcfbf">Brig O’Doon</text><text x="40" y="3660" fill="#f3d8e0">Brittany’s Bow</text><text x="40" y="3730" fill="#e9e3d3">Bud’s Sails</text><text x="40" y="3800" fill="#ffbb33">Buddha’s Love Handles</text><text x="40" y="3870" fill="#cd5b45">Bugman’s Glow</text><text x="40" y="3940" fill="#fad9dd">Bunny’s Nose</text><text x="40" y="4010" fill="#83bce5">C’est La Vie</text><text x="40" y="4080" fill="#93807f">California Dreamin’</text><text x="40" y="4150" fill="#817667">Camel’s Hump</text><text x="40" y="4220" fill="#a87376">Carley’s Rose</text><text x="40" y="4290" fill="#77a135">Carol’s Purr</text><text x="40" y="4360" fill="#405978">Carter’s Scroll</text><text x="40" y="4430" fill="#bb7700">Cassandra’s Curse</text><text x="40" y="4500" fill="#e7e7e3">Cat’s Cream</text><text x="40" y="4570" fill="#d6a75d">Cat’s Eye Marble</text><text x="40" y="4640" fill="#0071a0">Cat’s Purr</text><text x="40" y="4710" fill="#9c7b87">Century’s Last Sunset</text><text x="40" y="4780" fill="#f3f4f5">Chef’s Hat</text><text x="40" y="4850" fill="#cc3b3b">Chef’s Kiss</text><text x="40" y="4920" fill="#e7bcd4">Child’s Play</text><text x="40" y="4990" fill="#a1ced7">Children’s Soft Blue</text><text x="40" y="5060" fill="#f6bbca">Christy’s Smile</text><text x="40" y="5130" fill="#00507f">Cleo’s Bath</text><text x="40" y="5200" fill="#795088">Cleopatra’s Gown</text><text x="40" y="5270" fill="#ddc5aa">Cliff’s View</text><text x="40" y="5340" fill="#b4bcd1">Cold Winter’s Morn</text><text x="40" y="5410" fill="#d0cbce">Columbo’s Coat</text><text x="40" y="5480" fill="#7a6e7e">Composer’s Magic</text><text x="40" y="5550" fill="#175a6c">Connor’s Lakefront</text><text x="40" y="5620" fill="#014e83">Cook’s Bay</text><text x="40" y="5690" fill="#384248">Cool Operator’s Overalls</text><text x="40" y="5760" fill="#017c85">Cote D’Azur</text><text x="40" y="5830" fill="#772277">Count’s Wardrobe</text><text x="40" y="5900" fill="#f1ede5">Cow’s Milk</text><text x="40" y="5970" fill="#908a78">Cricket’s Cross</text><text x="40" y="6040" fill="#ee6b8b">Cupid’s Arrow</text><text x="40" y="6110" fill="#ff22dd">Cupid’s Eye</text><text x="40" y="6180" fill="#eedcdf">Cupid’s Revenge</text><text x="40" y="6250" fill="#2f484e">Dad’s Coupe</text><text x="40" y="6320" fill="#c3bfae">Dave’s Den</text><text x="40" y="6390" fill="#535554">Davy’s Grey</text><text x="40" y="6460" fill="#ff3344">Devil’s Advocate</text><text x="40" y="6530" fill="#8f9805">Devil’s Flower Mantis</text><text x="40" y="6600" fill="#44aa55">Devil’s Grass</text><text x="40" y="6670" fill="#662a2c">Devil’s Lip</text><text x="40" y="6740" fill="#423450">Devil’s Plum</text><text x="40" y="6810" fill="#fae432">Dhalsim’s Yoga Flame</text><text x="40" y="6880" fill="#a37336">Digger’s Gold</text><text x="40" y="6950" fill="#d6e9e4">Dillard’s Blue</text><text x="40" y="7020" fill="#3a797e">Diver’s Eden</text><text x="40" y="7090" fill="#ed2c1a">Don’t Be Shy</text><text x="40" y="7160" fill="#f4f2ea">Dove’s Wing</text><text x="40" y="7230" fill="#b84048">Dragon’s Blood</text><text x="40" y="7300" fill="#d41003">Dragon’s Breath</text><text x="40" y="7370" fill="#9c2d5d">Dragon’s Fire</text><text x="40" y="7440" fill="#e7e04e">Dragon’s Gold</text><text x="40" y="7510" fill="#ccdfe8">Duck’s Egg Blue</text><text x="40" y="7580" fill="#7b99b0">Dyer’s Woad</text><text x="40" y="7650" fill="#8d7d68">Eagle’s Meadow</text><text x="40" y="7720" fill="#d4cbcc">Eagle’s View</text><text x="40" y="7790" fill="#264066">Elmer’s Echo</text><text x="40" y="7860" fill="#eccee5">Emilie’s Dream</text><text x="40" y="7930" fill="#f0a0b6">Emperor’s Children</text><text x="40" y="8000" fill="#b0976d">Emperor’s Gold</text><text x="40" y="8070" fill="#99959d">Emperor’s Robe</text><text x="40" y="8140" fill="#00816a">Emperor’s Silk</text><text x="40" y="8210" fill="#80f9ad">Esper’s Fungus Green</text><text x="40" y="8280" fill="#aad4d1">Eton Blue</text><text x="40" y="8350" fill="#d8aca0">Everything’s Rosy</text><text x="40" y="8420" fill="#8f917c">Farmer’s Market</text><text x="40" y="8490" fill="#664422">Florida’s Alligator</text><text x="40" y="8560" fill="#cad175">Fool’s Gold</text><text x="40" y="8630" fill="#daa994">Fortune’s Prize</text><text x="40" y="8700" fill="#5e5241">Friar’s Brown</text><text x="40" y="8770" fill="#8c8449">Frog’s Legs</text><text x="40" y="8840" fill="#dacca8">Gabriel’s Light</text><text x="40" y="8910" fill="#f8e6c6">Gabriel’s Torch</text><text x="40" y="8980" fill="#5c534d">Gardener’s Soil</text><text x="40" y="9050" fill="#669900">Gecko’s Dream</text><text x="40" y="9120" fill="#dba674">Gehenna’s Gold</text><text x="40" y="9190" fill="#c1becd">Gentleman’s Suit</text><text x="40" y="9260" fill="#ca882c">Gentleman’s Whiskey</text><text x="40" y="9330" fill="#f1e68c">Gentlemann’s Business Pants</text><text x="40" y="9400" fill="#b05c52">Giant’s Club</text><text x="40" y="9470" fill="#ffc265">Gold’s Great Touch</text><text x="40" y="9540" fill="#f5f6f7">Gram’s Hair</text><text x="40" y="9610" fill="#e9dec8">Gramp’s Tea Cup</text><text x="40" y="9680" fill="#f7e7dd">Grandma’s Cameo</text><text x="40" y="9750" fill="#e0b8c0">Grandma’s Pink Tiles</text><text x="40" y="9820" fill="#beaecf">Grape’s Treasure</text><text x="40" y="9890" fill="#0000fc">Graphical 80’s Sky</text><text x="40" y="9960" fill="#ff0077">Guns N’ Roses</text><text x="40" y="10030" fill="#a698a8">Gypsy’s Gown</text><text x="40" y="10100" fill="#277aba">Haddock’s Sweater</text><text x="40" y="10170" fill="#bb0000">Harlock’s Cape</text><text x="40" y="10240" fill="#7e8e90">Harrow’s Gate</text><text x="40" y="10310" fill="#f4c26c">Hawker’s Gold</text><text x="40" y="10380" fill="#e2b5bd">Heart’s Content</text><text x="40" y="10450" fill="#ac3e5f">Heart’s Desire</text><text x="40" y="10520" fill="#ce9f2f">Herald’s Trumpet</text><text x="40" y="10590" fill="#119900">Herbalist’s Garden</text><text x="40" y="10660" fill="#d2b395">Hiker’s Delight</text><text x="40" y="10730" fill="#dad5c7">Hog’s Pudding</text><text x="40" y="10800" fill="#49796b">Hooker’s Green</text><text x="40" y="10870" fill="#d6d9dd">House Sparrow’s Egg</text><text x="40" y="10940" fill="#559933">Hubert’s Truck Green</text><text x="40" y="11010" fill="#9fa09f">Hugh’s Hue</text><text x="40" y="11080" fill="#989a8d">Hunter’s Hollow</text><text x="40" y="11150" fill="#db472c">Hunter’s Orange</text><text x="40" y="11220" fill="#ebbf5c">I’m a Local</text><text x="40" y="11290" fill="#9bd8c4">Isabella’s Aqua</text><text x="40" y="11360" fill="#ffb278">Isn’t It Just Peachy</text><text x="40" y="11430" fill="#de95ae">It’s a Girl</text><text x="40" y="11500" fill="#ffdae2">It’s A Girl!</text><text x="40" y="11570" fill="#cc7365">It’s My Party</text><text x="40" y="11640" fill="#bc989e">It’s Your Mauve</text><text x="40" y="11710" fill="#a06856">J’s Big Heart</text><text x="40" y="11780" fill="#bcaccd">Jacey’s Favorite</text><text x="40" y="11850" fill="#ceb5c8">Janey’s Party</text><text x="40" y="11920" fill="#b36b92">Je t’aime</text><text x="40" y="11990" fill="#d1eaec">Jet d’Eau</text><text x="40" y="12060" fill="#005b7a">Job’s Tears</text><text x="40" y="12130" fill="#d70141">Joker’s Smile</text><text x="40" y="12200" fill="#bac9d4">Journey’s End</text><text x="40" y="12270" fill="#e94b7e">Kacey’s Pink</text><text x="40" y="12340" fill="#8fa099">Kathleen’s Garden</text><text x="40" y="12410" fill="#babd6c">Kelly’s Flower</text><text x="40" y="12480" fill="#0092ae">Kelp’thar Forest Blue</text><text x="40" y="12550" fill="#d45871">Kenny’s Kiss</text><text x="40" y="12620" fill="#b57281">Kerr’s Pink Potato</text><text x="40" y="12690" fill="#ed8732">Kid’s Stuff</text><text x="40" y="12760" fill="#c48692">King’s Cloak</text><text x="40" y="12830" fill="#706d5e">King’s Court</text><text x="40" y="12900" fill="#b3107a">King’s Plum Pie</text><text x="40" y="12970" fill="#b59d77">King’s Ransom</text><text x="40" y="13040" fill="#6274ab">King’s Robe</text><text x="40" y="13110" fill="#e9cfb7">Kingdom’s Keys</text><text x="40" y="13180" fill="#8aadf7">Kitten’s Eye</text><text x="40" y="13250" fill="#daa89b">Kitten’s Paw</text><text x="40" y="13320" fill="#5c5d5d">Knight’s Armor</text><text x="40" y="13390" fill="#aa91ae">Knight’s Tale</text><text x="40" y="13460" fill="#d6c575">Labrador’s Locks</text><text x="40" y="13530" fill="#e3e3ea">Lady’s Slipper</text><text x="40" y="13600" fill="#c8ccbc">Lamb’s Ears</text><text x="40" y="13670" fill="#ffffe3">Lamb’s Wool</text><text x="40" y="13740" fill="#efeae7">Lauren’s Lace</text><text x="40" y="13810" fill="#d5e5e7">Lauren’s Surprise</text><text x="40" y="13880" fill="#3c351f">LeChuck’s Beard</text><text x="40" y="13950" fill="#e59d7b">Les Demoiselles d’Avignon</text><text x="40" y="14020" fill="#d6d9cb">Light Lamb’s Ears</text><text x="40" y="14090" fill="#f6ddce">Light Maiden’s Blush</text><text x="40" y="14160" fill="#d4a1b0">Lili Elbe’s Pink</text><text x="40" y="14230" fill="#3eaf76">Link’s Awakening</text><text x="40" y="14300" fill="#81522e">Lion’s Lair</text><text x="40" y="14370" fill="#e8af49">Lion’s Mane</text><text x="40" y="14440" fill="#946b41">Lion’s Mane Blonde</text><text x="40" y="14510" fill="#f5dab3">Lion’s Roar</text><text x="40" y="14580" fill="#d6e8e1">Lit’L Buoy Blew</text><text x="40" y="14650" fill="#442117">Longan’s Kernel</text><text x="40" y="14720" fill="#bb2288">Loulou’s Purple</text><text x="40" y="14790" fill="#d0c6b5">Lover’s Hideaway</text><text x="40" y="14860" fill="#8f3b3d">Lover’s Kiss</text><text x="40" y="14930" fill="#f2dbdb">Lover’s Knot</text><text x="40" y="15000" fill="#957e68">Lover’s Leap</text><text x="40" y="15070" fill="#f4ced8">Lover’s Retreat</text><text x="40" y="15140" fill="#b48ca3">Lover’s Tryst</text><text x="40" y="15210" fill="#54a64d">Lush Un’goro Crater</text><text x="40" y="15280" fill="#ddeee2">Maggie’s Magic</text><text x="40" y="15350" fill="#aa1d8e">Magneto’s Magenta</text><text x="40" y="15420" fill="#f3d3bf">Maiden’s Blush</text><text x="40" y="15490" fill="#f8f2d8">Mallard’s Egg</text><text x="40" y="15560" fill="#69913d">Mary’s Garden</text><text x="40" y="15630" fill="#f6d2d4">Mary’s Rose</text><text x="40" y="15700" fill="#cf6e66">Matador’s Cape</text><text x="40" y="15770" fill="#efe9dd">Mawmaw’s Pearls</text><text x="40" y="15840" fill="#777711">Medusa’s Snakes</text><text x="40" y="15910" fill="#5d5f73">Men’s Night</text><text x="40" y="15980" fill="#ff9408">Merin’s Fire</text><text x="40" y="16050" fill="#efe2d9">Merlin’s Beard</text><text x="40" y="16120" fill="#9f8898">Merlin’s Choice</text><text x="40" y="16190" fill="#89556e">Merlin’s Cloak</text><text x="40" y="16260" fill="#8aa786">Mermaid’s Cove</text><text x="40" y="16330" fill="#59c8a5">Mermaid’s Kiss</text><text x="40" y="16400" fill="#337b35">Mermaid’s Tail</text><text x="40" y="16470" fill="#aa8ed6">Middy’s Purple</text><text x="40" y="16540" fill="#b4d0d9">Midsummer’s Dream</text><text x="40" y="16610" fill="#d3cec5">Miner’s Dust</text><text x="40" y="16680" fill="#614251">Miranda’s Spike</text><text x="40" y="16750" fill="#eab781">Mom’s Apple Pie</text><text x="40" y="16820" fill="#ffd4bb">Mom’s Love</text><text x="40" y="16890" fill="#f5c553">Mom’s Pancake</text><text x="40" y="16960" fill="#8cb293">Monarch’s Cocoon</text><text x="40" y="17030" fill="#dde0ea">Monet’s Lavender</text><text x="40" y="17100" fill="#6e6355">Monk’s Cloth</text><text x="40" y="17170" fill="#d9ad9e">Montezuma’s Castle</text><text x="40" y="17240" fill="#d9be77">Morning’s Egg</text><text x="40" y="17310" fill="#edf1db">Moth’s Wing</text><text x="40" y="17380" fill="#f7edca">Mother’s Milk</text><text x="40" y="17450" fill="#d8d0e3">Mountain’s Majesty</text><text x="40" y="17520" fill="#828e84">Mummy’s Tomb</text><text x="40" y="17590" fill="#a6d292">Nature’s Delight</text><text x="40" y="17660" fill="#666a60">Nature’s Gate</text><text x="40" y="17730" fill="#99a399">Nature’s Gift</text><text x="40" y="17800" fill="#006611">Nature’s Masterpiece</text><text x="40" y="17870" fill="#c5d4cd">Nature’s Reflection</text><text x="40" y="17940" fill="#117733">Nature’s Strength</text><text x="40" y="18010" fill="#933d41">Nelson’s Milk Snake</text><text x="40" y="18080" fill="#11425d">Neptune’s Wrath</text><text x="40" y="18150" fill="#318181">Nero’s Green</text><text x="40" y="18220" fill="#b2c7e1">Newman’s Eye</text><text x="40" y="18290" fill="#909062">Nick’s Nook</text><text x="40" y="18360" fill="#51384a">Noble Hatter’s Violet</text><text x="40" y="18430" fill="#c3f400">Non-Toxic Boyfriend</text><text x="40" y="18500" fill="#99a9ad">Nor’wester</text><text x="40" y="18570" fill="#003333">Nora’s Forest</text><text x="40" y="18640" fill="#9b8f22">Nurgle’s Rot</text><text x="40" y="18710" fill="#7b6c8e">Nymph’s Delight</text><text x="40" y="18780" fill="#f3a347">O’Brien Orange</text><text x="40" y="18850" fill="#58ac8f">O’grady Green</text><text x="40" y="18920" fill="#395643">O’Neal Green</text><text x="40" y="18990" fill="#306a78">Ocean’s Embrace</text><text x="40" y="19060" fill="#b8995b">Orlean’s Tune</text><text x="40" y="19130" fill="#f9f2de">Painter’s Canvas</text><text x="40" y="19200" fill="#f2ebdd">Painter’s White</text><text x="40" y="19270" fill="#abf5ed">Pale King’s Blue</text><text x="40" y="19340" fill="#fedbb7">Pandora’s Box</text><text x="40" y="19410" fill="#249148">Paperboy’s Lawn</text><text x="40" y="19480" fill="#734f96">Parfait d’Amour</text><text x="40" y="19550" fill="#536878">Payne’s Grey</text><text x="40" y="19620" fill="#fd9b88">Peach’s Daydream</text><text x="40" y="19690" fill="#eec9a6">Peaches’n’Cream</text><text x="40" y="19760" fill="#b6a8d0">People’s Choice</text><text x="40" y="19830" fill="#ef8b38">Peril’s Flames</text><text x="40" y="19900" fill="#007367">Pharaoh’s Gem</text><text x="40" y="19970" fill="#83d1a9">Pharaoh’s Jade</text><text x="40" y="20040" fill="#59bbc2">Pharaoh’s Seas</text><text x="40" y="20110" fill="#e0dcd7">Pheasant’s Egg</text><text x="40" y="20180" fill="#c3585c">Pimm’s</text><text x="40" y="20250" fill="#71424a">Pirat’s Wine</text><text x="40" y="20320" fill="#005176">Pirate’s Haven</text><text x="40" y="20390" fill="#b08f42">Pirate’s Hook</text><text x="40" y="20460" fill="#716970">Pirate’s Trinket</text><text x="40" y="20530" fill="#ff8877">Play ’til dawn</text><text x="40" y="20600" fill="#dacee8">Plum’s the Word</text><text x="40" y="20670" fill="#b6c9b8">Pond’s Edge</text><text x="40" y="20740" fill="#ccd7df">Poppy’s Whiskers</text><text x="40" y="20810" fill="#d9d6c7">Poseidon’s Beard</text><text x="40" y="20880" fill="#4400ee">Poseidon’s Territory</text><text x="40" y="20950" fill="#a64826">Potter’s Clay</text><text x="40" y="21020" fill="#c2937b">Potter’s Pink</text><text x="40" y="21090" fill="#c7cee8">Purple Pj’s</text><text x="40" y="21160" fill="#eec3ee">Purple’s Baby Sister</text><text x="40" y="21230" fill="#f2eede">Queen Anne’s Lace</text><text x="40" y="21300" fill="#7b6fa0">Queen’s</text><text x="40" y="21370" fill="#9d433f">Queen’s Coat</text><text x="40" y="21440" fill="#8b5776">Queen’s Honour</text><text x="40" y="21510" fill="#753a40">Queen’s Rose</text><text x="40" y="21580" fill="#d3bcc5">Queen’s Tart</text><text x="40" y="21650" fill="#cdb9c4">Queen’s Violet</text><text x="40" y="21720" fill="#f32507">Rage of Quel’Danas</text><text x="40" y="21790" fill="#8d514c">Ragin’ Cajun</text><text x="40" y="21860" fill="#e34029">Raiden’s Fury</text><text x="40" y="21930" fill="#ff09ff">Rainbow’s Inner Rim</text><text x="40" y="22000" fill="#ff0001">Rainbow’s Outer Rim</text><text x="40" y="22070" fill="#f6f3e7">Rapture’s Light</text><text x="40" y="22140" fill="#bb2255">Raven’s Banquet</text><text x="40" y="22210" fill="#030205">Raven’s Coat</text><text x="40" y="22280" fill="#b87f84">Rennie’s Rose</text><text x="40" y="22350" fill="#ba7176">Rita’s Rouge</text><text x="40" y="22420" fill="#6dedfd">Robin’s Egg</text><text x="40" y="22490" fill="#8b785c">Rock’n Oak</text><text x="40" y="22560" fill="#fc8aaa">Rock’n’Rose</text><text x="40" y="22630" fill="#f3f1e1">Ryu’s Kimono</text><text x="40" y="22700" fill="#a87f5f">S’mores</text><text x="40" y="22770" fill="#496f8e">Sailor’s Bay</text><text x="40" y="22840" fill="#334b58">Sailor’s Coat</text><text x="40" y="22910" fill="#b8a47a">Sailor’s Knot</text><text x="40" y="22980" fill="#f2d7e6">Samantha’s Room</text><text x="40" y="23050" fill="#00aac1">Sarah’s Garden</text><text x="40" y="23120" fill="#66ff66">Screamin’ Green</text><text x="40" y="23190" fill="#5511cc">Sea Serpent’s Tears</text><text x="40" y="23260" fill="#507bce">Serenity’s Reign</text><text x="40" y="23330" fill="#c06f68">Shepherd’s Warning</text><text x="40" y="23400" fill="#4f84af">Ship’s Harbour</text><text x="40" y="23470" fill="#2d3a49">Ship’s Officer</text><text x="40" y="23540" fill="#e2041b">Shojo’s Blood</text><text x="40" y="23610" fill="#fee5cb">Sinner’s City</text><text x="40" y="23680" fill="#773399">Skeletor’s Cape</text><text x="40" y="23750" fill="#bbcee0">Sky’s the Limit</text><text x="40" y="23820" fill="#4d4e5c">Squid’s Ink</text><text x="40" y="23890" fill="#665e48">Squirrel’s Nest</text><text x="40" y="23960" fill="#577c88">St. Bart’s</text><text x="40" y="24030" fill="#23297a">St. Patrick’s Blue</text><text x="40" y="24100" fill="#e8dfd8">Starling’s Egg</text><text x="40" y="24170" fill="#605c58">Stone’s Throw</text><text x="40" y="24240" fill="#cfc9bc">Storm’s Coming</text><text x="40" y="24310" fill="#f7c5d1">Sullivan’s Heart</text><text x="40" y="24380" fill="#134558">Sultan’s Silk</text><text x="40" y="24450" fill="#74cdd8">Summer of ’82</text><text x="40" y="24520" fill="#dc9367">Summer’s End</text><text x="40" y="24590" fill="#a97069">Summer’s Eve</text><text x="40" y="24660" fill="#f9e699">Summer’s Heat</text><text x="40" y="24730" fill="#ecc033">Sun Wukong’s Crown</text><text x="40" y="24800" fill="#f6f2e5">Sun’s Glory</text><text x="40" y="24870" fill="#a94e37">Sun’s Rage</text><text x="40" y="24940" fill="#374755">Surf’n’dive</text><text x="40" y="25010" fill="#c4d3e5">Surf’s Surprise</text><text x="40" y="25080" fill="#c6e4eb">Surf’s Up</text><text x="40" y="25150" fill="#73c0d2">Surfin’</text><text x="40" y="25220" fill="#dfc2aa">Tailor’s Buff</text><text x="40" y="25290" fill="#767a49">Tara’s Drapes</text><text x="40" y="25360" fill="#bcac9f">Teddy’s Taupe</text><text x="40" y="25430" fill="#f2e688">Templar’s Gold</text><text x="40" y="25500" fill="#b0b08e">That’s Atomic</text><text x="40" y="25570" fill="#dcd290">That’s My Lime</text><text x="40" y="25640" fill="#102030">The Count’s Black</text><text x="40" y="25710" fill="#666420">The Devil’s Grass</text><text x="40" y="25780" fill="#bb00ff">The Grape War of 97’</text><text x="40" y="25850" fill="#ad9569">There’s No Place Like Home</text><text x="40" y="25920" fill="#44ccff">Thor’s Thunder</text><text x="40" y="25990" fill="#9a7c63">Tiger’s Eye</text><text x="40" y="26060" fill="#ffc5a3">Tomorrow’s Coral</text><text x="40" y="26130" fill="#8eb9c4">Trisha’s Eyes</text><text x="40" y="26200" fill="#cdbb9c">Tumblin’ Tumbleweed</text><text x="40" y="26270" fill="#93bcbb">Turner’s Light</text><text x="40" y="26340" fill="#e6c26f">Turner’s Yellow</text><text x="40" y="26410" fill="#a63864">Valentine’s Day</text><text x="40" y="26480" fill="#b63364">Valentine’s Kiss</text><text x="40" y="26550" fill="#2e58e8">Veteran’s Day Blue</text><text x="40" y="26620" fill="#483838">Warm Operator’s Overalls</text><text x="40" y="26690" fill="#bfb18a">Weaver’s Spool</text><text x="40" y="26760" fill="#9d7f62">Weaver’s Tool</text><text x="40" y="26830" fill="#000b00">Wet Crow’s Wing</text><text x="40" y="26900" fill="#c7d3d5">Whale’s Mouth</text><text x="40" y="26970" fill="#115a82">Whale’s Tale</text><text x="40" y="27040" fill="#fff4e8">What’s Left</text><text x="40" y="27110" fill="#fde3b5">White Strawberry</text><text x="40" y="27180" fill="#050d02">Whiten’t</text><text x="40" y="27250" fill="#365771">Winner’s Circle</text><text x="40" y="27320" fill="#d4dddd">Winter’s Breath</text><text x="40" y="27390" fill="#def7fe">Winter’s Day</text><text x="40" y="27460" fill="#aa9966">Wistman’s Wood</text><text x="40" y="27530" fill="#4c3d29">Witch’s Cottage</text><text x="40" y="27600" fill="#a090b8">Wizard’s Brew</text><text x="40" y="27670" fill="#5d6098">Wizard’s Potion</text><text x="40" y="27740" fill="#584b4e">Wizard’s Spell</text><text x="40" y="27810" fill="#3d343f">Wolf’s Bane</text><text x="40" y="27880" fill="#5c5451">Wolf’s Fur</text><text x="40" y="27950" fill="#61633f">Wood’s Creek</text><text x="40" y="28020" fill="#e9d6bd">Writer’s Parchment</text><text x="40" y="28090" fill="#e2caaf">You’re Blushing</text><text x="40" y="28160" fill="#823c3d">Zangief’s Chest</text><text x="40" y="28230" fill="#424f3b">Zepheniah’s Greed</text><text x="40" y="28300" fill="#eeff00">Zeus’s Bolt</text>
</svg>