<svg xmlns="http://www.w3.org/2000/svg" viewBox="0 0 600 2040">
  <defs>
    <style type="text/css">
      @import url('https://rsms.me/inter/inter.css');
      text {
        font-family: Inter, -apple-system, BlinkMacSystemFont, "Segoe UI", Roboto, Helvetica, Arial, sans-serif, "Apple Color Emoji", "Segoe UI Emoji", "Segoe UI Symbol";
        font-size: 40px;
        font-weight: 900;
      }
    </style>
  </defs>
  <rect fill="#212121" x="0" y="0" width="600" height="2040"/>
  <text x="40" y="90" fill="#005765">Abyssal Waters</text><text x="40" y="160" fill="#7d623c">Autumn Gold</text><text x="40" y="230" fill="#7b4d3a">Cheeky Chestnut</text><text x="40" y="300" fill="#100438">Congressional Navy</text><text x="40" y="370" fill="#f5b700">Curry Bubbels</text><text x="40" y="440" fill="#4d4b4b">Deep Earth</text><text x="40" y="510" fill="#4a423a">Dried Dates</text><text x="40" y="580" fill="#110320">Election Night</text><text x="40" y="650" fill="#eee3d6">Farmers Milk</text><text x="40" y="720" fill="#656464">Hard Coal</text><text x="40" y="790" fill="#fff6d9">Hot Beach</text><text x="40" y="860" fill="#517933">Luscious Lemongrass</text><text x="40" y="930" fill="#862a2e">Polished Apple</text><text x="40" y="1000" fill="#eeaa55">Polished Gold</text><text x="40" y="1070" fill="#e16233">Precious Pumpkin</text><text x="40" y="1140" fill="#603231">Rampant Rhubarb</text><text x="40" y="1210" fill="#492d35">Ripe Eggplant</text><text x="40" y="1280" fill="#896a46">Sneaky Sesame</text><text x="40" y="1350" fill="#a38061">Spiced Honey</text><text x="40" y="1420" fill="#eeaa44">Summer Glow</text><text x="40" y="1490" fill="#aa33ee">Sweet Desire</text><text x="40" y="1560" fill="#8844ff">Sweet Escape</text><text x="40" y="1630" fill="#5c9bcc">Tall Waves</text><text x="40" y="1700" fill="#9b6d54">Tasty Toffee</text><text x="40" y="1770" fill="#ddc9b1">Warm Shell</text><text x="40" y="1840" fill="#f5efe5">White Beach</text><text x="40" y="1910" fill="#d7e5ea">White Sea</text><text x="40" y="1980" fill="#082903">Zia Olive</text>
</svg>