<svg xmlns="http://www.w3.org/2000/svg" viewBox="0 0 600 8200">
  <defs>
    <style type="text/css">
      @import url('https://rsms.me/inter/inter.css');
      text {
        font-family: Inter, -apple-system, BlinkMacSystemFont, "Segoe UI", Roboto, Helvetica, Arial, sans-serif, "Apple Color Emoji", "Segoe UI Emoji", "Segoe UI Symbol";
        font-size: 40px;
        font-weight: 900;
      }
    </style>
  </defs>
  <rect fill="#212121" x="0" y="0" width="600" height="8200"/>
  <text x="40" y="90" fill="#7a4b49">Alden Till</text><text x="40" y="160" fill="#beccc2">Amelia</text><text x="40" y="230" fill="#3a5f4e">Amish Green</text><text x="40" y="300" fill="#faf0d3">Andover Cream</text><text x="40" y="370" fill="#45575e">Asher Benjamin</text><text x="40" y="440" fill="#d4b78f">Asian Jute</text><text x="40" y="510" fill="#4b5445">Baize</text><text x="40" y="580" fill="#68534a">Bargeboard Brown</text><text x="40" y="650" fill="#f5d1b2">Barrett Quince</text><text x="40" y="720" fill="#b6aa89">Bayberry Wax</text><text x="40" y="790" fill="#8b6b51">Bean Pot</text><text x="40" y="860" fill="#553f44">Beauport Aubergine</text><text x="40" y="930" fill="#663f44">Beetroot</text><text x="40" y="1000" fill="#0075b8">Biloxi Blue</text><text x="40" y="1070" fill="#d6b194">Blonde Lace</text><text x="40" y="1140" fill="#00827c">Blue Winged Teal</text><text x="40" y="1210" fill="#757760">Boardman</text><text x="40" y="1280" fill="#1d6575">Bold Bolection</text><text x="40" y="1350" fill="#126da8">Bowen Blue</text><text x="40" y="1420" fill="#454743">Brattle Spruce</text><text x="40" y="1490" fill="#83a492">Bristol Green</text><text x="40" y="1560" fill="#a09073">Britches</text><text x="40" y="1630" fill="#5a7562">Brookside</text><text x="40" y="1700" fill="#785441">Brownstone</text><text x="40" y="1770" fill="#94b1b6">Bulfinch Blue</text><text x="40" y="1840" fill="#444c60">China Aster</text><text x="40" y="1910" fill="#9eabad">Citadel Blue</text><text x="40" y="1980" fill="#c9a985">Coastal Sand</text><text x="40" y="2050" fill="#8c4040">Codman Claret</text><text x="40" y="2120" fill="#90534a">Cogswell Cedar</text><text x="40" y="2190" fill="#abd1af">Coral Springs</text><text x="40" y="2260" fill="#6a3c3b">Covered Bridge</text><text x="40" y="2330" fill="#695a45">Cummings Oak</text><text x="40" y="2400" fill="#ba9967">Danish Pine</text><text x="40" y="2470" fill="#d8d7b9">Elise</text><text x="40" y="2540" fill="#abd1e1">Emily</text><text x="40" y="2610" fill="#a17548">English Bartlett</text><text x="40" y="2680" fill="#bd8339">Farmhouse Ochre</text><text x="40" y="2750" fill="#807e77">Fieldstone</text><text x="40" y="2820" fill="#bba684">Flaxen Field</text><text x="40" y="2890" fill="#875657">Flowering Chestnut</text><text x="40" y="2960" fill="#40534e">Gedney Green</text><text x="40" y="3030" fill="#d1974c">Georgian Yellow</text><text x="40" y="3100" fill="#8bb490">Green Bonnet</text><text x="40" y="3170" fill="#63615d">Gropius Gray</text><text x="40" y="3240" fill="#ced7c1">Hawthorne</text><text x="40" y="3310" fill="#78614c">Hickory Nut</text><text x="40" y="3380" fill="#e0a362">India Trade</text><text x="40" y="3450" fill="#c3bda9">Jackson Antique</text><text x="40" y="3520" fill="#e6ddca">Jewett White</text><text x="40" y="3590" fill="#edcc99">Knightley Straw</text><text x="40" y="3660" fill="#fde5a7">Lady Banksia</text><text x="40" y="3730" fill="#b5ab9a">Langdon Dove</text><text x="40" y="3800" fill="#7d9294">Lexington Blue</text><text x="40" y="3870" fill="#cb9e34">Local Curry</text><text x="40" y="3940" fill="#90b1a3">Longfellow</text><text x="40" y="4010" fill="#a6bbb7">Lucinda</text><text x="40" y="4080" fill="#e5c7b9">Lymann Camellia</text><text x="40" y="4150" fill="#754c50">Madder</text><text x="40" y="4220" fill="#b88e72">Maple</text><text x="40" y="4290" fill="#cacaa3">Marrett Apple</text><text x="40" y="4360" fill="#739dad">Meetinghouse Blue</text><text x="40" y="4430" fill="#95a99e">Melville</text><text x="40" y="4500" fill="#7a807a">Monument Gray</text><text x="40" y="4570" fill="#b0b9ac">Morning Dew</text><text x="40" y="4640" fill="#4a473f">Moss Glen</text><text x="40" y="4710" fill="#66626d">Muted Mulberry</text><text x="40" y="4780" fill="#b89e82">Nankeen</text><text x="40" y="4850" fill="#616550">Newbury Moss</text><text x="40" y="4920" fill="#313d6c">Newport Indigo</text><text x="40" y="4990" fill="#633d38">Otis Madeira</text><text x="40" y="5060" fill="#fdebbc">Pale Organza</text><text x="40" y="5130" fill="#88806a">Pettingill Sage</text><text x="40" y="5200" fill="#c4bdad">Phelps Putty</text><text x="40" y="5270" fill="#008f80">Philips Green</text><text x="40" y="5340" fill="#566955">Picholine</text><text x="40" y="5410" fill="#7c7766">Pitch Pine</text><text x="40" y="5480" fill="#463c4e">Plum Island</text><text x="40" y="5550" fill="#ddd3c2">Plymouth Beige</text><text x="40" y="5620" fill="#575d56">Pointed Fir</text><text x="40" y="5690" fill="#5b7074">Portsmouth Blue</text><text x="40" y="5760" fill="#a75546">Portsmouth Spice</text><text x="40" y="5830" fill="#b5b5af">Quincy Granite</text><text x="40" y="5900" fill="#a24d47">Redrock Canyon</text><text x="40" y="5970" fill="#854c47">Richardson Brick</text><text x="40" y="6040" fill="#567b8a">Rocky Hill</text><text x="40" y="6110" fill="#926566">Roseland</text><text x="40" y="6180" fill="#d3aa94">Rundlet Peach</text><text x="40" y="6250" fill="#aca088">Sandy Bluff</text><text x="40" y="6320" fill="#435965">Saxon Blue</text><text x="40" y="6390" fill="#383739">Sayward Pine</text><text x="40" y="6460" fill="#475663">Seal Blue</text><text x="40" y="6530" fill="#7f4340">Shakker Red</text><text x="40" y="6600" fill="#85979a">Standish Blue</text><text x="40" y="6670" fill="#57544d">Sturgis Gray</text><text x="40" y="6740" fill="#dfc2aa">Tailor's Buff</text><text x="40" y="6810" fill="#7d7463">Tankard Gray</text><text x="40" y="6880" fill="#c1cecf">Tudor Ice</text><text x="40" y="6950" fill="#736458">Tyson Taupe</text><text x="40" y="7020" fill="#9cb08a">Venetian Glass</text><text x="40" y="7090" fill="#66b6b0">Veranda Blue</text><text x="40" y="7160" fill="#48535a">Vermont Slate</text><text x="40" y="7230" fill="#acb3ae">Vinal Haven</text><text x="40" y="7300" fill="#7b9e98">Viscaya</text><text x="40" y="7370" fill="#445a5e">Volute</text><text x="40" y="7440" fill="#9c9d85">Wainscot Green</text><text x="40" y="7510" fill="#6b654e">Warren Tavern</text><text x="40" y="7580" fill="#919c81">Whispering Willow</text><text x="40" y="7650" fill="#ecdbc3">Wild Oats</text><text x="40" y="7720" fill="#314747">Winter Balsam</text><text x="40" y="7790" fill="#5e737d">Winter Harbor</text><text x="40" y="7860" fill="#745c51">Wooden Nutmeg</text><text x="40" y="7930" fill="#e9cab6">Woodstock Rose</text><text x="40" y="8000" fill="#907e63">Wooly Thyme</text><text x="40" y="8070" fill="#dccfb6">Yarmouth Oyster</text><text x="40" y="8140" fill="#f3d9c7">York Bisque</text>
</svg>