<svg xmlns="http://www.w3.org/2000/svg" viewBox="0 0 600 6520">
  <defs>
    <style type="text/css">
      @import url('https://rsms.me/inter/inter.css');
      text {
        font-family: Inter, -apple-system, BlinkMacSystemFont, "Segoe UI", Roboto, Helvetica, Arial, sans-serif, "Apple Color Emoji", "Segoe UI Emoji", "Segoe UI Symbol";
        font-size: 40px;
        font-weight: 900;
      }
    </style>
  </defs>
  <rect fill="#212121" x="0" y="0" width="600" height="6520"/>
  <text x="40" y="90" fill="#a58ea9">Aged to Perfection</text><text x="40" y="160" fill="#7d6549">Arts and Crafts</text><text x="40" y="230" fill="#bdb98f">Back to Nature</text><text x="40" y="300" fill="#c1853b">Back to School</text><text x="40" y="370" fill="#b893ab">Bed of Roses</text><text x="40" y="440" fill="#9e6a75">Berries and Cream</text><text x="40" y="510" fill="#b9b7bd">Best in Show</text><text x="40" y="580" fill="#f4f2ec">Bit of Sugar</text><text x="40" y="650" fill="#ffd756">Buzz-In</text><text x="40" y="720" fill="#5d4d47">Cabin in the Woods</text><text x="40" y="790" fill="#a0a6a9">Chance of Rain</text><text x="40" y="860" fill="#b3ada4">City of Bridges</text><text x="40" y="930" fill="#baa087">Cup of Cocoa</text><text x="40" y="1000" fill="#caae7b">Cup of Tea</text><text x="40" y="1070" fill="#aa6179">Daah-Ling</text><text x="40" y="1140" fill="#495252">Dark as Night</text><text x="40" y="1210" fill="#ca6e5f">Dash of Curry</text><text x="40" y="1280" fill="#928459">Dash of Oregano</text><text x="40" y="1350" fill="#d99b7b">Dazzle and Delight</text><text x="40" y="1420" fill="#60443f">Death by Chocolate</text><text x="40" y="1490" fill="#5c6242">Down-to-Earth</text><text x="40" y="1560" fill="#714640">Dressed to Impress</text><text x="40" y="1630" fill="#d2eed6">End of the Rainbow</text><text x="40" y="1700" fill="#938f9f">Evening in Paris</text><text x="40" y="1770" fill="#c7cbc8">Fast as the Wind</text><text x="40" y="1840" fill="#8e8779">Fifth Olive-Nue</text><text x="40" y="1910" fill="#965f73">Glitz and Glamour</text><text x="40" y="1980" fill="#a1a19f">Grayve-Yard</text><text x="40" y="2050" fill="#d4a9c3">Heart to Heart</text><text x="40" y="2120" fill="#417b42">Hills of Ireland</text><text x="40" y="2190" fill="#e1dbd5">Hint of Mauve</text><text x="40" y="2260" fill="#d2d5e1">Hint of Violet</text><text x="40" y="2330" fill="#b35547">Hot and Spicy</text><text x="40" y="2400" fill="#859893">In the Moment</text><text x="40" y="2470" fill="#ede6ed">In the Spotlight</text><text x="40" y="2540" fill="#72786f">In the Woods</text><text x="40" y="2610" fill="#0099c9">Isle of Capri</text><text x="40" y="2680" fill="#3e6655">Isle of Pines</text><text x="40" y="2750" fill="#de95ae">It's a Girl</text><text x="40" y="2820" fill="#6c5d97">Just a Fairytale</text><text x="40" y="2890" fill="#bb9b7c">Key to the City</text><text x="40" y="2960" fill="#d86773">Kiss and Tell</text><text x="40" y="3030" fill="#515366">Lap of Luxury</text><text x="40" y="3100" fill="#5c7186">Layers of Ocean</text><text x="40" y="3170" fill="#afc9dc">Life at Sea</text><text x="40" y="3240" fill="#e5cdbe">Life Is a Peach</text><text x="40" y="3310" fill="#9191bb">Lily of the Nile</text><text x="40" y="3380" fill="#4b4950">Limo-Scene</text><text x="40" y="3450" fill="#e5a5b1">Love at First Sight</text><text x="40" y="3520" fill="#547839">Luck of the Irish</text><text x="40" y="3590" fill="#4e5154">Lump of Coal</text><text x="40" y="3660" fill="#4e5a59">Midnight in NY</text><text x="40" y="3730" fill="#435964">Midnight in the Tropics</text><text x="40" y="3800" fill="#85c8d3">Not a Cloud in Sight</text><text x="40" y="3870" fill="#b7a8a8">Object of Desire</text><text x="40" y="3940" fill="#dcbdad">One to Remember</text><text x="40" y="4010" fill="#b09d8a">Over the Taupe</text><text x="40" y="4080" fill="#398749">Paradise of Greenery</text><text x="40" y="4150" fill="#ffe2b4">Peach of Mind</text><text x="40" y="4220" fill="#c5e1e1">Peek a Blue</text><text x="40" y="4290" fill="#f9f4e6">Pot of Cream</text><text x="40" y="4360" fill="#e1deda">Prelude to Pink</text><text x="40" y="4430" fill="#e4e2dd">Quiet on the Set</text><text x="40" y="4500" fill="#ffe99e">Rise and Shine</text><text x="40" y="4570" fill="#ffeba9">Rite of Spring</text><text x="40" y="4640" fill="#8b7b6e">Road Less-Travelled</text><text x="40" y="4710" fill="#c4a7a1">Sable Cloaked</text><text x="40" y="4780" fill="#81d1da">Sea of Tranquility</text><text x="40" y="4850" fill="#659b97">Semi-Precious</text><text x="40" y="4920" fill="#e3ede2">Sign of Spring</text><text x="40" y="4990" fill="#bbcee0">Sky's the Limit</text><text x="40" y="5060" fill="#bb7283">Smell the Roses</text><text x="40" y="5130" fill="#718854">Snip of Parsley</text><text x="40" y="5200" fill="#d4d8e3">So Blue-Berry</text><text x="40" y="5270" fill="#fce7b5">Song of Summer</text><text x="40" y="5340" fill="#dfe5d7">Sounds of Nature</text><text x="40" y="5410" fill="#5870a4">Splendor and Pride</text><text x="40" y="5480" fill="#5a4659">Strike a Pose</text><text x="40" y="5550" fill="#cda168">Summer in the City</text><text x="40" y="5620" fill="#ffe9ac">Sweet as Honey</text><text x="40" y="5690" fill="#b69073">Tan-Gent</text><text x="40" y="5760" fill="#c8a3b8">Taste of Berry</text><text x="40" y="5830" fill="#8e6f6e">Touch of Class</text><text x="40" y="5900" fill="#eab38a">Trick or Treat</text><text x="40" y="5970" fill="#2d7e96">Valley of Glaciers</text><text x="40" y="6040" fill="#33505e">Velvet Evening</text><text x="40" y="6110" fill="#dfd3cb">Vision of Light</text><text x="40" y="6180" fill="#c8c8b5">Wabi-Sabi</text><text x="40" y="6250" fill="#a0764a">Wave of Grain</text><text x="40" y="6320" fill="#d7d8dd">Will O the Wisp</text><text x="40" y="6390" fill="#6e878b">Winter in Paris</text><text x="40" y="6460" fill="#d9c7be">Wisp of Mauve</text>
</svg>