<svg xmlns="http://www.w3.org/2000/svg" viewBox="0 0 600 5750">
  <defs>
    <style type="text/css">
      @import url('https://rsms.me/inter/inter.css');
      text {
        font-family: Inter, -apple-system, BlinkMacSystemFont, "Segoe UI", Roboto, Helvetica, Arial, sans-serif, "Apple Color Emoji", "Segoe UI Emoji", "Segoe UI Symbol";
        font-size: 40px;
        font-weight: 900;
      }
    </style>
  </defs>
  <rect fill="#212121" x="0" y="0" width="600" height="5750"/>
  <text x="40" y="90" fill="#585d58">Addo Skin</text><text x="40" y="160" fill="#9ba0a4">Aegean Splendor</text><text x="40" y="230" fill="#f7e5da">Alpaca</text><text x="40" y="300" fill="#aeafb4">Aluminium Snow</text><text x="40" y="370" fill="#e8e3e3">Antique Petal</text><text x="40" y="440" fill="#f8decf">Arrowroot</text><text x="40" y="510" fill="#3f3130">Auberge</text><text x="40" y="580" fill="#8a8e93">Bali Deep</text><text x="40" y="650" fill="#a9a2a3">Beijing Moon</text><text x="40" y="720" fill="#52585c">Bovine</text><text x="40" y="790" fill="#ffc283">Buttery</text><text x="40" y="860" fill="#dbb8a4">Camel Hair</text><text x="40" y="930" fill="#f7e5db">Coast Cream</text><text x="40" y="1000" fill="#ebd1be">Cream of Mushroom</text><text x="40" y="1070" fill="#96908b">Crete Shore</text><text x="40" y="1140" fill="#2e2d30">Dark Onyx</text><text x="40" y="1210" fill="#e2eff3">Diamond White</text><text x="40" y="1280" fill="#91b0c5">Dove Tail</text><text x="40" y="1350" fill="#d5b79b">Escarpment</text><text x="40" y="1420" fill="#454042">Ewa</text><text x="40" y="1490" fill="#abc2c7">Feathery Blue</text><text x="40" y="1560" fill="#bab6a0">French Shutter</text><text x="40" y="1630" fill="#faede6">Frothy Milk</text><text x="40" y="1700" fill="#fae4ce">Full Cream</text><text x="40" y="1770" fill="#aeb1ac">Fynbos Leaf</text><text x="40" y="1840" fill="#bab7b8">Geneva Morn</text><text x="40" y="1910" fill="#ebcebd">Golden Pop</text><text x="40" y="1980" fill="#f4e7df">Goose Down</text><text x="40" y="2050" fill="#f7d7c4">Harvest Wreath</text><text x="40" y="2120" fill="#948e90">Hong Kong Mist</text><text x="40" y="2190" fill="#eadbd2">Hudson</text><text x="40" y="2260" fill="#eaedee">Lagoon Mirror</text><text x="40" y="2330" fill="#eee1d9">Landing</text><text x="40" y="2400" fill="#efe2db">Liberia</text><text x="40" y="2470" fill="#c3c5c5">Light Aluminium</text><text x="40" y="2540" fill="#b3b0a3">Light Sage</text><text x="40" y="2610" fill="#dcd1cc">Light Stone</text><text x="40" y="2680" fill="#df9b81">Light Terracotta</text><text x="40" y="2750" fill="#f9cda4">Lion Cub</text><text x="40" y="2820" fill="#70c1c9">Luna Moona</text><text x="40" y="2890" fill="#c5bda0">Lush</text><text x="40" y="2960" fill="#d8d4d3">Mandarin Tusk</text><text x="40" y="3030" fill="#e4e5e0">Misty Dawn</text><text x="40" y="3100" fill="#fce9de">Morning Sigh</text><text x="40" y="3170" fill="#f4dbc7">Mountain Fog</text><text x="40" y="3240" fill="#dbdedb">Nomadic Dream</text><text x="40" y="3310" fill="#f7d4c6">Nutter Butter</text><text x="40" y="3380" fill="#d1cccb">Off Shore</text><text x="40" y="3450" fill="#f5ddd8">Pancakes</text><text x="40" y="3520" fill="#737274">Paris Paving</text><text x="40" y="3590" fill="#2f3434">Phantom Ship</text><text x="40" y="3660" fill="#faeae1">Pure Frost</text><text x="40" y="3730" fill="#b40039">Pure Passion</text><text x="40" y="3800" fill="#d3cec7">Ravine</text><text x="40" y="3870" fill="#5f5e5f">Rhine Castle</text><text x="40" y="3940" fill="#d3dcdc">Ripple</text><text x="40" y="4010" fill="#c7b5a9">River Clay</text><text x="40" y="4080" fill="#f9ecea">Salt Pebble</text><text x="40" y="4150" fill="#ffeeda">Sand Crystal</text><text x="40" y="4220" fill="#fad7b3">Sandy Bay</text><text x="40" y="4290" fill="#fce3cf">Scalloped Potato</text><text x="40" y="4360" fill="#cec9c7">Serious Grey</text><text x="40" y="4430" fill="#fbf5f0">Silver Bird</text><text x="40" y="4500" fill="#cf8c76">Sociable</text><text x="40" y="4570" fill="#cbd2d0">Solo</text><text x="40" y="4640" fill="#b39c8c">Sombrero</text><text x="40" y="4710" fill="#d0bcb1">Statued</text><text x="40" y="4780" fill="#b4ceda">Stencil Blue</text><text x="40" y="4850" fill="#efe1d8">Stone Wall</text><text x="40" y="4920" fill="#8d9390">Storms Mountain</text><text x="40" y="4990" fill="#bf9b84">Stuffing</text><text x="40" y="5060" fill="#f3c7b3">Taco</text><text x="40" y="5130" fill="#62676a">Thames Dusk</text><text x="40" y="5200" fill="#6a6264">Tibetan Cloak</text><text x="40" y="5270" fill="#33373b">Tribecca Corner</text><text x="40" y="5340" fill="#008893">Tuscana Blue</text><text x="40" y="5410" fill="#faece1">White Canvas</text><text x="40" y="5480" fill="#eedac9">Wilted Leaf</text><text x="40" y="5550" fill="#dac7ba">Winter Savanna</text><text x="40" y="5620" fill="#e8dbd3">Worn Wood</text><text x="40" y="5690" fill="#7e6765">Zanzibar</text>
</svg>