<svg xmlns="http://www.w3.org/2000/svg" viewBox="0 0 600 2460">
  <defs>
    <style type="text/css">
      @import url('https://rsms.me/inter/inter.css');
      text {
        font-family: Inter, -apple-system, BlinkMacSystemFont, "Segoe UI", Roboto, Helvetica, Arial, sans-serif, "Apple Color Emoji", "Segoe UI Emoji", "Segoe UI Symbol";
        font-size: 40px;
        font-weight: 900;
      }
    </style>
  </defs>
  <rect fill="#212121" x="0" y="0" width="600" height="2460"/>
  <text x="40" y="90" fill="#f1d548">Banana Drama</text><text x="40" y="160" fill="#ad5a28">Caramelized Maple</text><text x="40" y="230" fill="#628468">Clouded Pine</text><text x="40" y="300" fill="#ffc3cb">Cotton Candy Comet</text><text x="40" y="370" fill="#a6080e">Crisp Christmas Cranberries</text><text x="40" y="440" fill="#1f2133">Eclipse Elixir</text><text x="40" y="510" fill="#2b8478">Emerald Whispers</text><text x="40" y="580" fill="#a893c1">Enchanted Lilac</text><text x="40" y="650" fill="#3e2723">Ethereal Espresso</text><text x="40" y="720" fill="#b0b8cc">Ethereal Mist</text><text x="40" y="790" fill="#336644">Forest Serenade</text><text x="40" y="860" fill="#7f8cb8">Galactic Gossamer</text><text x="40" y="930" fill="#6b327b">Galactic Grapevine</text><text x="40" y="1000" fill="#1e1e21">Inkwell Inception</text><text x="40" y="1070" fill="#bf8fe5">Luminous Lavender</text><text x="40" y="1140" fill="#2c2e47">Midnight Masquerade</text><text x="40" y="1210" fill="#001f3f">Midnight Mirage</text><text x="40" y="1280" fill="#2a2243">Midnight Velvet</text><text x="40" y="1350" fill="#6ec9a3">Minted Elegance</text><text x="40" y="1420" fill="#8e664e">Mocha Delight</text><text x="40" y="1490" fill="#003368">Neptune’s Dream</text><text x="40" y="1560" fill="#a5cf8c">Pistachio Dream</text><text x="40" y="1630" fill="#d4ca8e">Royal Goblet</text><text x="40" y="1700" fill="#932a25">Saffronaut</text><text x="40" y="1770" fill="#145c78">Saltwater Denim</text><text x="40" y="1840" fill="#0b334d">Sea of Stars</text><text x="40" y="1910" fill="#9bacb3">Smoke on the Water</text><text x="40" y="1980" fill="#333b33">Sound of Silence</text><text x="40" y="2050" fill="#ff5c8d">Stellar Strawberry</text><text x="40" y="2120" fill="#e58d3f">Velvet Marigold</text><text x="40" y="2190" fill="#ab0102">Velvet Volcano</text><text x="40" y="2260" fill="#540d6e">Velvet Vortex</text><text x="40" y="2330" fill="#84a97c">Verdant Haven</text><text x="40" y="2400" fill="#fcfc9d">Walking on Sunshine</text>
</svg>