<svg xmlns="http://www.w3.org/2000/svg" viewBox="0 0 600 8690">
  <defs>
    <style type="text/css">
      @import url('https://rsms.me/inter/inter.css');
      text {
        font-family: Inter, -apple-system, BlinkMacSystemFont, "Segoe UI", Roboto, Helvetica, Arial, sans-serif, "Apple Color Emoji", "Segoe UI Emoji", "Segoe UI Symbol";
        font-size: 40px;
        font-weight: 900;
      }
    </style>
  </defs>
  <rect fill="#212121" x="0" y="0" width="600" height="8690"/>
  <text x="40" y="90" fill="#bcbebc">Alaskan Grey</text><text x="40" y="160" fill="#ddd4ce">Ancient Pages</text><text x="40" y="230" fill="#373f42">Anthracite Grey</text><text x="40" y="300" fill="#889fa5">Aqua Grey</text><text x="40" y="370" fill="#5e5e5d">Asphalt Grey</text><text x="40" y="440" fill="#454a48">Bamboo Charcoal</text><text x="40" y="510" fill="#87857e">Barnwood Ash</text><text x="40" y="580" fill="#9ba29d">Brampton Grey</text><text x="40" y="650" fill="#a09d98">Casual Grey</text><text x="40" y="720" fill="#acaaa7">Cathedral</text><text x="40" y="790" fill="#c5d4ce">Celtic Grey</text><text x="40" y="860" fill="#cfccc5">Chic Grey</text><text x="40" y="930" fill="#b2b1ad">Colonnade Grey</text><text x="40" y="1000" fill="#c5c3b4">Comforting Grey</text><text x="40" y="1070" fill="#847975">Complex Grey</text><text x="40" y="1140" fill="#6d7273">Dawn Grey</text><text x="40" y="1210" fill="#98968d">Destroyer Grey</text><text x="40" y="1280" fill="#ccc3ba">Doeskin Grey</text><text x="40" y="1350" fill="#9a9997">Dolphin Grey</text><text x="40" y="1420" fill="#5a5651">Dominant Grey</text><text x="40" y="1490" fill="#adaaa2">Downtown Grey</text><text x="40" y="1560" fill="#c6c5c5">Dreamscape Grey</text><text x="40" y="1630" fill="#a0a09f">Elemental Grey</text><text x="40" y="1700" fill="#898887">Falcon Grey</text><text x="40" y="1770" fill="#a29c94">Fashion Grey</text><text x="40" y="1840" fill="#71452a">Fawn Brown</text><text x="40" y="1910" fill="#aeadac">Flannel Grey</text><text x="40" y="1980" fill="#8f9395">Flint Shard</text><text x="40" y="2050" fill="#a0a09c">Gateway Grey</text><text x="40" y="2120" fill="#d1d0cb">Gazebo Grey</text><text x="40" y="2190" fill="#6e6c5e">Gladiator Grey</text><text x="40" y="2260" fill="#8a9192">Gotham Grey</text><text x="40" y="2330" fill="#beb6ac">Graceful Grey</text><text x="40" y="2400" fill="#918f8a">Grant Grey</text><text x="40" y="2470" fill="#262a2b">Graphite Black</text><text x="40" y="2540" fill="#8f9394">Grey Area</text><text x="40" y="2610" fill="#cabab1">Grey Ashlar</text><text x="40" y="2680" fill="#a3a29b">Grey Gloss</text><text x="40" y="2750" fill="#868790">Grey Heather</text><text x="40" y="2820" fill="#9eb0aa">Grey Morning</text><text x="40" y="2890" fill="#a2a2a2">Grey of Darkness</text><text x="40" y="2960" fill="#776f67">Grey Owl</text><text x="40" y="3030" fill="#ced0cf">Grey Pearl</text><text x="40" y="3100" fill="#84827d">Grey Pepper</text><text x="40" y="3170" fill="#c3c0bb">Grey Roads</text><text x="40" y="3240" fill="#d6d9d8">Grey Shimmer</text><text x="40" y="3310" fill="#989081">Grey Squirrel</text><text x="40" y="3380" fill="#acaeb1">Grey Timber Wolf</text><text x="40" y="3450" fill="#d7d5cb">Grey White</text><text x="40" y="3520" fill="#a9bbbc">Grey Wool</text><text x="40" y="3590" fill="#ccc9c5">Greycloth</text><text x="40" y="3660" fill="#948c8d">Greylac</text><text x="40" y="3730" fill="#63615d">Gropius Grey</text><text x="40" y="3800" fill="#c2c2bc">Gull Fether</text><text x="40" y="3870" fill="#bdbeb9">Hailstorm Grey</text><text x="40" y="3940" fill="#c9cbc2">Heath Grey</text><text x="40" y="4010" fill="#9c9da4">Heather Grey</text><text x="40" y="4080" fill="#f0e4d2">Hectorite</text><text x="40" y="4150" fill="#a7a699">Historical Grey</text><text x="40" y="4220" fill="#466e77">Holy Water</text><text x="40" y="4290" fill="#676a6a">Imperial Grey</text><text x="40" y="4360" fill="#a8b5bc">Intercoastal Grey</text><text x="40" y="4430" fill="#7c7f7c">Iron Grey</text><text x="40" y="4500" fill="#9d9a9a">Jet Grey</text><text x="40" y="4570" fill="#b6bbb2">Keystone Grey</text><text x="40" y="4640" fill="#b3afa7">Laid Back Grey</text><text x="40" y="4710" fill="#7f8384">Legendary Sword</text><text x="40" y="4780" fill="#8f8f8b">Letter Grey</text><text x="40" y="4850" fill="#696b6d">Liberty Bell Grey</text><text x="40" y="4920" fill="#afbfc9">Liberty Grey</text><text x="40" y="4990" fill="#c9cfcc">Light French Grey</text><text x="40" y="5060" fill="#838789">Magnetic Grey</text><text x="40" y="5130" fill="#d1c9ba">Manuscript</text><text x="40" y="5200" fill="#827e71">Manuscript Ink</text><text x="40" y="5270" fill="#a5b2aa">Marine Grey</text><text x="40" y="5340" fill="#e2dcd4">Milky</text><text x="40" y="5410" fill="#7a807a">Monument Grey</text><text x="40" y="5480" fill="#908c7e">Mossy Pavement</text><text x="40" y="5550" fill="#828e74">Mossy Statue</text><text x="40" y="5620" fill="#dad3cb">Moth Grey</text><text x="40" y="5690" fill="#c4c0bb">Natural Grey</text><text x="40" y="5760" fill="#8b8c83">Naturalist Grey</text><text x="40" y="5830" fill="#baaea3">Nightingale Grey</text><text x="40" y="5900" fill="#c1beb9">Noble Grey</text><text x="40" y="5970" fill="#73777f">Noble Silver</text><text x="40" y="6040" fill="#535558">Orion Grey</text><text x="40" y="6110" fill="#eef0f3">Paper White</text><text x="40" y="6180" fill="#8b8680">Petrified</text><text x="40" y="6250" fill="#6a6d6f">Platinum Grey</text><text x="40" y="6320" fill="#a2a4a6">Power Grey</text><text x="40" y="6390" fill="#f8f8f2">Pure White</text><text x="40" y="6460" fill="#b0ada0">Roman Wall</text><text x="40" y="6530" fill="#b7b2a6">Rushmore Grey</text><text x="40" y="6600" fill="#9ea49d">Sage Grey</text><text x="40" y="6670" fill="#c1b7b0">Sand Ripples</text><text x="40" y="6740" fill="#b8b19f">Saturn Grey</text><text x="40" y="6810" fill="#d9d9d2">Seagull Grey</text><text x="40" y="6880" fill="#495157">Seared Grey</text><text x="40" y="6950" fill="#4b3526">Sepia Brown</text><text x="40" y="7020" fill="#899da3">Shale Grey</text><text x="40" y="7090" fill="#797f7d">Shutter Grey</text><text x="40" y="7160" fill="#838684">Signal Grey</text><text x="40" y="7230" fill="#ecece6">Signal White</text><text x="40" y="7300" fill="#a8a8a4">Silver Grey</text><text x="40" y="7370" fill="#dddddd">Steam</text><text x="40" y="7440" fill="#ccd0da">Steam Bath</text><text x="40" y="7510" fill="#aba9a0">Still Grey</text><text x="40" y="7580" fill="#b0aba3">Stingray Grey</text><text x="40" y="7650" fill="#7d7b7c">Stormy Grey</text><text x="40" y="7720" fill="#57544d">Sturgis Grey</text><text x="40" y="7790" fill="#4d585c">Submarine Grey</text><text x="40" y="7860" fill="#857f7a">Suede Grey</text><text x="40" y="7930" fill="#005511">Swamp Monster</text><text x="40" y="8000" fill="#7d7463">Tankard Grey</text><text x="40" y="8070" fill="#c0b6a8">Thistle Grey</text><text x="40" y="8140" fill="#d1ccc0">Toasty Grey</text><text x="40" y="8210" fill="#c7c7c1">Traditional Grey</text><text x="40" y="8280" fill="#f1f0ea">Traffic White</text><text x="40" y="8350" fill="#d1d6d6">Twilight Grey</text><text x="40" y="8420" fill="#cacacc">Urban Grey</text><text x="40" y="8490" fill="#59676b">Whale Grey</text><text x="40" y="8560" fill="#c2baa8">Wilderness Grey</text><text x="40" y="8630" fill="#989ea1">Window Grey</text>
</svg>