<svg xmlns="http://www.w3.org/2000/svg" viewBox="0 0 600 3650">
  <defs>
    <style type="text/css">
      @import url('https://rsms.me/inter/inter.css');
      text {
        font-family: Inter, -apple-system, BlinkMacSystemFont, "Segoe UI", Roboto, Helvetica, Arial, sans-serif, "Apple Color Emoji", "Segoe UI Emoji", "Segoe UI Symbol";
        font-size: 40px;
        font-weight: 900;
      }
    </style>
  </defs>
  <rect fill="#212121" x="0" y="0" width="600" height="3650"/>
  <text x="40" y="90" fill="#83696e">Ancient Shelter</text><text x="40" y="160" fill="#312231">Anubis Black</text><text x="40" y="230" fill="#ddddee">Artemis Silver</text><text x="40" y="300" fill="#0e0702">Blackout</text><text x="40" y="370" fill="#c02e4c">Bleeding Heart</text><text x="40" y="440" fill="#b3dae2">Blue Shimmer</text><text x="40" y="510" fill="#c2dde6">Breeze in June</text><text x="40" y="580" fill="#5a4e88">Bright Eggplant</text><text x="40" y="650" fill="#97382c">Brown Labrador</text><text x="40" y="720" fill="#c2e2e3">Cold Wave</text><text x="40" y="790" fill="#383839">Dark Summoning</text><text x="40" y="860" fill="#d5d1cc">Drought</text><text x="40" y="930" fill="#c22f4d">Dry Rose</text><text x="40" y="1000" fill="#d4cecd">Dry Season</text><text x="40" y="1070" fill="#123d55">Duskwood</text><text x="40" y="1140" fill="#e2d8d3">Dust Bowl</text><text x="40" y="1210" fill="#d0cacd">El Niño</text><text x="40" y="1280" fill="#ff7777">Embarrassment</text><text x="40" y="1350" fill="#ddd1bf">Erosion</text><text x="40" y="1420" fill="#1f2847">Fainting Light</text><text x="40" y="1490" fill="#2bc51b">Felwood Leaves</text><text x="40" y="1560" fill="#836e59">Golem</text><text x="40" y="1630" fill="#bbee11">Green Cacophony</text><text x="40" y="1700" fill="#ccfd7f">Green Shimmer</text><text x="40" y="1770" fill="#d5e0d0">Green Tilberi</text><text x="40" y="1840" fill="#cfebde">Hatching Chameleon</text><text x="40" y="1910" fill="#cc3355">Infrared Gloze</text><text x="40" y="1980" fill="#d374d5">Jewel Caterpillar</text><text x="40" y="2050" fill="#773644">Köfte Brown</text><text x="40" y="2120" fill="#c0e7eb">Launderette Blue</text><text x="40" y="2190" fill="#3d703e">Mount Hyjal</text><text x="40" y="2260" fill="#4f5b93">Nightly Silhouette</text><text x="40" y="2330" fill="#e66a77">Old Heart</text><text x="40" y="2400" fill="#dd9900">Orange Satisfaction</text><text x="40" y="2470" fill="#fddfda">Pink Glitter</text><text x="40" y="2540" fill="#fde0da">Pink Shimmer</text><text x="40" y="2610" fill="#6d9a79">Precious Oxley</text><text x="40" y="2680" fill="#cc2288">Purple Heart Kiwi</text><text x="40" y="2750" fill="#a15589">Purple Zergling</text><text x="40" y="2820" fill="#dd0011">Red Knuckles</text><text x="40" y="2890" fill="#fee0da">Red Shimmer</text><text x="40" y="2960" fill="#ff2222">Red Stop</text><text x="40" y="3030" fill="#e69656">Saber-Toothed Tiger</text><text x="40" y="3100" fill="#8af1fe">Shallow Water</text><text x="40" y="3170" fill="#c2cbd2">Stone Golem</text><text x="40" y="3240" fill="#99bbff">Truesky Gloxym</text><text x="40" y="3310" fill="#22bb55">Vegan Mastermind</text><text x="40" y="3380" fill="#ffeeee">White Gloss</text><text x="40" y="3450" fill="#ff8833">Wildfire</text><text x="40" y="3520" fill="#b8c8d3">Winter Blizzard</text><text x="40" y="3590" fill="#f8e2ca">Yellow Shimmer</text>
</svg>