<svg xmlns="http://www.w3.org/2000/svg" viewBox="0 0 600 3930">
  <defs>
    <style type="text/css">
      @import url('https://rsms.me/inter/inter.css');
      text {
        font-family: Inter, -apple-system, BlinkMacSystemFont, "Segoe UI", Roboto, Helvetica, Arial, sans-serif, "Apple Color Emoji", "Segoe UI Emoji", "Segoe UI Symbol";
        font-size: 40px;
        font-weight: 900;
      }
    </style>
  </defs>
  <rect fill="#212121" x="0" y="0" width="600" height="3930"/>
  <text x="40" y="90" fill="#ff7a83">Anime Blush</text><text x="40" y="160" fill="#f7e82e">Banana Bombshell</text><text x="40" y="230" fill="#c6101e">Bloodthirsty Lips</text><text x="40" y="300" fill="#ebd5ca">Blushing Coconut</text><text x="40" y="370" fill="#ff0015">British Phone Booth</text><text x="40" y="440" fill="#2e2e2e">Carbon Fiber</text><text x="40" y="510" fill="#c92435">Cherry Sangria</text><text x="40" y="580" fill="#f6f1fe">Cloud Break</text><text x="40" y="650" fill="#ff917a">Coralistic</text><text x="40" y="720" fill="#eb9f9f">Cozy Summer Sunset</text><text x="40" y="790" fill="#131313">Cursed Black</text><text x="40" y="860" fill="#535554">Davy's Grey</text><text x="40" y="930" fill="#987654">Decreasing Brown</text><text x="40" y="1000" fill="#e8b523">Deli Yellow</text><text x="40" y="1070" fill="#c5e6cf">Delta Mint</text><text x="40" y="1140" fill="#02cc02">Demeter Green</text><text x="40" y="1210" fill="#103020">Eight Ball</text><text x="40" y="1280" fill="#ed8a09">Elden Ring Orange</text><text x="40" y="1350" fill="#abedc9">Esoteric Touch Green</text><text x="40" y="1420" fill="#edb2c4">Fallen Blossoms</text><text x="40" y="1490" fill="#e6bc00">Fat Gold</text><text x="40" y="1560" fill="#ff005d">Flaming Hot Flamingoes</text><text x="40" y="1630" fill="#ebc263">French Fry</text><text x="40" y="1700" fill="#987652">Guinea Pig</text><text x="40" y="1770" fill="#ff0051">Hawaiian Raspberry</text><text x="40" y="1840" fill="#f7fcff">Heart of Ice</text><text x="40" y="1910" fill="#eece8d">Honeydew Sand</text><text x="40" y="1980" fill="#baebae">Ice Ice</text><text x="40" y="2050" fill="#141314">Kettle Black</text><text x="40" y="2120" fill="#abc123">Learning Green</text><text x="40" y="2190" fill="#ff0303">Left on Red</text><text x="40" y="2260" fill="#00ff0d">Lime On Steroides</text><text x="40" y="2330" fill="#c8ff00">Liquid Neon</text><text x="40" y="2400" fill="#ff1414">Little Ladybug</text><text x="40" y="2470" fill="#ffbc02">Mantella Frog</text><text x="40" y="2540" fill="#c9001e">Marilyn MonRouge</text><text x="40" y="2610" fill="#a10000">Megido Red</text><text x="40" y="2680" fill="#f6ffe8">Milk Foam</text><text x="40" y="2750" fill="#ffbb00">Nacho Cheese</text><text x="40" y="2820" fill="#e9023a">Neon Romance</text><text x="40" y="2890" fill="#ff0080">Neon Rose</text><text x="40" y="2960" fill="#faffed">Pearl Powder</text><text x="40" y="3030" fill="#e9e8e7">Polish White</text><text x="40" y="3100" fill="#ff0d04">Shocking Crimson</text><text x="40" y="3170" fill="#ebecf5">Silver Phoenix</text><text x="40" y="3240" fill="#fa005c">Sizzling Watermelon</text><text x="40" y="3310" fill="#f5fefd">Sparkling Snow</text><text x="40" y="3380" fill="#edd924">Spectacular Saffron</text><text x="40" y="3450" fill="#555555">Stone Cold Gray</text><text x="40" y="3520" fill="#fff9f5">Sugar Milk</text><text x="40" y="3590" fill="#ffde02">Sundried</text><text x="40" y="3660" fill="#ff8400">The New Black</text><text x="40" y="3730" fill="#e9b413">Trumpet Gold</text><text x="40" y="3800" fill="#00cc00">Tunic Green</text><text x="40" y="3870" fill="#00ffe5">Vibrant Mint</text>
</svg>