<svg xmlns="http://www.w3.org/2000/svg" viewBox="0 0 600 2040">
  <defs>
    <style type="text/css">
      @import url('https://rsms.me/inter/inter.css');
      text {
        font-family: Inter, -apple-system, BlinkMacSystemFont, "Segoe UI", Roboto, Helvetica, Arial, sans-serif, "Apple Color Emoji", "Segoe UI Emoji", "Segoe UI Symbol";
        font-size: 40px;
        font-weight: 900;
      }
    </style>
  </defs>
  <rect fill="#212121" x="0" y="0" width="600" height="2040"/>
  <text x="40" y="90" fill="#7b463b">1975 Earth Red</text><text x="40" y="160" fill="#f1f2f8">Alpine Goat</text><text x="40" y="230" fill="#ede7de">Angora Goat</text><text x="40" y="300" fill="#636d70">Cat Person</text><text x="40" y="370" fill="#7a463a">Chocolate Magma</text><text x="40" y="440" fill="#66424d">Chocolate Praline</text><text x="40" y="510" fill="#785736">Cold Brew Coffee</text><text x="40" y="580" fill="#ebe0c8">Cordon Bleu Crust</text><text x="40" y="650" fill="#ee4411">Corn Poppy Cherry</text><text x="40" y="720" fill="#726751">Deep Tan</text><text x="40" y="790" fill="#cc8866">Escalope</text><text x="40" y="860" fill="#dbe64c">First Colors of Spring</text><text x="40" y="930" fill="#dd8822">French Toast</text><text x="40" y="1000" fill="#e1c3bb">Golden Guernsey</text><text x="40" y="1070" fill="#4f4d32">Jungle King</text><text x="40" y="1140" fill="#773644">Köfte Brown </text><text x="40" y="1210" fill="#dae3d0">Lime Cake</text><text x="40" y="1280" fill="#e6efcc">Lime Coco Cake</text><text x="40" y="1350" fill="#dfcbcf">Mega Metal Mecha</text><text x="40" y="1420" fill="#c6ccd4">Mega Metal Phoenix</text><text x="40" y="1490" fill="#d6c5a9">Paper Dog</text><text x="40" y="1560" fill="#c5d0e6">Paper Elephant</text><text x="40" y="1630" fill="#b1a99f">Paper Goat</text><text x="40" y="1700" fill="#f2ebe1">Paper Lamb</text><text x="40" y="1770" fill="#fddc57">Potato Chip</text><text x="40" y="1840" fill="#d6d0cf">Pygmy Goat</text><text x="40" y="1910" fill="#ee9900">Wiener Schnitzel</text><text x="40" y="1980" fill="#c9c0bb">Worn Silver</text>
</svg>