<svg xmlns="http://www.w3.org/2000/svg" viewBox="0 0 600 2110">
  <defs>
    <style type="text/css">
      @import url('https://rsms.me/inter/inter.css');
      text {
        font-family: Inter, -apple-system, BlinkMacSystemFont, "Segoe UI", Roboto, Helvetica, Arial, sans-serif, "Apple Color Emoji", "Segoe UI Emoji", "Segoe UI Symbol";
        font-size: 40px;
        font-weight: 900;
      }
    </style>
  </defs>
  <rect fill="#212121" x="0" y="0" width="600" height="2110"/>
  <text x="40" y="90" fill="#579aca">Canadian Tuxedo</text><text x="40" y="160" fill="#ebe8e7">Coconut Agony</text><text x="40" y="230" fill="#154250">Cold and Dark</text><text x="40" y="300" fill="#ee66bb">Crumbly Lipstick</text><text x="40" y="370" fill="#ffba6b">Desert Dessert</text><text x="40" y="440" fill="#aee4ff">Frozen Landscape</text><text x="40" y="510" fill="#ff7788">Heatstroke</text><text x="40" y="580" fill="#d1dce8">Ice Desert</text><text x="40" y="650" fill="#c5e6f7">Icy Landscape</text><text x="40" y="720" fill="#da1d38">Incubation Red</text><text x="40" y="790" fill="#c79843">Nattō</text><text x="40" y="860" fill="#006e4e">Natural Watercourse</text><text x="40" y="930" fill="#f1d99f">Pie Crust</text><text x="40" y="1000" fill="#88bbff">Scenic Water</text><text x="40" y="1070" fill="#d1b49f">Soba</text><text x="40" y="1140" fill="#3d3d63">Storm Is Coming</text><text x="40" y="1210" fill="#c36666">Stormy Passion</text><text x="40" y="1280" fill="#9dbbd0">Stretch of Water</text><text x="40" y="1350" fill="#44ccff">Thor's Thunder</text><text x="40" y="1420" fill="#fdefad">Thunderbolt</text><text x="40" y="1490" fill="#edac36">Tonkatsu</text><text x="40" y="1560" fill="#d0bb9d">Treasure Map</text><text x="40" y="1630" fill="#658faa">Treasure Map Waters</text><text x="40" y="1700" fill="#b9cabd">Tropical Cyclone</text><text x="40" y="1770" fill="#5ccbd6">Watercourse</text><text x="40" y="1840" fill="#e6474a">X Marks the Spot</text><text x="40" y="1910" fill="#ecab3f">Yakitori</text><text x="40" y="1980" fill="#ffd766">Yuzu Marmalade</text><text x="40" y="2050" fill="#d4de49">Yuzukoshō</text>
</svg>