<svg xmlns="http://www.w3.org/2000/svg" viewBox="0 0 600 4070">
  <defs>
    <style type="text/css">
      @import url('https://rsms.me/inter/inter.css');
      text {
        font-family: Inter, -apple-system, BlinkMacSystemFont, "Segoe UI", Roboto, Helvetica, Arial, sans-serif, "Apple Color Emoji", "Segoe UI Emoji", "Segoe UI Symbol";
        font-size: 40px;
        font-weight: 900;
      }
    </style>
  </defs>
  <rect fill="#212121" x="0" y="0" width="600" height="4070"/>
  <text x="40" y="90" fill="#00cc55">Alienated</text><text x="40" y="160" fill="#448844">Beating Around the Bush</text><text x="40" y="230" fill="#ede3a1">Bells and Whistles Gold</text><text x="40" y="300" fill="#9b1414">Bleeding Crimson</text><text x="40" y="370" fill="#728a51">Bright Forest</text><text x="40" y="440" fill="#eeccee">Bubblegum Crisis</text><text x="40" y="510" fill="#cccbcd">Cerebellum Grey</text><text x="40" y="580" fill="#00ff26">Cyber Neon Green</text><text x="40" y="650" fill="#223311">Darkest Forest</text><text x="40" y="720" fill="#e9e4cf">Desert Smog</text><text x="40" y="790" fill="#552299">Eine kleine Nachtmusik</text><text x="40" y="860" fill="#552367">Elegant Purple Gown</text><text x="40" y="930" fill="#55bb11">Étude Naturelle</text><text x="40" y="1000" fill="#ef347c">Extra Fuchsia</text><text x="40" y="1070" fill="#3e9abd">Fairy Tale Blue</text><text x="40" y="1140" fill="#facfcc">Fairy Tale Dream</text><text x="40" y="1210" fill="#88cc55">Fairy Tale Green</text><text x="40" y="1280" fill="#b40441">Fancy Red Wine</text><text x="40" y="1350" fill="#fce300">Flatty Yellow</text><text x="40" y="1420" fill="#588266">Green Goth Eyeshadow</text><text x="40" y="1490" fill="#cdfa56">Green of Bhabua</text><text x="40" y="1560" fill="#44aa33">Green Seduction</text><text x="40" y="1630" fill="#66aa22">Green Symphony</text><text x="40" y="1700" fill="#faeed7">Happy Skeleton</text><text x="40" y="1770" fill="#f0000d">Hungry Red</text><text x="40" y="1840" fill="#cedfe0">Liquid Hydrogen</text><text x="40" y="1910" fill="#94c84c">Lone Hunter</text><text x="40" y="1980" fill="#e35f66">Lovely Little Rosy</text><text x="40" y="2050" fill="#bf3cff">Magentos</text><text x="40" y="2120" fill="#aa1d8e">Magneto's Magenta</text><text x="40" y="2190" fill="#ff00ae">Mean Girls Lipstick</text><text x="40" y="2260" fill="#f7edca">Mother's Milk</text><text x="40" y="2330" fill="#337711">Nemophilist</text><text x="40" y="2400" fill="#8c8e65">Paid in Full</text><text x="40" y="2470" fill="#b6d3df">Pale Whale</text><text x="40" y="2540" fill="#e5dbeb">Princess Fairy Tale</text><text x="40" y="2610" fill="#dd1166">Purple Yearning</text><text x="40" y="2680" fill="#c10c27">Red City of Morocco</text><text x="40" y="2750" fill="#ff0073">Retro Pink Pop</text><text x="40" y="2820" fill="#da2811">Run Lola Run</text><text x="40" y="2890" fill="#c7111e">Say It With Red Roses</text><text x="40" y="2960" fill="#903037">Sehnsucht Red</text><text x="40" y="3030" fill="#cbcbcb">Silverback</text><text x="40" y="3100" fill="#55aa44">Sonata in Green Minor</text><text x="40" y="3170" fill="#9500ff">Star Platinum Purple</text><text x="40" y="3240" fill="#8ba477">Succulent</text><text x="40" y="3310" fill="#dcdd65">Succulent Lime</text><text x="40" y="3380" fill="#fdbd27">Sunflower Valley</text><text x="40" y="3450" fill="#feac89">Sunset over the Alps</text><text x="40" y="3520" fill="#44aadd">Thalassophile</text><text x="40" y="3590" fill="#dd0088">The Art of Seduction</text><text x="40" y="3660" fill="#c30305">Threatening Red</text><text x="40" y="3730" fill="#bedbed">Twin Blue</text><text x="40" y="3800" fill="#232324">Verified Black</text><text x="40" y="3870" fill="#feeeed">Voracious White</text><text x="40" y="3940" fill="#e33928">Wistful Longing</text><text x="40" y="4010" fill="#eaad04">Yellow of Izamal</text>
</svg>