<svg xmlns="http://www.w3.org/2000/svg" viewBox="0 0 600 2810">
  <defs>
    <style type="text/css">
      @import url('https://rsms.me/inter/inter.css');
      text {
        font-family: Inter, -apple-system, BlinkMacSystemFont, "Segoe UI", Roboto, Helvetica, Arial, sans-serif, "Apple Color Emoji", "Segoe UI Emoji", "Segoe UI Symbol";
        font-size: 40px;
        font-weight: 900;
      }
    </style>
  </defs>
  <rect fill="#212121" x="0" y="0" width="600" height="2810"/>
  <text x="40" y="90" fill="#a55232">Alfajor Brown</text><text x="40" y="160" fill="#f6ebc2">Birth of Venus</text><text x="40" y="230" fill="#201b20">Black Halo</text><text x="40" y="300" fill="#f7e856">Blacksmith Fire</text><text x="40" y="370" fill="#c30b0a">Blood Kiss</text><text x="40" y="440" fill="#c46d29">Cajeta</text><text x="40" y="510" fill="#d7e2bc">Cardamom Fragrance</text><text x="40" y="580" fill="#16f12d">Dangerously Green</text><text x="40" y="650" fill="#2f1212">Dark Danger</text><text x="40" y="720" fill="#d6851f">Dulce de Leche</text><text x="40" y="790" fill="#567aad">Endless River</text><text x="40" y="860" fill="#b71010">Federation of Love</text><text x="40" y="930" fill="#2f441f">Forestry</text><text x="40" y="1000" fill="#f4ce74">Golden Churro</text><text x="40" y="1070" fill="#25b68b">Green Velour</text><text x="40" y="1140" fill="#bb5f62">Her Velour</text><text x="40" y="1210" fill="#17f9a6">Hyperpop Green</text><text x="40" y="1280" fill="#e59d7b">Les Demoiselles d'Avignon</text><text x="40" y="1350" fill="#f77511">Liquid Lava</text><text x="40" y="1420" fill="#5d5f73">Men's Night</text><text x="40" y="1490" fill="#234c47">Nighthawks</text><text x="40" y="1560" fill="#b35e1f">Old Guitar</text><text x="40" y="1630" fill="#4b2c74">Oriental Nights</text><text x="40" y="1700" fill="#e2bfa8">Oriental Scent</text><text x="40" y="1770" fill="#f7b28b">Peach Velour</text><text x="40" y="1840" fill="#d8948b">Powder Blush</text><text x="40" y="1910" fill="#d2def2">Puffy Cloud</text><text x="40" y="1980" fill="#e8e5de">Puffy Pillow</text><text x="40" y="2050" fill="#58503c">Pure Woody</text><text x="40" y="2120" fill="#ea8a7a">Redolency</text><text x="40" y="2190" fill="#0693d5">Sea of Crete</text><text x="40" y="2260" fill="#466590">Sea of Galilee</text><text x="40" y="2330" fill="#1d4da0">Sea of Tears</text><text x="40" y="2400" fill="#ecddc9">Silk for the Gods</text><text x="40" y="2470" fill="#ece0b2">Silkroad</text><text x="40" y="2540" fill="#c75f26">Spicy and Oriental</text><text x="40" y="2610" fill="#638636">Stamnankáthi Green</text><text x="40" y="2680" fill="#efe6d1">White Warm Wool</text><text x="40" y="2750" fill="#4b5d31">Woodman</text>
</svg>