<svg xmlns="http://www.w3.org/2000/svg" viewBox="0 0 600 2250">
  <defs>
    <style type="text/css">
      @import url('https://rsms.me/inter/inter.css');
      text {
        font-family: Inter, -apple-system, BlinkMacSystemFont, "Segoe UI", Roboto, Helvetica, Arial, sans-serif, "Apple Color Emoji", "Segoe UI Emoji", "Segoe UI Symbol";
        font-size: 40px;
        font-weight: 900;
      }
    </style>
  </defs>
  <rect fill="#212121" x="0" y="0" width="600" height="2250"/>
  <text x="40" y="90" fill="#886600">Alligator</text><text x="40" y="160" fill="#444411">Alligator Gladiator</text><text x="40" y="230" fill="#0098d4">Bayern Blue</text><text x="40" y="300" fill="#e20909">Bern Red</text><text x="40" y="370" fill="#8080ff">Blue Party Parrot</text><text x="40" y="440" fill="#552233">Carambar</text><text x="40" y="510" fill="#d7f3dd">Delicate Sapling</text><text x="40" y="580" fill="#ee8866">Firewatch</text><text x="40" y="650" fill="#55ee00">Furious Frog</text><text x="40" y="720" fill="#4efd54">Goblin Warboss</text><text x="40" y="790" fill="#cce2dd">Ice Bomb</text><text x="40" y="860" fill="#e6ddcd">Ivory Memories</text><text x="40" y="930" fill="#16a74e">Liberty Green</text><text x="40" y="1000" fill="#f8eed3">Meatbun</text><text x="40" y="1070" fill="#441166">Obsidian Shell</text><text x="40" y="1140" fill="#f1e2c9">Ocelot</text><text x="40" y="1210" fill="#d8cbcf">Old Red Crest</text><text x="40" y="1280" fill="#ee99ff">Party Pig</text><text x="40" y="1350" fill="#32cd32">Poisonous Pesticide</text><text x="40" y="1420" fill="#f2d4df">Pomodoro e Mozzarella</text><text x="40" y="1490" fill="#c8cdd8">Post Apocalyptic Cloud</text><text x="40" y="1560" fill="#4444ff">Pretencious Peacock</text><text x="40" y="1630" fill="#c5d8e9">Snowy Summit</text><text x="40" y="1700" fill="#5511dd">Space Opera</text><text x="40" y="1770" fill="#aefd6c">Stinging Wasabi</text><text x="40" y="1840" fill="#e3e9cf">Sunny Summit</text><text x="40" y="1910" fill="#268bcc">Ticino Blue</text><text x="40" y="1980" fill="#ffd72e">Uri Yellow</text><text x="40" y="2050" fill="#dfe1cc">Vintage Beige</text><text x="40" y="2120" fill="#fef200">Zheleznogorsk Yellow</text><text x="40" y="2190" fill="#248bcc">Zürich Blue</text>
</svg>