<svg xmlns="http://www.w3.org/2000/svg" viewBox="0 0 600 6030">
  <defs>
    <style type="text/css">
      @import url('https://rsms.me/inter/inter.css');
      text {
        font-family: Inter, -apple-system, BlinkMacSystemFont, "Segoe UI", Roboto, Helvetica, Arial, sans-serif, "Apple Color Emoji", "Segoe UI Emoji", "Segoe UI Symbol";
        font-size: 40px;
        font-weight: 900;
      }
    </style>
  </defs>
  <rect fill="#212121" x="0" y="0" width="600" height="6030"/>
  <text x="40" y="90" fill="#fbcd9f">Apricot Sherbet</text><text x="40" y="160" fill="#0097c3">Atomic Blue</text><text x="40" y="230" fill="#75ac16">Beveled Grass</text><text x="40" y="300" fill="#23262b">Black Beauty</text><text x="40" y="370" fill="#2a272c">Black Onyx</text><text x="40" y="440" fill="#fbcaad">Bleached Apricot</text><text x="40" y="510" fill="#335287">Blue Quartz</text><text x="40" y="580" fill="#e09b81">Blushing Rose</text><text x="40" y="650" fill="#f6f2f1">Bright White</text><text x="40" y="720" fill="#80442f">Cacao Nibs</text><text x="40" y="790" fill="#a57c5b">Café au Lait</text><text x="40" y="860" fill="#c79685">Café Crème</text><text x="40" y="930" fill="#3473b7">Campanula</text><text x="40" y="1000" fill="#8e5626">Caramel Café</text><text x="40" y="1070" fill="#bd2c22">Cherry Pie</text><text x="40" y="1140" fill="#0773af">Cloisonné</text><text x="40" y="1210" fill="#71533f">Coffee Liqueúr</text><text x="40" y="1280" fill="#fdf5e0">Crème de Pêche</text><text x="40" y="1350" fill="#f5d6cc">Creole Pink</text><text x="40" y="1420" fill="#b59c76">Curds &amp; Whey</text><text x="40" y="1490" fill="#5a9274">Deep Grass Green</text><text x="40" y="1560" fill="#747962">Deep Lichen Green</text><text x="40" y="1630" fill="#634743">Deep Mahogany</text><text x="40" y="1700" fill="#404f95">Deep Ultramarine</text><text x="40" y="1770" fill="#fa427e">Diva Pink</text><text x="40" y="1840" fill="#f4ece1">Egret</text><text x="40" y="1910" fill="#5cdcf1">Electric Lemonade</text><text x="40" y="1980" fill="#5c5083">Freshly Purpleized</text><text x="40" y="2050" fill="#ac6239">Fudgesicle</text><text x="40" y="2120" fill="#fcd896">Golden Haze</text><text x="40" y="2190" fill="#e1ae20">Golden Rod</text><text x="40" y="2260" fill="#f98513">Habañero</text><text x="40" y="2330" fill="#b8473d">Habañero Chile</text><text x="40" y="2400" fill="#fecf3c">Habañero Gold</text><text x="40" y="2470" fill="#f5ced8">Icy Pink</text><text x="40" y="2540" fill="#f4cf95">Impala</text><text x="40" y="2610" fill="#e3c2ff">Jane Purple</text><text x="40" y="2680" fill="#ff399c">Knockout Pink</text><text x="40" y="2750" fill="#efefb2">Lemon Tonic</text><text x="40" y="2820" fill="#70aa7c">Light Grass Green</text><text x="40" y="2890" fill="#c1db3b">Lime Popsicle</text><text x="40" y="2960" fill="#ec9079">Lox</text><text x="40" y="3030" fill="#f6d2d4">Mary's Rose</text><text x="40" y="3100" fill="#1682b9">Mediterranean Blue</text><text x="40" y="3170" fill="#372d52">Midnight Pie</text><text x="40" y="3240" fill="#274376">Monaco Blue</text><text x="40" y="3310" fill="#ca83a7">Moonlight Mauve</text><text x="40" y="3380" fill="#4e468b">Moonlight Sonata</text><text x="40" y="3450" fill="#1c4c8c">Olympian Blue</text><text x="40" y="3520" fill="#ff550e">Orange Clown Fish</text><text x="40" y="3590" fill="#ffbc3e">Orange Pop</text><text x="40" y="3660" fill="#f2a60f">Orange Pospsicle</text><text x="40" y="3730" fill="#ff8008">Oriole</text><text x="40" y="3800" fill="#f5e28d">Pale Banana</text><text x="40" y="3870" fill="#aba578">Pale Olive Green</text><text x="40" y="3940" fill="#f89882">Parma Ham</text><text x="40" y="4010" fill="#eed0b6">Peach Purée</text><text x="40" y="4080" fill="#f3b68e">Peach Taffy</text><text x="40" y="4150" fill="#f4e5e0">Petal Pink</text><text x="40" y="4220" fill="#cd4e82">Pink Flambé</text><text x="40" y="4290" fill="#f4b6d1">Pink Marshmallow</text><text x="40" y="4360" fill="#f6cdc6">Pink Salt</text><text x="40" y="4430" fill="#070303">Pupil</text><text x="40" y="4500" fill="#a83a9a">Purple Cactus Flower</text><text x="40" y="4570" fill="#8773bb">Purple Hebe</text><text x="40" y="4640" fill="#e9a1b8">Rose Elegance</text><text x="40" y="4710" fill="#e0adc4">Roseate Spoonbill</text><text x="40" y="4780" fill="#e35401">Salsa Habañero</text><text x="40" y="4850" fill="#ff6e1c">Shocking Orange</text><text x="40" y="4920" fill="#526e6b">Silver Pine</text><text x="40" y="4990" fill="#715bb1">Simply Purple</text><text x="40" y="5060" fill="#242933">Sky Captain</text><text x="40" y="5130" fill="#8ffe08">Skywalker Green</text><text x="40" y="5200" fill="#f9736e">Sparkling Cosmo</text><text x="40" y="5270" fill="#edd1c7">Sugarcane</text><text x="40" y="5340" fill="#604c81">Sumptuous Purple</text><text x="40" y="5410" fill="#b1b48c">Sumptuous Sage</text><text x="40" y="5480" fill="#ea6777">Sun Kissed Coral</text><text x="40" y="5550" fill="#7983d7">Tanzine</text><text x="40" y="5620" fill="#e1583f">Tiger Lily</text><text x="40" y="5690" fill="#f8e3ab">Vanilla Cream</text><text x="40" y="5760" fill="#f9dfd7">Veiled Pink</text><text x="40" y="5830" fill="#f7cdc8">Veiled Rose</text><text x="40" y="5900" fill="#48907b">Winter Green</text><text x="40" y="5970" fill="#f2efe0">Yucatan White Habañero</text>
</svg>