<svg xmlns="http://www.w3.org/2000/svg" viewBox="0 0 600 3650">
  <defs>
    <style type="text/css">
      @import url('https://rsms.me/inter/inter.css');
      text {
        font-family: Inter, -apple-system, BlinkMacSystemFont, "Segoe UI", Roboto, Helvetica, Arial, sans-serif, "Apple Color Emoji", "Segoe UI Emoji", "Segoe UI Symbol";
        font-size: 40px;
        font-weight: 900;
      }
    </style>
  </defs>
  <rect fill="#212121" x="0" y="0" width="600" height="3650"/>
  <text x="40" y="90" fill="#ffd8b1">Acini di Pepe</text><text x="40" y="160" fill="#551100">Baragon Brown</text><text x="40" y="230" fill="#0000aa">Bohemian Blue</text><text x="40" y="300" fill="#74bbfb">Broken Blue</text><text x="40" y="370" fill="#995555">Brown Cerberus</text><text x="40" y="440" fill="#fdf5d7">Bucatini Noodle</text><text x="40" y="510" fill="#fcf7db">Campanelle Noodle</text><text x="40" y="580" fill="#773333">Chocolate Bar</text><text x="40" y="650" fill="#cfcdcf">Chupacabra Grey</text><text x="40" y="720" fill="#d3b683">Clumsy Caramel</text><text x="40" y="790" fill="#5f6171">Damp Basement</text><text x="40" y="860" fill="#3f012c">Dark Sanctuary</text><text x="40" y="930" fill="#412010">Délicieux</text><text x="40" y="1000" fill="#e5d4c9">Farfalle Noodle</text><text x="40" y="1070" fill="#556b2f">Fig Leaf</text><text x="40" y="1140" fill="#448822">Fruitless Fig Tree</text><text x="40" y="1210" fill="#f1e8d6">Fusilli</text><text x="40" y="1280" fill="#c23b22">Gazpacho</text><text x="40" y="1350" fill="#3c4d03">Godzilla</text><text x="40" y="1420" fill="#015482">Grand Bleu</text><text x="40" y="1490" fill="#d1ffbd">Greedy Green</text><text x="40" y="1560" fill="#64e986">Grotesque Green</text><text x="40" y="1630" fill="#cc5511">Hot Bolognese</text><text x="40" y="1700" fill="#772222">Incubus</text><text x="40" y="1770" fill="#cce5e8">Ivalo River</text><text x="40" y="1840" fill="#ceddda">Jade Dust</text><text x="40" y="1910" fill="#00ced1">Jade Glass</text><text x="40" y="1980" fill="#aa9977">King Ghidorah</text><text x="40" y="2050" fill="#f4dbdc">Lovely Harmony</text><text x="40" y="2120" fill="#dd7711">Manticore Wing</text><text x="40" y="2190" fill="#dedce2">Mechagozilla</text><text x="40" y="2260" fill="#000133">Mighty Midnight</text><text x="40" y="2330" fill="#eedd82">Mothra Wing</text><text x="40" y="2400" fill="#8f423d">Nandi Bear</text><text x="40" y="2470" fill="#f9e3b4">Noodles</text><text x="40" y="2540" fill="#ffb077">Obtrusive Orange</text><text x="40" y="2610" fill="#ffdfbf">Odious Orange</text><text x="40" y="2680" fill="#faeecb">Orecchiette</text><text x="40" y="2750" fill="#f9eacc">Orzo Pasta</text><text x="40" y="2820" fill="#ecdfad">Paccheri</text><text x="40" y="2890" fill="#f9ebcc">Pappardelle Noodle</text><text x="40" y="2960" fill="#2a0134">Poisonous Purple</text><text x="40" y="3030" fill="#fddc5c">Rodan Gold</text><text x="40" y="3100" fill="#8cffdb">Roller Derby</text><text x="40" y="3170" fill="#dad1ce">Roman Mosaic</text><text x="40" y="3240" fill="#f6cefc">Sassy Pink</text><text x="40" y="3310" fill="#990022">Succubus</text><text x="40" y="3380" fill="#f9f2d4">Tagliatelle</text><text x="40" y="3450" fill="#a35732">Tense Terracotta</text><text x="40" y="3520" fill="#355e4b">Wine Leaf</text><text x="40" y="3590" fill="#ffffbf">Yell Yellow</text>
</svg>