<svg xmlns="http://www.w3.org/2000/svg" viewBox="0 0 600 3720">
  <defs>
    <style type="text/css">
      @import url('https://rsms.me/inter/inter.css');
      text {
        font-family: Inter, -apple-system, BlinkMacSystemFont, "Segoe UI", Roboto, Helvetica, Arial, sans-serif, "Apple Color Emoji", "Segoe UI Emoji", "Segoe UI Symbol";
        font-size: 40px;
        font-weight: 900;
      }
    </style>
  </defs>
  <rect fill="#212121" x="0" y="0" width="600" height="3720"/>
  <text x="40" y="90" fill="#646048">Alligator Scales</text><text x="40" y="160" fill="#cc9350">Apple Fritter</text><text x="40" y="230" fill="#f78c5a">Barbarian</text><text x="40" y="300" fill="#680c08">Beastly Red</text><text x="40" y="370" fill="#d38a57">Bestigor</text><text x="40" y="440" fill="#eb9552">Bronze Cup</text><text x="40" y="510" fill="#90766e">Cadian</text><text x="40" y="580" fill="#cedaac">Chameleon</text><text x="40" y="650" fill="#ebcf7d">Choux à la Crème</text><text x="40" y="720" fill="#214f86">Clear Night Sky</text><text x="40" y="790" fill="#d69f60">Cronut</text><text x="40" y="860" fill="#d2144b">Demon Princess</text><text x="40" y="930" fill="#813533">Dockside Red</text><text x="40" y="1000" fill="#fca044">Double Dragon</text><text x="40" y="1070" fill="#eda057">Doughnut</text><text x="40" y="1140" fill="#774400">Dusky Brown</text><text x="40" y="1210" fill="#ffa07a">Dwarven Peaches</text><text x="40" y="1280" fill="#ecc083">Eldar</text><text x="40" y="1350" fill="#f7c985">Elf Cream</text><text x="40" y="1420" fill="#f7cf8a">Elven Beige</text><text x="40" y="1490" fill="#d09c43">Espresso Crema</text><text x="40" y="1560" fill="#f7d48f">Flat Beige</text><text x="40" y="1630" fill="#fcfcde">Flayed One</text><text x="40" y="1700" fill="#ca4e33">Fox</text><text x="40" y="1770" fill="#c38743">Fox Red</text><text x="40" y="1840" fill="#ecc799">Golden City Moon</text><text x="40" y="1910" fill="#cbd5e9">Heroic Heron</text><text x="40" y="1980" fill="#d1191c">Heroic Red</text><text x="40" y="2050" fill="#b16840">Khardic</text><text x="40" y="2120" fill="#efcdcb">Kislev Pink</text><text x="40" y="2190" fill="#f0d2cf">Kobold Pink</text><text x="40" y="2260" fill="#9faf6c">Matcha Mecha</text><text x="40" y="2330" fill="#1f5429">Moor-Monster</text><text x="40" y="2400" fill="#8aa775">Moss Candy</text><text x="40" y="2470" fill="#d1a14e">Ogryn Wash</text><text x="40" y="2540" fill="#e3c81c">Oh Em Ghee</text><text x="40" y="2610" fill="#f3dfdb">Pallid Rose</text><text x="40" y="2680" fill="#cdcebe">Pallid Wych</text><text x="40" y="2750" fill="#f2c975">Pastel de Nata</text><text x="40" y="2820" fill="#fbe2cd">Peach Kiss</text><text x="40" y="2890" fill="#ffa67a">Peachy</text><text x="40" y="2960" fill="#76727f">Pearl Blackberry</text><text x="40" y="3030" fill="#f4e3df">Pearly</text><text x="40" y="3100" fill="#ffcbc4">Piggy Dreams</text><text x="40" y="3170" fill="#cd2217">Pizza Flame</text><text x="40" y="3240" fill="#ca6c4d">Reikland</text><text x="40" y="3310" fill="#5e582b">Reptile Revenge</text><text x="40" y="3380" fill="#f1d058">Sorreno Lemon</text><text x="40" y="3450" fill="#947e74">Tallarn Leather</text><text x="40" y="3520" fill="#d6a766">Ungor Beige</text><text x="40" y="3590" fill="#849b63">Walking Dead</text><text x="40" y="3660" fill="#f7c380">White Elf</text>
</svg>