<svg xmlns="http://www.w3.org/2000/svg" viewBox="0 0 600 10580">
  <defs>
    <style type="text/css">
      @import url('https://rsms.me/inter/inter.css');
      text {
        font-family: Inter, -apple-system, BlinkMacSystemFont, "Segoe UI", Roboto, Helvetica, Arial, sans-serif, "Apple Color Emoji", "Segoe UI Emoji", "Segoe UI Symbol";
        font-size: 40px;
        font-weight: 900;
      }
    </style>
  </defs>
  <rect fill="#212121" x="0" y="0" width="600" height="10580"/>
  <text x="40" y="90" fill="#e8e0d5">Aquarelle Beige</text><text x="40" y="160" fill="#bfe0e4">Aquarelle Blue</text><text x="40" y="230" fill="#e2f4e4">Aquarelle Green</text><text x="40" y="300" fill="#edc8ff">Aquarelle Lilac</text><text x="40" y="370" fill="#dbf4d8">Aquarelle Mint</text><text x="40" y="440" fill="#fbe8e0">Aquarelle Orange</text><text x="40" y="510" fill="#fbe9de">Aquarelle Pink</text><text x="40" y="580" fill="#d8e1f1">Aquarelle Purple</text><text x="40" y="650" fill="#fedddd">Aquarelle Red</text><text x="40" y="720" fill="#bce4eb">Aquarelle Sky</text><text x="40" y="790" fill="#f4eeda">Aquarelle Yellow</text><text x="40" y="860" fill="#d1edef">Blue Emulsion</text><text x="40" y="930" fill="#d1eaed">Castle in the Sky</text><text x="40" y="1000" fill="#ac0132">Chernobog</text><text x="40" y="1070" fill="#e3dcda">Chernobog Breath</text><text x="40" y="1140" fill="#b6dbe9">Chicago Blue</text><text x="40" y="1210" fill="#f6e6e4">Clear Calamine</text><text x="40" y="1280" fill="#dae8e1">Clear Camouflage Green</text><text x="40" y="1350" fill="#dfdbd8">Clear Cinnamon</text><text x="40" y="1420" fill="#177245">Cloudy Camouflage</text><text x="40" y="1490" fill="#ffa812">Cloudy Carrot</text><text x="40" y="1560" fill="#87715f">Cloudy Cinnamon</text><text x="40" y="1630" fill="#f1f3da">Cream Clear</text><text x="40" y="1700" fill="#254a47">Dancing Crocodiles</text><text x="40" y="1770" fill="#b1d27b">Davao Green</text><text x="40" y="1840" fill="#b8def2">Diluted Blue</text><text x="40" y="1910" fill="#ddeae0">Diluted Green</text><text x="40" y="1980" fill="#dadfea">Diluted Lilac</text><text x="40" y="2050" fill="#e8efdb">Diluted Lime</text><text x="40" y="2120" fill="#daf4ea">Diluted Mint</text><text x="40" y="2190" fill="#fbe8e2">Diluted Orange</text><text x="40" y="2260" fill="#e9dfe8">Diluted Pink</text><text x="40" y="2330" fill="#e8dde2">Diluted Red</text><text x="40" y="2400" fill="#bce1eb">Diminished Blue</text><text x="40" y="2470" fill="#e7ded7">Diminished Brown</text><text x="40" y="2540" fill="#e3e6d6">Diminished Green</text><text x="40" y="2610" fill="#edf5dd">Diminished Lime</text><text x="40" y="2680" fill="#e9f3dd">Diminished Mint</text><text x="40" y="2750" fill="#fae9e1">Diminished Orange</text><text x="40" y="2820" fill="#f1e5e0">Diminished Pink</text><text x="40" y="2890" fill="#e8d8da">Diminished Red</text><text x="40" y="2960" fill="#d3f2ed">Diminished Sky</text><text x="40" y="3030" fill="#e5e0db">Durian Smell</text><text x="40" y="3100" fill="#efdfe7">Dwindling Damon</text><text x="40" y="3170" fill="#f9e9d7">Dwindling Dandelion</text><text x="40" y="3240" fill="#cce1ee">Dwindling Denim</text><text x="40" y="3310" fill="#e5d9dc">Faded Firebrick</text><text x="40" y="3380" fill="#e3e2d7">Faded Forest</text><text x="40" y="3450" fill="#ede2ee">Faded Fuchsia</text><text x="40" y="3520" fill="#c973a2">Fading Love</text><text x="40" y="3590" fill="#ece6dc">Fading Parchment</text><text x="40" y="3660" fill="#dadbe0">Faint Fern</text><text x="40" y="3730" fill="#e6deea">Faint Fuchsia</text><text x="40" y="3800" fill="#b59410">Faint Gold</text><text x="40" y="3870" fill="#daeae2">Green Emulsion</text><text x="40" y="3940" fill="#cee1f2">Hint of Blue</text><text x="40" y="4010" fill="#dfeade">Hint of Green</text><text x="40" y="4080" fill="#dff1d6">Hint of Mint</text><text x="40" y="4150" fill="#f8e6d9">Hint of Orange</text><text x="40" y="4220" fill="#f1e4e1">Hint of Pink</text><text x="40" y="4290" fill="#f6dfe0">Hint of Red</text><text x="40" y="4360" fill="#dbe7e3">Homeopathic Blue</text><text x="40" y="4430" fill="#e1ebd8">Homeopathic Green</text><text x="40" y="4500" fill="#e5e0ec">Homeopathic Lavender</text><text x="40" y="4570" fill="#e1e0eb">Homeopathic Lilac</text><text x="40" y="4640" fill="#e5ead8">Homeopathic Mint</text><text x="40" y="4710" fill="#f2e6e1">Homeopathic Orange</text><text x="40" y="4780" fill="#ecdbe0">Homeopathic Red</text><text x="40" y="4850" fill="#e8dbdd">Homeopathic Rose</text><text x="40" y="4920" fill="#ede7d7">Homeopathic Yellow</text><text x="40" y="4990" fill="#ffb3de">Hot Aquarelle Pink</text><text x="40" y="5060" fill="#dfdad9">Lavender Essence</text><text x="40" y="5130" fill="#f0f6dd">Lemon Sugar</text><text x="40" y="5200" fill="#e1ebde">Loggia Lights</text><text x="40" y="5270" fill="#e0efe3">Lower Green</text><text x="40" y="5340" fill="#dcdfef">Lower Lavender</text><text x="40" y="5410" fill="#e2d6d8">Lower Lilac</text><text x="40" y="5480" fill="#e6f1de">Lower Lime</text><text x="40" y="5550" fill="#e0dcd8">Lower Linen</text><text x="40" y="5620" fill="#f6e7e1">Mandarin Sugar</text><text x="40" y="5690" fill="#e3d2db">Mauve Aquarelle</text><text x="40" y="5760" fill="#d3dfea">Minified Ballerina Blue</text><text x="40" y="5830" fill="#b3dbea">Minified Blue</text><text x="40" y="5900" fill="#f2dde1">Minified Blush</text><text x="40" y="5970" fill="#ded9db">Minified Cinnamon</text><text x="40" y="6040" fill="#dde8e0">Minified Green</text><text x="40" y="6110" fill="#c1e3e9">Minified Jade</text><text x="40" y="6180" fill="#ebf5de">Minified Lime</text><text x="40" y="6250" fill="#e6dfe8">Minified Magenta</text><text x="40" y="6320" fill="#ddf3e5">Minified Malachite</text><text x="40" y="6390" fill="#e5dbda">Minified Maroon</text><text x="40" y="6460" fill="#e0dce4">Minified Mauve</text><text x="40" y="6530" fill="#e4ebdc">Minified Mint</text><text x="40" y="6600" fill="#e3e8db">Minified Moss</text><text x="40" y="6670" fill="#e9e6d4">Minified Mustard</text><text x="40" y="6740" fill="#e1dee7">Minified Purple</text><text x="40" y="6810" fill="#f4ebd4">Minified Yellow</text><text x="40" y="6880" fill="#dfeadb">Mint Emulsion</text><text x="40" y="6950" fill="#88654e">Obscure Ochre</text><text x="40" y="7020" fill="#771908">Obscure Ogre</text><text x="40" y="7090" fill="#4a5d23">Obscure Olive</text><text x="40" y="7160" fill="#bb5500">Obscure Orange</text><text x="40" y="7230" fill="#9d0759">Obscure Orchid</text><text x="40" y="7300" fill="#c3bebb">Olive Bread</text><text x="40" y="7370" fill="#b3be98">Pale Spring Morning</text><text x="40" y="7440" fill="#e1e9db">Pergola Panorama</text><text x="40" y="7510" fill="#ebe1d4">Physalis Aquarelle</text><text x="40" y="7580" fill="#f2e4e2">Pink Emulsion</text><text x="40" y="7650" fill="#eedd66">Pollenation</text><text x="40" y="7720" fill="#e38fac">Pomelo Red</text><text x="40" y="7790" fill="#fce8e3">Pomelo Sugar</text><text x="40" y="7860" fill="#eadce2">Purple Emulsion</text><text x="40" y="7930" fill="#e9dbde">Red Emulsion</text><text x="40" y="8000" fill="#874c62">Red Shrivel</text><text x="40" y="8070" fill="#d6dfec">Reduced Blue</text><text x="40" y="8140" fill="#e7e9d8">Reduced Green</text><text x="40" y="8210" fill="#f6e4e4">Reduced Pink</text><text x="40" y="8280" fill="#efdedf">Reduced Red</text><text x="40" y="8350" fill="#eee5da">Reduced Sand</text><text x="40" y="8420" fill="#d3eeec">Reduced Sky</text><text x="40" y="8490" fill="#dbe8df">Reduced Spearmint</text><text x="40" y="8560" fill="#daece7">Reduced Turquoise</text><text x="40" y="8630" fill="#f0ead7">Reduced Yellow</text><text x="40" y="8700" fill="#fae6e5">Rose Sugar</text><text x="40" y="8770" fill="#eae2df">Sip of Nut Milk</text><text x="40" y="8840" fill="#efedd8">Slippery Soap</text><text x="40" y="8910" fill="#d5f3ec">Slippery Tub</text><text x="40" y="8980" fill="#a88905">Strong Mustard</text><text x="40" y="9050" fill="#f0e4c6">Tamale</text><text x="40" y="9120" fill="#cfe2ef">Weak Blue</text><text x="40" y="9190" fill="#e1f2df">Weak Green</text><text x="40" y="9260" fill="#e9f6e0">Weak Lime</text><text x="40" y="9330" fill="#eadee4">Weak Mauve</text><text x="40" y="9400" fill="#e0f0e5">Weak Mint</text><text x="40" y="9470" fill="#faede3">Weak Orange</text><text x="40" y="9540" fill="#ecdee5">Weak Pink</text><text x="40" y="9610" fill="#f1f5db">Weak Yellow</text><text x="40" y="9680" fill="#ebdedb">Wishy-Washy Beige</text><text x="40" y="9750" fill="#c6e0e1">Wishy-Washy Blue</text><text x="40" y="9820" fill="#d1c2c2">Wishy-Washy Brown</text><text x="40" y="9890" fill="#dfeae1">Wishy-Washy Green</text><text x="40" y="9960" fill="#deede4">Wishy-Washy Lichen</text><text x="40" y="10030" fill="#f5dfe7">Wishy-Washy Lilies</text><text x="40" y="10100" fill="#eef5db">Wishy-Washy Lime</text><text x="40" y="10170" fill="#eddde4">Wishy-Washy Mauve</text><text x="40" y="10240" fill="#dde2d9">Wishy-Washy Mint</text><text x="40" y="10310" fill="#f0dee7">Wishy-Washy Pink</text><text x="40" y="10380" fill="#e1dadd">Wishy-Washy Red</text><text x="40" y="10450" fill="#e9e9d5">Wishy-Washy Yellow</text><text x="40" y="10520" fill="#f0f0d9">Yellow Emulsion</text>
</svg>