<svg xmlns="http://www.w3.org/2000/svg" viewBox="0 0 600 3090">
  <defs>
    <style type="text/css">
      @import url('https://rsms.me/inter/inter.css');
      text {
        font-family: Inter, -apple-system, BlinkMacSystemFont, "Segoe UI", Roboto, Helvetica, Arial, sans-serif, "Apple Color Emoji", "Segoe UI Emoji", "Segoe UI Symbol";
        font-size: 40px;
        font-weight: 900;
      }
    </style>
  </defs>
  <rect fill="#212121" x="0" y="0" width="600" height="3090"/>
  <text x="40" y="90" fill="#f4a6a3">Calabrese</text><text x="40" y="160" fill="#acdcee">Distant Homeworld</text><text x="40" y="230" fill="#7722aa">Fuchsia Nebula</text><text x="40" y="300" fill="#667744">Ghoul</text><text x="40" y="370" fill="#987654">Guinea Pig</text><text x="40" y="440" fill="#960117">Heidelberg Red</text><text x="40" y="510" fill="#ffee44">Hollandaise</text><text x="40" y="580" fill="#2299dd">Homeworld</text><text x="40" y="650" fill="#008000">Hulk</text><text x="40" y="720" fill="#006995">Hydra</text><text x="40" y="790" fill="#f4d493">Instant Noodles</text><text x="40" y="860" fill="#cbcdcd">Iron Fist</text><text x="40" y="930" fill="#fec50c">Kazakhstan Yellow</text><text x="40" y="1000" fill="#d74894">Kirby</text><text x="40" y="1070" fill="#e50000">Lifeguard</text><text x="40" y="1140" fill="#f4d4d6">Light Rose</text><text x="40" y="1210" fill="#bb240c">Lobster</text><text x="40" y="1280" fill="#faefdf">Long Beach</text><text x="40" y="1350" fill="#cc3322">Lucky Lobster</text><text x="40" y="1420" fill="#bb8877">Ludicrous Lemming</text><text x="40" y="1490" fill="#4cbb17">Luigi</text><text x="40" y="1560" fill="#ddaa88">Lunatic Lynx</text><text x="40" y="1630" fill="#b4023d">M. Bison</text><text x="40" y="1700" fill="#880033">Macabre</text><text x="40" y="1770" fill="#9999aa">Machinery</text><text x="40" y="1840" fill="#ee4488">Majestic Magenta</text><text x="40" y="1910" fill="#4f7942">Mana Tree</text><text x="40" y="1980" fill="#e4000f">Mario</text><text x="40" y="2050" fill="#ad6242">Mars</text><text x="40" y="2120" fill="#507d2a">Master Chief</text><text x="40" y="2190" fill="#ddcc88">Master Key</text><text x="40" y="2260" fill="#dd4433">Matt Demon</text><text x="40" y="2330" fill="#bbbbc1">Mithril Silver</text><text x="40" y="2400" fill="#7bc8f6">Nevermind Nirvana</text><text x="40" y="2470" fill="#bb7777">Nipple</text><text x="40" y="2540" fill="#9e8a6d">Nut</text><text x="40" y="2610" fill="#f1ece0">Paper Plane</text><text x="40" y="2680" fill="#eec9a6">Peaches'n'Cream</text><text x="40" y="2750" fill="#eeaaee">Pinky Swear</text><text x="40" y="2820" fill="#f878f8">Princess Peach</text><text x="40" y="2890" fill="#3d34a5">Purple Cabbage</text><text x="40" y="2960" fill="#b8b8bf">Silverware</text><text x="40" y="3030" fill="#d4cfcc">Tiny Ghost Town</text>
</svg>