<svg xmlns="http://www.w3.org/2000/svg" viewBox="0 0 600 2180">
  <defs>
    <style type="text/css">
      @import url('https://rsms.me/inter/inter.css');
      text {
        font-family: Inter, -apple-system, BlinkMacSystemFont, "Segoe UI", Roboto, Helvetica, Arial, sans-serif, "Apple Color Emoji", "Segoe UI Emoji", "Segoe UI Symbol";
        font-size: 40px;
        font-weight: 900;
      }
    </style>
  </defs>
  <rect fill="#212121" x="0" y="0" width="600" height="2180"/>
  <text x="40" y="90" fill="#46adf9">Adamantine Blue</text><text x="40" y="160" fill="#3063af">Adventure of the Seas</text><text x="40" y="230" fill="#69a2d5">Blue Gourami</text><text x="40" y="300" fill="#42364c">Call It a Night</text><text x="40" y="370" fill="#d0eff3">Diamond League</text><text x="40" y="440" fill="#52c170">Emerald Cory</text><text x="40" y="510" fill="#f73d37">Flamboyant</text><text x="40" y="580" fill="#129c8b">Flamboyant Teal</text><text x="40" y="650" fill="#fd4c29">Flame Angelfish</text><text x="40" y="720" fill="#f62e52">Flowerhorn Cichlid Red</text><text x="40" y="790" fill="#6f123c">Her Fierceness</text><text x="40" y="860" fill="#119900">Herbalist's Garden</text><text x="40" y="930" fill="#a91c1c">Ketchup Later</text><text x="40" y="1000" fill="#e5b73b">Last Sunlight</text><text x="40" y="1070" fill="#f9dce3">Marshmallow Heart</text><text x="40" y="1140" fill="#006611">Nature's Masterpiece</text><text x="40" y="1210" fill="#072688">Naval Adventures</text><text x="40" y="1280" fill="#bd2f10">Once Bitten</text><text x="40" y="1350" fill="#9c87c1">Petrified Purple</text><text x="40" y="1420" fill="#ddca69">Pirate Treasure</text><text x="40" y="1490" fill="#e0180c">Red Wrath of Zeus</text><text x="40" y="1560" fill="#1600fc">Royal Blue Tang</text><text x="40" y="1630" fill="#a152bd">Royal Gramma Purple</text><text x="40" y="1700" fill="#747b92">Smokey Denim</text><text x="40" y="1770" fill="#928996">Smokey Lilac</text><text x="40" y="1840" fill="#9a9da2">Smokey Stone</text><text x="40" y="1910" fill="#dce5eb">Snowcap</text><text x="40" y="1980" fill="#263644">Tahitian Pearl</text><text x="40" y="2050" fill="#f2e688">Templar's Gold</text><text x="40" y="2120" fill="#118844">The Wild Apothecary</text>
</svg>