<svg xmlns="http://www.w3.org/2000/svg" viewBox="0 0 600 3160">
  <defs>
    <style type="text/css">
      @import url('https://rsms.me/inter/inter.css');
      text {
        font-family: Inter, -apple-system, BlinkMacSystemFont, "Segoe UI", Roboto, Helvetica, Arial, sans-serif, "Apple Color Emoji", "Segoe UI Emoji", "Segoe UI Symbol";
        font-size: 40px;
        font-weight: 900;
      }
    </style>
  </defs>
  <rect fill="#212121" x="0" y="0" width="600" height="3160"/>
  <text x="40" y="90" fill="#84705b">Aztec Temple</text><text x="40" y="160" fill="#2b7414">Battle Cat</text><text x="40" y="230" fill="#f8d7d0">Bloodthirsty Beige</text><text x="40" y="300" fill="#9b0503">Bloodthirsty Vampire</text><text x="40" y="370" fill="#ec1837">Bloodthirsty Warlock</text><text x="40" y="440" fill="#debb32">Bollywood</text><text x="40" y="510" fill="#fffbab">Bollywood Gold</text><text x="40" y="580" fill="#f7e077">Centeōtl Yellow</text><text x="40" y="650" fill="#11bb44">Charming Nature</text><text x="40" y="720" fill="#fed903">Evil-Lyn</text><text x="40" y="790" fill="#bb7733">Fire Lord</text><text x="40" y="860" fill="#550066">God of Nights</text><text x="40" y="930" fill="#4466cc">God of Rain</text><text x="40" y="1000" fill="#b42435">Gory Movie</text><text x="40" y="1070" fill="#11dd55">Green Priestess</text><text x="40" y="1140" fill="#88cc11">Growing Nature</text><text x="40" y="1210" fill="#11ffee">Ice Temple</text><text x="40" y="1280" fill="#c0f000">Leafy Lemon</text><text x="40" y="1350" fill="#664488">Lords of the Night</text><text x="40" y="1420" fill="#bb55cc">Love Priestess</text><text x="40" y="1490" fill="#b4f319">Lurid Lettuce</text><text x="40" y="1560" fill="#bb3388">Lust Priestess</text><text x="40" y="1630" fill="#d91407">Orko</text><text x="40" y="1700" fill="#88dd00">Overgrown</text><text x="40" y="1770" fill="#888844">Overgrown Citadel</text><text x="40" y="1840" fill="#6b6048">Overgrown Trees</text><text x="40" y="1910" fill="#88cc33">Overgrowth</text><text x="40" y="1980" fill="#cc2277">Prince Charming</text><text x="40" y="2050" fill="#114411">Realm of the Underworld</text><text x="40" y="2120" fill="#c34b1b">Red Panda</text><text x="40" y="2190" fill="#991166">Romantic Vampire</text><text x="40" y="2260" fill="#cadece">Ruins of Civilization</text><text x="40" y="2330" fill="#f01a4d">Sanguinary</text><text x="40" y="2400" fill="#e84998">Schiaparelli Pink</text><text x="40" y="2470" fill="#a29587">Smoking Mirror</text><text x="40" y="2540" fill="#5500ee">Tezcatlipōca Blue</text><text x="40" y="2610" fill="#f0e22c">The Fifth Sun</text><text x="40" y="2680" fill="#316f82">Tlāloc Blue</text><text x="40" y="2750" fill="#d14155">Tōnatiuh Red</text><text x="40" y="2820" fill="#1e231c">Underworld</text><text x="40" y="2890" fill="#dd0077">Vampire Love Story</text><text x="40" y="2960" fill="#cc0066">Vampiric Bloodlust</text><text x="40" y="3030" fill="#5ad33e">Verdant Fields</text><text x="40" y="3100" fill="#cc1166">Xīpe Totēc Red</text>
</svg>