<svg xmlns="http://www.w3.org/2000/svg" viewBox="0 0 600 2810">
  <defs>
    <style type="text/css">
      @import url('https://rsms.me/inter/inter.css');
      text {
        font-family: Inter, -apple-system, BlinkMacSystemFont, "Segoe UI", Roboto, Helvetica, Arial, sans-serif, "Apple Color Emoji", "Segoe UI Emoji", "Segoe UI Symbol";
        font-size: 40px;
        font-weight: 900;
      }
    </style>
  </defs>
  <rect fill="#212121" x="0" y="0" width="600" height="2810"/>
  <text x="40" y="90" fill="#f8fbeb">Amnesiac White</text><text x="40" y="160" fill="#980b4a">Aristocratic Velvet</text><text x="40" y="230" fill="#fffb08">Banana King</text><text x="40" y="300" fill="#fff7ad">Banana Milk</text><text x="40" y="370" fill="#ffba24">Beloved Sunflower</text><text x="40" y="440" fill="#de5346">Blossoming Dynasty</text><text x="40" y="510" fill="#b9a70f">Brass Knuckle</text><text x="40" y="580" fill="#fff7db">Buttermelon</text><text x="40" y="650" fill="#b2a2c1">Calming Silver Lavender</text><text x="40" y="720" fill="#292929">Chromaphobic Black</text><text x="40" y="790" fill="#fff7fd">Cold Snow</text><text x="40" y="860" fill="#fff5e0">Creamy Cloud Dreams</text><text x="40" y="930" fill="#fffbb0">Creamy Sunshine Pastel</text><text x="40" y="1000" fill="#ea5013">Crunchy Carrot</text><text x="40" y="1070" fill="#b195e4">Dreamy Candy Forest</text><text x="40" y="1140" fill="#fffbfc">Flawed White</text><text x="40" y="1210" fill="#da8704">Fleur de Sel Caramel</text><text x="40" y="1280" fill="#669900">Gecko's Dream</text><text x="40" y="1350" fill="#a3896c">Gramps Shoehorn</text><text x="40" y="1420" fill="#e0b8c0">Grandma's Pink Tiles</text><text x="40" y="1490" fill="#c3571d">Grieving Daylily</text><text x="40" y="1560" fill="#57446a">Haunted Candelabra</text><text x="40" y="1630" fill="#d97d8f">I Love You Pink</text><text x="40" y="1700" fill="#d0c7ff">Innocent Snowdrop</text><text x="40" y="1770" fill="#ff66bb">Kisses</text><text x="40" y="1840" fill="#ff6677">Kisses and Hugs</text><text x="40" y="1910" fill="#4fdce1">Neon Nazar</text><text x="40" y="1980" fill="#68dfbb">Ocean in a Bowl</text><text x="40" y="2050" fill="#990077">Persian Luxury Purple</text><text x="40" y="2120" fill="#119922">Pestering Pesto</text><text x="40" y="2190" fill="#f7504a">Pumping Spice</text><text x="40" y="2260" fill="#a55e2b">Scarecrow Frown</text><text x="40" y="2330" fill="#5087bd">Sea Salt Rivers</text><text x="40" y="2400" fill="#fff5f7">Sea Salt Sherbet</text><text x="40" y="2470" fill="#fff5e7">Soft Pillow</text><text x="40" y="2540" fill="#fff9eb">Toasted Marshmallow Fluff</text><text x="40" y="2610" fill="#ffffeb">Vanilla Drop</text><text x="40" y="2680" fill="#fffdfd">Whitecap Snow</text><text x="40" y="2750" fill="#f6dee0">x</text>
</svg>