<svg xmlns="http://www.w3.org/2000/svg" viewBox="0 0 600 2880">
  <defs>
    <style type="text/css">
      @import url('https://rsms.me/inter/inter.css');
      text {
        font-family: Inter, -apple-system, BlinkMacSystemFont, "Segoe UI", Roboto, Helvetica, Arial, sans-serif, "Apple Color Emoji", "Segoe UI Emoji", "Segoe UI Symbol";
        font-size: 40px;
        font-weight: 900;
      }
    </style>
  </defs>
  <rect fill="#212121" x="0" y="0" width="600" height="2880"/>
  <text x="40" y="90" fill="#44ddee">Blue Dacnis</text><text x="40" y="160" fill="#0033bb">Blue Screen of Death</text><text x="40" y="230" fill="#22bbff">Cherenkov Radiation</text><text x="40" y="300" fill="#0033dd">Cold Pack</text><text x="40" y="370" fill="#004455">Crab Nebula</text><text x="40" y="440" fill="#777722">Crocodile Eye</text><text x="40" y="510" fill="#004444">Dark Side</text><text x="40" y="580" fill="#770044">Dawn of the Fairies</text><text x="40" y="650" fill="#441111">English Breakfast</text><text x="40" y="720" fill="#99ccee">Fail Whale</text><text x="40" y="790" fill="#008822">Fatal Fields</text><text x="40" y="860" fill="#eebb66">Flaming June</text><text x="40" y="930" fill="#d5e0ee">Great Blue Heron</text><text x="40" y="1000" fill="#ceecee">Hand Sanitizer</text><text x="40" y="1070" fill="#003311">Haunted Hills</text><text x="40" y="1140" fill="#0044aa">Indian Peafowl</text><text x="40" y="1210" fill="#55ddff">Ionized-air Glow</text><text x="40" y="1280" fill="#66cc11">Irish Jig</text><text x="40" y="1350" fill="#ddff55">Isotonic Water</text><text x="40" y="1420" fill="#ee55cc">Kinky Pink</text><text x="40" y="1490" fill="#f9f6db">Limestone Quarry</text><text x="40" y="1560" fill="#002277">Long-Haul Flight</text><text x="40" y="1630" fill="#44dd00">Magic Blade</text><text x="40" y="1700" fill="#992222">Manchester Nights</text><text x="40" y="1770" fill="#118800">Minstrel of the Woods</text><text x="40" y="1840" fill="#004422">Moisty Mire</text><text x="40" y="1910" fill="#881111">Netherworld</text><text x="40" y="1980" fill="#003344">Nordic Noir</text><text x="40" y="2050" fill="#fbf0db">Overnight Oats</text><text x="40" y="2120" fill="#11eeff">Paint the Sky</text><text x="40" y="2190" fill="#006622">Paradise Palms</text><text x="40" y="2260" fill="#ff8877">Play 'til dawn</text><text x="40" y="2330" fill="#8855ff">Purple Honeycreeper</text><text x="40" y="2400" fill="#ee7777">Salmon Poké Bowl</text><text x="40" y="2470" fill="#0044ee">Scuff Blue</text><text x="40" y="2540" fill="#dd7733">Snoby Shore</text><text x="40" y="2610" fill="#007711">Spreadsheet Green</text><text x="40" y="2680" fill="#aa0066">Velvet Cupcake</text><text x="40" y="2750" fill="#ee00dd">Vice City</text><text x="40" y="2820" fill="#004411">Wailing Woods</text>
</svg>