<svg xmlns="http://www.w3.org/2000/svg" viewBox="0 0 600 3580">
  <defs>
    <style type="text/css">
      @import url('https://rsms.me/inter/inter.css');
      text {
        font-family: Inter, -apple-system, BlinkMacSystemFont, "Segoe UI", Roboto, Helvetica, Arial, sans-serif, "Apple Color Emoji", "Segoe UI Emoji", "Segoe UI Symbol";
        font-size: 40px;
        font-weight: 900;
      }
    </style>
  </defs>
  <rect fill="#212121" x="0" y="0" width="600" height="3580"/>
  <text x="40" y="90" fill="#ccb27a">Aged Seagrass</text><text x="40" y="160" fill="#c2a377">Apple Sauce Cake</text><text x="40" y="230" fill="#d7b59a">Beech-Nut</text><text x="40" y="300" fill="#6bc271">Bermudagrass</text><text x="40" y="370" fill="#5588dd">Blue Jay</text><text x="40" y="440" fill="#5c767f">Blue-Eyed Cryptid</text><text x="40" y="510" fill="#785441">Brownstone</text><text x="40" y="580" fill="#a58235">Cloisonné Gold</text><text x="40" y="650" fill="#220033">Coal Mine</text><text x="40" y="720" fill="#df9d5b">Coffee Whip</text><text x="40" y="790" fill="#a7b25f">Cornstalk</text><text x="40" y="860" fill="#d7c2a6">Country Linen</text><text x="40" y="930" fill="#2f1611">Darkroom</text><text x="40" y="1000" fill="#f6c75e">Deep Fried Sunrays</text><text x="40" y="1070" fill="#cbc0ba">Down-Home</text><text x="40" y="1140" fill="#43718b">Downpour</text><text x="40" y="1210" fill="#e9c9cb">English Rosebud</text><text x="40" y="1280" fill="#1c1e4d">Fly-by-Night</text><text x="40" y="1350" fill="#daba55">Golden Bass</text><text x="40" y="1420" fill="#fdcb18">Goldenrod</text><text x="40" y="1490" fill="#373a3a">Green Black</text><text x="40" y="1560" fill="#39766c">Green Sleeves</text><text x="40" y="1630" fill="#acaeb1">Grey Timberwolf</text><text x="40" y="1700" fill="#01858b">Gulf Stream</text><text x="40" y="1770" fill="#ffffe3">Lamb’s Wool</text><text x="40" y="1840" fill="#edabe6">Land of Dreams</text><text x="40" y="1910" fill="#999a86">Lemongrass</text><text x="40" y="1980" fill="#88aa77">Lush Fields</text><text x="40" y="2050" fill="#faefbe">Moon Dance</text><text x="40" y="2120" fill="#e3a9c4">Party Time</text><text x="40" y="2190" fill="#c5e1e1">Peek-a-Blue</text><text x="40" y="2260" fill="#f6dbd8">Rosewater</text><text x="40" y="2330" fill="#f5e9d9">Saltbox</text><text x="40" y="2400" fill="#648fa4">Saltbox Blue</text><text x="40" y="2470" fill="#d1ab99">Saltwater Taffy</text><text x="40" y="2540" fill="#decbab">Sandblast</text><text x="40" y="2610" fill="#a42e37">Show-Stopper</text><text x="40" y="2680" fill="#60bfd3">Skydive</text><text x="40" y="2750" fill="#4a5d5f">Still Waters Run Deep</text><text x="40" y="2820" fill="#74819a">Stonewash</text><text x="40" y="2890" fill="#f7c2bf">Sugarcane Dahlia</text><text x="40" y="2960" fill="#ffeec2">Sun-Kissed</text><text x="40" y="3030" fill="#f2bda8">Sun-Kissed Apricot</text><text x="40" y="3100" fill="#deab9b">Sun-Kissed Beach</text><text x="40" y="3170" fill="#ea6777">Sun-Kissed Coral</text><text x="40" y="3240" fill="#fed8bf">Sun-Kissed Peach</text><text x="40" y="3310" fill="#ffe9ba">Sun-Kissed Yellow</text><text x="40" y="3380" fill="#eabd5b">Sundried</text><text x="40" y="3450" fill="#7d252c">Sundried Tomato</text><text x="40" y="3520" fill="#f3c3d8">Sweetheart</text>
</svg>