<svg xmlns="http://www.w3.org/2000/svg" viewBox="0 0 600 14640">
  <defs>
    <style type="text/css">
      @import url('https://rsms.me/inter/inter.css');
      text {
        font-family: Inter, -apple-system, BlinkMacSystemFont, "Segoe UI", Roboto, Helvetica, Arial, sans-serif, "Apple Color Emoji", "Segoe UI Emoji", "Segoe UI Symbol";
        font-size: 40px;
        font-weight: 900;
      }
    </style>
  </defs>
  <rect fill="#212121" x="0" y="0" width="600" height="14640"/>
  <text x="40" y="90" fill="#9ba0a4">Aegean Splendour</text><text x="40" y="160" fill="#6a5b4e">Ageing Barrel</text><text x="40" y="230" fill="#e8dec9">Almanack</text><text x="40" y="300" fill="#66aa00">Appetising Asparagus</text><text x="40" y="370" fill="#c1c2b4">Arbour Hollow</text><text x="40" y="440" fill="#6e6a5e">Archaeology</text><text x="40" y="510" fill="#74857f">Armour</text><text x="40" y="580" fill="#030303">Armour Wash</text><text x="40" y="650" fill="#747769">Armoured Steel</text><text x="40" y="720" fill="#6a6b65">Armoury</text><text x="40" y="790" fill="#ca9d8d">Artefact</text><text x="40" y="860" fill="#434053">Artistic Licence</text><text x="40" y="930" fill="#595682">Aurora Splendour</text><text x="40" y="1000" fill="#fe9a50">Autumn Splendour</text><text x="40" y="1070" fill="#fae7b5">Banana Yoghurt</text><text x="40" y="1140" fill="#bb8d4e">Barista’s Favourite</text><text x="40" y="1210" fill="#9c9c82">Battle Harbour</text><text x="40" y="1280" fill="#7accb8">Bevelled Glass</text><text x="40" y="1350" fill="#75ac16">Bevelled Grass</text><text x="40" y="1420" fill="#e5bddf">Blackberry Yoghurt</text><text x="40" y="1490" fill="#9884b9">Bougainvillaea</text><text x="40" y="1560" fill="#d58a37">Caramelise</text><text x="40" y="1630" fill="#ba947f">Caramelised</text><text x="40" y="1700" fill="#ad5a28">Caramelised Maple</text><text x="40" y="1770" fill="#ef924a">Caramelised Orange</text><text x="40" y="1840" fill="#e7d5ad">Caramelised Pears</text><text x="40" y="1910" fill="#a17b4d">Caramelised Pecan</text><text x="40" y="1980" fill="#6e564a">Caramelised Walnut</text><text x="40" y="2050" fill="#2e2e2e">Carbon Fibre</text><text x="40" y="2120" fill="#ffb850">Carolling Candlelight</text><text x="40" y="2190" fill="#e1df9a">Celery Sceptre</text><text x="40" y="2260" fill="#685549">Centre Earth</text><text x="40" y="2330" fill="#817a69">Centre Ridge</text><text x="40" y="2400" fill="#be4b41">Chilli</text><text x="40" y="2470" fill="#985e2b">Chilli Con Carne</text><text x="40" y="2540" fill="#e93a0e">Chilli Crab</text><text x="40" y="2610" fill="#f0b692">Chilli Dip</text><text x="40" y="2680" fill="#8d7040">Chilli Green</text><text x="40" y="2750" fill="#9d453c">Chilli Oil</text><text x="40" y="2820" fill="#ac1e3a">Chilli Pepper</text><text x="40" y="2890" fill="#bc4e40">Chilli Sauce</text><text x="40" y="2960" fill="#ca7c74">Chilli Soda</text><text x="40" y="3030" fill="#74626d">Chimaera</text><text x="40" y="3100" fill="#c89b75">Chimaera Brown</text><text x="40" y="3170" fill="#ab4231">Chocolate Chilli</text><text x="40" y="3240" fill="#a8a9ad">Chrome Aluminium</text><text x="40" y="3310" fill="#c6d2de">Colour Blind</text><text x="40" y="3380" fill="#7cb77b">Colour Me Green</text><text x="40" y="3450" fill="#aa5c43">Colourful Leaves</text><text x="40" y="3520" fill="#c3a598">Cosy Blanket</text><text x="40" y="3590" fill="#aa8f7d">Cosy Cocoa</text><text x="40" y="3660" fill="#f2ddd8">Cosy Cottage</text><text x="40" y="3730" fill="#e4c38f">Cosy Cover</text><text x="40" y="3800" fill="#e0dbc7">Cosy Cream</text><text x="40" y="3870" fill="#fba765">Cosy Nook</text><text x="40" y="3940" fill="#eb9f9f">Cosy Summer Sunset</text><text x="40" y="4010" fill="#d1b99b">Cosy Wool</text><text x="40" y="4080" fill="#dad0bd">Cotton Fibre</text><text x="40" y="4150" fill="#ecdfdf">Crystallise</text><text x="40" y="4220" fill="#661122">Dark Humour</text><text x="40" y="4290" fill="#88ffee">Defence Matrix</text><text x="40" y="4360" fill="#cc99ee">Dream Vapour</text><text x="40" y="4430" fill="#b89e78">Earthy Ochre</text><text x="40" y="4500" fill="#c67d84">Enamoured</text><text x="40" y="4570" fill="#d2d25a">Energised</text><text x="40" y="4640" fill="#fae6cc">Favoured One</text><text x="40" y="4710" fill="#877252">Favourite Fudge</text><text x="40" y="4780" fill="#8aa3b1">Favourite Jeans</text><text x="40" y="4850" fill="#d3a5d6">Favourite Lavender</text><text x="40" y="4920" fill="#c1ae91">Favourite Tan</text><text x="40" y="4990" fill="#dbe64c">First Colours of Spring</text><text x="40" y="5060" fill="#b42121">Flamingo Fervour</text><text x="40" y="5130" fill="#8b8d98">Flannel Pyjamas</text><text x="40" y="5200" fill="#c3c6cd">Flat Aluminium</text><text x="40" y="5270" fill="#e0d68e">Flax Fibre</text><text x="40" y="5340" fill="#e6cee6">Footie Pyjamas</text><text x="40" y="5410" fill="#016e61">Forest Splendour</text><text x="40" y="5480" fill="#b6b8b0">Fossilised</text><text x="40" y="5550" fill="#756a43">Fossilised Leaf</text><text x="40" y="5620" fill="#d4e9f5">Freezing Vapour</text><text x="40" y="5690" fill="#a598c7">Grape Arbour</text><text x="40" y="5760" fill="#bbaa22">Green Flavour</text><text x="40" y="5830" fill="#cfddb9">Green Parlour</text><text x="40" y="5900" fill="#838585">Gryphon</text><text x="40" y="5970" fill="#c61a1b">Haemoglobin Red</text><text x="40" y="6040" fill="#88aaaa">Harbour Mist</text><text x="40" y="6110" fill="#888a8e">Heavy Metal Armour</text><text x="40" y="6180" fill="#ddffcc">Herbal Vapours</text><text x="40" y="6250" fill="#60737d">Hidden Harbour</text><text x="40" y="6320" fill="#5f7c47">Homoeopathic</text><text x="40" y="6390" fill="#dbe7e3">Homoeopathic Blue</text><text x="40" y="6460" fill="#e1ebd8">Homoeopathic Green</text><text x="40" y="6530" fill="#e5e0ec">Homoeopathic Lavender</text><text x="40" y="6600" fill="#e1e0eb">Homoeopathic Lilac</text><text x="40" y="6670" fill="#e9f6e2">Homoeopathic Lime</text><text x="40" y="6740" fill="#e5ead8">Homoeopathic Mint</text><text x="40" y="6810" fill="#f2e6e1">Homoeopathic Orange</text><text x="40" y="6880" fill="#ecdbe0">Homoeopathic Red</text><text x="40" y="6950" fill="#e8dbdd">Homoeopathic Rose</text><text x="40" y="7020" fill="#ede7d7">Homoeopathic Yellow</text><text x="40" y="7090" fill="#883344">Honey Chilli</text><text x="40" y="7160" fill="#f3f0d9">Honey Yoghurt Popsicles</text><text x="40" y="7230" fill="#164576">Honourable Blue</text><text x="40" y="7300" fill="#6c6783">Hyacinth Arbour</text><text x="40" y="7370" fill="#3f586e">Inlet Harbour</text><text x="40" y="7440" fill="#bcaccd">Jacey’s Favourite</text><text x="40" y="7510" fill="#ede6d9">Jelly Yoghurt</text><text x="40" y="7580" fill="#5c5d5d">Knight’s Armour</text><text x="40" y="7650" fill="#c0c2d2">Lavender Honour</text><text x="40" y="7720" fill="#eeddff">Lavender Savour</text><text x="40" y="7790" fill="#c8c1c9">Lavender Vapour</text><text x="40" y="7860" fill="#ae98aa">Lilac Lustre</text><text x="40" y="7930" fill="#73778f">Little Theatre</text><text x="40" y="8000" fill="#dd8877">Love Sceptre</text><text x="40" y="8070" fill="#bece61">Lustre Green</text><text x="40" y="8140" fill="#f4f1ec">Lustre White</text><text x="40" y="8210" fill="#e1c6d6">Marvellous Magic</text><text x="40" y="8280" fill="#696db0">Mediaeval</text><text x="40" y="8350" fill="#2e3858">Mediaeval Blue</text><text x="40" y="8420" fill="#878573">Mediaeval Cobblestone</text><text x="40" y="8490" fill="#007e6b">Mediaeval Forest</text><text x="40" y="8560" fill="#ac7f48">Mediaeval Gold</text><text x="40" y="8630" fill="#a79f5c">Mediaeval Sulphur</text><text x="40" y="8700" fill="#8c7d88">Mediaeval Wine</text><text x="40" y="8770" fill="#9197a4">Memorise</text><text x="40" y="8840" fill="#00776f">Mermaid Harbour</text><text x="40" y="8910" fill="#8e9074">Mesmerise</text><text x="40" y="8980" fill="#faf3e6">Milk Moustache</text><text x="40" y="9050" fill="#65769a">Misty Harbour</text><text x="40" y="9120" fill="#acc0bd">Morning Parlour</text><text x="40" y="9190" fill="#d5a300">Mouldy Ochre</text><text x="40" y="9260" fill="#c54b8c">Mulberry Yoghurt</text><text x="40" y="9330" fill="#d2e4ee">Mystic Harbour</text><text x="40" y="9400" fill="#f3c1a3">Neighbourly Peach</text><text x="40" y="9470" fill="#69354f">Noble Honour</text><text x="40" y="9540" fill="#d7bea4">Nut Flavour</text><text x="40" y="9610" fill="#fd5240">Ogre Odour</text><text x="40" y="9680" fill="#feede0">Organic Fibre</text><text x="40" y="9750" fill="#baa1b2">Parlour Rose</text><text x="40" y="9820" fill="#915d88">Plum Savour</text><text x="40" y="9890" fill="#e4e8e1">Poetic Licence</text><text x="40" y="9960" fill="#ebe8e2">Porcelain Mould</text><text x="40" y="10030" fill="#fae6ca">Quiet Splendour</text><text x="40" y="10100" fill="#e30b5d">Raspberry Yoghurt</text><text x="40" y="10170" fill="#95372d">Red Chilli</text><text x="40" y="10240" fill="#693f43">Red Rumour</text><text x="40" y="10310" fill="#cc3b22">Red Sauce Parlour</text><text x="40" y="10380" fill="#dcb6b5">Rose Coloured</text><text x="40" y="10450" fill="#e5c4c0">Rose Coloured Glasses</text><text x="40" y="10520" fill="#f2dbd6">Rose Vapour</text><text x="40" y="10590" fill="#d9bcb7">Rose Yoghurt</text><text x="40" y="10660" fill="#744245">Rumours</text><text x="40" y="10730" fill="#d4b385">Sabre Tooth</text><text x="40" y="10800" fill="#e69656">Sabre-Toothed Tiger</text><text x="40" y="10870" fill="#c3c6a4">Sage Splendour</text><text x="40" y="10940" fill="#fa7f46">Sagittarius Amber Artefact</text><text x="40" y="11010" fill="#9b7448">Sahara Splendour</text><text x="40" y="11080" fill="#d19c97">Savoury Salmon</text><text x="40" y="11150" fill="#9db4aa">Sceptic</text><text x="40" y="11220" fill="#81d1da">Sea of Tranquillity</text><text x="40" y="11290" fill="#bbcc00">Serpent Sceptre</text><text x="40" y="11360" fill="#908b8e">Shining Armour</text><text x="40" y="11430" fill="#a1a9a8">Shiny Armour</text><text x="40" y="11500" fill="#dbdddb">Shiny Lustre</text><text x="40" y="11570" fill="#ff44ff">Sicilia Bougainvillaea</text><text x="40" y="11640" fill="#f2f3cd">Silky Yoghurt</text><text x="40" y="11710" fill="#b6321e">Smouldering</text><text x="40" y="11780" fill="#aa6e4b">Smouldering Copper</text><text x="40" y="11850" fill="#cbb489">Sombre</text><text x="40" y="11920" fill="#005c2b">Sombre Green</text><text x="40" y="11990" fill="#161e34">Sombre Night</text><text x="40" y="12060" fill="#af546b">Sombre Roses</text><text x="40" y="12130" fill="#e1efe2">Soothing Vapour</text><text x="40" y="12200" fill="#150f5b">Space Colonisation</text><text x="40" y="12270" fill="#f3dfcc">Splendour</text><text x="40" y="12340" fill="#5870a4">Splendour and Pride</text><text x="40" y="12410" fill="#ffb14e">Splendour Gold</text><text x="40" y="12480" fill="#cceecc">Spring Savour</text><text x="40" y="12550" fill="#767275">Steel Armour</text><text x="40" y="12620" fill="#e9b3b4">Strawberry Yoghurt</text><text x="40" y="12690" fill="#e5cc69">Sulphur Pit</text><text x="40" y="12760" fill="#eeed56">Sulphuric</text><text x="40" y="12830" fill="#1c3d44">Sunken Harbour</text><text x="40" y="12900" fill="#d9dde7">Sweet Harbour</text><text x="40" y="12970" fill="#669ccb">Tantalise</text><text x="40" y="13040" fill="#f3dcd1">Tantalising Tan</text><text x="40" y="13110" fill="#87dcce">Tantalising Teal</text><text x="40" y="13180" fill="#ce0001">Thai Chilli</text><text x="40" y="13250" fill="#7f6d37">Time Honoured</text><text x="40" y="13320" fill="#e44458">Tomato Sceptre</text><text x="40" y="13390" fill="#dd8844">Touch of Glamour</text><text x="40" y="13460" fill="#8e9b96">Tranquillity</text><text x="40" y="13530" fill="#a3bcdb">Valour</text><text x="40" y="13600" fill="#cbf4f8">Vaporised</text><text x="40" y="13670" fill="#f0ffff">Vapour</text><text x="40" y="13740" fill="#bebdbd">Vapour Blue</text><text x="40" y="13810" fill="#f5eedf">Vapour Trail</text><text x="40" y="13880" fill="#e5dae1">Violet Vapour</text><text x="40" y="13950" fill="#424443">Vulcanised</text><text x="40" y="14020" fill="#d0b55a">Warm Woollen</text><text x="40" y="14090" fill="#f1faea">White Sulphur</text><text x="40" y="14160" fill="#b59f55">Woollen Mittens</text><text x="40" y="14230" fill="#b0a582">Woollen Vest</text><text x="40" y="14300" fill="#907e63">Woolly Thyme</text><text x="40" y="14370" fill="#7c9dae">Yacht Harbour</text><text x="40" y="14440" fill="#c39143">Yellow Ochre</text><text x="40" y="14510" fill="#ffecc3">Yoghurt</text><text x="40" y="14580" fill="#8c8373">Zinc Lustre</text>
</svg>