<svg xmlns="http://www.w3.org/2000/svg" viewBox="0 0 600 4140">
  <defs>
    <style type="text/css">
      @import url('https://rsms.me/inter/inter.css');
      text {
        font-family: Inter, -apple-system, BlinkMacSystemFont, "Segoe UI", Roboto, Helvetica, Arial, sans-serif, "Apple Color Emoji", "Segoe UI Emoji", "Segoe UI Symbol";
        font-size: 40px;
        font-weight: 900;
      }
    </style>
  </defs>
  <rect fill="#212121" x="0" y="0" width="600" height="4140"/>
  <text x="40" y="90" fill="#345c61">Arctic Nights</text><text x="40" y="160" fill="#838254">Army Issue Green</text><text x="40" y="230" fill="#b7e1a1">Basil Smash</text><text x="40" y="300" fill="#ffa6c9">Bazooka Pink</text><text x="40" y="370" fill="#64242e">Blackberry Pie</text><text x="40" y="440" fill="#490206">Brandywine</text><text x="40" y="510" fill="#e69dad">Brandywine Spritz</text><text x="40" y="580" fill="#c2dde6">Breeze in June </text><text x="40" y="650" fill="#8c8475">Camo Beige</text><text x="40" y="720" fill="#646c64">Cannon Grey</text><text x="40" y="790" fill="#905d36">Carrageen Moss</text><text x="40" y="860" fill="#dd3355">Chin-Chin Cherry</text><text x="40" y="930" fill="#f8efd8">Croissant Crumbs</text><text x="40" y="1000" fill="#f4e2e1">Cute Little Pink</text><text x="40" y="1070" fill="#306030">Deep into the Wood</text><text x="40" y="1140" fill="#9b8f55">Dijonnaise</text><text x="40" y="1210" fill="#804a00">Dried Mustard</text><text x="40" y="1280" fill="#1d0200">Dwarf Fortress</text><text x="40" y="1350" fill="#af7b57">Dwarf Pony</text><text x="40" y="1420" fill="#303d3c">Edge of the Galaxy</text><text x="40" y="1490" fill="#bce6ef">First of July</text><text x="40" y="1560" fill="#df01f0">Flamingo Fury</text><text x="40" y="1630" fill="#323f75">Forbidden Blackberry</text><text x="40" y="1700" fill="#fdd5b1">Forgotten Sunset</text><text x="40" y="1770" fill="#cf524e">Ginger Flower</text><text x="40" y="1840" fill="#e9692c">Glazed Carrot</text><text x="40" y="1910" fill="#eee3de">Glossy Kiss</text><text x="40" y="1980" fill="#fff39a">Goldilocks</text><text x="40" y="2050" fill="#d2c785">Green Apple Martini</text><text x="40" y="2120" fill="#50314c">Grimace</text><text x="40" y="2190" fill="#808c8c">Gunmetal Grey</text><text x="40" y="2260" fill="#d1c2c2">Hint of Lavender</text><text x="40" y="2330" fill="#d3e2ee">Icedrop</text><text x="40" y="2400" fill="#b8860b">Letter Jacket</text><text x="40" y="2470" fill="#3c2005">Medium Roast</text><text x="40" y="2540" fill="#5c4939">Mousy Brown</text><text x="40" y="2610" fill="#448800">Mughal Green</text><text x="40" y="2680" fill="#770f05">Notes of Plum</text><text x="40" y="2750" fill="#704241">Old Coffee</text><text x="40" y="2820" fill="#ee2222">Ottoman Red</text><text x="40" y="2890" fill="#341c02">Powdered Cocoa</text><text x="40" y="2960" fill="#516678">Prairie Denim</text><text x="40" y="3030" fill="#ac9362">Pyrite Gold</text><text x="40" y="3100" fill="#4455ee">Qing Dynasty Dragon</text><text x="40" y="3170" fill="#dd2266">Qing Dynasty Fire</text><text x="40" y="3240" fill="#ffcc66">Qing Yellow</text><text x="40" y="3310" fill="#017371">Reef</text><text x="40" y="3380" fill="#d1ef9f">Reef Refractions</text><text x="40" y="3450" fill="#ee1111">Roman Empire Red</text><text x="40" y="3520" fill="#4488ee">Seljuk Blue</text><text x="40" y="3590" fill="#f4a460">Shrimp Cocktail</text><text x="40" y="3660" fill="#a0ac4f">Sour Apple</text><text x="40" y="3730" fill="#e08119">Sports Fan</text><text x="40" y="3800" fill="#ee0055">Strawberry Smash</text><text x="40" y="3870" fill="#986960">Unfired Clay</text><text x="40" y="3940" fill="#fed8b1">Venus Deathtrap</text><text x="40" y="4010" fill="#1f262a">Washed Black</text><text x="40" y="4080" fill="#00008b">Yves Klein Blue</text>
</svg>