<svg xmlns="http://www.w3.org/2000/svg" viewBox="0 0 600 4840">
  <defs>
    <style type="text/css">
      @import url('https://rsms.me/inter/inter.css');
      text {
        font-family: Inter, -apple-system, BlinkMacSystemFont, "Segoe UI", Roboto, Helvetica, Arial, sans-serif, "Apple Color Emoji", "Segoe UI Emoji", "Segoe UI Symbol";
        font-size: 40px;
        font-weight: 900;
      }
    </style>
  </defs>
  <rect fill="#212121" x="0" y="0" width="600" height="4840"/>
  <text x="40" y="90" fill="#10246a">Abyssal Depths</text><text x="40" y="160" fill="#e0dcda">Aged Cotton</text><text x="40" y="230" fill="#93a344">Arathi Highlands</text><text x="40" y="300" fill="#104071">Ashenvale Nights</text><text x="40" y="370" fill="#b13916">Azshara Vein</text><text x="40" y="440" fill="#cc81f0">Azuremyst Isle</text><text x="40" y="510" fill="#ff6316">Badlands Orange</text><text x="40" y="580" fill="#f6f5d7">Banana Sparkes</text><text x="40" y="650" fill="#0f0d0d">Black Sheep</text><text x="40" y="720" fill="#6c3550">Blasted Lands Rocks</text><text x="40" y="790" fill="#f02723">Bloodmyst Isle</text><text x="40" y="860" fill="#7fc6be">Booty Bay</text><text x="40" y="930" fill="#742100">Burning Steppes</text><text x="40" y="1000" fill="#464964">Darkshore</text><text x="40" y="1070" fill="#111144">Deadly Depths</text><text x="40" y="1140" fill="#596d7f">Deadwind Pass</text><text x="40" y="1210" fill="#b5c1a9">Desolace Dew</text><text x="40" y="1280" fill="#80b4dc">Dun Morogh Blue</text><text x="40" y="1350" fill="#f06126">Durotar Fire</text><text x="40" y="1420" fill="#123d55">Duskwood </text><text x="40" y="1490" fill="#685243">Dustwallow Marsh</text><text x="40" y="1560" fill="#95b5db">Echo Isles Water</text><text x="40" y="1630" fill="#7a8716">Elwynn Forest Olive</text><text x="40" y="1700" fill="#ffa62d">Eversong Orange</text><text x="40" y="1770" fill="#2bc51b">Felwood Leaves </text><text x="40" y="1840" fill="#8de07c">Feralas Lime</text><text x="40" y="1910" fill="#113c42">Ghostlands Coal</text><text x="40" y="1980" fill="#6c8396">Gilneas Grey</text><text x="40" y="2050" fill="#484a80">Highlands Twilight</text><text x="40" y="2120" fill="#7fa91f">Hillsbrad Grass</text><text x="40" y="2190" fill="#304112">Hinterlands Green</text><text x="40" y="2260" fill="#0092ae">Kelp'thar Forest Blue</text><text x="40" y="2330" fill="#dfe5bf">Loch Modan Moss</text><text x="40" y="2400" fill="#54a64d">Lush Un'goro Crater</text><text x="40" y="2470" fill="#65ffff">Moonglade Water</text><text x="40" y="2540" fill="#3d703e">Mount Hyjal </text><text x="40" y="2610" fill="#c2b332">Mulgore Mustard</text><text x="40" y="2680" fill="#f0e1df">New Youth</text><text x="40" y="2750" fill="#de743c">Northern Barrens Dust</text><text x="40" y="2820" fill="#cdc4ba">Old Eggshell</text><text x="40" y="2890" fill="#faedd5">Pastry Dough</text><text x="40" y="2960" fill="#90cbaa">Peppermint Spray</text><text x="40" y="3030" fill="#ab8d44">Plaguelands Beige</text><text x="40" y="3100" fill="#ad5f28">Plaguelands Hazel</text><text x="40" y="3170" fill="#f32507">Rage of Quel'Danas</text><text x="40" y="3240" fill="#9d4e34">Redridge Brown</text><text x="40" y="3310" fill="#6b3b23">Searing Gorge Brown</text><text x="40" y="3380" fill="#45e9fd">Shimmering Expanse Cyan</text><text x="40" y="3450" fill="#d57b65">Silithus Brown</text><text x="40" y="3520" fill="#8ae8ff">Silverpine Cyan</text><text x="40" y="3590" fill="#dce4dd">Slightly Zen</text><text x="40" y="3660" fill="#b98258">Southern Barrens Mud</text><text x="40" y="3730" fill="#8d7a4d">Stonetalon Mountains</text><text x="40" y="3800" fill="#dbb060">Stranglethorn Ochre</text><text x="40" y="3870" fill="#36310d">Swamp of Sorrows</text><text x="40" y="3940" fill="#e9b581">Tanaris Beige</text><text x="40" y="4010" fill="#ad66d2">Teldrassil Purple</text><text x="40" y="4080" fill="#cae0df">Thin Heights</text><text x="40" y="4150" fill="#ffd9bb">Thousand Needles Sand</text><text x="40" y="4220" fill="#75de2f">Tirisfal Lime</text><text x="40" y="4290" fill="#6c5846">Tol Barad Green</text><text x="40" y="4360" fill="#4e4851">Tol Barad Grey</text><text x="40" y="4430" fill="#fcc680">Uldum Beige</text><text x="40" y="4500" fill="#faf3dd">Vanilla Powder</text><text x="40" y="4570" fill="#cbe4e7">Wave Splash</text><text x="40" y="4640" fill="#fcd450">Westfall Yellow</text><text x="40" y="4710" fill="#372418">Wetlands Swamp</text><text x="40" y="4780" fill="#b5afff">Winterspring Lilac</text>
</svg>