<svg xmlns="http://www.w3.org/2000/svg" viewBox="0 0 600 2250">
  <defs>
    <style type="text/css">
      @import url('https://rsms.me/inter/inter.css');
      text {
        font-family: Inter, -apple-system, BlinkMacSystemFont, "Segoe UI", Roboto, Helvetica, Arial, sans-serif, "Apple Color Emoji", "Segoe UI Emoji", "Segoe UI Symbol";
        font-size: 40px;
        font-weight: 900;
      }
    </style>
  </defs>
  <rect fill="#212121" x="0" y="0" width="600" height="2250"/>
  <text x="40" y="90" fill="#e3ebea">Artemisia</text><text x="40" y="160" fill="#2d96ce">Astrolabe Reef</text><text x="40" y="230" fill="#b8b7a3">Canadian Voodoo Grey</text><text x="40" y="300" fill="#8e9849">Chrysolite</text><text x="40" y="370" fill="#adba98">Chrysoprase</text><text x="40" y="440" fill="#c8cec3">Cipollino</text><text x="40" y="510" fill="#cfe1ef">Cold Turbulence</text><text x="40" y="580" fill="#ee7766">Colorado Bronze</text><text x="40" y="650" fill="#c8ad7f">Common Chalcedony</text><text x="40" y="720" fill="#e9adca">Coral Corn Snake</text><text x="40" y="790" fill="#ffa756">Echinoida Thorns</text><text x="40" y="860" fill="#bb2299">Fuchsia Flourish</text><text x="40" y="930" fill="#d3e2ee">Ice Drop</text><text x="40" y="1000" fill="#cdeced">Journey to the Sky</text><text x="40" y="1070" fill="#d5b60a">Lionhead</text><text x="40" y="1140" fill="#e0fefe">Matterhorn Snow</text><text x="40" y="1210" fill="#dedce2">Mechagodzilla</text><text x="40" y="1280" fill="#614251">Miranda's Spike</text><text x="40" y="1350" fill="#f0cfa0">Peachy Skin</text><text x="40" y="1420" fill="#eede73">Pikachu Chu</text><text x="40" y="1490" fill="#e1dad9">Porcelain Goldfish</text><text x="40" y="1560" fill="#dbe7e1">Porcelain Mint</text><text x="40" y="1630" fill="#4444ff">Pretentious Peacock</text><text x="40" y="1700" fill="#eeffcc">Snowdrop</text><text x="40" y="1770" fill="#e5e1dd">Storksbill</text><text x="40" y="1840" fill="#307d67">Trans Tasman</text><text x="40" y="1910" fill="#3f3033">Venous Blood Red</text><text x="40" y="1980" fill="#55aabb">Verditer Blue</text><text x="40" y="2050" fill="#f3f5dc">Warm Turbulence</text><text x="40" y="2120" fill="#f4f2f4">White Convolvulus</text><text x="40" y="2190" fill="#e2e6d7">White Hamburg Grapes</text>
</svg>