<svg xmlns="http://www.w3.org/2000/svg" viewBox="0 0 600 12610">
  <defs>
    <style type="text/css">
      @import url('https://rsms.me/inter/inter.css');
      text {
        font-family: Inter, -apple-system, BlinkMacSystemFont, "Segoe UI", Roboto, Helvetica, Arial, sans-serif, "Apple Color Emoji", "Segoe UI Emoji", "Segoe UI Symbol";
        font-size: 40px;
        font-weight: 900;
      }
    </style>
  </defs>
  <rect fill="#212121" x="0" y="0" width="600" height="12610"/>
  <text x="40" y="90" fill="#beb0c2">Almost Plum</text><text x="40" y="160" fill="#cdc7d5">Amethyst Tint</text><text x="40" y="230" fill="#b7c9b5">Aqua Dream</text><text x="40" y="300" fill="#36574e">Balsam Branch</text><text x="40" y="370" fill="#8d793e">Banyan Tree</text><text x="40" y="440" fill="#d0d2e3">Bashful Lilac</text><text x="40" y="510" fill="#c0c6bc">Billowy</text><text x="40" y="580" fill="#494e52">Blackwood</text><text x="40" y="650" fill="#c0c1b9">Blithe Mood</text><text x="40" y="720" fill="#b9cacc">Blue Shale</text><text x="40" y="790" fill="#cbccdf">Blueberry Mist</text><text x="40" y="860" fill="#238e50">Bottle Glass</text><text x="40" y="930" fill="#cecedf">Breezy Violet</text><text x="40" y="1000" fill="#94975d">Broad Bean</text><text x="40" y="1070" fill="#1b6634">Bucolic</text><text x="40" y="1140" fill="#cacfd3">Callisto</text><text x="40" y="1210" fill="#d8cace">Captivating</text><text x="40" y="1280" fill="#b7bcad">Cedar Mill</text><text x="40" y="1350" fill="#d4e4ba">Celery Root</text><text x="40" y="1420" fill="#a1a1a0">Charmed Chalice</text><text x="40" y="1490" fill="#a1a29c">Charon</text><text x="40" y="1560" fill="#b2cce1">Charted</text><text x="40" y="1630" fill="#d6c2d2">Chinaberry Bloom</text><text x="40" y="1700" fill="#e7eddd">Chrome Green</text><text x="40" y="1770" fill="#ede0ae">Citrus Rind</text><text x="40" y="1840" fill="#a39d93">Classic Grey</text><text x="40" y="1910" fill="#adb5bc">Cloud Cover</text><text x="40" y="1980" fill="#d4b4d5">Confectionary</text><text x="40" y="2050" fill="#70766a">Contemplative</text><text x="40" y="2120" fill="#c5cc9f">Dappled Daydream</text><text x="40" y="2190" fill="#3d4c46">Deep Mooring</text><text x="40" y="2260" fill="#557138">Deep Pine</text><text x="40" y="2330" fill="#b6aed6">Delicate Lilac</text><text x="40" y="2400" fill="#d0cad7">Diaphanous</text><text x="40" y="2470" fill="#d7d9d5">Dove Wing</text><text x="40" y="2540" fill="#b6bf7f">Dried Caspia</text><text x="40" y="2610" fill="#8c8b76">Dry Sage</text><text x="40" y="2680" fill="#878b46">East Aurora</text><text x="40" y="2750" fill="#019157">Emerald Isle</text><text x="40" y="2820" fill="#c3c1d2">Estate Violet</text><text x="40" y="2890" fill="#d2cec4">Exhale</text><text x="40" y="2960" fill="#aed3c7">Feeling Lucky</text><text x="40" y="3030" fill="#8fce9b">Fennel</text><text x="40" y="3100" fill="#536943">Fern Grotto</text><text x="40" y="3170" fill="#a1cda6">Fescue</text><text x="40" y="3240" fill="#d1c9be">Fisherman Knit</text><text x="40" y="3310" fill="#cdcfdb">Floral Note</text><text x="40" y="3380" fill="#dce2be">Foamy Lime</text><text x="40" y="3450" fill="#4e5b52">Forrester</text><text x="40" y="3520" fill="#c0c6d2">French Silk</text><text x="40" y="3590" fill="#8bbbdb">Frozen Whisper</text><text x="40" y="3660" fill="#a4be8d">Gaia Stone</text><text x="40" y="3730" fill="#8a8342">Galia Melon</text><text x="40" y="3800" fill="#60784f">Garden Club</text><text x="40" y="3870" fill="#d7deac">Garden Leek</text><text x="40" y="3940" fill="#aac69a">Geddy Green</text><text x="40" y="4010" fill="#c3cc6e">Gentle Dill</text><text x="40" y="4080" fill="#d1dad7">Glacial</text><text x="40" y="4150" fill="#d1d9da">Glassware</text><text x="40" y="4220" fill="#c5c4c1">Granitine</text><text x="40" y="4290" fill="#c4c5ba">Gray Ashlar</text><text x="40" y="4360" fill="#b0bab5">Gray Tweed</text><text x="40" y="4430" fill="#838583">Greasy Grey</text><text x="40" y="4500" fill="#afc1a3">Green Andara</text><text x="40" y="4570" fill="#605e4f">Green Fatigue</text><text x="40" y="4640" fill="#8dbc8a">Green Masquerade</text><text x="40" y="4710" fill="#a7c668">Green Peridot</text><text x="40" y="4780" fill="#245d3f">Greenbriar</text><text x="40" y="4850" fill="#475b49">Greenwich</text><text x="40" y="4920" fill="#81807d">Grey Tote</text><text x="40" y="4990" fill="#329643">Gulfweed</text><text x="40" y="5060" fill="#abaea9">Gull Wing</text><text x="40" y="5130" fill="#bccf8f">Haricot</text><text x="40" y="5200" fill="#929e9d">Hatteras Grey</text><text x="40" y="5270" fill="#d2cfa6">Heart of Palm</text><text x="40" y="5340" fill="#689938">Hidden Valley</text><text x="40" y="5410" fill="#8dc248">Hill Lands</text><text x="40" y="5480" fill="#c8c8d2">Hyacinth Ice</text><text x="40" y="5550" fill="#b7c2cc">Icebreaker</text><text x="40" y="5620" fill="#d4eae1">Icy Glacier</text><text x="40" y="5690" fill="#e6f2e9">Icy Pistachio</text><text x="40" y="5760" fill="#408750">Imperial Green</text><text x="40" y="5830" fill="#65644a">Incense Cedar</text><text x="40" y="5900" fill="#7e8082">Ironside</text><text x="40" y="5970" fill="#01a6a0">Jadestone</text><text x="40" y="6040" fill="#019a74">Jardinière</text><text x="40" y="6110" fill="#cfeee1">Jewel White</text><text x="40" y="6180" fill="#938326">Jungle Palm</text><text x="40" y="6250" fill="#64cdbe">Kinetic Teal</text><text x="40" y="6320" fill="#c0b76c">Kohlrabi</text><text x="40" y="6390" fill="#97ddd4">Land Ahoy!</text><text x="40" y="6460" fill="#6f9843">Lattice Green</text><text x="40" y="6530" fill="#e4cf86">Lemon Thyme</text><text x="40" y="6600" fill="#dde7ae">Lichen Gold</text><text x="40" y="6670" fill="#697056">Lichen Moss</text><text x="40" y="6740" fill="#ecead1">Light Chervil</text><text x="40" y="6810" fill="#f0eda8">Lightly Lime</text><text x="40" y="6880" fill="#c2abc4">Linnea Blossom</text><text x="40" y="6950" fill="#dae9d6">Little Sprout</text><text x="40" y="7020" fill="#beb334">Lively Lime</text><text x="40" y="7090" fill="#99d1a4">Low Tide</text><text x="40" y="7160" fill="#808337">Majorca Green</text><text x="40" y="7230" fill="#e8e1a1">Marsh Mist</text><text x="40" y="7300" fill="#a8acd0">Melody Purple</text><text x="40" y="7370" fill="#7f976c">Mesa Verde</text><text x="40" y="7440" fill="#a7a62d">Mikado Green</text><text x="40" y="7510" fill="#cde7db">Misty Glen</text><text x="40" y="7580" fill="#deecda">Misty Mint</text><text x="40" y="7650" fill="#92dbc4">Monet Vert</text><text x="40" y="7720" fill="#605b57">Mountain Quail</text><text x="40" y="7790" fill="#91aa90">Natural Harmony</text><text x="40" y="7860" fill="#767d86">Nocturnal</text><text x="40" y="7930" fill="#666d68">On the Moor</text><text x="40" y="8000" fill="#e4dde7">Pale Muse</text><text x="40" y="8070" fill="#b1b1b1">Palladium</text><text x="40" y="8140" fill="#9d892e">Parsnip Root</text><text x="40" y="8210" fill="#a9c9af">Pastel Meadow</text><text x="40" y="8280" fill="#e3de92">Pear Tint</text><text x="40" y="8350" fill="#757b7d">Philosophical</text><text x="40" y="8420" fill="#c5b5c3">Pink Bravado</text><text x="40" y="8490" fill="#e1d6d8">Pink Organdy</text><text x="40" y="8560" fill="#8f8373">Plover Grey</text><text x="40" y="8630" fill="#ddc1d7">Plum Taffy</text><text x="40" y="8700" fill="#c3b5d4">Plumeria</text><text x="40" y="8770" fill="#137953">Poplar Forest</text><text x="40" y="8840" fill="#c4bbd6">Pretty Purple</text><text x="40" y="8910" fill="#a89942">Prickly Pear</text><text x="40" y="8980" fill="#588a79">Privet Hedge</text><text x="40" y="9050" fill="#a8aca2">Provincial</text><text x="40" y="9120" fill="#3f585f">Prussian</text><text x="40" y="9190" fill="#b6c4dd">Purpletini</text><text x="40" y="9260" fill="#464543">Ravenwood</text><text x="40" y="9330" fill="#8f968b">Renegade</text><text x="40" y="9400" fill="#757878">Riverstone</text><text x="40" y="9470" fill="#47533f">Savannah Moss</text><text x="40" y="9540" fill="#dac43c">Seed Pod</text><text x="40" y="9610" fill="#8ab18a">Shaded Willow</text><text x="40" y="9680" fill="#c0ad28">Sharp Lime</text><text x="40" y="9750" fill="#6bccc1">Skylar</text><text x="40" y="9820" fill="#e1efe2">Soothing Vapor</text><text x="40" y="9890" fill="#cbece6">Spearmint Leaf</text><text x="40" y="9960" fill="#dfdcd8">Spectral</text><text x="40" y="10030" fill="#83825b">Spinach Souffle</text><text x="40" y="10100" fill="#d4e8d8">Splashdown</text><text x="40" y="10170" fill="#4a7368">Spring Field</text><text x="40" y="10240" fill="#d8dce6">Star Jasmine</text><text x="40" y="10310" fill="#9ea4a5">Statuary</text><text x="40" y="10380" fill="#929894">Steel Toe</text><text x="40" y="10450" fill="#888c90">Stone Cairn</text><text x="40" y="10520" fill="#acb8b2">Stratton Blue</text><text x="40" y="10590" fill="#c9d0b8">Sweet Surrender</text><text x="40" y="10660" fill="#709572">Tabbouleh</text><text x="40" y="10730" fill="#c5a5c7">Tea Towel</text><text x="40" y="10800" fill="#c8ede2">Teal Melody</text><text x="40" y="10870" fill="#c1b65f">Tegreen</text><text x="40" y="10940" fill="#d4c3da">Tender Violet</text><text x="40" y="11010" fill="#276757">Terrestrial</text><text x="40" y="11080" fill="#93840f">Thicket Green</text><text x="40" y="11150" fill="#7f6d37">Time Honored</text><text x="40" y="11220" fill="#adb274">Timothy Grass</text><text x="40" y="11290" fill="#8a8d69">Tiny Seedling</text><text x="40" y="11360" fill="#609f6e">Treelet</text><text x="40" y="11430" fill="#50a074">Tropical Tone</text><text x="40" y="11500" fill="#74a69b">Twining Vine</text><text x="40" y="11570" fill="#848d85">Valley Floor</text><text x="40" y="11640" fill="#b0c376">Valley View</text><text x="40" y="11710" fill="#45584c">Vinca &amp; Vine</text><text x="40" y="11780" fill="#cbd8b9">Vintage Glass</text><text x="40" y="11850" fill="#72491e">Vintage Wood</text><text x="40" y="11920" fill="#dcdce5">Violet Breeze</text><text x="40" y="11990" fill="#cbacab">Vista</text><text x="40" y="12060" fill="#dedfcc">Washed Sage</text><text x="40" y="12130" fill="#c0c2c0">Waxwing</text><text x="40" y="12200" fill="#c6ceda">White Grape</text><text x="40" y="12270" fill="#bcaf9e">Winter Feather</text><text x="40" y="12340" fill="#c2dcb4">Wisp Green</text><text x="40" y="12410" fill="#718a70">Wonderland</text><text x="40" y="12480" fill="#c8c48f">Yerba Mate</text><text x="40" y="12550" fill="#8b9196">Zodiac</text>
</svg>