<svg xmlns="http://www.w3.org/2000/svg" viewBox="0 0 600 4910">
  <defs>
    <style type="text/css">
      @import url('https://rsms.me/inter/inter.css');
      text {
        font-family: Inter, -apple-system, BlinkMacSystemFont, "Segoe UI", Roboto, Helvetica, Arial, sans-serif, "Apple Color Emoji", "Segoe UI Emoji", "Segoe UI Symbol";
        font-size: 40px;
        font-weight: 900;
      }
    </style>
  </defs>
  <rect fill="#212121" x="0" y="0" width="600" height="4910"/>
  <text x="40" y="90" fill="#d3dde4">A Dime a Dozen</text><text x="40" y="160" fill="#d9e5e4">Airflow</text><text x="40" y="230" fill="#5383c3">Astro Nautico</text><text x="40" y="300" fill="#cbe1ee">Atlantic Breeze</text><text x="40" y="370" fill="#a7d8e4">Atlantic Ocean</text><text x="40" y="440" fill="#dcd5d2">Atlantic Sand</text><text x="40" y="510" fill="#6e6a44">Beat Around the Bush</text><text x="40" y="580" fill="#dadbe1">Big Fish to Fry</text><text x="40" y="650" fill="#ffbb11">Bitcoin</text><text x="40" y="720" fill="#ecebce">Bite the Bullet</text><text x="40" y="790" fill="#d7e9e8">Boiling Point</text><text x="40" y="860" fill="#ebe3de">Bookworm</text><text x="40" y="930" fill="#b2e1ee">Break the Ice</text><text x="40" y="1000" fill="#d3e3e5">Bubbles in the Air</text><text x="40" y="1070" fill="#faf1c8">Bullet Hell</text><text x="40" y="1140" fill="#cadfec">CO₂</text><text x="40" y="1210" fill="#d4e0ef">Cold Shoulder</text><text x="40" y="1280" fill="#cfe1ef">Cold Turbulance</text><text x="40" y="1350" fill="#bc914d">Cut of Mustard</text><text x="40" y="1420" fill="#ff3355">Detailed Devil</text><text x="40" y="1490" fill="#ff3344">Devil's Advocate</text><text x="40" y="1560" fill="#a8a9a8">Elephant in the Room</text><text x="40" y="1630" fill="#d2e2ef">Escape from Columbia</text><text x="40" y="1700" fill="#e5e3ef">Farsighted</text><text x="40" y="1770" fill="#d8dbe1">Grain of Salt</text><text x="40" y="1840" fill="#bfe1e6">H₂O</text><text x="40" y="1910" fill="#705446">Hold Your Horses</text><text x="40" y="1980" fill="#d4e7e7">Ice Breaker</text><text x="40" y="2050" fill="#d3f1ee">Icy Wind</text><text x="40" y="2120" fill="#e3dbcd">Last Straw</text><text x="40" y="2190" fill="#cce7e8">Light Air</text><text x="40" y="2260" fill="#d8eee7">Light Spirited</text><text x="40" y="2330" fill="#003686">Magnus Blue</text><text x="40" y="2400" fill="#f08080">Meat</text><text x="40" y="2470" fill="#cbe1e4">Melting Point</text><text x="40" y="2540" fill="#273c5a">Nautilus</text><text x="40" y="2610" fill="#c8d5dd">Nearsighted</text><text x="40" y="2680" fill="#d3dde7">Nordic Breeze</text><text x="40" y="2750" fill="#e3e1ed">Opus Magnum</text><text x="40" y="2820" fill="#c1dbe7">Pacific Breeze</text><text x="40" y="2890" fill="#92cbf1">Pacific Ocean</text><text x="40" y="2960" fill="#f1ebcd">Pacific Sand</text><text x="40" y="3030" fill="#9598a1">Perfect Storm</text><text x="40" y="3100" fill="#e2d9dd">Philanthropist Pink</text><text x="40" y="3170" fill="#ede7c8">Piece of Cake</text><text x="40" y="3240" fill="#8800ff">Purple Climax</text><text x="40" y="3310" fill="#c8ddea">Put on Ice</text><text x="40" y="3380" fill="#b6d5de">Rain Check</text><text x="40" y="3450" fill="#b5dcea">rain or shine</text><text x="40" y="3520" fill="#d3dae1">Rain or Shine</text><text x="40" y="3590" fill="#c0e1e4">Right as Rain</text><text x="40" y="3660" fill="#ff3311">Rocket Science</text><text x="40" y="3730" fill="#e7e0ee">Romantic Cruise</text><text x="40" y="3800" fill="#ff9999">Rubber Radish</text><text x="40" y="3870" fill="#ffc5cb">Rubber Rose</text><text x="40" y="3940" fill="#e3e4d9">Sand Grain</text><text x="40" y="4010" fill="#da3287">Sensual Climax</text><text x="40" y="4080" fill="#ebe0ca">Silicone Seduction</text><text x="40" y="4150" fill="#dcdccf">Silicone Serena</text><text x="40" y="4220" fill="#d3dbe2">Skyscraper</text><text x="40" y="4290" fill="#d9e9e5">Snowball Effect</text><text x="40" y="4360" fill="#a8415b">Speaking of the Devil</text><text x="40" y="4430" fill="#9b351b">Spill the Beans</text><text x="40" y="4500" fill="#f4f4d1">Spilt Milk</text><text x="40" y="4570" fill="#c8dae3">Sweet Breeze</text><text x="40" y="4640" fill="#03c03c">Whole Nine Yards</text><text x="40" y="4710" fill="#d5e2ee">Wind Force</text><text x="40" y="4780" fill="#c8deea">Wind of Change</text><text x="40" y="4850" fill="#c7dfe6">Wind Tunnel</text>
</svg>