<svg xmlns="http://www.w3.org/2000/svg" viewBox="0 0 600 3720">
  <defs>
    <style type="text/css">
      @import url('https://rsms.me/inter/inter.css');
      text {
        font-family: Inter, -apple-system, BlinkMacSystemFont, "Segoe UI", Roboto, Helvetica, Arial, sans-serif, "Apple Color Emoji", "Segoe UI Emoji", "Segoe UI Symbol";
        font-size: 40px;
        font-weight: 900;
      }
    </style>
  </defs>
  <rect fill="#212121" x="0" y="0" width="600" height="3720"/>
  <text x="40" y="90" fill="#ab9078">Bakery Brown</text><text x="40" y="160" fill="#686d70">Beautiful Darkness</text><text x="40" y="230" fill="#d6dad6">Beautiful Mint</text><text x="40" y="300" fill="#c3b3b9">Blossom Powder</text><text x="40" y="370" fill="#bce6e8">Blue Karma</text><text x="40" y="440" fill="#586e84">Blueberry Dream</text><text x="40" y="510" fill="#5c3944">Bordeaux Leaf</text><text x="40" y="580" fill="#deac6e">Brown Bag</text><text x="40" y="650" fill="#a32e39">Cherry Kiss</text><text x="40" y="720" fill="#8e5637">Chestnut Chest</text><text x="40" y="790" fill="#c2d1e2">Delicate Ballet Blue</text><text x="40" y="860" fill="#bed7f0">Delicate Blue Mist</text><text x="40" y="930" fill="#b7d2e3">Delicate Ice</text><text x="40" y="1000" fill="#d7d2e2">Delicate Lilac Crystal</text><text x="40" y="1070" fill="#d1e2d8">Delicate Snow Goose</text><text x="40" y="1140" fill="#7c8d96">Denim Drift</text><text x="40" y="1210" fill="#dbe0e1">Drifting Cloud</text><text x="40" y="1280" fill="#44aa00">Early Dew</text><text x="40" y="1350" fill="#442266">Fading Horizon</text><text x="40" y="1420" fill="#cdd2de">Gentle Blue</text><text x="40" y="1490" fill="#c3ece9">Gentle Cold</text><text x="40" y="1560" fill="#dce0cd">Gentle Frost</text><text x="40" y="1630" fill="#88aa77">Green Field</text><text x="40" y="1700" fill="#441188">Grim Purple</text><text x="40" y="1770" fill="#0f1039">Grim Reaper</text><text x="40" y="1840" fill="#e3cdc2">Humble Blush</text><text x="40" y="1910" fill="#114400">Industrial Green</text><text x="40" y="1980" fill="#5b5a57">Industrial Grey</text><text x="40" y="2050" fill="#503136">Joyful Ruby</text><text x="40" y="2120" fill="#afbb33">Lush Bamboo</text><text x="40" y="2190" fill="#553333">Mid Century</text><text x="40" y="2260" fill="#e7e6de">Morning Bread</text><text x="40" y="2330" fill="#020308">Ninja</text><text x="40" y="2400" fill="#aba77c">Olive Tree</text><text x="40" y="2470" fill="#bdf6fe">Pale Sky</text><text x="40" y="2540" fill="#006663">Peacock Pride</text><text x="40" y="2610" fill="#d6c3b7">Pink Nudity</text><text x="40" y="2680" fill="#ebe8e2">Porcelain Mold</text><text x="40" y="2750" fill="#85464b">Red Elegance</text><text x="40" y="2820" fill="#cb9711">Retro Vibe</text><text x="40" y="2890" fill="#ff88cc">Shimmering Love</text><text x="40" y="2960" fill="#d8dad8">Silver Shadow</text><text x="40" y="3030" fill="#efe7db">Soft Pearl</text><text x="40" y="3100" fill="#877d75">Spacious Gray</text><text x="40" y="3170" fill="#c3c3c7">Sparkling Metal</text><text x="40" y="3240" fill="#44ddff">Splashing Wave</text><text x="40" y="3310" fill="#229966">Starship Trooper</text><text x="40" y="3380" fill="#7ad7ad">Tadorna Teal</text><text x="40" y="3450" fill="#b8d3e4">Tiny Mr Frosty</text><text x="40" y="3520" fill="#8899aa">Urban Vibes</text><text x="40" y="3590" fill="#bb1155">Velvet Magic</text><text x="40" y="3660" fill="#523544">Velvet Touch</text>
</svg>