<svg xmlns="http://www.w3.org/2000/svg" viewBox="0 0 600 2250">
  <defs>
    <style type="text/css">
      @import url('https://rsms.me/inter/inter.css');
      text {
        font-family: Inter, -apple-system, BlinkMacSystemFont, "Segoe UI", Roboto, Helvetica, Arial, sans-serif, "Apple Color Emoji", "Segoe UI Emoji", "Segoe UI Symbol";
        font-size: 40px;
        font-weight: 900;
      }
    </style>
  </defs>
  <rect fill="#212121" x="0" y="0" width="600" height="2250"/>
  <text x="40" y="90" fill="#b4da55">Badass Grass</text><text x="40" y="160" fill="#020f03">Blackn't</text><text x="40" y="230" fill="#ff0054">Blazing Dragonfruit</text><text x="40" y="300" fill="#bb5544">Chocolate Oatmeal Cookie</text><text x="40" y="370" fill="#cfc9df">Dust of the Moon</text><text x="40" y="440" fill="#cc11bb">Explosive Purple</text><text x="40" y="510" fill="#330077">Galactic Federation</text><text x="40" y="580" fill="#404404">Green not Found</text><text x="40" y="650" fill="#deadaf">Grim Pink</text><text x="40" y="720" fill="#fef4dd">Iced Almond</text><text x="40" y="790" fill="#00dead">Lifeless Green</text><text x="40" y="860" fill="#d92fb4">Loudicious Pink</text><text x="40" y="930" fill="#bb6688">Malevolent Mauve</text><text x="40" y="1000" fill="#f1d96e">Mocha Dandelion</text><text x="40" y="1070" fill="#de55a9">Orion</text><text x="40" y="1140" fill="#0a0555">Ravenclaw</text><text x="40" y="1210" fill="#badbed">Sleepless Blue</text><text x="40" y="1280" fill="#ffd900">Soviet Gold</text><text x="40" y="1350" fill="#22eeff">Sparky Blue</text><text x="40" y="1420" fill="#fa8383">Strawberry Field</text><text x="40" y="1490" fill="#d47186">Strawberry Milkshake</text><text x="40" y="1560" fill="#c00c20">Tedious Red</text><text x="40" y="1630" fill="#eb3318">Thermic Orange</text><text x="40" y="1700" fill="#33ff22">Tropical Elements</text><text x="40" y="1770" fill="#22ddff">Vaporwave Blue</text><text x="40" y="1840" fill="#b13aad">Vivid Fuchsia</text><text x="40" y="1910" fill="#e42b73">Watermelon Sugar</text><text x="40" y="1980" fill="#00ebff">Whimsical Blue</text><text x="40" y="2050" fill="#fefefe">White as Heaven</text><text x="40" y="2120" fill="#fbfbfb">Whiteout</text><text x="40" y="2190" fill="#f5f1ea">Winter Doldrums</text>
</svg>