<svg xmlns="http://www.w3.org/2000/svg" viewBox="0 0 600 27310">
  <defs>
    <style type="text/css">
      @import url('https://rsms.me/inter/inter.css');
      text {
        font-family: Inter, -apple-system, BlinkMacSystemFont, "Segoe UI", Roboto, Helvetica, Arial, sans-serif, "Apple Color Emoji", "Segoe UI Emoji", "Segoe UI Symbol";
        font-size: 40px;
        font-weight: 900;
      }
    </style>
  </defs>
  <rect fill="#212121" x="0" y="0" width="600" height="27310"/>
  <text x="40" y="90" fill="#cd716b">Abbey Pink</text><text x="40" y="160" fill="#404c57">Abyssal</text><text x="40" y="230" fill="#7cac88">Adventurine</text><text x="40" y="300" fill="#4d7eaa">Aleutian Isle</text><text x="40" y="370" fill="#8e443d">Allspice Berry</text><text x="40" y="440" fill="#e8dec9">Almanac</text><text x="40" y="510" fill="#a58d6d">Ammonite Fossil</text><text x="40" y="580" fill="#f4dfa7">Angelic Yellow</text><text x="40" y="650" fill="#cda741">Aniseed</text><text x="40" y="720" fill="#8c5341">Annatto</text><text x="40" y="790" fill="#016884">Ansel</text><text x="40" y="860" fill="#cbd8e5">Arctic Air</text><text x="40" y="930" fill="#354655">Aristocratic Blue</text><text x="40" y="1000" fill="#b30103">Artful Red</text><text x="40" y="1070" fill="#e6e2d3">Artifice</text><text x="40" y="1140" fill="#ac5b50">Artisan Red</text><text x="40" y="1210" fill="#a08a80">Aspiration</text><text x="40" y="1280" fill="#7d6049">Aviator</text><text x="40" y="1350" fill="#d0b393">Baker’s Bread</text><text x="40" y="1420" fill="#5c6f64">Balmy Palm Tree</text><text x="40" y="1490" fill="#9a7550">Balsa Wood</text><text x="40" y="1560" fill="#af6c5d">Bantam Egg</text><text x="40" y="1630" fill="#4d332a">Barn Swallow</text><text x="40" y="1700" fill="#8b6945">Barrel Aged</text><text x="40" y="1770" fill="#8ea6ba">Bayshore Blue</text><text x="40" y="1840" fill="#c9d8e4">Baywater Blue</text><text x="40" y="1910" fill="#7db39e">Beau Monde</text><text x="40" y="1980" fill="#987a5b">Beige Intuition</text><text x="40" y="2050" fill="#d4ba9d">Bespoke</text><text x="40" y="2120" fill="#ab823d">Birdseye</text><text x="40" y="2190" fill="#017cb8">Blue Bazaar</text><text x="40" y="2260" fill="#668db7">Blue Dazzle</text><text x="40" y="2330" fill="#0d6376">Blue Enchantment</text><text x="40" y="2400" fill="#ddebed">Blue Flax</text><text x="40" y="2470" fill="#2a6f73">Blue Hosta</text><text x="40" y="2540" fill="#015193">Blue Olympus</text><text x="40" y="2610" fill="#01546d">Blue Palisade</text><text x="40" y="2680" fill="#5095c3">Blue Paradise</text><text x="40" y="2750" fill="#5b92ac">Blue Persia</text><text x="40" y="2820" fill="#546e77">Blue Sentinel</text><text x="40" y="2890" fill="#6b8c93">Blue Shoal</text><text x="40" y="2960" fill="#6abcda">Bluebrite</text><text x="40" y="3030" fill="#ede7d5">Board &amp; Batten</text><text x="40" y="3100" fill="#c69b58">Borderline</text><text x="40" y="3170" fill="#e9b578">Braided Mat</text><text x="40" y="3240" fill="#d8ab39">Brassy Tint</text><text x="40" y="3310" fill="#c1d9e9">Breezy Touch</text><text x="40" y="3380" fill="#fede8f">Brite Gold</text><text x="40" y="3450" fill="#aa8031">Bronze Leaf</text><text x="40" y="3520" fill="#d3b793">Brown Hare</text><text x="40" y="3590" fill="#efaf42">Butter Cream</text><text x="40" y="3660" fill="#e2af60">Cameleer</text><text x="40" y="3730" fill="#a14935">Canyon Wall</text><text x="40" y="3800" fill="#3c4754">Cape Storm</text><text x="40" y="3870" fill="#d58a37">Caramelize</text><text x="40" y="3940" fill="#316382">Carbide</text><text x="40" y="4010" fill="#373c4f">Carbon Blue</text><text x="40" y="4080" fill="#e4ddce">Carded Wool</text><text x="40" y="4150" fill="#d01722">Cartoon Violence</text><text x="40" y="4220" fill="#6f788f">Causeway</text><text x="40" y="4290" fill="#acbfcd">Cerulean Tint</text><text x="40" y="4360" fill="#b0d2e7">Chapel Blue</text><text x="40" y="4430" fill="#dd98a6">Cherry Ice</text><text x="40" y="4500" fill="#d81d26">Cherry Shine</text><text x="40" y="4570" fill="#937979">Chocolaty</text><text x="40" y="4640" fill="#d6e4e1">Cirrus Blue</text><text x="40" y="4710" fill="#dbb239">Citronite</text><text x="40" y="4780" fill="#a68779">Clay Marble</text><text x="40" y="4850" fill="#e0ddd3">Clear Stone</text><text x="40" y="4920" fill="#5d8fbd">Cliff Blue</text><text x="40" y="4990" fill="#a58235">Cloisonne Gold</text><text x="40" y="5060" fill="#7db7db">Coastal Waters</text><text x="40" y="5130" fill="#4398bc">Coastline Blue</text><text x="40" y="5200" fill="#dce2ad">Cocktail Onion</text><text x="40" y="5270" fill="#bb4745">Conte Crayon</text><text x="40" y="5340" fill="#bb9a88">Coquina Shell</text><text x="40" y="5410" fill="#dd675a">Coralite</text><text x="40" y="5480" fill="#594035">Cordwood</text><text x="40" y="5550" fill="#437064">Cormorant</text><text x="40" y="5620" fill="#f18a76">Corralize</text><text x="40" y="5690" fill="#789ec5">Cottage Blue</text><text x="40" y="5760" fill="#f0ead8">Cotton Down</text><text x="40" y="5830" fill="#f8f0c7">Cotton Floss</text><text x="40" y="5900" fill="#eed09c">Cotton Muslin</text><text x="40" y="5970" fill="#e5e1d5">Cotton Tuft</text><text x="40" y="6040" fill="#86b097">Covent Garden</text><text x="40" y="6110" fill="#9bbdb2">Coveted Blue</text><text x="40" y="6180" fill="#f2e7d1">Crackled</text><text x="40" y="6250" fill="#eceee6">Crème Fraîche</text><text x="40" y="6320" fill="#f1f0e0">Crème Vanille</text><text x="40" y="6390" fill="#e2cdb1">Crimini Mushroom</text><text x="40" y="6460" fill="#dbe2e7">Crystal Bay</text><text x="40" y="6530" fill="#68655d">Cumberland Grey</text><text x="40" y="6600" fill="#eae1ce">Curated White</text><text x="40" y="6670" fill="#996d32">Damascene</text><text x="40" y="6740" fill="#fadfa9">Dawn Light</text><text x="40" y="6810" fill="#758cbf">Dayflower Blue</text><text x="40" y="6880" fill="#414048">Deep Galaxy</text><text x="40" y="6950" fill="#01b0bd">Deep Turquoise</text><text x="40" y="7020" fill="#80474e">Desert Canyon</text><text x="40" y="7090" fill="#a93435">Desirable</text><text x="40" y="7160" fill="#eee3cc">Diamond Ice</text><text x="40" y="7230" fill="#f1e6cb">Distressed White</text><text x="40" y="7300" fill="#e7e04e">Dragon's Gold</text><text x="40" y="7370" fill="#f7cf26">Dream of Spring</text><text x="40" y="7440" fill="#c33e29">Dried Saffron</text><text x="40" y="7510" fill="#5b2c31">Dubonnet</text><text x="40" y="7580" fill="#9a7e68">Dusty Canyon</text><text x="40" y="7650" fill="#7c6042">Eastlake</text><text x="40" y="7720" fill="#7893a0">Ebb Tide</text><text x="40" y="7790" fill="#bea582">Eggshell Pongee</text><text x="40" y="7860" fill="#e6dbc6">Eiderdown</text><text x="40" y="7930" fill="#d2be9d">Eire</text><text x="40" y="8000" fill="#a07569">Equestrienne</text><text x="40" y="8070" fill="#a95f5c">Escalante</text><text x="40" y="8140" fill="#c4b5a4">Esoteric</text><text x="40" y="8210" fill="#9b583c">Etruscan</text><text x="40" y="8280" fill="#9dbcc7">Evocative Blue</text><text x="40" y="8350" fill="#fdcf6a">Faded Sunlight</text><text x="40" y="8420" fill="#c9d3d7">Fairfax Grey</text><text x="40" y="8490" fill="#76595e">Falcon Wing</text><text x="40" y="8560" fill="#a5bebd">Falkland</text><text x="40" y="8630" fill="#bb7b6d">Faneuil Brick</text><text x="40" y="8700" fill="#9d723e">Favourite Ale</text><text x="40" y="8770" fill="#cee9e8">Field Frost</text><text x="40" y="8840" fill="#425357">Finnegan</text><text x="40" y="8910" fill="#d65d45">Flame Stitch</text><text x="40" y="8980" fill="#91786b">Flight of Fancy</text><text x="40" y="9050" fill="#b3d4df">Foamy Surf</text><text x="40" y="9120" fill="#909fb2">Foghorn</text><text x="40" y="9190" fill="#d59027">Fool’s Gold</text><text x="40" y="9260" fill="#ad747d">French Marron</text><text x="40" y="9330" fill="#64776e">Galena</text><text x="40" y="9400" fill="#778679">Garden Bower</text><text x="40" y="9470" fill="#7f4c00">Gédéon Brown</text><text x="40" y="9540" fill="#b4d6cb">Gemini</text><text x="40" y="9610" fill="#a9dce2">Geyser Pool</text><text x="40" y="9680" fill="#b58037">Gilded Gold</text><text x="40" y="9750" fill="#cb8f7b">Ginger Scent</text><text x="40" y="9820" fill="#b3a156">Gingko Leaf</text><text x="40" y="9890" fill="#edbb26">Gold Leaf</text><text x="40" y="9960" fill="#ecbc14">Gold Ore</text><text x="40" y="10030" fill="#dec283">Gold Tint</text><text x="40" y="10100" fill="#cea644">Golden Age Gilt</text><text x="40" y="10170" fill="#f3d74f">Golden Apples</text><text x="40" y="10240" fill="#ead771">Golden Glitter Storm</text><text x="40" y="10310" fill="#dfaf2b">Golden Samovar</text><text x="40" y="10380" fill="#eeb550">Goldsmith</text><text x="40" y="10450" fill="#e9dec8">Gramp's Tea Cup</text><text x="40" y="10520" fill="#e99f4c">Granary Gold</text><text x="40" y="10590" fill="#a8b1c0">Gray Agate</text><text x="40" y="10660" fill="#576e8b">Great Basin</text><text x="40" y="10730" fill="#a08650">Greek Olive</text><text x="40" y="10800" fill="#7f5f00">Ground Earth</text><text x="40" y="10870" fill="#d46362">Happy Hearts</text><text x="40" y="10940" fill="#c9b23d">Herbal Green</text><text x="40" y="11010" fill="#614539">Hickory Plank</text><text x="40" y="11080" fill="#aa7c4c">Hidden Morel</text><text x="40" y="11150" fill="#e9c160">Honey Crisp</text><text x="40" y="11220" fill="#a46d5c">Honey Maple</text><text x="40" y="11290" fill="#a24a3f">Hot Tamale</text><text x="40" y="11360" fill="#fbd0b9">Ibis Pink</text><text x="40" y="11430" fill="#c3d6e0">Icecap</text><text x="40" y="11500" fill="#54332e">Indian Fig</text><text x="40" y="11570" fill="#334c5d">Ingénue Blue</text><text x="40" y="11640" fill="#7c939d">Inland Waters</text><text x="40" y="11710" fill="#78a6b5">Inner Sanctum</text><text x="40" y="11780" fill="#91b3d0">Innocent Blue</text><text x="40" y="11850" fill="#285294">Insignia</text><text x="40" y="11920" fill="#a0cdde">Intercoastal</text><text x="40" y="11990" fill="#019694">Intermezzo</text><text x="40" y="12060" fill="#a43323">Jaipur</text><text x="40" y="12130" fill="#b36b92">Je T’aime</text><text x="40" y="12200" fill="#254d6a">Kinetic Blue</text><text x="40" y="12270" fill="#2987c7">Klaxosaur Blue</text><text x="40" y="12340" fill="#1fb4c3">Lago Blue</text><text x="40" y="12410" fill="#96b4b1">Lake Forest</text><text x="40" y="12480" fill="#8b9ca5">Lakefront</text><text x="40" y="12550" fill="#ffd140">Lamplight</text><text x="40" y="12620" fill="#ffd97d">Lantern Gold</text><text x="40" y="12690" fill="#f8ab33">Late Afternoon</text><text x="40" y="12760" fill="#caadd8">Lavender Field Dreamer</text><text x="40" y="12830" fill="#9ec9e2">Legacy Blue</text><text x="40" y="12900" fill="#8e3350">Lifestyle Red</text><text x="40" y="12970" fill="#e9e4df">Lime White</text><text x="40" y="13040" fill="#7d6546">Loden Blanket</text><text x="40" y="13110" fill="#add5e4">Longitude</text><text x="40" y="13180" fill="#c1e0c8">Luna Green</text><text x="40" y="13250" fill="#643c37">Manzanita</text><text x="40" y="13320" fill="#f3d49d">Marquisette</text><text x="40" y="13390" fill="#a17f67">Matte Brown</text><text x="40" y="13460" fill="#f5d39c">Mellow Sun</text><text x="40" y="13530" fill="#e2a94f">Mellowed Gold</text><text x="40" y="13600" fill="#69788a">Menacing Clouds</text><text x="40" y="13670" fill="#772f39">Mesa Ridge</text><text x="40" y="13740" fill="#eeece7">Metropolitan White</text><text x="40" y="13810" fill="#e39b99">Mexicali Rose</text><text x="40" y="13880" fill="#3a505b">Midsummer Night</text><text x="40" y="13950" fill="#c8ac82">Mindful</text><text x="40" y="14020" fill="#d7e7e6">Misted Aqua</text><text x="40" y="14090" fill="#d3c190">Monument Green</text><text x="40" y="14160" fill="#6586a5">Moody Indigo</text><text x="40" y="14230" fill="#cae2d9">Moody Mist</text><text x="40" y="14300" fill="#96a5b8">Moon Shadow</text><text x="40" y="14370" fill="#6f8588">Moon Tide</text><text x="40" y="14440" fill="#ee8a67">Morning Marmalade</text><text x="40" y="14510" fill="#c3d1e5">Morning Star</text><text x="40" y="14580" fill="#8fd89f">Mother of Pearl Green</text><text x="40" y="14650" fill="#d1c4c6">Mother of Pearl Pink</text><text x="40" y="14720" fill="#ccd6e6">Mother of Pearl Silver</text><text x="40" y="14790" fill="#cac76d">Mung Bean</text><text x="40" y="14860" fill="#f4e5ab">Muscadine</text><text x="40" y="14930" fill="#e9decb">Muscovite</text><text x="40" y="15000" fill="#9eb3de">Myrtle Flower</text><text x="40" y="15070" fill="#ecede8">Neutral White</text><text x="40" y="15140" fill="#49646d">Night Folly</text><text x="40" y="15210" fill="#ecdec5">Nobility</text><text x="40" y="15280" fill="#3676b5">North Atlantic Breeze</text><text x="40" y="15350" fill="#cee5e9">Northwind</text><text x="40" y="15420" fill="#b4cdde">Norwegian Sky</text><text x="40" y="15490" fill="#f8eed9">Nova White</text><text x="40" y="15560" fill="#fcd389">Oberon</text><text x="40" y="15630" fill="#6c574c">Old Tudor</text><text x="40" y="15700" fill="#019e91">On a Whim</text><text x="40" y="15770" fill="#b2974d">Outdoorsy</text><text x="40" y="15840" fill="#cb5139">Painted Poppy</text><text x="40" y="15910" fill="#ebe5d6">Pale Linen</text><text x="40" y="15980" fill="#f4da6e">Pale Pear</text><text x="40" y="16050" fill="#d9bfce">Pale Petals</text><text x="40" y="16120" fill="#eee9df">Palladian</text><text x="40" y="16190" fill="#eed786">Passementerie</text><text x="40" y="16260" fill="#eddbc8">Patisserie</text><text x="40" y="16330" fill="#edb80f">Pattypan</text><text x="40" y="16400" fill="#e0dac8">Peace &amp; Quiet</text><text x="40" y="16470" fill="#4a352b">Peat Moss</text><text x="40" y="16540" fill="#b75754">Pepper &amp; Spice</text><text x="40" y="16610" fill="#8cb7d7">Periwinkle Sky</text><text x="40" y="16680" fill="#206874">Persian Mosaic</text><text x="40" y="16750" fill="#958251">Picholine Olive</text><text x="40" y="16820" fill="#f4c701">Pinard Yellow</text><text x="40" y="16890" fill="#70574f">Piney Wood</text><text x="40" y="16960" fill="#b55a63">Pink Flame</text><text x="40" y="17030" fill="#df9f8f">Pink Palazzo</text><text x="40" y="17100" fill="#c034af">Pink Perennial</text><text x="40" y="17170" fill="#f0d4ca">Pink Sentiment</text><text x="40" y="17240" fill="#accde2">Polar Seas</text><text x="40" y="17310" fill="#e2cf24">Polliwog</text><text x="40" y="17380" fill="#658782">Pond Sedge</text><text x="40" y="17450" fill="#938a2a">Potter Green</text><text x="40" y="17520" fill="#ebf1f5">Powder White</text><text x="40" y="17590" fill="#a2c0b9">Prized Celadon</text><text x="40" y="17660" fill="#c39297">Profound Pink</text><text x="40" y="17730" fill="#864788">Prunella</text><text x="40" y="17800" fill="#8397d0">Purple Gentian</text><text x="40" y="17870" fill="#40507a">Purple Ode</text><text x="40" y="17940" fill="#f8c642">Pyrite</text><text x="40" y="18010" fill="#5c4e53">Quail Hollow</text><text x="40" y="18080" fill="#b2ddc4">Quantum Effect</text><text x="40" y="18150" fill="#bddbe1">Quick-Freeze</text><text x="40" y="18220" fill="#017aa6">Quiet Cove</text><text x="40" y="18290" fill="#eecc9f">Quiet Star</text><text x="40" y="18360" fill="#4b4045">Raven’s Wing</text><text x="40" y="18430" fill="#9e7172">Raw Edge</text><text x="40" y="18500" fill="#e1d9c7">Raw Silk</text><text x="40" y="18570" fill="#1a525b">Recollection Blue</text><text x="40" y="18640" fill="#883543">Red Chicory</text><text x="40" y="18710" fill="#95372d">Red Chili</text><text x="40" y="18780" fill="#783f54">Red Jade</text><text x="40" y="18850" fill="#c44d4f">Red Trillium</text><text x="40" y="18920" fill="#9f1a1d">Red Vitality</text><text x="40" y="18990" fill="#efe7d6">Remarkable Beige</text><text x="40" y="19060" fill="#01638b">Reservoir</text><text x="40" y="19130" fill="#67b8ce">Revelry Blue</text><text x="40" y="19200" fill="#dc9e94">Rhapsodic</text><text x="40" y="19270" fill="#7a5d46">Ridgeline</text><text x="40" y="19340" fill="#372b25">Roanoke</text><text x="40" y="19410" fill="#688082">Rock Creek</text><text x="40" y="19480" fill="#5f4f3e">Rooted</text><text x="40" y="19550" fill="#ecd7c6">Rose Lotion</text><text x="40" y="19620" fill="#b495b0">Roseville</text><text x="40" y="19690" fill="#d95854">Rosy Sunset</text><text x="40" y="19760" fill="#c04042">Rubiate</text><text x="40" y="19830" fill="#975b60">Ruby Crystal</text><text x="40" y="19900" fill="#9f6859">Russet Red</text><text x="40" y="19970" fill="#8a3a2c">Rustica</text><text x="40" y="20040" fill="#bad3c7">Sage Bundle</text><text x="40" y="20110" fill="#947252">Sagebrush</text><text x="40" y="20180" fill="#2e9cbb">Sailfish</text><text x="40" y="20250" fill="#015e60">Sandhill Crane</text><text x="40" y="20320" fill="#5b82a6">Sapphired</text><text x="40" y="20390" fill="#7e4242">Savoy House</text><text x="40" y="20460" fill="#b43b3d">Scarlet Tanager</text><text x="40" y="20530" fill="#486275">Scenic Blue</text><text x="40" y="20600" fill="#9ecdd5">Sea Dew</text><text x="40" y="20670" fill="#85c2b2">Seaborn</text><text x="40" y="20740" fill="#204d68">Seafarer</text><text x="40" y="20810" fill="#77a2ad">Seascape</text><text x="40" y="20880" fill="#9a8841">Sedge Grasses</text><text x="40" y="20950" fill="#886244">Sedona Brown</text><text x="40" y="21020" fill="#8e462f">Sedona Stone</text><text x="40" y="21090" fill="#f6c6b9">Serene Pink</text><text x="40" y="21160" fill="#2a4f61">Shadow of Night</text><text x="40" y="21230" fill="#e8e1ce">Shearling</text><text x="40" y="21300" fill="#d6a48d">Shetland Pony</text><text x="40" y="21370" fill="#7aa3cc">Shipmate</text><text x="40" y="21440" fill="#6c8791">Shoreline</text><text x="40" y="21510" fill="#ed9181">Sierra Pink</text><text x="40" y="21580" fill="#bad9d9">Silent River</text><text x="40" y="21650" fill="#8b4248">Silk Satin</text><text x="40" y="21720" fill="#b77d5f">Silken Chocolate</text><text x="40" y="21790" fill="#ebede7">Simply White</text><text x="40" y="21860" fill="#713e39">Single Origin</text><text x="40" y="21930" fill="#d2e3e5">Ski White</text><text x="40" y="22000" fill="#60bfd3">Sky Dive</text><text x="40" y="22070" fill="#a6c4ca">Skyward</text><text x="40" y="22140" fill="#d2d8da">Snow Quartz</text><text x="40" y="22210" fill="#bed0da">Snowbell</text><text x="40" y="22280" fill="#fcdb80">Snug Yellow</text><text x="40" y="22350" fill="#fdd47e">Soft Saffron</text><text x="40" y="22420" fill="#faf1bd">Solar Glow</text><text x="40" y="22490" fill="#fbcf4f">Solarized</text><text x="40" y="22560" fill="#324471">Space Missions</text><text x="40" y="22630" fill="#a4ddd3">Sparkling Mint</text><text x="40" y="22700" fill="#e7dfce">Spellbound</text><text x="40" y="22770" fill="#b84823">Spice Market</text><text x="40" y="22840" fill="#018cb6">Spinnaker Blue</text><text x="40" y="22910" fill="#a98c37">Spring Branch</text><text x="40" y="22980" fill="#d9eee1">Spring Dew</text><text x="40" y="23050" fill="#babd29">Spring Forward</text><text x="40" y="23120" fill="#99cde6">Spring Tide</text><text x="40" y="23190" fill="#f3d48b">Sprouted</text><text x="40" y="23260" fill="#9fb5ce">Stellar Blue</text><text x="40" y="23330" fill="#d6e0e7">Stone Washed</text><text x="40" y="23400" fill="#372354">Stormy Night</text><text x="40" y="23470" fill="#dfd8c8">Stretched Canvas</text><text x="40" y="23540" fill="#bc3439">Stylish Red</text><text x="40" y="23610" fill="#ba8864">Suede</text><text x="40" y="23680" fill="#f6ac17">Sultan Gold</text><text x="40" y="23750" fill="#deab9b">Sunkissed Beach</text><text x="40" y="23820" fill="#ffdb78">Sunlit</text><text x="40" y="23890" fill="#eadfaa">Sunny Burrata</text><text x="40" y="23960" fill="#fbca69">Sunspark</text><text x="40" y="24030" fill="#c2963f">Suzani Gold</text><text x="40" y="24100" fill="#d49ab9">Sweet Perfume</text><text x="40" y="24170" fill="#f2dd55">Tamarack Yellow</text><text x="40" y="24240" fill="#f8ad1b">Tangerine Twist</text><text x="40" y="24310" fill="#5c493e">Tannery Brown</text><text x="40" y="24380" fill="#24604f">Teal Drama</text><text x="40" y="24450" fill="#50b7cf">Teal Moiré</text><text x="40" y="24520" fill="#4e939d">Teal Trinket</text><text x="40" y="24590" fill="#e8e287">Tender Sprout</text><text x="40" y="24660" fill="#c4b198">Tender Taupe</text><text x="40" y="24730" fill="#a1d8e0">Terrace Pool</text><text x="40" y="24800" fill="#73573f">Timberline</text><text x="40" y="24870" fill="#684f3c">Tobacco</text><text x="40" y="24940" fill="#d6685f">Tory Red</text><text x="40" y="25010" fill="#f4e8b6">Trapunto</text><text x="40" y="25080" fill="#9c7947">Treasured</text><text x="40" y="25150" fill="#752b3e">Tripleberry</text><text x="40" y="25220" fill="#016f92">Tropic Sea</text><text x="40" y="25290" fill="#fbb719">Tropical Sun</text><text x="40" y="25360" fill="#eb9724">Uplifting Yellow</text><text x="40" y="25430" fill="#966b6f">Victorian Rose</text><text x="40" y="25500" fill="#c8d4e4">Violet Wisp</text><text x="40" y="25570" fill="#424443">Vulcanized</text><text x="40" y="25640" fill="#80d5cc">Water Wings</text><text x="40" y="25710" fill="#d4e4e5">Waterfront</text><text x="40" y="25780" fill="#aea266">Wavy Glass</text><text x="40" y="25850" fill="#586d77">West Winds</text><text x="40" y="25920" fill="#7d949e">Wethers Field</text><text x="40" y="25990" fill="#f2eee0">Whipped White</text><text x="40" y="26060" fill="#e4dfd0">White Basics</text><text x="40" y="26130" fill="#f0d498">White Corn</text><text x="40" y="26200" fill="#f5eede">White Down</text><text x="40" y="26270" fill="#e2dcd3">White Luxe</text><text x="40" y="26340" fill="#ded8d2">White Woodruff</text><text x="40" y="26410" fill="#d5dca9">Willow Wind</text><text x="40" y="26480" fill="#886144">Wilmington</text><text x="40" y="26550" fill="#a33540">Wine &amp; Roses</text><text x="40" y="26620" fill="#becedb">Winter Scene</text><text x="40" y="26690" fill="#4f6b79">Winter Shadow</text><text x="40" y="26760" fill="#bdd4de">Winterscape</text><text x="40" y="26830" fill="#78776f">Wolf Pack</text><text x="40" y="26900" fill="#96856a">Woodkraft</text><text x="40" y="26970" fill="#127a49">Woodland Soul</text><text x="40" y="27040" fill="#f1dfc0">Woven Raffia</text><text x="40" y="27110" fill="#fce1b6">Yellow Essence</text><text x="40" y="27180" fill="#ffb102">Yellow Exhilaration</text><text x="40" y="27250" fill="#f6d06e">Yellow Tulip</text>
</svg>
