<svg xmlns="http://www.w3.org/2000/svg" viewBox="0 0 600 7920">
  <defs>
    <style type="text/css">
      @import url('https://rsms.me/inter/inter.css');
      text {
        font-family: Inter, -apple-system, BlinkMacSystemFont, "Segoe UI", Roboto, Helvetica, Arial, sans-serif, "Apple Color Emoji", "Segoe UI Emoji", "Segoe UI Symbol";
        font-size: 40px;
        font-weight: 900;
      }
    </style>
  </defs>
  <rect fill="#212121" x="0" y="0" width="600" height="7920"/>
  <text x="40" y="90" fill="#8d8dc9">Adora</text><text x="40" y="160" fill="#93b8e3">Adrift on the Nile</text><text x="40" y="230" fill="#572b16">Fudge Brownie</text><text x="40" y="300" fill="#f3bc00">Gold Abundance</text><text x="40" y="370" fill="#ede9ef">Greek Goddess</text><text x="40" y="440" fill="#85a6c8">High Tide</text><text x="40" y="510" fill="#439946">Kryptonite Green</text><text x="40" y="580" fill="#c1cfa9">Landscape</text><text x="40" y="650" fill="#7d8878">Majestic Evergreen</text><text x="40" y="720" fill="#53cbc4">May Day</text><text x="40" y="790" fill="#f6eed1">Mayonnaise</text><text x="40" y="860" fill="#b64055">Merlot Magic</text><text x="40" y="930" fill="#6ec2b0">Miami Teal</text><text x="40" y="1000" fill="#534657">Midnight Affair</text><text x="40" y="1070" fill="#32496f">Midnight Interlude</text><text x="40" y="1140" fill="#b1a4b4">Midsummer Twilight</text><text x="40" y="1210" fill="#b9e0d3">Mint Mist</text><text x="40" y="1280" fill="#eac3d2">Misty Memories</text><text x="40" y="1350" fill="#8b6b58">Mocha Madness</text><text x="40" y="1420" fill="#faf1de">Moon Maiden</text><text x="40" y="1490" fill="#ced5e3">Morning Chill</text><text x="40" y="1560" fill="#e9e0d4">Mountain Peak</text><text x="40" y="1630" fill="#b3205f">Murderous Magenta</text><text x="40" y="1700" fill="#ffcb5d">Nacho</text><text x="40" y="1770" fill="#89af97">Natures Gift</text><text x="40" y="1840" fill="#20586d">Night Edition</text><text x="40" y="1910" fill="#4b7689">Night Train</text><text x="40" y="1980" fill="#37525f">Nocturne Blue</text><text x="40" y="2050" fill="#312b27">Noir</text><text x="40" y="2120" fill="#508693">Ocean Blues</text><text x="40" y="2190" fill="#00878f">Ocean Soul</text><text x="40" y="2260" fill="#7b8c97">Ocean Storms</text><text x="40" y="2330" fill="#415f61">Oceans Deep</text><text x="40" y="2400" fill="#6e592c">Olivary</text><text x="40" y="2470" fill="#ff7435">Orange Supreme</text><text x="40" y="2540" fill="#167d97">Pacific Pleasure</text><text x="40" y="2610" fill="#c7e1ee">Pale Frost</text><text x="40" y="2680" fill="#f7e0de">Pale Perfection</text><text x="40" y="2750" fill="#ead4a6">Paper Moon</text><text x="40" y="2820" fill="#978478">Parisian Cafe</text><text x="40" y="2890" fill="#ffaba5">Patient Pink</text><text x="40" y="2960" fill="#579797">Peaceful Pond</text><text x="40" y="3030" fill="#ebd7d3">Peach Glamour</text><text x="40" y="3100" fill="#f59997">Peach Punch</text><text x="40" y="3170" fill="#fed3e4">Poplar Pink</text><text x="40" y="3240" fill="#5cbe86">Spearmint Burst</text><text x="40" y="3310" fill="#bb715b">Spiced</text><text x="40" y="3380" fill="#46a35a">Spinach</text><text x="40" y="3450" fill="#fbddaf">Such a Peach</text><text x="40" y="3520" fill="#e8d99c">Sunny Glory</text><text x="40" y="3590" fill="#ffb52d">Sunset Glow</text><text x="40" y="3660" fill="#785f8e">Super Violet</text><text x="40" y="3730" fill="#afbed4">Supremely Cool</text><text x="40" y="3800" fill="#e1c9d1">Sweet and Sassy</text><text x="40" y="3870" fill="#c4bf0b">Sweet and Sour</text><text x="40" y="3940" fill="#e6bfc1">Sweet Blush</text><text x="40" y="4010" fill="#e5aab0">Sweet Heart</text><text x="40" y="4080" fill="#e87973">Sweet Melon</text><text x="40" y="4150" fill="#fdc8cd">Sweet Memories</text><text x="40" y="4220" fill="#b4ccbe">Sweet Mint</text><text x="40" y="4290" fill="#c7b7d0">Sweet Scent</text><text x="40" y="4360" fill="#d0dedd">Sweet Slumber</text><text x="40" y="4430" fill="#ded3dd">Timid Violet</text><text x="40" y="4500" fill="#fcf0c3">Tinkerbell Trail</text><text x="40" y="4570" fill="#f8dcbf">Toes in the Sand</text><text x="40" y="4640" fill="#d98b51">Toffee Cream</text><text x="40" y="4710" fill="#a5654a">Toffee Glaze</text><text x="40" y="4780" fill="#e6baa9">Tofino</text><text x="40" y="4850" fill="#fad873">Top Banana</text><text x="40" y="4920" fill="#b7c5c6">Tradewind</text><text x="40" y="4990" fill="#579aa5">Tropical Oasis</text><text x="40" y="5060" fill="#0a8391">True Teal</text><text x="40" y="5130" fill="#2a8948">Turf Green</text><text x="40" y="5200" fill="#457b74">Turquoise Tortoise</text><text x="40" y="5270" fill="#191916">Twilight Zone</text><text x="40" y="5340" fill="#636ca8">Twinkle Night</text><text x="40" y="5410" fill="#b63364">Valentine's Kiss</text><text x="40" y="5480" fill="#76afb2">Venice Escape</text><text x="40" y="5550" fill="#7a6dc0">Venus Violet</text><text x="40" y="5620" fill="#33365b">Very Blue</text><text x="40" y="5690" fill="#f48b8b">Vinaceous Cinnamon</text><text x="40" y="5760" fill="#338544">Vine</text><text x="40" y="5830" fill="#ba97a9">Violet Fantasy</text><text x="40" y="5900" fill="#a66da1">Violet Femmes</text><text x="40" y="5970" fill="#b97254">Warm Copper</text><text x="40" y="6040" fill="#dcb89d">Wassail</text><text x="40" y="6110" fill="#637fbb">Watertown</text><text x="40" y="6180" fill="#006597">Wavy Navy</text><text x="40" y="6250" fill="#ede6e9">Wedding</text><text x="40" y="6320" fill="#63adb9">Well Water</text><text x="40" y="6390" fill="#7e6152">Werewolf Fur</text><text x="40" y="6460" fill="#71736a">Wetlands</text><text x="40" y="6530" fill="#ffd299">Whipped Apricot</text><text x="40" y="6600" fill="#faccad">Whipped Peach</text><text x="40" y="6670" fill="#d1c0dc">Whipped Plum</text><text x="40" y="6740" fill="#c9565a">Whipped Strawberry</text><text x="40" y="6810" fill="#eadbca">Whisper of White</text><text x="40" y="6880" fill="#d8d8d4">Whispering Smoke</text><text x="40" y="6950" fill="#6f7142">Wild Jungle</text><text x="40" y="7020" fill="#a47fa3">Wild Lavender</text><text x="40" y="7090" fill="#9c8042">Wild Olive</text><text x="40" y="7160" fill="#447382">Wild River</text><text x="40" y="7230" fill="#fdebd8">Winter Morning</text><text x="40" y="7300" fill="#e8dadd">Winter Sunrise</text><text x="40" y="7370" fill="#4090a2">Winter Time</text><text x="40" y="7440" fill="#a7afac">Wintry Sky</text><text x="40" y="7510" fill="#ad9a90">Wool Coat</text><text x="40" y="7580" fill="#e0d1a0">Woven</text><text x="40" y="7650" fill="#f4eaba">Yellow Bliss</text><text x="40" y="7720" fill="#f6d099">Yellow Lotus</text><text x="40" y="7790" fill="#f0e74b">Yellow Petal</text><text x="40" y="7860" fill="#f7edb7">Yellow Taffy</text>
</svg>