<svg xmlns="http://www.w3.org/2000/svg" viewBox="0 0 600 4420">
  <defs>
    <style type="text/css">
      @import url('https://rsms.me/inter/inter.css');
      text {
        font-family: Inter, -apple-system, BlinkMacSystemFont, "Segoe UI", Roboto, Helvetica, Arial, sans-serif, "Apple Color Emoji", "Segoe UI Emoji", "Segoe UI Symbol";
        font-size: 40px;
        font-weight: 900;
      }
    </style>
  </defs>
  <rect fill="#212121" x="0" y="0" width="600" height="4420"/>
  <text x="40" y="90" fill="#daf0e6">Banshee</text><text x="40" y="160" fill="#9ab38d">Basilisk</text><text x="40" y="230" fill="#fce7e4">Blackbird's Ggg</text><text x="40" y="300" fill="#8470ff">Blackthorn Berry</text><text x="40" y="370" fill="#aa1144">Bloody Periphylla</text><text x="40" y="440" fill="#5d3954">Bruised Bear</text><text x="40" y="510" fill="#eae2dd">Canada Goose Eggs</text><text x="40" y="580" fill="#ffc66e">Chanterelles</text><text x="40" y="650" fill="#cb5251">Chinese Dragon</text><text x="40" y="720" fill="#f0e681">Crab-Apple</text><text x="40" y="790" fill="#02066f">Dark Royalty</text><text x="40" y="860" fill="#71706e">Dugong</text><text x="40" y="930" fill="#d9ece6">Dunnock's Egg</text><text x="40" y="1000" fill="#d3d6e9">Early Dog Violet</text><text x="40" y="1070" fill="#bae5ee">Early Forget-Me-Not</text><text x="40" y="1140" fill="#dae3e9">Early Frost</text><text x="40" y="1210" fill="#ffa565">Echinoderm</text><text x="40" y="1280" fill="#ffa756">Echinoida Torns</text><text x="40" y="1350" fill="#d9dbdf">Empire State Grey</text><text x="40" y="1420" fill="#e2d7da">Fairy-Nuff</text><text x="40" y="1490" fill="#cfe5f0">First Frost</text><text x="40" y="1560" fill="#e2f5e1">Friendly Basilisk</text><text x="40" y="1630" fill="#f5efeb">Furry Lady</text><text x="40" y="1700" fill="#0094c8">Germander Speedwell</text><text x="40" y="1770" fill="#e9e2db">Great Tit Eggs</text><text x="40" y="1840" fill="#faf0da">Hedgehog Mushroom</text><text x="40" y="1910" fill="#dda0df">Herb Robert</text><text x="40" y="1980" fill="#ff99cc">Himalayan Balsam</text><text x="40" y="2050" fill="#bba46d">Horn of Plenty</text><text x="40" y="2120" fill="#e2e0db">House Martin Eggs</text><text x="40" y="2190" fill="#d6d9dd">House Sparrow's Egg</text><text x="40" y="2260" fill="#c5ded1">Kappa Green</text><text x="40" y="2330" fill="#ffaa77">Larch Bolete</text><text x="40" y="2400" fill="#f8f2d8">Mallard's Egg</text><text x="40" y="2470" fill="#ffef17">Marsh Marigold</text><text x="40" y="2540" fill="#e0dcd7">Pheasant's Egg</text><text x="40" y="2610" fill="#625d5d">Piccadilly Grey</text><text x="40" y="2680" fill="#0b085f">Prussian Nights</text><text x="40" y="2750" fill="#bb0044">Red Paracentrotus</text><text x="40" y="2820" fill="#cb0162">Rowan</text><text x="40" y="2890" fill="#8af1fe">Shallow Water </text><text x="40" y="2960" fill="#8caeac">Shallow Water Ground</text><text x="40" y="3030" fill="#f2e5e0">Song Thrush Egg</text><text x="40" y="3100" fill="#e4e1de">Spilled Cappuccino</text><text x="40" y="3170" fill="#e8dfd8">Starling's Egg</text><text x="40" y="3240" fill="#2a545c">Stinkhorn</text><text x="40" y="3310" fill="#331133">Synallactida</text><text x="40" y="3380" fill="#ceaefa">Teasel Dipsacus</text><text x="40" y="3450" fill="#db7093">The Sickener</text><text x="40" y="3520" fill="#eef4db">Theatre District Lights</text><text x="40" y="3590" fill="#00cccc">Tilla Kari Mosque</text><text x="40" y="3660" fill="#20c073">Times Square Screens</text><text x="40" y="3730" fill="#d1bea8">Vanilla Doe</text><text x="40" y="3800" fill="#558367">Verdigris Roundhead</text><text x="40" y="3870" fill="#833e82">Violet Webcap</text><text x="40" y="3940" fill="#d2e2f2">Weathered Blue</text><text x="40" y="4010" fill="#e4f5e1">Weathered Mint</text><text x="40" y="4080" fill="#7b9093">Weathered Pebble</text><text x="40" y="4150" fill="#eadfe8">Weathered Pink</text><text x="40" y="4220" fill="#f9f4d9">Weathered Plastic</text><text x="40" y="4290" fill="#fbeeac">Wood Avens</text><text x="40" y="4360" fill="#fada5e">Yellow Stagshorn</text>
</svg>