<svg xmlns="http://www.w3.org/2000/svg" viewBox="0 0 600 2530">
  <defs>
    <style type="text/css">
      @import url('https://rsms.me/inter/inter.css');
      text {
        font-family: Inter, -apple-system, BlinkMacSystemFont, "Segoe UI", Roboto, Helvetica, Arial, sans-serif, "Apple Color Emoji", "Segoe UI Emoji", "Segoe UI Symbol";
        font-size: 40px;
        font-weight: 900;
      }
    </style>
  </defs>
  <rect fill="#212121" x="0" y="0" width="600" height="2530"/>
  <text x="40" y="90" fill="#9f9978">A Frond in Need</text><text x="40" y="160" fill="#3c3535">After Dark</text><text x="40" y="230" fill="#ced5e4">Après-Ski</text><text x="40" y="300" fill="#ceb997">Baker’s Dozen</text><text x="40" y="370" fill="#45392f">Batch Brew</text><text x="40" y="440" fill="#e8e0e9">Bubble Bath</text><text x="40" y="510" fill="#b4c2a2">Camping Grounds</text><text x="40" y="580" fill="#bdd4d1">Coast to Coast</text><text x="40" y="650" fill="#c2b4a7">Couch Potato</text><text x="40" y="720" fill="#767437">Crocodile Style</text><text x="40" y="790" fill="#fedfdc">Dawn Patrol</text><text x="40" y="860" fill="#223382">Deep Space Royal</text><text x="40" y="930" fill="#363b43">Do Not Disturb</text><text x="40" y="1000" fill="#95bce1">Double Denim</text><text x="40" y="1070" fill="#bea932">Hey Pesto</text><text x="40" y="1140" fill="#ccdfdc">Icelandish</text><text x="40" y="1210" fill="#727736">Jungle Look</text><text x="40" y="1280" fill="#839ab0">Monsoon Season</text><text x="40" y="1350" fill="#644348">Plum Intended</text><text x="40" y="1420" fill="#e1deda">Prelude to Pink</text><text x="40" y="1490" fill="#a0a6a0">Puddle</text><text x="40" y="1560" fill="#6a8389">Puddle Jumper</text><text x="40" y="1630" fill="#f1eae2">Refer to the Stars</text><text x="40" y="1700" fill="#b27a47">Rocky Racoon</text><text x="40" y="1770" fill="#5c9f59">Savage Garden</text><text x="40" y="1840" fill="#d8d4d7">So Fresh so Clean</text><text x="40" y="1910" fill="#1d2951">Space Cadet</text><text x="40" y="1980" fill="#baaea8">Taupedo</text><text x="40" y="2050" fill="#8e3350">That’s My Jam</text><text x="40" y="2120" fill="#d3003f">Them Apples</text><text x="40" y="2190" fill="#97bee2">Vive le Bleu</text><text x="40" y="2260" fill="#aed1e8">Vive le Vent</text><text x="40" y="2330" fill="#654243">Wild Thing</text><text x="40" y="2400" fill="#772c30">Wine and Unwind</text><text x="40" y="2470" fill="#007c76">Wizards Orb</text>
</svg>