<svg xmlns="http://www.w3.org/2000/svg" viewBox="0 0 600 3860">
  <defs>
    <style type="text/css">
      @import url('https://rsms.me/inter/inter.css');
      text {
        font-family: Inter, -apple-system, BlinkMacSystemFont, "Segoe UI", Roboto, Helvetica, Arial, sans-serif, "Apple Color Emoji", "Segoe UI Emoji", "Segoe UI Symbol";
        font-size: 40px;
        font-weight: 900;
      }
    </style>
  </defs>
  <rect fill="#212121" x="0" y="0" width="600" height="3860"/>
  <text x="40" y="90" fill="#b58338">Andouille</text><text x="40" y="160" fill="#cecfd6">Ash Tree Bark</text><text x="40" y="230" fill="#ede2d4">Battered Sausage</text><text x="40" y="300" fill="#a25768">Beef Jerky</text><text x="40" y="370" fill="#f0908d">Bierwurst</text><text x="40" y="440" fill="#410200">Biltong</text><text x="40" y="510" fill="#560319">Bloedworst</text><text x="40" y="580" fill="#8ecfe8">Bluebottle</text><text x="40" y="650" fill="#df8f67">Bockwurst</text><text x="40" y="720" fill="#973443">Boerewors</text><text x="40" y="790" fill="#ffcfdc">Bologna Sausage</text><text x="40" y="860" fill="#507ea4">Borrage</text><text x="40" y="930" fill="#dab27d">Boudin</text><text x="40" y="1000" fill="#582f2b">Bratwurst</text><text x="40" y="1070" fill="#a9203e">Bresaola</text><text x="40" y="1140" fill="#d9544d">Capocollo</text><text x="40" y="1210" fill="#ffff88">Cinque Foil</text><text x="40" y="1280" fill="#cdcace">Clay Slate Wacke</text><text x="40" y="1350" fill="#c8ad7f">Common Calcedony</text><text x="40" y="1420" fill="#d4cdd2">Coverts Wood Pigeon</text><text x="40" y="1490" fill="#d7d3a6">Cream Cheese Avocado</text><text x="40" y="1560" fill="#e5dfdc">Cumberland Sausage</text><text x="40" y="1630" fill="#a24857">Drisheen</text><text x="40" y="1700" fill="#523839">Droëwors</text><text x="40" y="1770" fill="#fff7ed">Fatback</text><text x="40" y="1840" fill="#894585">Flesh Fly</text><text x="40" y="1910" fill="#eae6cc">Fresh Wood Ashes</text><text x="40" y="1980" fill="#dacba7">Glamorgan Sausage</text><text x="40" y="2050" fill="#fcfcda">Good Morning</text><text x="40" y="2120" fill="#c3c7b2">Haggis</text><text x="40" y="2190" fill="#ee8855">Half-Smoke</text><text x="40" y="2260" fill="#fbe8e4">Hog-Maw</text><text x="40" y="2330" fill="#dad5c7">Hog's Pudding</text><text x="40" y="2400" fill="#ffcccb">Jagdwurst</text><text x="40" y="2470" fill="#e97551">Koeksister</text><text x="40" y="2540" fill="#af403c">Landjäger</text><text x="40" y="2610" fill="#551f2f">Largest Black Slug</text><text x="40" y="2680" fill="#edcdc2">Leverkaas</text><text x="40" y="2750" fill="#e3e6da">Lincolnshire Sausage</text><text x="40" y="2820" fill="#df7163">Mettwurst</text><text x="40" y="2890" fill="#eae2dc">Newmarket Sausage</text><text x="40" y="2960" fill="#db7192">Oxford Sausage</text><text x="40" y="3030" fill="#aa8736">Porchetta Crust</text><text x="40" y="3100" fill="#734a45">Rohwurst</text><text x="40" y="3170" fill="#820000">Salami</text><text x="40" y="3240" fill="#882c17">Saucisson</text><text x="40" y="3310" fill="#ebdfcd">Sausage Roll</text><text x="40" y="3380" fill="#aa2200">Saveloy</text><text x="40" y="3450" fill="#41332f">Skilandis</text><text x="40" y="3520" fill="#f2dbd7">Teewurst</text><text x="40" y="3590" fill="#f2d1c4">Tri-tip</text><text x="40" y="3660" fill="#fed1bd">Vienna Sausage</text><text x="40" y="3730" fill="#f6e8df">White Pudding</text><text x="40" y="3800" fill="#eee8aa">Yellow Jasmine</text>
</svg>