<svg xmlns="http://www.w3.org/2000/svg" viewBox="0 0 600 2110">
  <defs>
    <style type="text/css">
      @import url('https://rsms.me/inter/inter.css');
      text {
        font-family: Inter, -apple-system, BlinkMacSystemFont, "Segoe UI", Roboto, Helvetica, Arial, sans-serif, "Apple Color Emoji", "Segoe UI Emoji", "Segoe UI Symbol";
        font-size: 40px;
        font-weight: 900;
      }
    </style>
  </defs>
  <rect fill="#212121" x="0" y="0" width="600" height="2110"/>
  <text x="40" y="90" fill="#79b4ce">Alpine Sky</text><text x="40" y="160" fill="#444b43">Ancient Pine</text><text x="40" y="230" fill="#37393e">Artist's Charcoal</text><text x="40" y="300" fill="#666a47">Bancha</text><text x="40" y="370" fill="#829e2c">Bruni Green</text><text x="40" y="440" fill="#868929">Buffy Citrine</text><text x="40" y="510" fill="#9d2933">Cochineal Red</text><text x="40" y="580" fill="#30a877">Cosmic Green</text><text x="40" y="650" fill="#1a5a4e">Country Meadow</text><text x="40" y="720" fill="#d94b28">Crab Curry</text><text x="40" y="790" fill="#8e6e57">Dig It</text><text x="40" y="860" fill="#78944a">Emerald Shimmer</text><text x="40" y="930" fill="#889977">Fallout Grey</text><text x="40" y="1000" fill="#dad9ce">Feather</text><text x="40" y="1070" fill="#daa826">Fine Gold</text><text x="40" y="1140" fill="#e9c180">Freshly Baked</text><text x="40" y="1210" fill="#a5ce8f">Gentle Landscape</text><text x="40" y="1280" fill="#499674">Good Luck</text><text x="40" y="1350" fill="#86c994">Good Luck Charm</text><text x="40" y="1420" fill="#b2cc9a">Greenhorn</text><text x="40" y="1490" fill="#444b4a">Moonless Sky</text><text x="40" y="1560" fill="#253a91">Navy Seal</text><text x="40" y="1630" fill="#3e912d">Okra</text><text x="40" y="1700" fill="#d3db39">Poisonous Cloud</text><text x="40" y="1770" fill="#0b9d6a">Prairie</text><text x="40" y="1840" fill="#ffcbee">Puff of Pink</text><text x="40" y="1910" fill="#ad2c15">Santa Belly Red</text><text x="40" y="1980" fill="#f0ccd9">Smidgen of Love</text><text x="40" y="2050" fill="#b5d2d8">Subtle Breeze</text>
</svg>