<svg xmlns="http://www.w3.org/2000/svg" viewBox="0 0 600 4070">
  <defs>
    <style type="text/css">
      @import url('https://rsms.me/inter/inter.css');
      text {
        font-family: Inter, -apple-system, BlinkMacSystemFont, "Segoe UI", Roboto, Helvetica, Arial, sans-serif, "Apple Color Emoji", "Segoe UI Emoji", "Segoe UI Symbol";
        font-size: 40px;
        font-weight: 900;
      }
    </style>
  </defs>
  <rect fill="#212121" x="0" y="0" width="600" height="4070"/>
  <text x="40" y="90" fill="#0082a1">Ahoy! Blue</text><text x="40" y="160" fill="#efeedc">Ancient</text><text x="40" y="230" fill="#624147">Ancient Burgundy</text><text x="40" y="300" fill="#e3af8e">Ancient Inca</text><text x="40" y="370" fill="#765640">Ancient Spice</text><text x="40" y="440" fill="#234893">Cascade Twilight</text><text x="40" y="510" fill="#bf90bb">La La Love</text><text x="40" y="580" fill="#92cdcc">Lake</text><text x="40" y="650" fill="#aed4d2">Lake Breeze</text><text x="40" y="720" fill="#f8611a">Light My Fire</text><text x="40" y="790" fill="#468d45">Lush Grass</text><text x="40" y="860" fill="#abb8d5">Over the Moon</text><text x="40" y="930" fill="#e7aecd">Roses in the Snow</text><text x="40" y="1000" fill="#cf929a">Rosetti</text><text x="40" y="1070" fill="#082d4f">Royal Blue Metallic</text><text x="40" y="1140" fill="#16a5a3">Royal Cloak</text><text x="40" y="1210" fill="#94714c">Royal Crown</text><text x="40" y="1280" fill="#653a3d">Royal Garnet</text><text x="40" y="1350" fill="#9791bc">Royal Glimmer</text><text x="40" y="1420" fill="#d0a54e">Royal Gold Pearl</text><text x="40" y="1490" fill="#698396">Royal Grey</text><text x="40" y="1560" fill="#787866">Royal Ivy</text><text x="40" y="1630" fill="#45505b">Royal Navy</text><text x="40" y="1700" fill="#27ace0">Royal Peacock</text><text x="40" y="1770" fill="#355e5a">Royal Pine</text><text x="40" y="1840" fill="#60456d">Royal Rajah</text><text x="40" y="1910" fill="#8f7bb7">Royal Raul</text><text x="40" y="1980" fill="#678bc9">Royal Regatta</text><text x="40" y="2050" fill="#494256">Royal Treatment</text><text x="40" y="2120" fill="#3e4967">Royal Wave</text><text x="40" y="2190" fill="#6c110e">Sanguine</text><text x="40" y="2260" fill="#9596a4">Too Big to Whale</text><text x="40" y="2330" fill="#d6d9d7">Tundra</text><text x="40" y="2400" fill="#51a5a4">Twilight Meadow</text><text x="40" y="2470" fill="#395d68">Under the Sea</text><text x="40" y="2540" fill="#008f3c">Viper Green</text><text x="40" y="2610" fill="#8f9b5b">Vitality</text><text x="40" y="2680" fill="#4c0400">Walnut Brown</text><text x="40" y="2750" fill="#f5d8b2">Walnut Cream</text><text x="40" y="2820" fill="#cdb573">Wandering</text><text x="40" y="2890" fill="#bf6c6e">Watermelon Crush</text><text x="40" y="2960" fill="#c0686e">Watermelon Gelato</text><text x="40" y="3030" fill="#9c8d7d">Weimaraner</text><text x="40" y="3100" fill="#5d3b31">Western Brown</text><text x="40" y="3170" fill="#8b6a65">Western Clay</text><text x="40" y="3240" fill="#ba816e">Western Pink</text><text x="40" y="3310" fill="#8d5e41">Western Pursuit</text><text x="40" y="3380" fill="#b28b80">Western Ridge</text><text x="40" y="3450" fill="#beaa99">Western Sandstone</text><text x="40" y="3520" fill="#cdbb8d">Western Wear</text><text x="40" y="3590" fill="#9e9f97">Wet Pavement</text><text x="40" y="3660" fill="#7c8181">Whale</text><text x="40" y="3730" fill="#86878c">Whale Tail</text><text x="40" y="3800" fill="#4f4552">Witching</text><text x="40" y="3870" fill="#bcc5aa">Zion</text><text x="40" y="3940" fill="#2c7c79">Zirconia Teal</text><text x="40" y="4010" fill="#afa170">Zucchini Garden</text>
</svg>