<svg xmlns="http://www.w3.org/2000/svg" viewBox="0 0 600 3440">
  <defs>
    <style type="text/css">
      @import url('https://rsms.me/inter/inter.css');
      text {
        font-family: Inter, -apple-system, BlinkMacSystemFont, "Segoe UI", Roboto, Helvetica, Arial, sans-serif, "Apple Color Emoji", "Segoe UI Emoji", "Segoe UI Symbol";
        font-size: 40px;
        font-weight: 900;
      }
    </style>
  </defs>
  <rect fill="#212121" x="0" y="0" width="600" height="3440"/>
  <text x="40" y="90" fill="#99eeff">Alpine Expedition</text><text x="40" y="160" fill="#449955">Alpine Herbs</text><text x="40" y="230" fill="#83c2cd">Antigua Sand</text><text x="40" y="300" fill="#eedd00">Banana Clan</text><text x="40" y="370" fill="#e2e6db">Basil Icing</text><text x="40" y="440" fill="#dd99aa">Blush Bomb</text><text x="40" y="510" fill="#507ea4">Borage</text><text x="40" y="580" fill="#777788">Brewing Storm</text><text x="40" y="650" fill="#e8e7d7">Carrara Marble</text><text x="40" y="720" fill="#b8bfaf">Celandine Green</text><text x="40" y="790" fill="#002255">Clarinet</text><text x="40" y="860" fill="#dbd6d3">Coffee Bag</text><text x="40" y="930" fill="#eddbd7">Cottingley Fairies</text><text x="40" y="1000" fill="#ebe0cf">Crispy Crust</text><text x="40" y="1070" fill="#33dd88">Drunken Dragonfly</text><text x="40" y="1140" fill="#770022">Evil Forces</text><text x="40" y="1210" fill="#ebdcd7">Faded Shells</text><text x="40" y="1280" fill="#dfdfe5">Festive Ferret</text><text x="40" y="1350" fill="#225599">Fist of the North Star</text><text x="40" y="1420" fill="#ff4519">Flare Gun</text><text x="40" y="1490" fill="#dbe2cc">Frozen Margarita</text><text x="40" y="1560" fill="#fea993">Frozen Salmon</text><text x="40" y="1630" fill="#bb22bb">Fuchsia Flair</text><text x="40" y="1700" fill="#cc00dd">Fungal Hallucinations</text><text x="40" y="1770" fill="#ee9999">Funki Porcini</text><text x="40" y="1840" fill="#bdd043">Golden Foliage</text><text x="40" y="1910" fill="#818581">Happy Hippo</text><text x="40" y="1980" fill="#d5dfd3">Hornet Nest</text><text x="40" y="2050" fill="#fdf200">Marsupilami</text><text x="40" y="2120" fill="#eebb55">Oh My Gold</text><text x="40" y="2190" fill="#66cccc">Petrichor</text><text x="40" y="2260" fill="#ffddcc">Plastic Marble</text><text x="40" y="2330" fill="#66dddd">Pluviophile</text><text x="40" y="2400" fill="#c9e7e3">Polar Expedition</text><text x="40" y="2470" fill="#eeaa44">Polished Gold</text><text x="40" y="2540" fill="#332244">Power Outage</text><text x="40" y="2610" fill="#e8dbdf">Rare White Raven</text><text x="40" y="2680" fill="#440011">Rhinoceros Beetle</text><text x="40" y="2750" fill="#bacad4">Salty Tears</text><text x="40" y="2820" fill="#1199bb">Serene Blue</text><text x="40" y="2890" fill="#333344">Shuriken</text><text x="40" y="2960" fill="#5588ff">Skinny Jeans</text><text x="40" y="3030" fill="#d5e3d0">Sweet Mint Tea</text><text x="40" y="3100" fill="#dcdfe5">Terminator Chrome</text><text x="40" y="3170" fill="#ddaaff">Testosterose</text><text x="40" y="3240" fill="#bbe4ea">Tip of the Iceberg</text><text x="40" y="3310" fill="#aa8877">Vagabond</text><text x="40" y="3380" fill="#d3cccd">Watermill Wood</text>
</svg>