<svg xmlns="http://www.w3.org/2000/svg" viewBox="0 0 600 2670">
  <defs>
    <style type="text/css">
      @import url('https://rsms.me/inter/inter.css');
      text {
        font-family: Inter, -apple-system, BlinkMacSystemFont, "Segoe UI", Roboto, Helvetica, Arial, sans-serif, "Apple Color Emoji", "Segoe UI Emoji", "Segoe UI Symbol";
        font-size: 40px;
        font-weight: 900;
      }
    </style>
  </defs>
  <rect fill="#212121" x="0" y="0" width="600" height="2670"/>
  <text x="40" y="90" fill="#495a67">Fly-by-Night</text><text x="40" y="160" fill="#f4e2cf">Fondant</text><text x="40" y="230" fill="#96834a">G.I.</text><text x="40" y="300" fill="#4f4a52">Galaxy</text><text x="40" y="370" fill="#9fac98">Garden</text><text x="40" y="440" fill="#8a8d66">Garden of Paradise</text><text x="40" y="510" fill="#66bb8d">Garden Variety</text><text x="40" y="580" fill="#abd0ea">Gentle Wind</text><text x="40" y="650" fill="#9fc0ce">Gift of the Sea</text><text x="40" y="720" fill="#996251">Ginger Gold</text><text x="40" y="790" fill="#f3e9bd">Ginseng</text><text x="40" y="860" fill="#007488">Glamour Green</text><text x="40" y="930" fill="#f88517">Glorious Sunset</text><text x="40" y="1000" fill="#efe17e">Golden Blonde</text><text x="40" y="1070" fill="#eeb574">Golden Chime</text><text x="40" y="1140" fill="#f0b672">Golden Corn</text><text x="40" y="1210" fill="#ffc64d">Golden Promise</text><text x="40" y="1280" fill="#807872">Gotham</text><text x="40" y="1350" fill="#cb5c45">Grand Duke</text><text x="40" y="1420" fill="#9b4682">Grape Riot</text><text x="40" y="1490" fill="#6a9d5d">Green Hornet</text><text x="40" y="1560" fill="#a34e25">Hamburger</text><text x="40" y="1630" fill="#eacb9d">Harvest</text><text x="40" y="1700" fill="#d28a47">Hazelnut Coffee</text><text x="40" y="1770" fill="#2c5674">Heavy Blue</text><text x="40" y="1840" fill="#f0d8af">Homey Cream</text><text x="40" y="1910" fill="#9b8097">Lady Like</text><text x="40" y="1980" fill="#cbbbcd">Last of the Lilacs</text><text x="40" y="2050" fill="#f2e08e">Late Day Sun</text><text x="40" y="2120" fill="#a6cc72">Lick of Lime</text><text x="40" y="2190" fill="#97b73a">Limolicious</text><text x="40" y="2260" fill="#f7eb73">Limon</text><text x="40" y="2330" fill="#969389">Lost Space</text><text x="40" y="2400" fill="#d4d8ce">Luna</text><text x="40" y="2470" fill="#d4b75d">Luxurious</text><text x="40" y="2540" fill="#365f8c">Luxurious Blue</text><text x="40" y="2610" fill="#6b717a">Made in the Shade</text>
</svg>