<svg xmlns="http://www.w3.org/2000/svg" viewBox="0 0 600 2670">
  <defs>
    <style type="text/css">
      @import url('https://rsms.me/inter/inter.css');
      text {
        font-family: Inter, -apple-system, BlinkMacSystemFont, "Segoe UI", Roboto, Helvetica, Arial, sans-serif, "Apple Color Emoji", "Segoe UI Emoji", "Segoe UI Symbol";
        font-size: 40px;
        font-weight: 900;
      }
    </style>
  </defs>
  <rect fill="#212121" x="0" y="0" width="600" height="2670"/>
  <text x="40" y="90" fill="#886b2e">Aged Antics</text><text x="40" y="160" fill="#4e3e1f">Avocado Stone</text><text x="40" y="230" fill="#620b15">Cherry Picking</text><text x="40" y="300" fill="#f5811a">Consumed by Fire</text><text x="40" y="370" fill="#4da48b">Corrosion Green</text><text x="40" y="440" fill="#54d905">Corrosive Green</text><text x="40" y="510" fill="#a4a404">Countryside</text><text x="40" y="580" fill="#060b14">Dark Rift</text><text x="40" y="650" fill="#e9aa71">Dune King</text><text x="40" y="720" fill="#22606e">Excellence</text><text x="40" y="790" fill="#85b3f3">Fly Away</text><text x="40" y="860" fill="#faa9bb">Fresh on the Market</text><text x="40" y="930" fill="#eddf5e">Garlic Butter</text><text x="40" y="1000" fill="#5c7f76">Hanging Moss</text><text x="40" y="1070" fill="#c4ecf0">Icy Breeze</text><text x="40" y="1140" fill="#49017e">Invasive Indigo</text><text x="40" y="1210" fill="#de9930">Kingpin Gold</text><text x="40" y="1280" fill="#d4696d">Lipstick Illusion</text><text x="40" y="1350" fill="#f246a7">Major Magenta</text><text x="40" y="1420" fill="#38796c">Maturity</text><text x="40" y="1490" fill="#a0e2d4">Menthol Kiss</text><text x="40" y="1560" fill="#e8cef6">Mousse aux Pruneaux</text><text x="40" y="1630" fill="#2e7073">Nordmann Fir</text><text x="40" y="1700" fill="#dbdbf7">Nostalgia Perfume</text><text x="40" y="1770" fill="#b1714c">Not Yet Caramel</text><text x="40" y="1840" fill="#f26d8f">Out of Fashion</text><text x="40" y="1910" fill="#fae17f">Pasta Luego</text><text x="40" y="1980" fill="#f7b565">Peanut Butter Biscuit</text><text x="40" y="2050" fill="#943589">Purple Excellency</text><text x="40" y="2120" fill="#1c3b42">Royal Neptune</text><text x="40" y="2190" fill="#314662">Stay the Night</text><text x="40" y="2260" fill="#c39c55">Steampunk Gold</text><text x="40" y="2330" fill="#6f3b34">Steampunk Leather</text><text x="40" y="2400" fill="#1c3d44">Sunken Harbor</text><text x="40" y="2470" fill="#4d8871">Think Leaf</text><text x="40" y="2540" fill="#c1fdc9">Toxic Steam</text><text x="40" y="2610" fill="#dbd8da">Urban Snowfall</text>
</svg>