<svg xmlns="http://www.w3.org/2000/svg" viewBox="0 0 600 6800">
  <defs>
    <style type="text/css">
      @import url('https://rsms.me/inter/inter.css');
      text {
        font-family: Inter, -apple-system, BlinkMacSystemFont, "Segoe UI", Roboto, Helvetica, Arial, sans-serif, "Apple Color Emoji", "Segoe UI Emoji", "Segoe UI Symbol";
        font-size: 40px;
        font-weight: 900;
      }
    </style>
  </defs>
  <rect fill="#212121" x="0" y="0" width="600" height="6800"/>
  <text x="40" y="90" fill="#4b789b">Antarctic Blue</text><text x="40" y="160" fill="#bfd2d0">Antarctica</text><text x="40" y="230" fill="#05696b">Aqua Obscura</text><text x="40" y="300" fill="#711518">Arterial</text><text x="40" y="370" fill="#16141c">Back in Black</text><text x="40" y="440" fill="#726747">Back to Basics</text><text x="40" y="510" fill="#411900">Bath in Chocolate</text><text x="40" y="580" fill="#d6c5b4">Beige Chalk</text><text x="40" y="650" fill="#89acda">Birdie Num Num</text><text x="40" y="720" fill="#505150">Blank Space</text><text x="40" y="790" fill="#c53d43">Bloody Safflower</text><text x="40" y="860" fill="#007290">Blue Fjord</text><text x="40" y="930" fill="#b4ccc2">Blue Fluorite</text><text x="40" y="1000" fill="#289dbe">Blue Horizon</text><text x="40" y="1070" fill="#009dc4">Blue Ocean</text><text x="40" y="1140" fill="#9e4d28">Catlinite</text><text x="40" y="1210" fill="#af604d">Clay Figure</text><text x="40" y="1280" fill="#f9cec6">Cloud Number Nine</text><text x="40" y="1350" fill="#cabeae">Crepey Chest</text><text x="40" y="1420" fill="#44413c">Deepest Nightmare</text><text x="40" y="1490" fill="#253f4e">Depths of the Nile</text><text x="40" y="1560" fill="#a9af99">Ending Spring</text><text x="40" y="1630" fill="#fd3c06">Fire Opal</text><text x="40" y="1700" fill="#decfb3">Found Fossil</text><text x="40" y="1770" fill="#1ca350">Full Energy</text><text x="40" y="1840" fill="#ad4e1a">Funky Monkey</text><text x="40" y="1910" fill="#bcb7ad">Ghost Writer</text><text x="40" y="1980" fill="#fcf3dd">Glass of Milk</text><text x="40" y="2050" fill="#caaf81">Gold Perennial</text><text x="40" y="2120" fill="#f6eeed">Grannie’s Pearls</text><text x="40" y="2190" fill="#3f9b0b">Grass is Greener</text><text x="40" y="2260" fill="#146b47">Green Caterpillar</text><text x="40" y="2330" fill="#6e7a77">Green Dusk</text><text x="40" y="2400" fill="#00988e">Green Dynasty</text><text x="40" y="2470" fill="#47694f">Green Perennial</text><text x="40" y="2540" fill="#6e6969">Grey Charcoal</text><text x="40" y="2610" fill="#abafae">Grey Mirage</text><text x="40" y="2680" fill="#742719">Hazelnut Kisses</text><text x="40" y="2750" fill="#00aa11">Hedged Garden</text><text x="40" y="2820" fill="#d7bb80">Honeymoon</text><text x="40" y="2890" fill="#b1403a">Italian Red</text><text x="40" y="2960" fill="#afc9dc">Life at Sea</text><text x="40" y="3030" fill="#e5cdbe">Life is a Peach</text><text x="40" y="3100" fill="#e19b42">Life is Good</text><text x="40" y="3170" fill="#726e68">Light Charcoal</text><text x="40" y="3240" fill="#f5dee2">Lily the Pink</text><text x="40" y="3310" fill="#d0f0c0">Maroccan Tea</text><text x="40" y="3380" fill="#545883">Mauve Dusk</text><text x="40" y="3450" fill="#f8de7f">Mellow Dandelion</text><text x="40" y="3520" fill="#f47869">Melon Refresher</text><text x="40" y="3590" fill="#faf7f0">Milk Jug</text><text x="40" y="3660" fill="#2f8351">Monster Monstera</text><text x="40" y="3730" fill="#867e36">Mossy Meadow</text><text x="40" y="3800" fill="#ac7e04">Murder Mustard</text><text x="40" y="3870" fill="#9556eb">Navy Genesis Evangelion</text><text x="40" y="3940" fill="#6b6047">Ochicha Latte</text><text x="40" y="4010" fill="#bd273a">Opening Ribbon</text><text x="40" y="4080" fill="#fe4c40">Orange Dusk</text><text x="40" y="4150" fill="#8b8265">Overgrown Granite</text><text x="40" y="4220" fill="#e7d1dd">Pale Flamingo</text><text x="40" y="4290" fill="#8ddee1">Paradisiacal Getaway</text><text x="40" y="4360" fill="#66d0c0">Patina</text><text x="40" y="4430" fill="#f5d1c8">Pink Cloud</text><text x="40" y="4500" fill="#f6909d">Pink Geranium</text><text x="40" y="4570" fill="#ff1dcd">Pink Glamour</text><text x="40" y="4640" fill="#faddd5">Pink Parfait</text><text x="40" y="4710" fill="#6a6a6f">Plum Charcoal</text><text x="40" y="4780" fill="#9b4b80">Plum Passion</text><text x="40" y="4850" fill="#8fd400">Poisonous Mints</text><text x="40" y="4920" fill="#b68692">Punched Pink</text><text x="40" y="4990" fill="#e0e6f0">Radiant Moon</text><text x="40" y="5060" fill="#ff4040">Red Coral</text><text x="40" y="5130" fill="#d76968">Red Geranium</text><text x="40" y="5200" fill="#c01141">Red Jalapeño</text><text x="40" y="5270" fill="#7f4e47">Revival of the Red</text><text x="40" y="5340" fill="#002244">Rhapsody in Blue</text><text x="40" y="5410" fill="#eed1cd">Romantic Déjà Vu</text><text x="40" y="5480" fill="#c77579">Rosa Chinensis</text><text x="40" y="5550" fill="#5ca904">Ruminant’s Paradise</text><text x="40" y="5620" fill="#8db600">Seasoned Green</text><text x="40" y="5690" fill="#007d58">Sharp Green</text><text x="40" y="5760" fill="#7bb369">Soon to be Hay</text><text x="40" y="5830" fill="#f6e6e2">Spring Petal</text><text x="40" y="5900" fill="#ebbbbe">Star of the Morning</text><text x="40" y="5970" fill="#7a807a">Stone Monument</text><text x="40" y="6040" fill="#3e9eac">Teal Glacier</text><text x="40" y="6110" fill="#834841">Think Brick</text><text x="40" y="6180" fill="#bf6153">Too hot to Handle</text><text x="40" y="6250" fill="#ffa8a6">Upstream Salmon</text><text x="40" y="6320" fill="#c6ec7a">Venomous Sting</text><text x="40" y="6390" fill="#8f7da5">Violet Chalk</text><text x="40" y="6460" fill="#f2f2ed">White Cloud</text><text x="40" y="6530" fill="#f5f4e6">White Mirage</text><text x="40" y="6600" fill="#f7f1e2">White Swan</text><text x="40" y="6670" fill="#f0dccb">Winners Shower</text><text x="40" y="6740" fill="#fdee73">Yellow Sand</text>
</svg>