<svg xmlns="http://www.w3.org/2000/svg" viewBox="0 0 600 4630">
  <defs>
    <style type="text/css">
      @import url('https://rsms.me/inter/inter.css');
      text {
        font-family: Inter, -apple-system, BlinkMacSystemFont, "Segoe UI", Roboto, Helvetica, Arial, sans-serif, "Apple Color Emoji", "Segoe UI Emoji", "Segoe UI Symbol";
        font-size: 40px;
        font-weight: 900;
      }
    </style>
  </defs>
  <rect fill="#212121" x="0" y="0" width="600" height="4630"/>
  <text x="40" y="90" fill="#166461">Abduction</text><text x="40" y="160" fill="#88ccee">Airy Blue</text><text x="40" y="230" fill="#9f9586">Aluminum</text><text x="40" y="300" fill="#d42e5b">Azalea</text><text x="40" y="370" fill="#93b4d7">Blue Bell</text><text x="40" y="440" fill="#335599">Blue Bonnet</text><text x="40" y="510" fill="#faedd2">Bread and Butter</text><text x="40" y="580" fill="#ea738d">Bubblegum</text><text x="40" y="650" fill="#6e6969">Charcoal Grey</text><text x="40" y="720" fill="#ee2244">Charismatic Red</text><text x="40" y="790" fill="#66bbdd">Clear Weather</text><text x="40" y="860" fill="#b8a9af">Cloud Grey</text><text x="40" y="930" fill="#885555">Conifer Cone</text><text x="40" y="1000" fill="#ffbbaa">Coral Beach</text><text x="40" y="1070" fill="#7391c8">Cornflower Blue</text><text x="40" y="1140" fill="#ffbb99">Cream Puff</text><text x="40" y="1210" fill="#305679">Dark Blue</text><text x="40" y="1280" fill="#aabb00">Dark Citron</text><text x="40" y="1350" fill="#005588">Dark Denim</text><text x="40" y="1420" fill="#884455">Dark Earth</text><text x="40" y="1490" fill="#303f3d">Darkest Spruce</text><text x="40" y="1560" fill="#771133">Deep Claret</text><text x="40" y="1630" fill="#55aa66">Deep Mint</text><text x="40" y="1700" fill="#ddc75b">Duck Butter</text><text x="40" y="1770" fill="#a5ddea">Early July</text><text x="40" y="1840" fill="#b1d2df">Early June</text><text x="40" y="1910" fill="#008c45">Fern Green</text><text x="40" y="1980" fill="#8fadbd">Forget Me Not</text><text x="40" y="2050" fill="#556699">Harbor Blue</text><text x="40" y="2120" fill="#3c3d4c">India Ink</text><text x="40" y="2190" fill="#779977">Jade Green</text><text x="40" y="2260" fill="#339c5e">Kelly Green</text><text x="40" y="2330" fill="#e6d1b2">Lambs Wool</text><text x="40" y="2400" fill="#dcc6d2">Light Lilac</text><text x="40" y="2470" fill="#aa5511">Light Mahogany</text><text x="40" y="2540" fill="#b19d8d">Light Taupe</text><text x="40" y="2610" fill="#9fc131">Lime Green</text><text x="40" y="2680" fill="#9b9fb5">Minnesota April</text><text x="40" y="2750" fill="#487d49">Mint Green</text><text x="40" y="2820" fill="#615d5c">Night Gull Grey</text><text x="40" y="2890" fill="#dd6644">Old Cheddar</text><text x="40" y="2960" fill="#71383f">Oxblood Red</text><text x="40" y="3030" fill="#ecccc1">Pale Dogwood</text><text x="40" y="3100" fill="#998877">Pale Khaki</text><text x="40" y="3170" fill="#ffbb44">Pale Marigold</text><text x="40" y="3240" fill="#999911">Papyrus</text><text x="40" y="3310" fill="#5a315d">Plum</text><text x="40" y="3380" fill="#9e4624">Potter's Clay</text><text x="40" y="3450" fill="#ffbb88">Reddish Banana</text><text x="40" y="3520" fill="#664480">Regality</text><text x="40" y="3590" fill="#514100">Roman Bronze Coin</text><text x="40" y="3660" fill="#ac8760">Roman Coin</text><text x="40" y="3730" fill="#887766">Sage Green</text><text x="40" y="3800" fill="#99bb88">Seafoam Green</text><text x="40" y="3870" fill="#eee9dc">Silk Dessou</text><text x="40" y="3940" fill="#6688bb">Smoke Blue</text><text x="40" y="4010" fill="#444400">Storm</text><text x="40" y="4080" fill="#bbd5ef">Summer Birthday</text><text x="40" y="4150" fill="#d08344">Topaz</text><text x="40" y="4220" fill="#117700">Toy Camouflage</text><text x="40" y="4290" fill="#7e8692">Tradewinds</text><text x="40" y="4360" fill="#6600cc">Trusted Purple</text><text x="40" y="4430" fill="#be9785">Tuscany</text><text x="40" y="4500" fill="#663366">Wineberry</text><text x="40" y="4570" fill="#bad5d4">Wingsuit Wind</text>
</svg>