<svg xmlns="http://www.w3.org/2000/svg" viewBox="0 0 600 3300">
  <defs>
    <style type="text/css">
      @import url('https://rsms.me/inter/inter.css');
      text {
        font-family: Inter, -apple-system, BlinkMacSystemFont, "Segoe UI", Roboto, Helvetica, Arial, sans-serif, "Apple Color Emoji", "Segoe UI Emoji", "Segoe UI Symbol";
        font-size: 40px;
        font-weight: 900;
      }
    </style>
  </defs>
  <rect fill="#212121" x="0" y="0" width="600" height="3300"/>
  <text x="40" y="90" fill="#ffaaaa">Apricot Haze</text><text x="40" y="160" fill="#ff017f">Berry Blast</text><text x="40" y="230" fill="#a81c1d">Bloody Ruby</text><text x="40" y="300" fill="#b5cc18">Chartreuse Spark</text><text x="40" y="370" fill="#c71414">Cherry Crush</text><text x="40" y="440" fill="#8bc34a">Citrus Surge</text><text x="40" y="510" fill="#c13939">Crimson Glow</text><text x="40" y="580" fill="#cd00fe">Electric Orchid</text><text x="40" y="650" fill="#50c777">Emerald Rush</text><text x="40" y="720" fill="#5c821a">Enchanted Forest</text><text x="40" y="790" fill="#166d29">Enchanted Glen</text><text x="40" y="860" fill="#045e17">Evergreen Shade</text><text x="40" y="930" fill="#81c784">Exhilarating Green</text><text x="40" y="1000" fill="#6aa84f">Fern Flash</text><text x="40" y="1070" fill="#b71e1e">Fiery Garnet</text><text x="40" y="1140" fill="#b42121">Flamingo Fervor</text><text x="40" y="1210" fill="#ff01cd">Fuchsia Flame</text><text x="40" y="1280" fill="#6ba520">Herbal Lift</text><text x="40" y="1350" fill="#fe69b6">Hot Pink Fusion</text><text x="40" y="1420" fill="#7bb92b">Jubilant Meadow</text><text x="40" y="1490" fill="#7bc027">Kiwi Crush</text><text x="40" y="1560" fill="#08690e">Leafy Lush</text><text x="40" y="1630" fill="#2e7d32">Lush Paradise</text><text x="40" y="1700" fill="#ed24ed">Magenta Fizz</text><text x="40" y="1770" fill="#7effba">Mint Bliss</text><text x="40" y="1840" fill="#789b4a">Mossy Glossy</text><text x="40" y="1910" fill="#6d8e2c">Olive Thrill</text><text x="40" y="1980" fill="#dbbc6c">Pineapple Wine</text><text x="40" y="2050" fill="#659c35">Radiant Foliage</text><text x="40" y="2120" fill="#e31b5d">Radiant Raspberry</text><text x="40" y="2190" fill="#f62217">Raspberry Rave</text><text x="40" y="2260" fill="#bb1e1e">Red Inferno</text><text x="40" y="2330" fill="#ca1b1b">Red Rhapsody</text><text x="40" y="2400" fill="#3d8b37">Resplendent Growth</text><text x="40" y="2470" fill="#9d2626">Rustic Rouge</text><text x="40" y="2540" fill="#b21f1f">Scarlet Blaze</text><text x="40" y="2610" fill="#7b9f4b">Serene Sage</text><text x="40" y="2680" fill="#dea392">Shy Champagne Blush</text><text x="40" y="2750" fill="#b21d1d">Siren Scarlet</text><text x="40" y="2820" fill="#8cc34b">Thrilling Lime</text><text x="40" y="2890" fill="#62c46c">Verdant Oasis</text><text x="40" y="2960" fill="#7f9e5b">Verdant Serenade</text><text x="40" y="3030" fill="#0e7c36">Verdant Vale</text><text x="40" y="3100" fill="#9400d4">Vibrant Violet</text><text x="40" y="3170" fill="#87c95f">Vivid Spring</text><text x="40" y="3240" fill="#0d6323">Woodland Wonder</text>
</svg>