<svg xmlns="http://www.w3.org/2000/svg" viewBox="0 0 600 5330">
  <defs>
    <style type="text/css">
      @import url('https://rsms.me/inter/inter.css');
      text {
        font-family: Inter, -apple-system, BlinkMacSystemFont, "Segoe UI", Roboto, Helvetica, Arial, sans-serif, "Apple Color Emoji", "Segoe UI Emoji", "Segoe UI Symbol";
        font-size: 40px;
        font-weight: 900;
      }
    </style>
  </defs>
  <rect fill="#212121" x="0" y="0" width="600" height="5330"/>
  <text x="40" y="90" fill="#dcd7cc">Athena</text><text x="40" y="160" fill="#3f74b1">Athens</text><text x="40" y="230" fill="#f4c4a5">Australian Apricot</text><text x="40" y="300" fill="#af865b">Autumn</text><text x="40" y="370" fill="#c44e4f">Autumn Fire</text><text x="40" y="440" fill="#afb8ba">Autumn Fog</text><text x="40" y="510" fill="#e9874e">Autumn Glimmer</text><text x="40" y="580" fill="#fe9a50">Autumn Splendor</text><text x="40" y="650" fill="#b5695a">Badlands</text><text x="40" y="720" fill="#c98f70">Baker's Dream</text><text x="40" y="790" fill="#f7d5d4">Ballet</text><text x="40" y="860" fill="#fca2ad">Ballet Slippers</text><text x="40" y="930" fill="#faf3a6">Banan-appeal</text><text x="40" y="1000" fill="#d8e9db">Bath</text><text x="40" y="1070" fill="#9c9895">Battleship</text><text x="40" y="1140" fill="#efe4bb">Beach</text><text x="40" y="1210" fill="#4f7694">Beach View</text><text x="40" y="1280" fill="#766e65">Bear</text><text x="40" y="1350" fill="#ae6b52">Bear Claw</text><text x="40" y="1420" fill="#836452">Bear Creek</text><text x="40" y="1490" fill="#b08f69">Beast Hide</text><text x="40" y="1560" fill="#0c6064">Beau Vert</text><text x="40" y="1630" fill="#c99680">Beauty and the Beach</text><text x="40" y="1700" fill="#25a26f">Bejewelled</text><text x="40" y="1770" fill="#626a60">Belmont Green</text><text x="40" y="1840" fill="#d8cfb6">Berber</text><text x="40" y="1910" fill="#d75e6c">Berrylicious</text><text x="40" y="1980" fill="#6a393c">Bewitched</text><text x="40" y="2050" fill="#cddfe7">Bird Bath Blue</text><text x="40" y="2120" fill="#0f282f">Black Box</text><text x="40" y="2190" fill="#102c33">Black Chasm</text><text x="40" y="2260" fill="#0f1519">Black is Back</text><text x="40" y="2330" fill="#f6dcd0">Blanched</text><text x="40" y="2400" fill="#b8524b">Blazer</text><text x="40" y="2470" fill="#d6d8d1">Blizzard Fog</text><text x="40" y="2540" fill="#404664">Blue Wonder</text><text x="40" y="2610" fill="#c7dbe4">Breath of Fresh Air</text><text x="40" y="2680" fill="#f0dbaa">Brilliant Gold</text><text x="40" y="2750" fill="#c7c8c9">Brushed Metal</text><text x="40" y="2820" fill="#acd243">Burst of Lime</text><text x="40" y="2890" fill="#f7f0d2">Buttered Up</text><text x="40" y="2960" fill="#f6cac3">Cake Pop Pink</text><text x="40" y="3030" fill="#b1936d">Caramel Gold</text><text x="40" y="3100" fill="#d10929">Cardinal Rage</text><text x="40" y="3170" fill="#caf0e5">Caribbean</text><text x="40" y="3240" fill="#007180">Caribbean Dream</text><text x="40" y="3310" fill="#bb534c">Carmelito</text><text x="40" y="3380" fill="#818070">Gunsmith</text><text x="40" y="3450" fill="#e1e2c2">Healing Springs</text><text x="40" y="3520" fill="#b4ced5">Heaven</text><text x="40" y="3590" fill="#f9a4a4">Her Majesty</text><text x="40" y="3660" fill="#708452">Herb</text><text x="40" y="3730" fill="#4b856c">Herb Blend</text><text x="40" y="3800" fill="#a9a487">Herbes</text><text x="40" y="3870" fill="#9a8ec1">Hermosa</text><text x="40" y="3940" fill="#e4d5b9">Hidden Path</text><text x="40" y="4010" fill="#1b8cb6">Hidden Springs</text><text x="40" y="4080" fill="#7dabd8">High Seas</text><text x="40" y="4150" fill="#80bf69">Hillside Grove</text><text x="40" y="4220" fill="#ffd66d">Hint of Honey</text><text x="40" y="4290" fill="#c7af4a">Hollywood</text><text x="40" y="4360" fill="#63884a">Homegrown</text><text x="40" y="4430" fill="#d7bb80">Honeymoon</text><text x="40" y="4500" fill="#96cbf1">Honolulu</text><text x="40" y="4570" fill="#ec4f28">Hot Shot</text><text x="40" y="4640" fill="#33534b">Hunter</text><text x="40" y="4710" fill="#94d4e4">Infinity Pool</text><text x="40" y="4780" fill="#fe486c">Infrared</text><text x="40" y="4850" fill="#398a59">Irish</text><text x="40" y="4920" fill="#4abca0">Jolt of Jade</text><text x="40" y="4990" fill="#d99290">Juicy Peach</text><text x="40" y="5060" fill="#a73a3e">Kabuki</text><text x="40" y="5130" fill="#d3c7bc">Kitten</text><text x="40" y="5200" fill="#c7bdb3">Kitty Kitty</text><text x="40" y="5270" fill="#ff3f6a">Laser Trap</text>
</svg>