<svg xmlns="http://www.w3.org/2000/svg" viewBox="0 0 600 10230">
  <defs>
    <style type="text/css">
      @import url('https://rsms.me/inter/inter.css');
      text {
        font-family: Inter, -apple-system, BlinkMacSystemFont, "Segoe UI", Roboto, Helvetica, Arial, sans-serif, "Apple Color Emoji", "Segoe UI Emoji", "Segoe UI Symbol";
        font-size: 40px;
        font-weight: 900;
      }
    </style>
  </defs>
  <rect fill="#212121" x="0" y="0" width="600" height="10230"/>
  <text x="40" y="90" fill="#ffccda">A Bloomed Cherry Blossom</text><text x="40" y="160" fill="#939899">African Grey</text><text x="40" y="230" fill="#d1cbc1">Agreeable Grey</text><text x="40" y="300" fill="#c9c9c0">Aloof Grey</text><text x="40" y="370" fill="#ffaaa5">Alright Then I Became a Princess</text><text x="40" y="440" fill="#beb5a9">Amazing Grey</text><text x="40" y="510" fill="#bfb6a7">Analytical Grey</text><text x="40" y="580" fill="#beb6ab">Anew Grey</text><text x="40" y="650" fill="#7c7d75">Attitude Grey</text><text x="40" y="720" fill="#bebfb2">Austere Grey</text><text x="40" y="790" fill="#bababa">Baby Talk Grey</text><text x="40" y="860" fill="#ffc5b3">Ballet Skirt</text><text x="40" y="930" fill="#3aa2c6">Blue Raspberry Seed</text><text x="40" y="1000" fill="#3a4866">Bonne Nuit</text><text x="40" y="1070" fill="#515051">Briquette Grey</text><text x="40" y="1140" fill="#ffbadf">Bubbelgum Heart</text><text x="40" y="1210" fill="#988f7b">Bunglehouse Beige</text><text x="40" y="1280" fill="#ff0599">Burning Raspberry</text><text x="40" y="1350" fill="#fff0de">Candy Floss Cupcake</text><text x="40" y="1420" fill="#a09287">Chatura Beige</text><text x="40" y="1490" fill="#b6b7b0">Chelsea Grey</text><text x="40" y="1560" fill="#888782">Classic French Grey</text><text x="40" y="1630" fill="#ff9d0a">Clementine Earring</text><text x="40" y="1700" fill="#605e63">Cloak Grey</text><text x="40" y="1770" fill="#6f0c0d">Coffee Brick</text><text x="40" y="1840" fill="#b4b9b9">Colonial Revival Grey</text><text x="40" y="1910" fill="#c6c0b6">Colonnade Stone</text><text x="40" y="1980" fill="#bec3bb">Comfort Grey</text><text x="40" y="2050" fill="#898473">Connected Grey</text><text x="40" y="2120" fill="#d1d0c6">Conservative Grey</text><text x="40" y="2190" fill="#ffdad9">Cottagecore Sunset</text><text x="40" y="2260" fill="#988977">Curio Brown</text><text x="40" y="2330" fill="#333232">Dark Charcoal</text><text x="40" y="2400" fill="#515763">Dark Mineral</text><text x="40" y="2470" fill="#dead00">Deadly Yellow</text><text x="40" y="2540" fill="#aca79e">Dorian Grey</text><text x="40" y="2610" fill="#ffdf2b">Down on the Sunflower Valley</text><text x="40" y="2680" fill="#ffdb0b">Egg Yolk Sunrise</text><text x="40" y="2750" fill="#aaa9a4">Ellie Grey</text><text x="40" y="2820" fill="#abac9f">Escape Grey</text><text x="40" y="2890" fill="#bcb8b6">Essential Grey</text><text x="40" y="2960" fill="#ffebfe">Fairy Bubblegum Cloud</text><text x="40" y="3030" fill="#ffe0f5">Fairy Salt</text><text x="40" y="3100" fill="#bdb8b8">Fashionable Grey</text><text x="40" y="3170" fill="#112358">Fibonacci Blue</text><text x="40" y="3240" fill="#505050">Fiftieth Shade of Grey</text><text x="40" y="3310" fill="#b1a3a1">Flexible Grey</text><text x="40" y="3380" fill="#afa696">Forgotten Sandstone</text><text x="40" y="3450" fill="#aba39a">Functional Grey</text><text x="40" y="3520" fill="#756861">Garret Brown</text><text x="40" y="3590" fill="#b2ac9c">Gateway Pillar</text><text x="40" y="3660" fill="#78736e">Gauntlet Grey</text><text x="40" y="3730" fill="#ffdb29">Golden Honey Suckle</text><text x="40" y="3800" fill="#b7b7b2">Grey Clouds</text><text x="40" y="3870" fill="#a7a8a2">Grey Matters</text><text x="40" y="3940" fill="#b0b7be">Grey Pearl Sand</text><text x="40" y="4010" fill="#c6caca">Grey Screen</text><text x="40" y="4080" fill="#baaaaa">Grey Sheep</text><text x="40" y="4150" fill="#949392">Grey Shingle</text><text x="40" y="4220" fill="#959491">Grey Summit</text><text x="40" y="4290" fill="#616669">Grey Web</text><text x="40" y="4360" fill="#cfcac7">Greyish</text><text x="40" y="4430" fill="#a8a495">Greyish Beige</text><text x="40" y="4500" fill="#596368">Greys Harbor</text><text x="40" y="4570" fill="#636562">Grizzle Grey</text><text x="40" y="4640" fill="#666d69">Homburg Grey</text><text x="40" y="4710" fill="#ff4400">Inferno Orange</text><text x="40" y="4780" fill="#a8a093">Intellectual Grey</text><text x="40" y="4850" fill="#ffb278">Isn't It Just Peachy</text><text x="40" y="4920" fill="#9e9284">Keystone Taupe</text><text x="40" y="4990" fill="#dedede">Kingly Cloud</text><text x="40" y="5060" fill="#b15363">Kissed by a Zombies</text><text x="40" y="5130" fill="#bec1c3">Lazy Grey</text><text x="40" y="5200" fill="#c2c0bb">Light French Taupe</text><text x="40" y="5270" fill="#7f7e72">Link Grey</text><text x="40" y="5340" fill="#ff4505">Lurid Red</text><text x="40" y="5410" fill="#b2b5af">Magnetic</text><text x="40" y="5480" fill="#ffb769">Mango Creamsicles</text><text x="40" y="5550" fill="#ffbb4d">Mango Latte</text><text x="40" y="5620" fill="#ffb81b">Master Nacho</text><text x="40" y="5690" fill="#bdb5ad">Mindful Grey</text><text x="40" y="5760" fill="#d5cec2">Modern Grey</text><text x="40" y="5830" fill="#bad147">Mossy Shining Gold</text><text x="40" y="5900" fill="#a0a5a7">Network Grey</text><text x="40" y="5970" fill="#303030">Off Black</text><text x="40" y="6040" fill="#ffb710">Orange Creamsicle</text><text x="40" y="6110" fill="#fff5d9">Pastel Moon Creme</text><text x="40" y="6180" fill="#ffbcbc">Peach Scone</text><text x="40" y="6250" fill="#ffa361">Peaches à La Crème</text><text x="40" y="6320" fill="#ffc996">Peachy Breezes</text><text x="40" y="6390" fill="#ff9b80">Peachy Salmon</text><text x="40" y="6460" fill="#ffd9a8">Peachy Summer Skies</text><text x="40" y="6530" fill="#cbcec5">Pearl Grey</text><text x="40" y="6600" fill="#fcffff">Polar Bear In A Blizzard</text><text x="40" y="6670" fill="#d4ccc3">Popular Beige</text><text x="40" y="6740" fill="#ada8a5">Proper Grey</text><text x="40" y="6810" fill="#ffa74f">Pumpkin Vapour</text><text x="40" y="6880" fill="#ffee15">Pure Sunshine</text><text x="40" y="6950" fill="#ada5a5">Quest Grey</text><text x="40" y="7020" fill="#a6a69b">Rare Grey</text><text x="40" y="7090" fill="#ccc9c0">Repose Grey</text><text x="40" y="7160" fill="#b9b2a9">Requisite Grey</text><text x="40" y="7230" fill="#c2bdb1">Roycroft Mist Grey</text><text x="40" y="7300" fill="#ffa857">Sailing Tangerine</text><text x="40" y="7370" fill="#ffdfc2">Sand Muffin</text><text x="40" y="7440" fill="#d1cdbf">Sedate Grey</text><text x="40" y="7510" fill="#837d7f">Sensuous Grey</text><text x="40" y="7580" fill="#7d848b">Serious Cloud</text><text x="40" y="7650" fill="#ffd200">Shining Gold</text><text x="40" y="7720" fill="#b8b2a2">Silver Taupe</text><text x="40" y="7790" fill="#ffdef2">So This Is Love</text><text x="40" y="7860" fill="#ffc8e9">Soulmate Pink</text><text x="40" y="7930" fill="#8d7f75">Spalding Grey</text><text x="40" y="8000" fill="#7b787d">Special Grey</text><text x="40" y="8070" fill="#90979b">Steely Grey</text><text x="40" y="8140" fill="#fff5cf">Stereotypical Duck</text><text x="40" y="8210" fill="#ffebfa">Strawberry Bonbon</text><text x="40" y="8280" fill="#ffdbf7">Strawberry Frost</text><text x="40" y="8350" fill="#ffd9e7">Strawberry Milk</text><text x="40" y="8420" fill="#ffedf1">Sugar Coated</text><text x="40" y="8490" fill="#ffe26a">Sunflower Dandelion</text><text x="40" y="8560" fill="#ffcd01">Sunflower Island</text><text x="40" y="8630" fill="#ffa56e">Sunkissed Coral</text><text x="40" y="8700" fill="#ff9607">Sunset Boulevard</text><text x="40" y="8770" fill="#b5b1b5">Swanky Grey</text><text x="40" y="8840" fill="#fff45a">Sweet Lemon Seed</text><text x="40" y="8910" fill="#ffdee2">Sweet Mallow</text><text x="40" y="8980" fill="#bfb9aa">Techno Taupe</text><text x="40" y="9050" fill="#666420">The Devil's Grass</text><text x="40" y="9120" fill="#fff08c">The First Daffodil</text><text x="40" y="9190" fill="#57534c">Thunder Grey</text><text x="40" y="9260" fill="#e4e4e4">Titanium White</text><text x="40" y="9330" fill="#ffedef">Translucent Unicorn</text><text x="40" y="9400" fill="#c8bfb5">Twilight Beige</text><text x="40" y="9470" fill="#a9a8a9">Ultimate Grey</text><text x="40" y="9540" fill="#a9b0b1">Uncertain Grey</text><text x="40" y="9610" fill="#cbc9c9">Unique Grey</text><text x="40" y="9680" fill="#a3a7a0">Unusual Grey</text><text x="40" y="9750" fill="#cfcabd">Useful Beige</text><text x="40" y="9820" fill="#d1e1e4">Valley of Tears</text><text x="40" y="9890" fill="#ffe6e7">Vanilla Strawberry</text><text x="40" y="9960" fill="#c1b6ab">Versatile Taupe</text><text x="40" y="10030" fill="#797978">Westchester Grey</text><text x="40" y="10100" fill="#050d02">Whiten't</text><text x="40" y="10170" fill="#cec6bf">Worldly Grey</text>
</svg>