<svg xmlns="http://www.w3.org/2000/svg" viewBox="0 0 600 3930">
  <defs>
    <style type="text/css">
      @import url('https://rsms.me/inter/inter.css');
      text {
        font-family: Inter, -apple-system, BlinkMacSystemFont, "Segoe UI", Roboto, Helvetica, Arial, sans-serif, "Apple Color Emoji", "Segoe UI Emoji", "Segoe UI Symbol";
        font-size: 40px;
        font-weight: 900;
      }
    </style>
  </defs>
  <rect fill="#212121" x="0" y="0" width="600" height="3930"/>
  <text x="40" y="90" fill="#ff9944">Absolute Apricot</text><text x="40" y="160" fill="#776600">Arousing Alligator</text><text x="40" y="230" fill="#33ffff">Beaming Blue</text><text x="40" y="300" fill="#77ccff">Bubbly Barracuda</text><text x="40" y="370" fill="#992266">Celestial Dragon</text><text x="40" y="440" fill="#cc1144">Comforting Cherry</text><text x="40" y="510" fill="#22ffff">Crisp Cyan</text><text x="40" y="580" fill="#dd4444">Cute Crab</text><text x="40" y="650" fill="#6688ff">Deep Denim</text><text x="40" y="720" fill="#ddcccc">Delirious Donkey</text><text x="40" y="790" fill="#ff9922">Dragon Ball</text><text x="40" y="860" fill="#ff55cc">Drunken Flamingo</text><text x="40" y="930" fill="#88bbee">Electric Eel</text><text x="40" y="1000" fill="#88cc00">Fabulous Frog</text><text x="40" y="1070" fill="#ff0088">Fancy Fuchsia</text><text x="40" y="1140" fill="#ff5566">Festive Fennec</text><text x="40" y="1210" fill="#99aa66">Gallant Green</text><text x="40" y="1280" fill="#ffdd77">Glossy Gold</text><text x="40" y="1350" fill="#aa9922">Greedy Gecko</text><text x="40" y="1420" fill="#eeaa11">Groovy Giraffe</text><text x="40" y="1490" fill="#dd6622">Hot Hazel</text><text x="40" y="1560" fill="#aaaa99">Humble Hippo</text><text x="40" y="1630" fill="#bb11ff">Hunky Hummingbird</text><text x="40" y="1700" fill="#5533bb">Illustrious Indigo</text><text x="40" y="1770" fill="#aacc00">Immaculate Iguana</text><text x="40" y="1840" fill="#ee1122">Irritated Ibis</text><text x="40" y="1910" fill="#55ddcc">Jazzy Jade</text><text x="40" y="1980" fill="#bb0099">Jealous Jellyfish</text><text x="40" y="2050" fill="#bb00bb">Kinky Koala</text><text x="40" y="2120" fill="#888877">Kosher Khaki</text><text x="40" y="2190" fill="#00ff33">Lucent Lime</text><text x="40" y="2260" fill="#00bb11">Lusty Lizard</text><text x="40" y="2330" fill="#22cc88">Magical Malachite</text><text x="40" y="2400" fill="#aa1133">Melancholic Macaw</text><text x="40" y="2470" fill="#664400">Notorious Neanderthal</text><text x="40" y="2540" fill="#00de00">Nuclear Throne</text><text x="40" y="2610" fill="#775577">Opulent Ostrich</text><text x="40" y="2680" fill="#445533">Oriental Olive</text><text x="40" y="2750" fill="#55ccbb">Peppy Peacock</text><text x="40" y="2820" fill="#7722cc">Puissant Purple</text><text x="40" y="2890" fill="#99bbdd">Rainy Week</text><text x="40" y="2960" fill="#880022">Red Mulled Wine</text><text x="40" y="3030" fill="#bbaaaa">Relaxed Rhino</text><text x="40" y="3100" fill="#ff1144">Rich Red</text><text x="40" y="3170" fill="#cc2266">Sensitive Scorpion</text><text x="40" y="3240" fill="#eee7de">Severe Seal</text><text x="40" y="3310" fill="#f1f1e5">Shattered White</text><text x="40" y="3380" fill="#bb6622">Shutter Copper</text><text x="40" y="3450" fill="#ffaa88">Super Sepia</text><text x="40" y="3520" fill="#772211">Tempered Chocolate</text><text x="40" y="3590" fill="#ee7711">Therapeutic Toucan</text><text x="40" y="3660" fill="#cccc99">Vegetarian Vulture</text><text x="40" y="3730" fill="#eeaa00">Welcoming Wasp</text><text x="40" y="3800" fill="#113300">Witch Wart</text><text x="40" y="3870" fill="#f1f3f3">Zappy Zebra</text>
</svg>