<svg xmlns="http://www.w3.org/2000/svg" viewBox="0 0 600 2670">
  <defs>
    <style type="text/css">
      @import url('https://rsms.me/inter/inter.css');
      text {
        font-family: Inter, -apple-system, BlinkMacSystemFont, "Segoe UI", Roboto, Helvetica, Arial, sans-serif, "Apple Color Emoji", "Segoe UI Emoji", "Segoe UI Symbol";
        font-size: 40px;
        font-weight: 900;
      }
    </style>
  </defs>
  <rect fill="#212121" x="0" y="0" width="600" height="2670"/>
  <text x="40" y="90" fill="#dd9944">Aged Gouda</text><text x="40" y="160" fill="#bbaa88">Bangalore</text><text x="40" y="230" fill="#449933">Beer Garden</text><text x="40" y="300" fill="#bb5511">Bloodhound</text><text x="40" y="370" fill="#11dd00">Caustic Green</text><text x="40" y="440" fill="#9944ee">Chaste Blossoms</text><text x="40" y="510" fill="#c1e2e3">Cold Well Water</text><text x="40" y="580" fill="#0077aa">Deluge</text><text x="40" y="650" fill="#bb6644">Dirt Track</text><text x="40" y="720" fill="#e4d4c0">Fine White Sand</text><text x="40" y="790" fill="#bbcc55">Forsythia Bud</text><text x="40" y="860" fill="#113366">Funnel Cloud</text><text x="40" y="930" fill="#cc7766">Jaded Ginger</text><text x="40" y="1000" fill="#bb6633">June Bugs</text><text x="40" y="1070" fill="#990033">Lifeline</text><text x="40" y="1140" fill="#f5eded">Line Dried Sheets</text><text x="40" y="1210" fill="#11ffff">Looney Blue</text><text x="40" y="1280" fill="#89a203">Noxious</text><text x="40" y="1350" fill="#8272a4">Old Prune</text><text x="40" y="1420" fill="#ddbbbb">Pink Wraith</text><text x="40" y="1490" fill="#b8a02a">Pollen Storm</text><text x="40" y="1560" fill="#eedd66">Pollination</text><text x="40" y="1630" fill="#ccd7df">Poppy's Whiskers</text><text x="40" y="1700" fill="#cc77cc">Purple Kush</text><text x="40" y="1770" fill="#ddbbdd">Romantic Morning</text><text x="40" y="1840" fill="#aa4411">Rusted Lock</text><text x="40" y="1910" fill="#ff9bb7">Saira Red</text><text x="40" y="1980" fill="#aa6622">Sattle</text><text x="40" y="2050" fill="#dd8855">Schnipo</text><text x="40" y="2120" fill="#ee4466">Smudged Lips</text><text x="40" y="2190" fill="#dd99bb">Soft Matte</text><text x="40" y="2260" fill="#a1d7ef">Soft Summer Rain</text><text x="40" y="2330" fill="#112111">Sticky Black Tarmac</text><text x="40" y="2400" fill="#d6d2de">Sword Steel</text><text x="40" y="2470" fill="#dd4411">Tail Lights</text><text x="40" y="2540" fill="#88ddff">Tranquil Pool</text><text x="40" y="2610" fill="#2d135f">Voldemort</text>
</svg>