<svg xmlns="http://www.w3.org/2000/svg" viewBox="0 0 600 3300">
  <defs>
    <style type="text/css">
      @import url('https://rsms.me/inter/inter.css');
      text {
        font-family: Inter, -apple-system, BlinkMacSystemFont, "Segoe UI", Roboto, Helvetica, Arial, sans-serif, "Apple Color Emoji", "Segoe UI Emoji", "Segoe UI Symbol";
        font-size: 40px;
        font-weight: 900;
      }
    </style>
  </defs>
  <rect fill="#212121" x="0" y="0" width="600" height="3300"/>
  <text x="40" y="90" fill="#dd3366">1989 Miami Hotline</text><text x="40" y="160" fill="#225577">3AM in Shibuya</text><text x="40" y="230" fill="#33ee66">Acid Pops</text><text x="40" y="300" fill="#eecc33">Angelic Descent</text><text x="40" y="370" fill="#ee3366">Bat's Blood Soup</text><text x="40" y="440" fill="#eeee44">Biotic Grasp</text><text x="40" y="510" fill="#eedd55">Biotic Orb</text><text x="40" y="580" fill="#00aadd">Blue Fire</text><text x="40" y="650" fill="#996655">Bucking Bronco</text><text x="40" y="720" fill="#eedd22">Caduceus Staff</text><text x="40" y="790" fill="#bb7700">Cassandra's Curse</text><text x="40" y="860" fill="#ff3366">Chinese New Year</text><text x="40" y="930" fill="#eeee66">Crash Dummy</text><text x="40" y="1000" fill="#ddece0">Cryo Freeze</text><text x="40" y="1070" fill="#88ffee">Defense Matrix</text><text x="40" y="1140" fill="#ee99ee">Diva Mecha</text><text x="40" y="1210" fill="#ddbcbc">Fizzing Whizzbees</text><text x="40" y="1280" fill="#ccddcc">Flip a Coin</text><text x="40" y="1350" fill="#ee88ff">Give Me Your Love</text><text x="40" y="1420" fill="#ee4444">Glowing Brake Disc</text><text x="40" y="1490" fill="#11bb55">Intoxicate</text><text x="40" y="1560" fill="#2266cc">Janitor</text><text x="40" y="1630" fill="#de6646">Jelly Slug</text><text x="40" y="1700" fill="#998778">Junkrat</text><text x="40" y="1770" fill="#eeccdd">LA Vibes</text><text x="40" y="1840" fill="#0055bb">London Rain</text><text x="40" y="1910" fill="#dee8e1">Lost in Istanbul</text><text x="40" y="1980" fill="#003355">Night Dive</text><text x="40" y="2050" fill="#003388">One Minute to Midnight</text><text x="40" y="2120" fill="#772299">Orb of Discord</text><text x="40" y="2190" fill="#eedd44">Orb of Harmony</text><text x="40" y="2260" fill="#def3e6">Particle Cannon</text><text x="40" y="2330" fill="#009933">Peppermint Toad</text><text x="40" y="2400" fill="#88ddee">Photon Barrier</text><text x="40" y="2470" fill="#88eeff">Photon Projector</text><text x="40" y="2540" fill="#114444">Rapture</text><text x="40" y="2610" fill="#bb5522">Roland-Garros</text><text x="40" y="2680" fill="#bb88aa">Shock Jockey</text><text x="40" y="2750" fill="#ebe5d7">Sugar Quill</text><text x="40" y="2820" fill="#f8f4d8">Transcendence</text><text x="40" y="2890" fill="#de9832">Treacle Fudge</text><text x="40" y="2960" fill="#998866">Treasure Chamber</text><text x="40" y="3030" fill="#779999">Undertow</text><text x="40" y="3100" fill="#eecc22">Valkyrie</text><text x="40" y="3170" fill="#99aaff">Widowmaker</text><text x="40" y="3240" fill="#aa9966">Wistman's Wood</text>
</svg>