<svg xmlns="http://www.w3.org/2000/svg" viewBox="0 0 600 18490">
  <defs>
    <style type="text/css">
      @import url('https://rsms.me/inter/inter.css');
      text {
        font-family: Inter, -apple-system, BlinkMacSystemFont, "Segoe UI", Roboto, Helvetica, Arial, sans-serif, "Apple Color Emoji", "Segoe UI Emoji", "Segoe UI Symbol";
        font-size: 40px;
        font-weight: 900;
      }
    </style>
  </defs>
  <rect fill="#212121" x="0" y="0" width="600" height="18490"/>
  <text x="40" y="90" fill="#f2850d">À L'Orange</text><text x="40" y="160" fill="#f1cbcd">Abloom</text><text x="40" y="230" fill="#d48948">Acorn Nut</text><text x="40" y="300" fill="#846262">Aged Beech</text><text x="40" y="370" fill="#ceb588">Aged Papyrus</text><text x="40" y="440" fill="#c2a37e">Almandine</text><text x="40" y="510" fill="#8a9480">Aloe Tip</text><text x="40" y="580" fill="#aa8559">Amberized</text><text x="40" y="650" fill="#7b7062">Antique Iron</text><text x="40" y="720" fill="#c5bba8">Antique Kilim</text><text x="40" y="790" fill="#cecac3">Argento</text><text x="40" y="860" fill="#cc6c82">Artful Pink</text><text x="40" y="930" fill="#d2d9da">Ashlin Grey</text><text x="40" y="1000" fill="#e9b4c3">Athena Pink</text><text x="40" y="1070" fill="#bf8284">Baker Rose</text><text x="40" y="1140" fill="#d5b37e">Barley</text><text x="40" y="1210" fill="#5e6f8e">Beguiling Blue</text><text x="40" y="1280" fill="#7082a4">Berwick Berry</text><text x="40" y="1350" fill="#e3b8b7">Bistro Pink</text><text x="40" y="1420" fill="#563342">Blackberry Tart</text><text x="40" y="1490" fill="#e35f1c">Blazon Skies</text><text x="40" y="1560" fill="#d9d1ba">Bleached Pebble</text><text x="40" y="1630" fill="#fbd6ca">Blossom Tint</text><text x="40" y="1700" fill="#014c76">Blue Meridian</text><text x="40" y="1770" fill="#6081a2">Bluestone Path</text><text x="40" y="1840" fill="#eabcc0">Blush Kiss</text><text x="40" y="1910" fill="#a1395d">Boysenberry Pink</text><text x="40" y="1980" fill="#b08f6a">Brown Branch</text><text x="40" y="2050" fill="#5e4662">Brunneous</text><text x="40" y="2120" fill="#c56a39">Burnt Copper</text><text x="40" y="2190" fill="#b69983">Butcher Paper</text><text x="40" y="2260" fill="#c88849">Butter Bronze</text><text x="40" y="2330" fill="#986860">Café</text><text x="40" y="2400" fill="#c1a188">Calfskin</text><text x="40" y="2470" fill="#c5b39a">Camel Coat</text><text x="40" y="2540" fill="#f3e2c3">Cameo Cream</text><text x="40" y="2610" fill="#faddc4">Champagne Peach</text><text x="40" y="2680" fill="#949d8d">Charcoal Tint</text><text x="40" y="2750" fill="#f5ad75">Charming Peach</text><text x="40" y="2820" fill="#cb6276">Cherry Fruit</text><text x="40" y="2890" fill="#f79890">Cherrystone</text><text x="40" y="2960" fill="#dbd2bb">Chino’s</text><text x="40" y="3030" fill="#969283">Claytone</text><text x="40" y="3100" fill="#f4e6e0">Clerestory</text><text x="40" y="3170" fill="#c4ad96">Cocoa Froth</text><text x="40" y="3240" fill="#a17b49">Cognac Tint</text><text x="40" y="3310" fill="#9e91ae">Compliment</text><text x="40" y="3380" fill="#dcc6ba">Cotton &amp; Flax</text><text x="40" y="3450" fill="#dad0bd">Cotton Fiber</text><text x="40" y="3520" fill="#fba765">Cozy Nook</text><text x="40" y="3590" fill="#eccba0">Cream Snap</text><text x="40" y="3660" fill="#debbbf">Crystalline Pink</text><text x="40" y="3730" fill="#ecdfdf">Crystallize</text><text x="40" y="3800" fill="#a6a6b6">Curated Lilac</text><text x="40" y="3870" fill="#ffcdb9">Dainty Peach</text><text x="40" y="3940" fill="#ed7468">Debutante</text><text x="40" y="4010" fill="#744456">Deep Carmine</text><text x="40" y="4080" fill="#726a6e">Deep Greige</text><text x="40" y="4150" fill="#687189">Deep Larkspur</text><text x="40" y="4220" fill="#694d3d">Deep Umber</text><text x="40" y="4290" fill="#454669">Deepest Fig</text><text x="40" y="4360" fill="#7a0006">Demon</text><text x="40" y="4430" fill="#f0d9e0">Dolce Pink</text><text x="40" y="4500" fill="#dfabcd">Dreamy Pink</text><text x="40" y="4570" fill="#f0e2e4">Dulcet Pink</text><text x="40" y="4640" fill="#c3a491">Dune Beige</text><text x="40" y="4710" fill="#9a7483">Dusk Wine</text><text x="40" y="4780" fill="#ffc49d">Esprit Peach</text><text x="40" y="4850" fill="#af9c76">Expedition</text><text x="40" y="4920" fill="#b6a591">Façade</text><text x="40" y="4990" fill="#92a2bb">Faded Lilac</text><text x="40" y="5060" fill="#887383">Faded Orchid</text><text x="40" y="5130" fill="#f59344">Fall River</text><text x="40" y="5200" fill="#c59daa">Fauna</text><text x="40" y="5270" fill="#de5e3f">Festival Orange</text><text x="40" y="5340" fill="#784a65">Fig Cluster</text><text x="40" y="5410" fill="#84989e">Fine Tuned Blue</text><text x="40" y="5480" fill="#bc7256">Firenze</text><text x="40" y="5550" fill="#9e917c">Flannel</text><text x="40" y="5620" fill="#bea58e">Fortress</text><text x="40" y="5690" fill="#8fa4ac">Galleria Blue</text><text x="40" y="5760" fill="#827799">Garden Violets</text><text x="40" y="5830" fill="#ac9b7b">Getaway</text><text x="40" y="5900" fill="#ce915a">Ginger Crisp</text><text x="40" y="5970" fill="#ebdace">Gobi Beige</text><text x="40" y="6040" fill="#ab858f">Going Rouge</text><text x="40" y="6110" fill="#a23f5d">Gooseberry</text><text x="40" y="6180" fill="#857668">Gosling</text><text x="40" y="6250" fill="#dfd2c0">Grain of Rice</text><text x="40" y="6320" fill="#979ac4">Grape Ivy</text><text x="40" y="6390" fill="#4c475e">Grapewood</text><text x="40" y="6460" fill="#938576">Gravelle</text><text x="40" y="6530" fill="#c7c3a8">Green Gaze</text><text x="40" y="6600" fill="#7a796e">Green Jeans</text><text x="40" y="6670" fill="#a2998f">Grey Flanks</text><text x="40" y="6740" fill="#ff982e">Guava</text><text x="40" y="6810" fill="#7f735f">Handmade</text><text x="40" y="6880" fill="#de6931">Harvest Haze</text><text x="40" y="6950" fill="#f2cc99">Hazy Day</text><text x="40" y="7020" fill="#605972">Head Over Heels</text><text x="40" y="7090" fill="#bc916f">Hickory Tint</text><text x="40" y="7160" fill="#867a88">High Note</text><text x="40" y="7230" fill="#ac8e84">Hollow Brown</text><text x="40" y="7300" fill="#e1b67c">Honey Gold</text><text x="40" y="7370" fill="#6e8fb4">Hushed Lilac</text><text x="40" y="7440" fill="#393f4b">Inkblot</text><text x="40" y="7510" fill="#747b9f">Inky Violet</text><text x="40" y="7580" fill="#4f7ba7">Into the Blue</text><text x="40" y="7650" fill="#c9beaa">Khaki Shell</text><text x="40" y="7720" fill="#71a2d4">Kindred</text><text x="40" y="7790" fill="#535e64">Lava Rock</text><text x="40" y="7860" fill="#b3a18e">Light Spice</text><text x="40" y="7930" fill="#a7adbe">Lilac Hush</text><text x="40" y="8000" fill="#d9bca9">Linen Cloth</text><text x="40" y="8070" fill="#b99d91">Lite Mocha</text><text x="40" y="8140" fill="#e5dfcf">Litewood</text><text x="40" y="8210" fill="#f8ebde">Mallow Root</text><text x="40" y="8280" fill="#f7bd8d">Mango Ice</text><text x="40" y="8350" fill="#a46a95">Mauve Memento</text><text x="40" y="8420" fill="#8a6d8b">Mauveine</text><text x="40" y="8490" fill="#877272">Meridian</text><text x="40" y="8560" fill="#a9959f">Metamorphosis</text><text x="40" y="8630" fill="#777ba9">Minuet Lilac</text><text x="40" y="8700" fill="#c0d0e6">Misty Mountains</text><text x="40" y="8770" fill="#847569">Mocha Bean</text><text x="40" y="8840" fill="#e6bca0">Mollusca</text><text x="40" y="8910" fill="#543941">Monarch Velvet</text><text x="40" y="8980" fill="#c3c2b2">Moonshine</text><text x="40" y="9050" fill="#a0aa9a">Moss Agate</text><text x="40" y="9120" fill="#a58e71">Motif</text><text x="40" y="9190" fill="#5c5687">Mountain Iris</text><text x="40" y="9260" fill="#d5a579">Mulled Spice</text><text x="40" y="9330" fill="#d3beac">Mushroom Cap</text><text x="40" y="9400" fill="#3b5698">Muted Lavender</text><text x="40" y="9470" fill="#723d5b">Mystique Violet</text><text x="40" y="9540" fill="#ecdacd">Nectar</text><text x="40" y="9610" fill="#cac1b1">Neutra</text><text x="40" y="9680" fill="#c1c6bf">Nickel Plate</text><text x="40" y="9750" fill="#686f7e">Nouveau</text><text x="40" y="9820" fill="#aca394">Nut Shell</text><text x="40" y="9890" fill="#c77135">Ochre Pigment</text><text x="40" y="9960" fill="#bba582">Old Salem</text><text x="40" y="10030" fill="#fdd1a4">Orange Canyon</text><text x="40" y="10100" fill="#febc61">Orange Quench</text><text x="40" y="10170" fill="#e6bca9">Orangery</text><text x="40" y="10240" fill="#e88354">Orangevale</text><text x="40" y="10310" fill="#68447c">Pageantry Purple</text><text x="40" y="10380" fill="#43456d">Palace Arms</text><text x="40" y="10450" fill="#f8e1d0">Pastry Pink</text><text x="40" y="10520" fill="#e3a381">Peachy Tint</text><text x="40" y="10590" fill="#f1bf92">Peachy-Kini</text><text x="40" y="10660" fill="#ffdcbf">Persian Melon</text><text x="40" y="10730" fill="#e9cdd8">Petit Pink</text><text x="40" y="10800" fill="#51588e">Piccadilly Purple</text><text x="40" y="10870" fill="#f8d9b8">Pinenut</text><text x="40" y="10940" fill="#a6427c">Pink Ballad</text><text x="40" y="11010" fill="#b36c86">Pink Hibiscus</text><text x="40" y="11080" fill="#eaacc6">Pink Macaroon</text><text x="40" y="11150" fill="#8e5565">Pink Peppercorn</text><text x="40" y="11220" fill="#fce3ca">Playful Peach</text><text x="40" y="11290" fill="#f4c0c3">Plaza Pink</text><text x="40" y="11360" fill="#efb495">Posh Peach</text><text x="40" y="11430" fill="#6e6386">Posy Purple</text><text x="40" y="11500" fill="#bfa298">Potter’s Clay</text><text x="40" y="11570" fill="#efaba6">Pressed Rose</text><text x="40" y="11640" fill="#e5a3c5">Prettiest Pink</text><text x="40" y="11710" fill="#686278">Promised Amethyst</text><text x="40" y="11780" fill="#4c5079">Provocative</text><text x="40" y="11850" fill="#837f92">Purpletone</text><text x="40" y="11920" fill="#af6879">Refined Rose</text><text x="40" y="11990" fill="#b4a8b1">Resplendent</text><text x="40" y="12060" fill="#8a7c75">Revere Greige</text><text x="40" y="12130" fill="#c87291">Rhine Wine</text><text x="40" y="12200" fill="#a87c3e">Rich Sorrel</text><text x="40" y="12270" fill="#c3556f">Ripe Cherry</text><text x="40" y="12340" fill="#ae9e87">Riverbank</text><text x="40" y="12410" fill="#c8c0b7">Roadrunner</text><text x="40" y="12480" fill="#e3cbc4">Rose Beige</text><text x="40" y="12550" fill="#e099ad">Rose Delight</text><text x="40" y="12620" fill="#da9ec8">Rose Garden</text><text x="40" y="12690" fill="#e08395">Rose Soiree</text><text x="40" y="12760" fill="#7b7fa9">Roseine Plum</text><text x="40" y="12830" fill="#f0dee4">Roselle</text><text x="40" y="12900" fill="#d8b3b9">Rosy Aura</text><text x="40" y="12970" fill="#bfb8ad">Row House</text><text x="40" y="13040" fill="#6e3d58">Royal Lines</text><text x="40" y="13110" fill="#545e97">Royal Marquis</text><text x="40" y="13180" fill="#884b3d">Rusted Nail</text><text x="40" y="13250" fill="#f1c9cc">Salmon Flush</text><text x="40" y="13320" fill="#ebb9af">Salmon Glow</text><text x="40" y="13390" fill="#d3934d">Salt Caramel</text><text x="40" y="13460" fill="#d0c6af">Salt Scrub</text><text x="40" y="13530" fill="#f2ecde">Sandalwood White</text><text x="40" y="13600" fill="#eddcbe">Sandhill</text><text x="40" y="13670" fill="#c4b19a">Sandrock</text><text x="40" y="13740" fill="#cbbe9c">Sandwashed</text><text x="40" y="13810" fill="#ee7c54">Sassy Salmon</text><text x="40" y="13880" fill="#99719e">Scotch Thistle</text><text x="40" y="13950" fill="#a7a291">Sea Hazel</text><text x="40" y="14020" fill="#7d8b8a">Seastone</text><text x="40" y="14090" fill="#b3a698">Sediment</text><text x="40" y="14160" fill="#c16a55">Sedona Canyon</text><text x="40" y="14230" fill="#9c917f">Shadow Taupe</text><text x="40" y="14300" fill="#b6b6a8">Shell Walk</text><text x="40" y="14370" fill="#93aebc">Showcase Blue</text><text x="40" y="14440" fill="#a17858">Sidesaddle</text><text x="40" y="14510" fill="#b29e81">Silestone</text><text x="40" y="14580" fill="#dbd4bf">Silica</text><text x="40" y="14650" fill="#dadcd4">Silken Web</text><text x="40" y="14720" fill="#a8c1d4">Simpatico Blue</text><text x="40" y="14790" fill="#f4e2d9">Sitting Pretty</text><text x="40" y="14860" fill="#ebc6c0">Snow Pink</text><text x="40" y="14930" fill="#dc8e31">Soft Pumpkin</text><text x="40" y="15000" fill="#c0bba5">Soft Putty</text><text x="40" y="15070" fill="#dddebe">Soft Vellum</text><text x="40" y="15140" fill="#ffb088">Spice Pink</text><text x="40" y="15210" fill="#bc693e">Spiced Nut</text><text x="40" y="15280" fill="#838a7a">Spruce Shadow</text><text x="40" y="15350" fill="#93888c">Stone Haze</text><text x="40" y="15420" fill="#a5978d">Stoneware</text><text x="40" y="15490" fill="#ce7843">Striking Orange</text><text x="40" y="15560" fill="#c96fa8">Sugar Creek</text><text x="40" y="15630" fill="#c47a3d">Summerset</text><text x="40" y="15700" fill="#c0805d">Sundial</text><text x="40" y="15770" fill="#f8a77f">Sunset Peach</text><text x="40" y="15840" fill="#dcc89d">Surrey Cream</text><text x="40" y="15910" fill="#eebdb6">Sweet Sherry</text><text x="40" y="15980" fill="#c39f87">Sweetwood</text><text x="40" y="16050" fill="#e4dacc">Swiss Almond</text><text x="40" y="16120" fill="#e8d5dd">Swiss Rose</text><text x="40" y="16190" fill="#669ccb">Tantalize</text><text x="40" y="16260" fill="#907e6c">Taupe Beige</text><text x="40" y="16330" fill="#dd8cb5">Tempting Pink</text><text x="40" y="16400" fill="#d5cdbd">Tern Grey</text><text x="40" y="16470" fill="#a1755c">Timber Trail</text><text x="40" y="16540" fill="#b4aca3">Timberwolf</text><text x="40" y="16610" fill="#9da9d0">Tinted Lilac</text><text x="40" y="16680" fill="#dbb9a0">Tracery</text><text x="40" y="16750" fill="#776c61">Trailhead</text><text x="40" y="16820" fill="#a89896">Trillium</text><text x="40" y="16890" fill="#c96272">Triple Berry</text><text x="40" y="16960" fill="#b96c46">Tufted Leather</text><text x="40" y="17030" fill="#b89cbc">Tuileries Tint</text><text x="40" y="17100" fill="#d3cfbf">Turnstone</text><text x="40" y="17170" fill="#897c64">Turtle Shell</text><text x="40" y="17240" fill="#3f3c43">Tuxedo</text><text x="40" y="17310" fill="#fbd8cc">Twinkle Pink</text><text x="40" y="17380" fill="#573a56">Velvet Plum</text><text x="40" y="17450" fill="#b48bb8">Violet Whimsy</text><text x="40" y="17520" fill="#a3999c">Walkway</text><text x="40" y="17590" fill="#774e37">Walnut Wood</text><text x="40" y="17660" fill="#e5d5c9">Warp &amp; Weft</text><text x="40" y="17730" fill="#bdae95">Weatherhead</text><text x="40" y="17800" fill="#c8865e">Wheatberry</text><text x="40" y="17870" fill="#d8d6c5">Whetstone</text><text x="40" y="17940" fill="#f5dec2">White Cedar</text><text x="40" y="18010" fill="#dedbce">White Wisp</text><text x="40" y="18080" fill="#626066">Windsor Grey</text><text x="40" y="18150" fill="#c4d2d0">Winter Garden</text><text x="40" y="18220" fill="#9e7b6c">Woodhaven</text><text x="40" y="18290" fill="#ab9379">Worsted Tan</text><text x="40" y="18360" fill="#e19447">Yellow Sumac</text><text x="40" y="18430" fill="#aa987f">York Beige</text>
</svg>