<svg xmlns="http://www.w3.org/2000/svg" viewBox="0 0 600 4490">
  <defs>
    <style type="text/css">
      @import url('https://rsms.me/inter/inter.css');
      text {
        font-family: Inter, -apple-system, BlinkMacSystemFont, "Segoe UI", Roboto, Helvetica, Arial, sans-serif, "Apple Color Emoji", "Segoe UI Emoji", "Segoe UI Symbol";
        font-size: 40px;
        font-weight: 900;
      }
    </style>
  </defs>
  <rect fill="#212121" x="0" y="0" width="600" height="4490"/>
  <text x="40" y="90" fill="#e56e24">24 Carrot</text><text x="40" y="160" fill="#eddee6">Antarctic Love</text><text x="40" y="230" fill="#2c4364">Black Turmeric</text><text x="40" y="300" fill="#e7e7e3">Cat's Cream</text><text x="40" y="370" fill="#f3f4f5">Chef's Hat</text><text x="40" y="440" fill="#8b4121">Chocolate Covered</text><text x="40" y="510" fill="#cc1177">Crazy Ex</text><text x="40" y="580" fill="#d8f19c">Creamy Avocado</text><text x="40" y="650" fill="#e9eeee">Dipped in Cloudy Dreams</text><text x="40" y="720" fill="#fcf6eb">Dipped in Cream</text><text x="40" y="790" fill="#d4d4d4">Disco Ball</text><text x="40" y="860" fill="#d5b498">Entrada Sandstone</text><text x="40" y="930" fill="#eec4b4">Fatty Sashimi</text><text x="40" y="1000" fill="#86725f">Fetched Stick</text><text x="40" y="1070" fill="#bffbff">Friendly Frost</text><text x="40" y="1140" fill="#eceacf">Garlic Head</text><text x="40" y="1210" fill="#f1e991">Ginger Lemon Cake</text><text x="40" y="1280" fill="#ecc909">Golden Crescent</text><text x="40" y="1350" fill="#117755">Greasy Greens</text><text x="40" y="1420" fill="#af3519">Grilled Tomato</text><text x="40" y="1490" fill="#d6be01">Groovy Lemon Pie</text><text x="40" y="1560" fill="#811412">Grubby Red</text><text x="40" y="1630" fill="#c1d8d9">Haint Blue</text><text x="40" y="1700" fill="#032e0e">Haunted Forest</text><text x="40" y="1770" fill="#991177">Haunted Purple</text><text x="40" y="1840" fill="#115511">Jungle Jam</text><text x="40" y="1910" fill="#8aadf7">Kitten's Eye</text><text x="40" y="1980" fill="#d6c575">Labrador's Locks</text><text x="40" y="2050" fill="#aacc11">Leafy Canopy</text><text x="40" y="2120" fill="#aabb11">Leafy Woodland</text><text x="40" y="2190" fill="#a89f94">London Stones</text><text x="40" y="2260" fill="#ee0099">Love Vessel</text><text x="40" y="2330" fill="#cceeff">Lucid Dreams</text><text x="40" y="2400" fill="#cfebea">Mint Chip</text><text x="40" y="2470" fill="#ccffee">Mint Coffee</text><text x="40" y="2540" fill="#ccffdd">Mint Zest</text><text x="40" y="2610" fill="#f16640">Opulent Orange</text><text x="40" y="2680" fill="#61311c">Overbaked</text><text x="40" y="2750" fill="#44413b">Pasilla Chiles</text><text x="40" y="2820" fill="#8f8e8c">Pedigrey</text><text x="40" y="2890" fill="#f42c93">Prickly Pink</text><text x="40" y="2960" fill="#a264ba">Prickly Purple</text><text x="40" y="3030" fill="#a60000">Red Pentacle</text><text x="40" y="3100" fill="#e35401">Salsa Habanero</text><text x="40" y="3170" fill="#a03413">Salsa Mexicana</text><text x="40" y="3240" fill="#ab250b">Salsa Picante</text><text x="40" y="3310" fill="#7e8590">Smoky Studio</text><text x="40" y="3380" fill="#f7d163">Soaked in Sun</text><text x="40" y="3450" fill="#cfecee">Sprinkled with Dew</text><text x="40" y="3520" fill="#c51f26">Star and Crescent Red</text><text x="40" y="3590" fill="#0000f7">Star of David</text><text x="40" y="3660" fill="#131212">Sticky Black Tarmac</text><text x="40" y="3730" fill="#ccbbdd">Sweet Lucid Dreams</text><text x="40" y="3800" fill="#5566dd">Thick Blue</text><text x="40" y="3870" fill="#88cc22">Thick Green</text><text x="40" y="3940" fill="#cc55dd">Thick Pink</text><text x="40" y="4010" fill="#8833dd">Thick Purple</text><text x="40" y="4080" fill="#b30d0d">Thick Red</text><text x="40" y="4150" fill="#f1d512">Thick Yellow</text><text x="40" y="4220" fill="#667700">Topiary Green</text><text x="40" y="4290" fill="#db3e00">Torii Red</text><text x="40" y="4360" fill="#faf5fa">Walkie Chalkie</text><text x="40" y="4430" fill="#ffcd00">Wheel of Dharma</text>
</svg>