<svg xmlns="http://www.w3.org/2000/svg" viewBox="0 0 600 2040">
  <defs>
    <style type="text/css">
      @import url('https://rsms.me/inter/inter.css');
      text {
        font-family: Inter, -apple-system, BlinkMacSystemFont, "Segoe UI", Roboto, Helvetica, Arial, sans-serif, "Apple Color Emoji", "Segoe UI Emoji", "Segoe UI Symbol";
        font-size: 40px;
        font-weight: 900;
      }
    </style>
  </defs>
  <rect fill="#212121" x="0" y="0" width="600" height="2040"/>
  <text x="40" y="90" fill="#c6f0e7">Angel of Death Victorious</text><text x="40" y="160" fill="#add8e1">Araucana Egg</text><text x="40" y="230" fill="#ecefef">Bái Sè White</text><text x="40" y="300" fill="#bcecac">Basilisk Lizard</text><text x="40" y="370" fill="#8a779a">Black Diamond Apple</text><text x="40" y="440" fill="#e5d2dd">Blissful Light</text><text x="40" y="510" fill="#9cd0e4">Blue Carpenter Bee</text><text x="40" y="580" fill="#90e4c1">Bubble Algae</text><text x="40" y="650" fill="#a3d1e8">Chefchaouen Blue</text><text x="40" y="720" fill="#ee7766">Colorada Bronze</text><text x="40" y="790" fill="#fddc00">Dallol Yellow</text><text x="40" y="860" fill="#fbe8ce">French Vanilla Sorbet</text><text x="40" y="930" fill="#f56991">God’s Own Junkyard Pink</text><text x="40" y="1000" fill="#cfebde">Hatching Chameleon </text><text x="40" y="1070" fill="#a5dbe5">Havana Blue</text><text x="40" y="1140" fill="#ee66ff">Hitsujiyama Pink</text><text x="40" y="1210" fill="#f1f3f2">Hotot Bunny</text><text x="40" y="1280" fill="#9bd7e9">Jodhpur Blue</text><text x="40" y="1350" fill="#a1d5f1">Juzcar Blue</text><text x="40" y="1420" fill="#ee55ee">Lake Retba Pink</text><text x="40" y="1490" fill="#76fda8">Lunatic Sky Dancer</text><text x="40" y="1560" fill="#dd0066">Magna Cum Laude</text><text x="40" y="1630" fill="#b090b2">Metal Petal</text><text x="40" y="1700" fill="#d4ffff">Mount Olympus</text><text x="40" y="1770" fill="#dfc5fe">Neon Boneyard</text><text x="40" y="1840" fill="#dd9900">Orange Satisfaction </text><text x="40" y="1910" fill="#ee6600">Royal Flycatcher Crest</text><text x="40" y="1980" fill="#e95f24">Santiago Orange</text>
</svg>