<svg xmlns="http://www.w3.org/2000/svg" viewBox="0 0 600 2110">
  <defs>
    <style type="text/css">
      @import url('https://rsms.me/inter/inter.css');
      text {
        font-family: Inter, -apple-system, BlinkMacSystemFont, "Segoe UI", Roboto, Helvetica, Arial, sans-serif, "Apple Color Emoji", "Segoe UI Emoji", "Segoe UI Symbol";
        font-size: 40px;
        font-weight: 900;
      }
    </style>
  </defs>
  <rect fill="#212121" x="0" y="0" width="600" height="2110"/>
  <text x="40" y="90" fill="#05696b">Aqua Obscura</text><text x="40" y="160" fill="#66cc00">Blinking Terminal</text><text x="40" y="230" fill="#014182">Bracing Blue</text><text x="40" y="300" fill="#2e5a88">Dead Lake</text><text x="40" y="370" fill="#77eeee">Dead Sea</text><text x="40" y="440" fill="#3a403b">Dead Sea Mud</text><text x="40" y="510" fill="#ddeebb">Fennel Bulb</text><text x="40" y="580" fill="#287c37">Gorgeous Green</text><text x="40" y="650" fill="#7cb68e">Green Eggs and Ham</text><text x="40" y="720" fill="#388004">Green People</text><text x="40" y="790" fill="#995533">Hello Fall</text><text x="40" y="860" fill="#44dd66">Hello Spring</text><text x="40" y="930" fill="#55bbff">Hello Summer</text><text x="40" y="1000" fill="#99ffee">Hello Winter</text><text x="40" y="1070" fill="#155084">Lake Baikal</text><text x="40" y="1140" fill="#9acd32">Lucky Lime</text><text x="40" y="1210" fill="#eebbcb">Madder Rose</text><text x="40" y="1280" fill="#da467d">Pickled Pink</text><text x="40" y="1350" fill="#d7edea">Puffy Little Cloud</text><text x="40" y="1420" fill="#751973">Pure Purple</text><text x="40" y="1490" fill="#a90308">Real Red</text><text x="40" y="1560" fill="#000200">Registration Black</text><text x="40" y="1630" fill="#66eeaa">Screen Glow</text><text x="40" y="1700" fill="#e0efe1">Snowdrop Explosion</text><text x="40" y="1770" fill="#005c2b">Somber Green</text><text x="40" y="1840" fill="#a40000">Stanger Red</text><text x="40" y="1910" fill="#ff4200">Ultimate Orange</text><text x="40" y="1980" fill="#000100">Vantablack</text><text x="40" y="2050" fill="#00844b">Veritably Verdant</text>
</svg>