<svg width="500" height="500" viewBox="0 0 500 500" fill="none" xmlns="http://www.w3.org/2000/svg">
<rect width="500" height="500" rx="76" fill="#8C52FF"/>
<g filter="url(#filter0_dddddddd_1_18)">
<path d="M391 300C391 293.546 388.436 287.357 383.873 282.794C379.31 278.231 373.12 275.667 366.667 275.667H331.557L221.378 386.349L221.212 386.512C220.492 387.2 219.686 387.744 218.829 388.147C217.795 389.13 216.736 390.081 215.654 391H366.667C373.12 391 379.31 388.436 383.873 383.873C388.436 379.31 391 373.12 391 366.667V300ZM166.833 324.333L167.065 324.336C171.929 324.46 175.833 328.441 175.833 333.333C175.833 338.226 171.929 342.207 167.065 342.331L166.833 342.333H166.667C161.696 342.333 157.667 338.304 157.667 333.333C157.667 328.363 161.696 324.334 166.667 324.333H166.833ZM242.328 334.273C242.303 336.221 242.202 338.161 242.03 340.088L354.055 227.551L354.097 227.509L354.37 227.234C357.176 224.382 359.404 221.012 360.93 217.311C362.505 213.49 363.301 209.393 363.27 205.26C363.238 201.128 362.381 197.043 360.748 193.246C359.166 189.568 356.887 186.233 354.038 183.423L353.761 183.153L353.636 183.031L322.036 151.431L322.01 151.404C319.133 148.503 315.71 146.2 311.939 144.626C308.168 143.052 304.123 142.24 300.037 142.235C295.95 142.23 291.904 143.033 288.129 144.598C284.472 146.114 281.14 148.316 278.313 151.083L278.042 151.353L242.333 187.061V333.333L242.328 334.273ZM224.333 133.333C224.333 126.88 221.769 120.69 217.206 116.127C212.785 111.706 206.839 109.162 200.604 109.007L200 109H133.333C126.88 109 120.69 111.564 116.127 116.127C111.564 120.69 109 126.88 109 133.333V333.333C109 348.628 115.076 363.295 125.89 374.11C136.705 384.924 151.372 391 166.667 391C181.961 391 196.629 384.924 207.443 374.11C218.089 363.464 224.143 349.085 224.329 334.05L224.333 333.333V133.333ZM242.333 161.605L265.292 138.647L265.722 138.221C270.19 133.847 275.456 130.366 281.236 127.97C287.202 125.497 293.599 124.227 300.058 124.235C306.516 124.242 312.91 125.527 318.871 128.014C324.82 130.497 330.221 134.129 334.764 138.703H334.764L366.315 170.254C370.988 174.768 374.716 180.166 377.283 186.134C379.864 192.135 381.22 198.592 381.269 205.124C381.318 211.656 380.061 218.133 377.571 224.172C375.089 230.193 371.431 235.658 366.812 240.249L366.812 240.25L349.475 257.667H366.667C377.894 257.667 388.662 262.127 396.601 270.066C404.54 278.005 409 288.773 409 300V366.667C409 377.894 404.54 388.662 396.601 396.601C388.662 404.54 377.894 409 366.667 409H166.667C146.599 409 127.352 401.028 113.162 386.838C98.9719 372.648 91 353.401 91 333.333V133.333C91 122.106 95.4599 111.338 103.399 103.399C111.338 95.4599 122.106 91 133.333 91H200L200.526 91.0034C211.563 91.1404 222.119 95.584 229.934 103.399C237.873 111.338 242.333 122.106 242.333 133.333V161.605Z" fill="#FFF1FA"/>
</g>
<g filter="url(#filter1_dddddddd_1_18)">
<path d="M391 300C391 293.546 388.436 287.357 383.873 282.794C379.31 278.231 373.12 275.667 366.667 275.667H331.557L221.378 386.349L221.212 386.512C220.492 387.2 219.686 387.744 218.829 388.147C217.795 389.13 216.736 390.081 215.654 391H366.667C373.12 391 379.31 388.436 383.873 383.873C388.436 379.31 391 373.12 391 366.667V300ZM166.833 324.333L167.065 324.336C171.929 324.46 175.833 328.441 175.833 333.333C175.833 338.226 171.929 342.207 167.065 342.331L166.833 342.333H166.667C161.696 342.333 157.667 338.304 157.667 333.333C157.667 328.363 161.696 324.334 166.667 324.333H166.833ZM242.328 334.273C242.303 336.221 242.202 338.161 242.03 340.088L354.055 227.551L354.097 227.509L354.37 227.234C357.176 224.382 359.404 221.012 360.93 217.311C362.505 213.49 363.301 209.393 363.27 205.26C363.238 201.128 362.381 197.043 360.748 193.246C359.166 189.568 356.887 186.233 354.038 183.423L353.761 183.153L353.636 183.031L322.036 151.431L322.01 151.404C319.133 148.503 315.71 146.2 311.939 144.626C308.168 143.052 304.123 142.24 300.037 142.235C295.95 142.23 291.904 143.033 288.129 144.598C284.472 146.114 281.14 148.316 278.313 151.083L278.042 151.353L242.333 187.061V333.333L242.328 334.273ZM224.333 133.333C224.333 126.88 221.769 120.69 217.206 116.127C212.785 111.706 206.839 109.162 200.604 109.007L200 109H133.333C126.88 109 120.69 111.564 116.127 116.127C111.564 120.69 109 126.88 109 133.333V333.333C109 348.628 115.076 363.295 125.89 374.11C136.705 384.924 151.372 391 166.667 391C181.961 391 196.629 384.924 207.443 374.11C218.089 363.464 224.143 349.085 224.329 334.05L224.333 333.333V133.333ZM242.333 161.605L265.292 138.647L265.722 138.221C270.19 133.847 275.456 130.366 281.236 127.97C287.202 125.497 293.599 124.227 300.058 124.235C306.516 124.242 312.91 125.527 318.871 128.014C324.82 130.497 330.221 134.129 334.764 138.703H334.764L366.315 170.254C370.988 174.768 374.716 180.166 377.283 186.134C379.864 192.135 381.22 198.592 381.269 205.124C381.318 211.656 380.061 218.133 377.571 224.172C375.089 230.193 371.431 235.658 366.812 240.249L366.812 240.25L349.475 257.667H366.667C377.894 257.667 388.662 262.127 396.601 270.066C404.54 278.005 409 288.773 409 300V366.667C409 377.894 404.54 388.662 396.601 396.601C388.662 404.54 377.894 409 366.667 409H166.667C146.599 409 127.352 401.028 113.162 386.838C98.9719 372.648 91 353.401 91 333.333V133.333C91 122.106 95.4599 111.338 103.399 103.399C111.338 95.4599 122.106 91 133.333 91H200L200.526 91.0034C211.563 91.1404 222.119 95.584 229.934 103.399C237.873 111.338 242.333 122.106 242.333 133.333V161.605Z" fill="#FFF1FA"/>
</g>
<path d="M391 300C391 293.546 388.436 287.357 383.873 282.794C379.31 278.231 373.12 275.667 366.667 275.667H331.557L221.378 386.349L221.212 386.512C220.492 387.2 219.686 387.744 218.829 388.147C217.795 389.13 216.736 390.081 215.654 391H366.667C373.12 391 379.31 388.436 383.873 383.873C388.436 379.31 391 373.12 391 366.667V300ZM166.833 324.333L167.065 324.336C171.929 324.46 175.833 328.441 175.833 333.333C175.833 338.226 171.929 342.207 167.065 342.331L166.833 342.333H166.667C161.696 342.333 157.667 338.304 157.667 333.333C157.667 328.363 161.696 324.334 166.667 324.333H166.833ZM242.328 334.273C242.303 336.221 242.202 338.161 242.03 340.088L354.055 227.551L354.097 227.509L354.37 227.234C357.176 224.382 359.404 221.012 360.93 217.311C362.505 213.49 363.301 209.393 363.27 205.26C363.238 201.128 362.381 197.043 360.748 193.246C359.166 189.568 356.887 186.233 354.038 183.423L353.761 183.153L353.636 183.031L322.036 151.431L322.01 151.404C319.133 148.503 315.71 146.2 311.939 144.626C308.168 143.052 304.123 142.24 300.037 142.235C295.95 142.23 291.904 143.033 288.129 144.598C284.472 146.114 281.14 148.316 278.313 151.083L278.042 151.353L242.333 187.061V333.333L242.328 334.273ZM224.333 133.333C224.333 126.88 221.769 120.69 217.206 116.127C212.785 111.706 206.839 109.162 200.604 109.007L200 109H133.333C126.88 109 120.69 111.564 116.127 116.127C111.564 120.69 109 126.88 109 133.333V333.333C109 348.628 115.076 363.295 125.89 374.11C136.705 384.924 151.372 391 166.667 391C181.961 391 196.629 384.924 207.443 374.11C218.089 363.464 224.143 349.085 224.329 334.05L224.333 333.333V133.333ZM242.333 161.605L265.292 138.647L265.722 138.221C270.19 133.847 275.456 130.366 281.236 127.97C287.202 125.497 293.599 124.227 300.058 124.235C306.516 124.242 312.91 125.527 318.871 128.014C324.82 130.497 330.221 134.129 334.764 138.703H334.764L366.315 170.254C370.988 174.768 374.716 180.166 377.283 186.134C379.864 192.135 381.22 198.592 381.269 205.124C381.318 211.656 380.061 218.133 377.571 224.172C375.089 230.193 371.431 235.658 366.812 240.249L366.812 240.25L349.475 257.667H366.667C377.894 257.667 388.662 262.127 396.601 270.066C404.54 278.005 409 288.773 409 300V366.667C409 377.894 404.54 388.662 396.601 396.601C388.662 404.54 377.894 409 366.667 409H166.667C146.599 409 127.352 401.028 113.162 386.838C98.9719 372.648 91 353.401 91 333.333V133.333C91 122.106 95.4599 111.338 103.399 103.399C111.338 95.4599 122.106 91 133.333 91H200L200.526 91.0034C211.563 91.1404 222.119 95.584 229.934 103.399C237.873 111.338 242.333 122.106 242.333 133.333V161.605Z" fill="#FFF1FA"/>
<defs>
<filter id="filter0_dddddddd_1_18" x="59" y="59" width="382" height="382" filterUnits="userSpaceOnUse" color-interpolation-filters="sRGB">
<feFlood flood-opacity="0" result="BackgroundImageFix"/>
<feColorMatrix in="SourceAlpha" type="matrix" values="0 0 0 0 0 0 0 0 0 0 0 0 0 0 0 0 0 0 127 0" result="hardAlpha"/>
<feOffset/>
<feGaussianBlur stdDeviation="16"/>
<feComposite in2="hardAlpha" operator="out"/>
<feColorMatrix type="matrix" values="0 0 0 0 1 0 0 0 0 0.501961 0 0 0 0 0.819608 0 0 0 1 0"/>
<feBlend mode="normal" in2="BackgroundImageFix" result="effect1_dropShadow_1_18"/>
<feColorMatrix in="SourceAlpha" type="matrix" values="0 0 0 0 0 0 0 0 0 0 0 0 0 0 0 0 0 0 127 0" result="hardAlpha"/>
<feOffset/>
<feGaussianBlur stdDeviation="16"/>
<feComposite in2="hardAlpha" operator="out"/>
<feColorMatrix type="matrix" values="0 0 0 0 1 0 0 0 0 0.501961 0 0 0 0 0.819608 0 0 0 1 0"/>
<feBlend mode="normal" in2="effect1_dropShadow_1_18" result="effect2_dropShadow_1_18"/>
<feColorMatrix in="SourceAlpha" type="matrix" values="0 0 0 0 0 0 0 0 0 0 0 0 0 0 0 0 0 0 127 0" result="hardAlpha"/>
<feOffset/>
<feGaussianBlur stdDeviation="16"/>
<feComposite in2="hardAlpha" operator="out"/>
<feColorMatrix type="matrix" values="0 0 0 0 1 0 0 0 0 0.501961 0 0 0 0 0.819608 0 0 0 1 0"/>
<feBlend mode="normal" in2="effect2_dropShadow_1_18" result="effect3_dropShadow_1_18"/>
<feColorMatrix in="SourceAlpha" type="matrix" values="0 0 0 0 0 0 0 0 0 0 0 0 0 0 0 0 0 0 127 0" result="hardAlpha"/>
<feOffset/>
<feGaussianBlur stdDeviation="16"/>
<feComposite in2="hardAlpha" operator="out"/>
<feColorMatrix type="matrix" values="0 0 0 0 1 0 0 0 0 0.501961 0 0 0 0 0.819608 0 0 0 1 0"/>
<feBlend mode="normal" in2="effect3_dropShadow_1_18" result="effect4_dropShadow_1_18"/>
<feColorMatrix in="SourceAlpha" type="matrix" values="0 0 0 0 0 0 0 0 0 0 0 0 0 0 0 0 0 0 127 0" result="hardAlpha"/>
<feOffset/>
<feGaussianBlur stdDeviation="16"/>
<feComposite in2="hardAlpha" operator="out"/>
<feColorMatrix type="matrix" values="0 0 0 0 1 0 0 0 0 0.501961 0 0 0 0 0.819608 0 0 0 1 0"/>
<feBlend mode="normal" in2="effect4_dropShadow_1_18" result="effect5_dropShadow_1_18"/>
<feColorMatrix in="SourceAlpha" type="matrix" values="0 0 0 0 0 0 0 0 0 0 0 0 0 0 0 0 0 0 127 0" result="hardAlpha"/>
<feOffset/>
<feGaussianBlur stdDeviation="16"/>
<feComposite in2="hardAlpha" operator="out"/>
<feColorMatrix type="matrix" values="0 0 0 0 1 0 0 0 0 0.501961 0 0 0 0 0.819608 0 0 0 1 0"/>
<feBlend mode="normal" in2="effect5_dropShadow_1_18" result="effect6_dropShadow_1_18"/>
<feColorMatrix in="SourceAlpha" type="matrix" values="0 0 0 0 0 0 0 0 0 0 0 0 0 0 0 0 0 0 127 0" result="hardAlpha"/>
<feOffset/>
<feGaussianBlur stdDeviation="16"/>
<feComposite in2="hardAlpha" operator="out"/>
<feColorMatrix type="matrix" values="0 0 0 0 1 0 0 0 0 0.501961 0 0 0 0 0.819608 0 0 0 1 0"/>
<feBlend mode="normal" in2="effect6_dropShadow_1_18" result="effect7_dropShadow_1_18"/>
<feColorMatrix in="SourceAlpha" type="matrix" values="0 0 0 0 0 0 0 0 0 0 0 0 0 0 0 0 0 0 127 0" result="hardAlpha"/>
<feOffset/>
<feGaussianBlur stdDeviation="16"/>
<feComposite in2="hardAlpha" operator="out"/>
<feColorMatrix type="matrix" values="0 0 0 0 1 0 0 0 0 0.501961 0 0 0 0 0.819608 0 0 0 1 0"/>
<feBlend mode="normal" in2="effect7_dropShadow_1_18" result="effect8_dropShadow_1_18"/>
<feBlend mode="normal" in="SourceGraphic" in2="effect8_dropShadow_1_18" result="shape"/>
</filter>
<filter id="filter1_dddddddd_1_18" x="82.5" y="82.5" width="335" height="335" filterUnits="userSpaceOnUse" color-interpolation-filters="sRGB">
<feFlood flood-opacity="0" result="BackgroundImageFix"/>
<feColorMatrix in="SourceAlpha" type="matrix" values="0 0 0 0 0 0 0 0 0 0 0 0 0 0 0 0 0 0 127 0" result="hardAlpha"/>
<feOffset/>
<feGaussianBlur stdDeviation="4.25"/>
<feComposite in2="hardAlpha" operator="out"/>
<feColorMatrix type="matrix" values="0 0 0 0 1 0 0 0 0 0.4 0 0 0 0 0.768627 0 0 0 1 0"/>
<feBlend mode="normal" in2="BackgroundImageFix" result="effect1_dropShadow_1_18"/>
<feColorMatrix in="SourceAlpha" type="matrix" values="0 0 0 0 0 0 0 0 0 0 0 0 0 0 0 0 0 0 127 0" result="hardAlpha"/>
<feOffset/>
<feGaussianBlur stdDeviation="4.25"/>
<feComposite in2="hardAlpha" operator="out"/>
<feColorMatrix type="matrix" values="0 0 0 0 1 0 0 0 0 0.4 0 0 0 0 0.768627 0 0 0 1 0"/>
<feBlend mode="normal" in2="effect1_dropShadow_1_18" result="effect2_dropShadow_1_18"/>
<feColorMatrix in="SourceAlpha" type="matrix" values="0 0 0 0 0 0 0 0 0 0 0 0 0 0 0 0 0 0 127 0" result="hardAlpha"/>
<feOffset/>
<feGaussianBlur stdDeviation="4.25"/>
<feComposite in2="hardAlpha" operator="out"/>
<feColorMatrix type="matrix" values="0 0 0 0 1 0 0 0 0 0.4 0 0 0 0 0.768627 0 0 0 1 0"/>
<feBlend mode="normal" in2="effect2_dropShadow_1_18" result="effect3_dropShadow_1_18"/>
<feColorMatrix in="SourceAlpha" type="matrix" values="0 0 0 0 0 0 0 0 0 0 0 0 0 0 0 0 0 0 127 0" result="hardAlpha"/>
<feOffset/>
<feGaussianBlur stdDeviation="4.25"/>
<feComposite in2="hardAlpha" operator="out"/>
<feColorMatrix type="matrix" values="0 0 0 0 1 0 0 0 0 0.4 0 0 0 0 0.768627 0 0 0 1 0"/>
<feBlend mode="normal" in2="effect3_dropShadow_1_18" result="effect4_dropShadow_1_18"/>
<feColorMatrix in="SourceAlpha" type="matrix" values="0 0 0 0 0 0 0 0 0 0 0 0 0 0 0 0 0 0 127 0" result="hardAlpha"/>
<feOffset/>
<feGaussianBlur stdDeviation="4.25"/>
<feComposite in2="hardAlpha" operator="out"/>
<feColorMatrix type="matrix" values="0 0 0 0 1 0 0 0 0 0.4 0 0 0 0 0.768627 0 0 0 1 0"/>
<feBlend mode="normal" in2="effect4_dropShadow_1_18" result="effect5_dropShadow_1_18"/>
<feColorMatrix in="SourceAlpha" type="matrix" values="0 0 0 0 0 0 0 0 0 0 0 0 0 0 0 0 0 0 127 0" result="hardAlpha"/>
<feOffset/>
<feGaussianBlur stdDeviation="4.25"/>
<feComposite in2="hardAlpha" operator="out"/>
<feColorMatrix type="matrix" values="0 0 0 0 1 0 0 0 0 0.4 0 0 0 0 0.768627 0 0 0 1 0"/>
<feBlend mode="normal" in2="effect5_dropShadow_1_18" result="effect6_dropShadow_1_18"/>
<feColorMatrix in="SourceAlpha" type="matrix" values="0 0 0 0 0 0 0 0 0 0 0 0 0 0 0 0 0 0 127 0" result="hardAlpha"/>
<feOffset/>
<feGaussianBlur stdDeviation="4.25"/>
<feComposite in2="hardAlpha" operator="out"/>
<feColorMatrix type="matrix" values="0 0 0 0 1 0 0 0 0 0.4 0 0 0 0 0.768627 0 0 0 1 0"/>
<feBlend mode="normal" in2="effect6_dropShadow_1_18" result="effect7_dropShadow_1_18"/>
<feColorMatrix in="SourceAlpha" type="matrix" values="0 0 0 0 0 0 0 0 0 0 0 0 0 0 0 0 0 0 127 0" result="hardAlpha"/>
<feOffset/>
<feGaussianBlur stdDeviation="4.25"/>
<feComposite in2="hardAlpha" operator="out"/>
<feColorMatrix type="matrix" values="0 0 0 0 1 0 0 0 0 0.4 0 0 0 0 0.768627 0 0 0 1 0"/>
<feBlend mode="normal" in2="effect7_dropShadow_1_18" result="effect8_dropShadow_1_18"/>
<feBlend mode="normal" in="SourceGraphic" in2="effect8_dropShadow_1_18" result="shape"/>
</filter>
</defs>
</svg>
