<svg width="450" height="450" viewBox="0 0 450 450" fill="none" xmlns="http://www.w3.org/2000/svg">
<g clip-path="url(#clip0_1_116)">
<rect x="-21" y="-21" width="500" height="500" fill="#8C52FF"/>
<g filter="url(#filter0_dddddddd_1_116)">
<path d="M367.75 281.25C367.75 278.2 366.539 275.275 364.382 273.118C362.225 270.961 359.3 269.75 356.25 269.75H323.347L225.795 367.75H356.25C359.3 367.75 362.225 366.538 364.382 364.382C366.538 362.225 367.75 359.3 367.75 356.25V281.25ZM131.438 292.75L131.773 292.752C145.978 292.932 157.438 304.503 157.438 318.75C157.438 332.997 145.978 344.568 131.773 344.748L131.438 344.75H131.25C116.891 344.75 105.25 333.109 105.25 318.75C105.25 304.391 116.891 292.75 131.25 292.75H131.438ZM281.272 119.639C278.768 119.636 276.288 120.129 273.974 121.088C271.805 121.987 269.823 123.28 268.127 124.899L267.792 125.228L232.25 160.77V287.557L330.811 188.545L330.932 188.424L331.265 188.086C332.907 186.374 334.214 184.369 335.12 182.174C336.085 179.832 336.573 177.321 336.554 174.788C336.535 172.255 336.009 169.751 335.008 167.424C334.007 165.097 332.551 162.994 330.726 161.238C330.604 161.122 330.484 161.004 330.365 160.885L294.815 125.335L294.74 125.259C292.977 123.481 290.879 122.069 288.567 121.105C286.256 120.14 283.777 119.642 281.272 119.639ZM419.75 356.25C419.75 373.091 413.06 389.243 401.151 401.151C389.243 413.06 373.091 419.75 356.25 419.75H131.25C104.463 419.75 78.7732 409.109 59.832 390.168C40.8909 371.227 30.25 345.537 30.25 318.75V93.75C30.25 76.9088 36.9401 60.7572 48.8486 48.8486C60.7572 36.9401 76.9088 30.25 93.75 30.25H168.75L169.539 30.2549C186.095 30.4604 201.929 37.1262 213.651 48.8486C224.09 59.2871 230.518 72.9858 231.946 87.5513C238.342 81.3788 245.843 76.4587 254.061 73.0518C262.706 69.4679 271.975 67.6282 281.333 67.6392C290.692 67.6502 299.956 69.5116 308.593 73.1157C317.197 76.7062 325.01 81.9564 331.584 88.5654H331.585L367.036 124.016C373.735 130.526 379.085 138.295 382.777 146.878C386.517 155.574 388.481 164.929 388.552 174.394C388.624 183.859 386.802 193.243 383.194 201.994C380.53 208.457 376.929 214.478 372.521 219.87C383.259 222.716 393.161 228.358 401.151 236.349C413.06 248.257 419.75 264.409 419.75 281.25V356.25ZM82.25 318.75C82.25 331.746 87.4123 344.209 96.6016 353.398C105.791 362.588 118.254 367.75 131.25 367.75C144.246 367.75 156.709 362.588 165.898 353.398C175.088 344.209 180.25 331.746 180.25 318.75V93.75C180.25 90.7 179.039 87.7748 176.882 85.6182C174.793 83.5289 171.982 82.3265 169.036 82.2534L168.75 82.25H93.75C90.7 82.25 87.7748 83.4615 85.6182 85.6182C83.4615 87.7748 82.25 90.7 82.25 93.75V318.75Z" fill="#E8EEFE"/>
</g>
<g filter="url(#filter1_dddddddd_1_116)">
<path d="M367.75 281.25C367.75 278.2 366.539 275.275 364.382 273.118C362.225 270.961 359.3 269.75 356.25 269.75H323.347L225.795 367.75H356.25C359.3 367.75 362.225 366.538 364.382 364.382C366.538 362.225 367.75 359.3 367.75 356.25V281.25ZM131.438 292.75L131.773 292.752C145.978 292.932 157.438 304.503 157.438 318.75C157.438 332.997 145.978 344.568 131.773 344.748L131.438 344.75H131.25C116.891 344.75 105.25 333.109 105.25 318.75C105.25 304.391 116.891 292.75 131.25 292.75H131.438ZM281.272 119.639C278.768 119.636 276.288 120.129 273.974 121.088C271.805 121.987 269.823 123.28 268.127 124.899L267.792 125.228L232.25 160.77V287.557L330.811 188.545L330.932 188.424L331.265 188.086C332.907 186.374 334.214 184.369 335.12 182.174C336.085 179.832 336.573 177.321 336.554 174.788C336.535 172.255 336.009 169.751 335.008 167.424C334.007 165.097 332.551 162.994 330.726 161.238C330.604 161.122 330.484 161.004 330.365 160.885L294.815 125.335L294.74 125.259C292.977 123.481 290.879 122.069 288.567 121.105C286.256 120.14 283.777 119.642 281.272 119.639ZM419.75 356.25C419.75 373.091 413.06 389.243 401.151 401.151C389.243 413.06 373.091 419.75 356.25 419.75H131.25C104.463 419.75 78.7732 409.109 59.832 390.168C40.8909 371.227 30.25 345.537 30.25 318.75V93.75C30.25 76.9088 36.9401 60.7572 48.8486 48.8486C60.7572 36.9401 76.9088 30.25 93.75 30.25H168.75L169.539 30.2549C186.095 30.4604 201.929 37.1262 213.651 48.8486C224.09 59.2871 230.518 72.9858 231.946 87.5513C238.342 81.3788 245.843 76.4587 254.061 73.0518C262.706 69.4679 271.975 67.6282 281.333 67.6392C290.692 67.6502 299.956 69.5116 308.593 73.1157C317.197 76.7062 325.01 81.9564 331.584 88.5654H331.585L367.036 124.016C373.735 130.526 379.085 138.295 382.777 146.878C386.517 155.574 388.481 164.929 388.552 174.394C388.624 183.859 386.802 193.243 383.194 201.994C380.53 208.457 376.929 214.478 372.521 219.87C383.259 222.716 393.161 228.358 401.151 236.349C413.06 248.257 419.75 264.409 419.75 281.25V356.25ZM82.25 318.75C82.25 331.746 87.4123 344.209 96.6016 353.398C105.791 362.588 118.254 367.75 131.25 367.75C144.246 367.75 156.709 362.588 165.898 353.398C175.088 344.209 180.25 331.746 180.25 318.75V93.75C180.25 90.7 179.039 87.7748 176.882 85.6182C174.793 83.5289 171.982 82.3265 169.036 82.2534L168.75 82.25H93.75C90.7 82.25 87.7748 83.4615 85.6182 85.6182C83.4615 87.7748 82.25 90.7 82.25 93.75V318.75Z" fill="#E8EEFE"/>
</g>
<path d="M367.75 281.25C367.75 278.2 366.539 275.275 364.382 273.118C362.225 270.961 359.3 269.75 356.25 269.75H323.347L225.795 367.75H356.25C359.3 367.75 362.225 366.538 364.382 364.382C366.538 362.225 367.75 359.3 367.75 356.25V281.25ZM131.438 292.75L131.773 292.752C145.978 292.932 157.438 304.503 157.438 318.75C157.438 332.997 145.978 344.568 131.773 344.748L131.438 344.75H131.25C116.891 344.75 105.25 333.109 105.25 318.75C105.25 304.391 116.891 292.75 131.25 292.75H131.438ZM281.272 119.639C278.768 119.636 276.288 120.129 273.974 121.088C271.805 121.987 269.823 123.28 268.127 124.899L267.792 125.228L232.25 160.77V287.557L330.811 188.545L330.932 188.424L331.265 188.086C332.907 186.374 334.214 184.369 335.12 182.174C336.085 179.832 336.573 177.321 336.554 174.788C336.535 172.255 336.009 169.751 335.008 167.424C334.007 165.097 332.551 162.994 330.726 161.238C330.604 161.122 330.484 161.004 330.365 160.885L294.815 125.335L294.74 125.259C292.977 123.481 290.879 122.069 288.567 121.105C286.256 120.14 283.777 119.642 281.272 119.639ZM419.75 356.25C419.75 373.091 413.06 389.243 401.151 401.151C389.243 413.06 373.091 419.75 356.25 419.75H131.25C104.463 419.75 78.7732 409.109 59.832 390.168C40.8909 371.227 30.25 345.537 30.25 318.75V93.75C30.25 76.9088 36.9401 60.7572 48.8486 48.8486C60.7572 36.9401 76.9088 30.25 93.75 30.25H168.75L169.539 30.2549C186.095 30.4604 201.929 37.1262 213.651 48.8486C224.09 59.2871 230.518 72.9858 231.946 87.5513C238.342 81.3788 245.843 76.4587 254.061 73.0518C262.706 69.4679 271.975 67.6282 281.333 67.6392C290.692 67.6502 299.956 69.5116 308.593 73.1157C317.197 76.7062 325.01 81.9564 331.584 88.5654H331.585L367.036 124.016C373.735 130.526 379.085 138.295 382.777 146.878C386.517 155.574 388.481 164.929 388.552 174.394C388.624 183.859 386.802 193.243 383.194 201.994C380.53 208.457 376.929 214.478 372.521 219.87C383.259 222.716 393.161 228.358 401.151 236.349C413.06 248.257 419.75 264.409 419.75 281.25V356.25ZM82.25 318.75C82.25 331.746 87.4123 344.209 96.6016 353.398C105.791 362.588 118.254 367.75 131.25 367.75C144.246 367.75 156.709 362.588 165.898 353.398C175.088 344.209 180.25 331.746 180.25 318.75V93.75C180.25 90.7 179.039 87.7748 176.882 85.6182C174.793 83.5289 171.982 82.3265 169.036 82.2534L168.75 82.25H93.75C90.7 82.25 87.7748 83.4615 85.6182 85.6182C83.4615 87.7748 82.25 90.7 82.25 93.75V318.75Z" fill="#E8EEFE"/>
</g>
<defs>
<filter id="filter0_dddddddd_1_116" x="0.25" y="0.25" width="449.5" height="449.5" filterUnits="userSpaceOnUse" color-interpolation-filters="sRGB">
<feFlood flood-opacity="0" result="BackgroundImageFix"/>
<feColorMatrix in="SourceAlpha" type="matrix" values="0 0 0 0 0 0 0 0 0 0 0 0 0 0 0 0 0 0 127 0" result="hardAlpha"/>
<feOffset/>
<feGaussianBlur stdDeviation="15"/>
<feComposite in2="hardAlpha" operator="out"/>
<feColorMatrix type="matrix" values="0 0 0 0 1 0 0 0 0 0.501961 0 0 0 0 0.819608 0 0 0 1 0"/>
<feBlend mode="normal" in2="BackgroundImageFix" result="effect1_dropShadow_1_116"/>
<feColorMatrix in="SourceAlpha" type="matrix" values="0 0 0 0 0 0 0 0 0 0 0 0 0 0 0 0 0 0 127 0" result="hardAlpha"/>
<feOffset/>
<feGaussianBlur stdDeviation="15"/>
<feComposite in2="hardAlpha" operator="out"/>
<feColorMatrix type="matrix" values="0 0 0 0 1 0 0 0 0 0.501961 0 0 0 0 0.819608 0 0 0 1 0"/>
<feBlend mode="normal" in2="effect1_dropShadow_1_116" result="effect2_dropShadow_1_116"/>
<feColorMatrix in="SourceAlpha" type="matrix" values="0 0 0 0 0 0 0 0 0 0 0 0 0 0 0 0 0 0 127 0" result="hardAlpha"/>
<feOffset/>
<feGaussianBlur stdDeviation="15"/>
<feComposite in2="hardAlpha" operator="out"/>
<feColorMatrix type="matrix" values="0 0 0 0 1 0 0 0 0 0.501961 0 0 0 0 0.819608 0 0 0 1 0"/>
<feBlend mode="normal" in2="effect2_dropShadow_1_116" result="effect3_dropShadow_1_116"/>
<feColorMatrix in="SourceAlpha" type="matrix" values="0 0 0 0 0 0 0 0 0 0 0 0 0 0 0 0 0 0 127 0" result="hardAlpha"/>
<feOffset/>
<feGaussianBlur stdDeviation="15"/>
<feComposite in2="hardAlpha" operator="out"/>
<feColorMatrix type="matrix" values="0 0 0 0 1 0 0 0 0 0.501961 0 0 0 0 0.819608 0 0 0 1 0"/>
<feBlend mode="normal" in2="effect3_dropShadow_1_116" result="effect4_dropShadow_1_116"/>
<feColorMatrix in="SourceAlpha" type="matrix" values="0 0 0 0 0 0 0 0 0 0 0 0 0 0 0 0 0 0 127 0" result="hardAlpha"/>
<feOffset/>
<feGaussianBlur stdDeviation="15"/>
<feComposite in2="hardAlpha" operator="out"/>
<feColorMatrix type="matrix" values="0 0 0 0 1 0 0 0 0 0.501961 0 0 0 0 0.819608 0 0 0 1 0"/>
<feBlend mode="normal" in2="effect4_dropShadow_1_116" result="effect5_dropShadow_1_116"/>
<feColorMatrix in="SourceAlpha" type="matrix" values="0 0 0 0 0 0 0 0 0 0 0 0 0 0 0 0 0 0 127 0" result="hardAlpha"/>
<feOffset/>
<feGaussianBlur stdDeviation="15"/>
<feComposite in2="hardAlpha" operator="out"/>
<feColorMatrix type="matrix" values="0 0 0 0 1 0 0 0 0 0.501961 0 0 0 0 0.819608 0 0 0 1 0"/>
<feBlend mode="normal" in2="effect5_dropShadow_1_116" result="effect6_dropShadow_1_116"/>
<feColorMatrix in="SourceAlpha" type="matrix" values="0 0 0 0 0 0 0 0 0 0 0 0 0 0 0 0 0 0 127 0" result="hardAlpha"/>
<feOffset/>
<feGaussianBlur stdDeviation="15"/>
<feComposite in2="hardAlpha" operator="out"/>
<feColorMatrix type="matrix" values="0 0 0 0 1 0 0 0 0 0.501961 0 0 0 0 0.819608 0 0 0 1 0"/>
<feBlend mode="normal" in2="effect6_dropShadow_1_116" result="effect7_dropShadow_1_116"/>
<feColorMatrix in="SourceAlpha" type="matrix" values="0 0 0 0 0 0 0 0 0 0 0 0 0 0 0 0 0 0 127 0" result="hardAlpha"/>
<feOffset/>
<feGaussianBlur stdDeviation="15"/>
<feComposite in2="hardAlpha" operator="out"/>
<feColorMatrix type="matrix" values="0 0 0 0 1 0 0 0 0 0.501961 0 0 0 0 0.819608 0 0 0 1 0"/>
<feBlend mode="normal" in2="effect7_dropShadow_1_116" result="effect8_dropShadow_1_116"/>
<feBlend mode="normal" in="SourceGraphic" in2="effect8_dropShadow_1_116" result="shape"/>
</filter>
<filter id="filter1_dddddddd_1_116" x="21.75" y="21.75" width="406.5" height="406.5" filterUnits="userSpaceOnUse" color-interpolation-filters="sRGB">
<feFlood flood-opacity="0" result="BackgroundImageFix"/>
<feColorMatrix in="SourceAlpha" type="matrix" values="0 0 0 0 0 0 0 0 0 0 0 0 0 0 0 0 0 0 127 0" result="hardAlpha"/>
<feOffset/>
<feGaussianBlur stdDeviation="4.25"/>
<feComposite in2="hardAlpha" operator="out"/>
<feColorMatrix type="matrix" values="0 0 0 0 1 0 0 0 0 0.4 0 0 0 0 0.768627 0 0 0 1 0"/>
<feBlend mode="normal" in2="BackgroundImageFix" result="effect1_dropShadow_1_116"/>
<feColorMatrix in="SourceAlpha" type="matrix" values="0 0 0 0 0 0 0 0 0 0 0 0 0 0 0 0 0 0 127 0" result="hardAlpha"/>
<feOffset/>
<feGaussianBlur stdDeviation="4.25"/>
<feComposite in2="hardAlpha" operator="out"/>
<feColorMatrix type="matrix" values="0 0 0 0 1 0 0 0 0 0.4 0 0 0 0 0.768627 0 0 0 1 0"/>
<feBlend mode="normal" in2="effect1_dropShadow_1_116" result="effect2_dropShadow_1_116"/>
<feColorMatrix in="SourceAlpha" type="matrix" values="0 0 0 0 0 0 0 0 0 0 0 0 0 0 0 0 0 0 127 0" result="hardAlpha"/>
<feOffset/>
<feGaussianBlur stdDeviation="4.25"/>
<feComposite in2="hardAlpha" operator="out"/>
<feColorMatrix type="matrix" values="0 0 0 0 1 0 0 0 0 0.4 0 0 0 0 0.768627 0 0 0 1 0"/>
<feBlend mode="normal" in2="effect2_dropShadow_1_116" result="effect3_dropShadow_1_116"/>
<feColorMatrix in="SourceAlpha" type="matrix" values="0 0 0 0 0 0 0 0 0 0 0 0 0 0 0 0 0 0 127 0" result="hardAlpha"/>
<feOffset/>
<feGaussianBlur stdDeviation="4.25"/>
<feComposite in2="hardAlpha" operator="out"/>
<feColorMatrix type="matrix" values="0 0 0 0 1 0 0 0 0 0.4 0 0 0 0 0.768627 0 0 0 1 0"/>
<feBlend mode="normal" in2="effect3_dropShadow_1_116" result="effect4_dropShadow_1_116"/>
<feColorMatrix in="SourceAlpha" type="matrix" values="0 0 0 0 0 0 0 0 0 0 0 0 0 0 0 0 0 0 127 0" result="hardAlpha"/>
<feOffset/>
<feGaussianBlur stdDeviation="4.25"/>
<feComposite in2="hardAlpha" operator="out"/>
<feColorMatrix type="matrix" values="0 0 0 0 1 0 0 0 0 0.4 0 0 0 0 0.768627 0 0 0 1 0"/>
<feBlend mode="normal" in2="effect4_dropShadow_1_116" result="effect5_dropShadow_1_116"/>
<feColorMatrix in="SourceAlpha" type="matrix" values="0 0 0 0 0 0 0 0 0 0 0 0 0 0 0 0 0 0 127 0" result="hardAlpha"/>
<feOffset/>
<feGaussianBlur stdDeviation="4.25"/>
<feComposite in2="hardAlpha" operator="out"/>
<feColorMatrix type="matrix" values="0 0 0 0 1 0 0 0 0 0.4 0 0 0 0 0.768627 0 0 0 1 0"/>
<feBlend mode="normal" in2="effect5_dropShadow_1_116" result="effect6_dropShadow_1_116"/>
<feColorMatrix in="SourceAlpha" type="matrix" values="0 0 0 0 0 0 0 0 0 0 0 0 0 0 0 0 0 0 127 0" result="hardAlpha"/>
<feOffset/>
<feGaussianBlur stdDeviation="4.25"/>
<feComposite in2="hardAlpha" operator="out"/>
<feColorMatrix type="matrix" values="0 0 0 0 1 0 0 0 0 0.4 0 0 0 0 0.768627 0 0 0 1 0"/>
<feBlend mode="normal" in2="effect6_dropShadow_1_116" result="effect7_dropShadow_1_116"/>
<feColorMatrix in="SourceAlpha" type="matrix" values="0 0 0 0 0 0 0 0 0 0 0 0 0 0 0 0 0 0 127 0" result="hardAlpha"/>
<feOffset/>
<feGaussianBlur stdDeviation="4.25"/>
<feComposite in2="hardAlpha" operator="out"/>
<feColorMatrix type="matrix" values="0 0 0 0 1 0 0 0 0 0.4 0 0 0 0 0.768627 0 0 0 1 0"/>
<feBlend mode="normal" in2="effect7_dropShadow_1_116" result="effect8_dropShadow_1_116"/>
<feBlend mode="normal" in="SourceGraphic" in2="effect8_dropShadow_1_116" result="shape"/>
</filter>
<clipPath id="clip0_1_116">
<rect width="450" height="450" fill="white"/>
</clipPath>
</defs>
</svg>
