<svg xmlns="http://www.w3.org/2000/svg" viewBox="0 0 180 180"><title>color-list logo</title><defs><radialGradient id="a" cx="132" cy="188" r="191" gradientUnits="userSpaceOnUse"><stop offset="0" stop-color="#ea0"/><stop offset=".59" stop-color="#19f"/><stop offset="1" stop-color="#f69"/></radialGradient></defs><path fill="url(#a)" d="M155.1 70.9v-54h-4a34.1 34.1 0 0 0-31.4 20.9L102.2 7.5l-3.5 2A34.1 34.1 0 0 0 82 43.3L51.7 25.8l-2 3.5a34.1 34.1 0 0 0 2.4 37.6h-35v4a34 34 0 0 0 34 34h8.1a84 84 0 0 0-32.1 66v4h84a34 34 0 0 0 33.8-30h10.2v-4a43.9 43.9 0 0 0-17.4-35 44.2 44.2 0 0 0 17.4-35zM90.4 89.5a13.9 13.9 0 0 0-6.9-10.7l-5.6-3.2a36 36 0 0 1 20.8 12.2 83.2 83.2 0 0 0-8.3 1.7zm13.6-7.8a14 14 0 0 0-.8-12.5l-3.2-5.5a36.1 36.1 0 0 1 12.2 31.6 44.1 44.1 0 0 0-8.2-13.6zm16 16.1a43.8 43.8 0 0 0-.4-15.7 14 14 0 0 0 5.5-11.2v-6.4a36.1 36.1 0 0 1-5.1 33.3zM99.5 18.7l17.7 30.7v21.5a6 6 0 0 1-.4 2.2 44 44 0 0 0-18.3-20.3l-6.7-3.9a26 26 0 0 1 7.7-30.2zM54.9 36.9l30.7 17.7.7 1.4 10 17.3a6 6 0 0 1 .7 2.1 43.8 43.8 0 0 0-25.9-8.5h-7.7a26 26 0 0 1-8.5-30zm16.2 60h-20a26 26 0 0 1-25.7-22h35.4l1.3.8 17.3 10a6 6 0 0 1 3 6.3 83.4 83.4 0 0 0-11 4.9zm36 70H35.2a76.2 76.2 0 0 1 68.3-71.6 35.8 35.8 0 0 1 3.6 15.6v56zm8-.3v-23.1a13.9 13.9 0 0 0 6 1.4h15.7a26 26 0 0 1-21.7 21.7zm31.8-29.7h-25.8a6 6 0 0 1-6-6v-25.8a36.1 36.1 0 0 1 31.8 31.8zM128 100.2a44.1 44.1 0 0 0 1.2-46l-3.9-6.7a26 26 0 0 1 21.8-22.4v45.8a36.1 36.1 0 0 1-16.8 30.4zm-39.4 16.7a11.5 11.5 0 1 0 11.5 11.5 11.5 11.5 0 0 0-11.5-11.5zm0 15a3.5 3.5 0 1 1 3.5-3.5 3.5 3.5 0 0 1-3.5 3.5z"/></svg>