<svg xmlns="http://www.w3.org/2000/svg" xmlns:xlink="http://www.w3.org/1999/xlink" viewBox="0 0 180 180"><title>color-list logo</title><style>.crest{mix-blend-mode:multiply}</style><defs><path id="crest-feather" d="M70 70H20a30 30 0 0 0 30 30h20a10 10 0 0 1 9.22 6.13A40 40 0 0 1 110 110a40 40 0 0 0-40-40z"/></defs><path class="top-beak" fill="#19F" d="M70 140a40 40 0 0 1 80 0z"/><use class="crest crest__gold" xlink:href="#crest-feather" fill="#ED0"/><use class="crest crest__green" xlink:href="#crest-feather" fill="#6C6" transform="rotate(30 110 110)"><animateTransform attributeName="transform" attributeType="XML" type="rotate" from="0 110 110" to="30 110 110" dur="0.6s" repeatCount="0"/></use><use class="crest crest__blue" xlink:href="#crest-feather" fill="#19F" transform="rotate(60 110 110)"><animateTransform attributeName="transform" attributeType="XML" type="rotate" from="0 110 110" to="60 110 110" dur="0.6s" repeatCount="0"/></use><use class="crest crest__pink" xlink:href="#crest-feather" fill="#F69" transform="rotate(90 110 110)"><animateTransform attributeName="transform" attributeType="XML" type="rotate" from="0 110 110" to="90 110 110" dur="0.6s" repeatCount="0"/></use><path class="head" fill="#F69" d="M30 170h80v-60a39.8 39.8 0 0 0-5.25-19.81A80 80 0 0 0 30 170z"/><circle class="eye" fill="#FFF" cx="87.5" cy="127.25" r="7.5"/><path class="top-beak" fill="#ED0" d="M120 140a10 10 0 0 1-10-10v40a30 30 0 0 0 30-30z"/></svg>