<svg xmlns="http://www.w3.org/2000/svg" viewBox="0 0 180 180" fill="none" stroke="#000" stroke-miterlimit="10" stroke-width="8"><title>color-list logo</title><path d="M113.9 79.2A10 10 0 0 0 120 70V50a30 30 0 0 1 30-30v50a40 40 0 0 1-20 34.6m-9.6-3.3a40 40 0 0 0 4.2-46l-10-17.3-15-26a30 30 0 0 0-11 41l10 17.3a10 10 0 0 1-.7 11m16.1 18.9a40 40 0 0 0-18.6-44.8L78 45.4l-26-15a30 30 0 0 0 11 41l17.3 10a10 10 0 0 1 4.1 12.8M110 110a40 40 0 0 0-40-40H20a30 30 0 0 0 30 30h21.2m33.4-9.9A80 80 0 0 0 30 170h80m0-70v30a10 10 0 0 0 10 10h30a40 40 0 0 0-40-40zm0 30v40a30 30 0 0 0 30-30m-52.5-20a7.5 7.5 0 1 0 7.5 7.5 7.5 7.5 0 0 0-7.5-7.5z"/></svg>