<?xml version="1.0" encoding="utf-8"?>
<!-- Generator: Adobe Illustrator 21.1.0, SVG Export Plug-In . SVG Version: 6.00 Build 0)  -->
<svg version="1.1" id="Layer_1" xmlns="http://www.w3.org/2000/svg" xmlns:xlink="http://www.w3.org/1999/xlink" x="0px" y="0px"
	 viewBox="0 0 180 180" style="enable-background:new 0 0 180 180;" xml:space="preserve">
<style type="text/css">
	.st0{fill:#FF6699;}
	.st1{fill:#EEDD00;}
	.st2{fill:#55AA00;}
	.st3{fill:#1199FF;}
	.st4{fill:#66CC66;}
	.st5{fill:#117766;}
	.st6{fill:#113399;}
	.st7{fill:#FFFFFF;}
</style>
<title>Color Name List</title>
<path class="st0" d="M30,170h80v-60c0-6.9-1.8-13.8-5.2-19.8C62.7,93,30,127.9,30,170z"/>
<path class="st1" d="M80.4,81.3L63,71.3c-0.7-0.4-1.4-0.9-2.1-1.3H20c0,16.6,13.4,30,30,30h20c0.4,0,0.8,0,1.2,0.1
	c4.2-2.4,8.7-4.3,13.3-5.9C86.6,89.5,84.8,83.9,80.4,81.3z M120,140c-5.5,0-10-4.5-10-10v40c16.6,0,30-13.4,30-30l0,0H120z"/>
<path class="st2" d="M70,70h-9.1c0.7,0.5,1.4,0.9,2.1,1.3l17.3,10c4.5,2.6,6.2,8.2,4.1,12.9c6.6-2.2,13.4-3.6,20.3-4
	C97.6,77.7,84.4,70,70,70z"/>
<path class="st3" d="M120,70V50c0-0.8,0-1.7,0.1-2.5l-5.5-9.5l-15-26c-13.5,7.8-18.8,24.7-12.1,38.8l7.8,4.5
	c9.1,5.2,15.7,13.8,18.5,23.9C117.6,77.7,120,74,120,70z"/>
<path class="st4" d="M98.7,70.4L88.7,53c-0.4-0.7-0.8-1.5-1.2-2.2L78,45.4l-26-15c-7.8,13.5-3.9,30.8,8.9,39.6H70
	c10.5,0,20.5,4.1,28,11.4C100.4,78.2,100.7,73.8,98.7,70.4z"/>
<path class="st5" d="M114,100.2c4.6-17.4-3-35.8-18.6-44.8l-7.8-4.5c0.3,0.7,0.7,1.5,1.2,2.2l10,17.3c2,3.5,1.8,7.8-0.7,11.1
	c5.2,5.1,8.9,11.5,10.7,18.6h1.3C111.3,100,112.7,100.1,114,100.2z"/>
<path class="st0" d="M120.1,47.5l4.5,7.8c8.5,14.7,6.8,33.1-4.2,46c3.1,0.8,6.2,2.1,9,3.6c12.7-7,20.6-20.4,20.6-35V20
	C134.4,20,121.4,32,120.1,47.5z"/>
<path class="st3" d="M129.4,105c-5.9,3.3-12.6,5-19.4,5v20c0,5.5,4.5,10,10,10h30C150,125.4,142.1,112,129.4,105z"/>
<path class="st6" d="M110,110c6.8,0,13.4-1.7,19.4-5c-2.8-1.6-5.9-2.8-9-3.6c11-12.9,12.7-31.3,4.2-46l-4.5-7.8
	c-0.1,0.8-0.1,1.7-0.1,2.5v20c0,4-2.4,7.7-6.1,9.2c1.9,6.9,2,14.1,0.2,21c0,0-2.5-0.2-4.1-0.2h-1.3C109.6,103.3,110,106.6,110,110z"
	/>
<circle class="st7" cx="87.5" cy="127.5" r="7.5"/>
</svg>
