<svg xmlns="http://www.w3.org/2000/svg" viewBox="0 0 180 180" fill="none" stroke="#000" stroke-miterlimit="10" stroke-width="8">
  <title>Color Name List</title>
  <path  d="M113.9,79.2A10,10,0,0,0,120,70V50a30,30,0,0,1,30-30V50h0V70a40,40,0,0,1-20,34.6m-9.6-3.3a40,40,0,0,0,4.2-46L114.6,38h0l-15-26a30,30,0,0,0-11,41l10,17.3a10,10,0,0,1-.7,11M114,100.2A40,40,0,0,0,95.4,55.4L78,45.4h0l-26-15a30,30,0,0,0,11,41l17.3,10a10,10,0,0,1,4.1,12.8M110,110A40,40,0,0,0,70,70H20a30,30,0,0,0,30,30H71.2m33.4-9.9A80,80,0,0,0,30,170h80m0-70v30a10,10,0,0,0,10,10h30A40,40,0,0,0,110,100Zm0,30v40a30,30,0,0,0,30-30M87.5,120a7.5,7.5,0,1,0,7.5,7.5A7.5,7.5,0,0,0,87.5,120Z" />
</svg>
